<svg width="32" height="32" fill="none" xmlns="http://www.w3.org/2000/svg"><path fill-rule="evenodd" clip-rule="evenodd" d="M31.111 16c0 8.346-6.765 15.111-15.111 15.111S.889 24.346.889 16 7.654.889 16 .889 31.111 7.654 31.111 16ZM32 16c0 8.837-7.163 16-16 16S0 24.837 0 16 7.163 0 16 0s16 7.163 16 16Zm-1.778 0c0 7.855-6.367 14.222-14.222 14.222-7.855 0-14.222-6.367-14.222-14.222C1.778 8.146 8.145 1.778 16 1.778c7.855 0 14.222 6.367 14.222 14.222Zm-7.757 4.916c-.668 2.92-3.298 5.087-6.424 5.087a6.573 6.573 0 0 1-6.416-5.087.96.96 0 0 1 .724-1.158.971.971 0 0 1 1.16.723 4.626 4.626 0 0 0 4.532 3.596 4.634 4.634 0 0 0 4.54-3.596.965.965 0 0 1 1.16-.72.96.96 0 0 1 .724 1.155Zm-10.02-8.472a1.778 1.778 0 1 1-3.556 0 1.778 1.778 0 0 1 3.555 0Zm1.777 0a3.556 3.556 0 1 1-7.11 0 3.556 3.556 0 0 1 7.11 0Zm7.111 1.778a1.778 1.778 0 1 0 0-3.556 1.778 1.778 0 0 0 0 3.556Zm0 1.778a3.556 3.556 0 1 0 0-7.111 3.556 3.556 0 0 0 0 7.11Z" fill="#0E1012"/></svg>