<svg width="1287" height="622" fill="none" xmlns="http://www.w3.org/2000/svg"><path d="m1020.74 52.85 1.13-.413c-.24-1.237-.2-2.701.16-4.402.72-3.375 3.2-7.334 5.96-9.051l-.42-1.141c-1.6.214-3.3.066-5.06-.428-3.6-.996-6.81-3.272-8.27-5.85l-1.13.413c.26 1.539.14 3.151-.31 4.919-.89 3.497-3.12 6.654-5.89 8.5l.42 1.141c1.65-.234 3.49-.044 5.45.564 3.99 1.224 6.7 3.559 7.96 5.748ZM12.076 523.491l1.125.428c.629-1.092 1.62-2.171 3.002-3.225 2.751-2.081 7.223-3.446 10.432-2.94l.432-1.136c-1.35-.884-2.54-2.109-3.552-3.639-2.067-3.107-3.006-6.93-2.423-9.835l-1.125-.428c-.812 1.332-1.952 2.478-3.45 3.518-2.96 2.064-6.714 2.991-10.017 2.572l-.432 1.136c1.403.905 2.669 2.252 3.753 3.995 2.213 3.533 2.737 7.075 2.255 9.554ZM895.738 616.85l1.13-.413c-.239-1.237-.195-2.701.16-4.402.718-3.375 3.205-7.334 5.963-9.051l-.417-1.141c-1.599.214-3.3.066-5.067-.428-3.597-.996-6.809-3.272-8.269-5.85l-1.13.413c.257 1.539.145 3.151-.307 4.919-.887 3.497-3.118 6.654-5.89 8.5l.417 1.141c1.653-.234 3.491-.044 5.452.564 3.986 1.224 6.7 3.559 7.958 5.748ZM158.164 25.58l1.125.427c.629-1.093 1.621-2.17 3.002-3.225 2.752-2.08 7.223-3.447 10.432-2.94l.432-1.136c-1.35-.884-2.539-2.11-3.551-3.64-2.068-3.106-3.006-6.93-2.424-9.834l-1.125-.428c-.812 1.332-1.952 2.478-3.45 3.518-2.96 2.064-6.714 2.991-10.017 2.572l-.432 1.136c1.403.905 2.669 2.252 3.754 3.995 2.212 3.533 2.736 7.075 2.254 9.554ZM1161.49 176.97l1.17.268c.48-1.168 1.31-2.372 2.53-3.607 2.44-2.44 6.68-4.41 9.93-4.35l.27-1.185c-1.46-.689-2.8-1.739-4.02-3.115-2.47-2.792-3.93-6.449-3.75-9.407l-1.18-.268c-.62 1.431-1.59 2.723-2.93 3.96-2.65 2.452-6.24 3.888-9.57 3.928l-.27 1.185c1.52.702 2.96 1.862 4.27 3.439 2.68 3.195 3.69 6.631 3.55 9.152Z" fill="#0E1012"/><g clip-path="url('#clip0_520_49160')"><path d="m125.708 174.7-18.7 96.121 18.7-96.121ZM125.708 174.7c-1.242 8.071-2.635 16.114-4.08 24.146-.708 4.018-1.472 8.026-2.21 12.04l-2.295 12.023-2.378 12.007-1.223 5.997-.612 2.998-.63 2.995c-1.671 7.989-3.395 15.966-5.272 23.914 1.239-8.073 2.631-16.115 4.077-24.147l.539-3.012.557-3.01 1.114-6.018 2.298-12.023 2.38-12.007c.821-3.997 1.616-7.999 2.465-11.99 1.671-7.987 3.395-15.965 5.27-23.913ZM131.017 173.69l-9.778 94.424 9.778-94.424Z" fill="#000"/><path d="M131.017 173.69c-.494 7.902-1.141 15.788-1.842 23.668-.335 3.941-.727 7.878-1.093 11.817l-1.179 11.807-1.263 11.799-.665 5.895-.335 2.949-.35 2.946c-.929 7.856-1.913 15.708-3.051 23.543.492-7.902 1.138-15.788 1.839-23.668l.26-2.956.277-2.954.557-5.907 1.182-11.808 1.266-11.798c.449-3.93.872-7.862 1.352-11.79.927-7.857 1.909-15.708 3.045-23.543ZM136.327 172.681l-.857 92.728.857-92.728Z" fill="#000"/><path d="M136.327 172.681c.251 7.73.349 15.459.392 23.187.036 3.864.017 7.729.023 11.593l-.063 11.591-.148 11.591-.109 5.795-.056 2.898-.072 2.897c-.186 7.725-.428 15.451-.824 23.176-.252-7.731-.351-15.459-.394-23.187l-.019-2.898-.002-2.898-.002-5.796.066-11.591.149-11.591c.079-3.863.131-7.727.237-11.59.187-7.727.427-15.453.822-23.177ZM141.636 171.671l8.066 91.031-8.066-91.031ZM141.636 171.671c.994 7.558 1.834 15.128 2.621 22.705.407 3.787.76 7.577 1.138 11.367l1.051 11.376.968 11.382.449 5.694.224 2.847.207 2.849c.558 7.596 1.06 15.197 1.409 22.812-.996-7.557-1.836-15.128-2.623-22.704l-.298-2.841-.281-2.843-.559-5.684-1.049-11.376-.965-11.383c-.294-3.797-.614-7.591-.878-11.39-.56-7.596-1.064-15.196-1.414-22.811ZM146.945 170.661c1.733 7.384 3.314 14.798 4.843 22.22.778 3.709 1.502 7.428 2.25 11.143l2.166 11.158 2.082 11.174 1.008 5.594.502 2.797.486 2.8c1.303 7.465 2.553 14.941 3.65 22.447-1.735-7.383-3.318-14.797-4.845-22.22l-.576-2.783-.559-2.786-1.116-5.573-2.164-11.159-2.082-11.174c-.665-3.73-1.358-7.455-1.996-11.191-1.3-7.466-2.55-14.943-3.649-22.447ZM152.254 169.652l25.91 87.638-25.91-87.638Z" fill="#000"/><path d="M152.254 169.652c2.468 7.212 4.791 14.468 7.059 21.738 1.149 3.631 2.244 7.278 3.364 10.918l3.28 10.942 3.2 10.967 1.567 5.493.781 2.747.766 2.752c2.049 7.335 4.046 14.687 5.893 22.083-2.47-7.212-4.792-14.466-7.061-21.738l-.853-2.726-.838-2.73-1.672-5.462-3.277-10.943-3.198-10.967c-1.039-3.664-2.104-7.32-3.114-10.992-2.05-7.336-4.047-14.687-5.897-22.082ZM157.563 168.643l34.832 85.941-34.832-85.941ZM157.563 168.643c3.202 7.04 6.261 14.138 9.27 21.258 1.519 3.554 2.985 7.129 4.474 10.693l4.394 10.727 4.316 10.759 2.126 5.392 1.061 2.696 1.046 2.703c2.797 7.204 5.543 14.43 8.144 21.713-3.204-7.04-6.263-14.138-9.273-21.256l-1.13-2.669-1.116-2.675-2.228-5.35-4.392-10.727-4.313-10.759c-1.413-3.597-2.849-7.183-4.234-10.792-2.795-7.205-5.54-14.431-8.145-21.713ZM162.873 167.633l43.753 84.245-43.753-84.245ZM162.873 167.633c3.933 6.872 7.729 13.815 11.477 20.782 1.887 3.477 3.724 6.98 5.585 10.471l5.508 10.51 5.433 10.55 2.685 5.29 1.342 2.646 1.327 2.654c3.544 7.073 7.04 14.172 10.398 21.342-3.935-6.871-7.732-13.814-11.479-20.781l-1.408-2.612-1.393-2.619-2.784-5.24-5.506-10.512-5.43-10.55c-1.786-3.53-3.595-7.048-5.354-10.59-3.545-7.074-7.042-14.172-10.401-21.341ZM168.182 166.623l52.676 82.548-52.676-82.548Z" fill="#000"/><path d="M168.182 166.623c4.663 6.705 9.193 13.494 13.681 20.311 2.255 3.401 4.463 6.831 6.694 10.248l6.621 10.296 6.551 10.34 3.245 5.189 1.621 2.595 1.607 2.605c4.293 6.94 8.54 13.91 12.656 20.964-4.664-6.704-9.197-13.492-13.682-20.309l-1.685-2.555-1.67-2.564-3.338-5.129-6.619-10.297-6.548-10.341c-2.159-3.463-4.34-6.91-6.474-10.389-4.295-6.942-8.542-13.912-12.66-20.964Z" fill="#000"/><path d="m103.301 114.868 33.511-6.372.658-.125 33.511-6.373c-20.075-21.828-56.462-16.246-67.68 12.87Z" fill="#fff"/><path d="m172.123 102.377-69.746 13.263.378-.981c.083-.218 2.099-5.376 6.846-11.169 12.779-15.599 32.735-20.136 51.341-9.763 6.542 3.647 10.31 7.705 10.468 7.876l.713.774Zm-67.846 11.71 65.508-12.457c-1.41-1.352-4.714-4.268-9.448-6.902-16.948-9.428-36.579-6.644-49.805 9.471-3.436 4.187-5.439 8.113-6.255 9.888Z" fill="#000"/><path d="m171.96 102.322-69.452 13.207.325-.842c.084-.216 2.095-5.363 6.833-11.146 12.869-15.706 32.819-20.01 51.236-9.743 6.531 3.641 10.29 7.69 10.447 7.86l.611.664Zm-67.823 11.876 65.82-12.516c-21.235-20.44-53.114-15.329-65.82 12.516Z" fill="#fff"/><path d="m173.103 102.7-71.519 13.6.703-1.824c.085-.22 2.133-5.456 6.927-11.306 13.266-16.19 33.609-20.12 51.973-9.883 6.623 3.693 10.435 7.802 10.593 7.976l1.323 1.437Zm-67.938 10.707 63.545-12.084c-21.331-19.103-50.505-13.968-63.545 12.084Z" fill="#000"/><path d="M102.627 116.697s7.966-10.024 34.25-15.022c26.282-4.998 36.058 1.653 36.058 1.653l-70.308 13.369Z" fill="#000"/><path d="M211.443 102.078c-20.496-.787-47.083 1.688-74.866 6.971s-53.424 12.74-72.2 20.995c-18.304 8.048-28.14 16.143-26.987 22.207 1.153 6.064 13.275 9.982 33.255 10.751 20.495.788 47.083-1.687 74.866-6.97 27.783-5.283 53.423-12.74 72.199-20.995 18.305-8.049 28.141-16.143 26.988-22.207-1.154-6.064-13.274-9.984-33.255-10.752Z" fill="#fff"/><path d="M211.482 101.077c-20.569-.791-47.237 1.691-75.091 6.988-27.855 5.296-53.573 12.776-72.416 21.062-19.046 8.373-28.836 16.653-27.57 23.313 1.266 6.659 13.412 10.766 34.202 11.565 20.57.79 47.237-1.691 75.092-6.988 27.855-5.297 53.573-12.777 72.415-21.062 19.046-8.374 28.836-16.654 27.57-23.312-1.266-6.659-13.413-10.766-34.202-11.566Zm6.228 33.959c-18.776 8.256-44.416 15.712-72.199 20.996-27.783 5.283-54.37 7.758-74.866 6.97-19.981-.767-32.102-4.686-33.255-10.75-1.153-6.064 8.684-14.158 26.988-22.207 18.775-8.255 44.416-15.712 72.199-20.995 27.783-5.283 54.371-7.758 74.866-6.971 19.981.768 32.102 4.688 33.255 10.752 1.153 6.064-8.683 14.157-26.988 22.205Z" fill="#fff"/><path d="M145.808 157.592c-27.897 5.305-54.613 7.79-75.224 6.997-10.402-.399-18.676-1.616-24.588-3.616-6.073-2.054-9.494-4.888-10.167-8.425-.672-3.536 1.47-7.429 6.365-11.569 4.766-4.03 12.015-8.198 21.544-12.389 18.882-8.303 44.645-15.797 72.542-21.101 27.897-5.305 54.612-7.79 75.224-6.998 10.402.4 18.675 1.616 24.587 3.616 6.074 2.054 9.495 4.889 10.168 8.426.672 3.537-1.47 7.429-6.366 11.569-4.766 4.029-12.014 8.197-21.543 12.388-18.883 8.303-44.646 15.797-72.542 21.102Zm-9.122-47.967c-27.74 5.275-53.336 12.718-72.073 20.956-9.06 3.984-16.01 7.941-20.654 11.764-4.445 3.658-6.518 7.046-5.994 9.799.523 2.751 3.696 5.143 9.171 6.913 5.724 1.85 13.64 2.981 23.531 3.362 20.453.786 46.994-1.686 74.735-6.961s53.335-12.717 72.073-20.956l.235.535-.235-.535c9.061-3.984 16.01-7.941 20.654-11.764 4.445-3.658 6.518-7.046 5.995-9.797-.524-2.753-3.696-5.144-9.172-6.915-5.724-1.85-13.641-2.982-23.531-3.362-20.453-.787-46.995 1.686-74.735 6.961Z" fill="#000"/><path d="M146.396 160.685c47.013-8.94 83.456-24.964 81.397-35.79-2.059-10.827-41.839-12.356-88.852-3.416-47.013 8.94-83.456 24.964-81.397 35.79 2.059 10.827 41.84 12.356 88.852 3.416Z" fill="#000"/><path d="M146.49 161.177c-22.774 4.331-44.579 6.36-61.398 5.713-17.039-.655-26.998-4.039-28.041-9.528-1.044-5.488 6.978-12.291 22.587-19.155 15.407-6.774 36.436-12.89 59.209-17.22 22.773-4.331 44.579-6.36 61.397-5.713 17.039.655 26.998 4.039 28.042 9.528 1.044 5.489-6.978 12.291-22.588 19.155-15.407 6.775-36.435 12.89-59.208 17.22Zm-7.456-39.205c-22.701 4.317-43.652 10.409-58.992 17.154-14.918 6.56-22.94 13.139-22.006 18.049.934 4.91 10.81 8.087 27.095 8.712 16.745.645 38.47-1.378 61.171-5.695 22.702-4.317 43.652-10.409 58.992-17.154 14.918-6.56 22.94-13.139 22.006-18.049-.933-4.91-10.809-8.087-27.095-8.712-16.745-.645-38.469 1.378-61.171 5.695Z" fill="#fff"/><path d="M147.151 164.657c44.454-8.453 78.913-23.605 76.967-33.842-1.947-10.238-39.562-11.684-84.017-3.231-44.454 8.454-78.913 23.606-76.966 33.843 1.946 10.237 39.562 11.683 84.016 3.23Z" fill="#000"/><path d="M147.307 165.478c-21.56 4.1-42.207 6.02-58.137 5.408-11.529-.443-25.548-2.416-26.857-9.302-1.31-6.886 11.006-13.867 21.568-18.512 14.593-6.416 34.504-12.208 56.064-16.308 21.561-4.1 42.208-6.02 58.137-5.408 11.53.443 25.548 2.417 26.858 9.303 1.309 6.886-11.006 13.866-21.569 18.511-14.592 6.416-34.503 12.208-56.064 16.308Zm-7.05-37.073c-47.657 9.063-77.929 24.31-76.302 32.865 1.627 8.555 35.383 11.628 83.04 2.565 47.657-9.062 77.929-24.31 76.302-32.864-1.626-8.555-35.382-11.628-83.04-2.566Z" fill="#fff"/><path d="M147.219 165.012c-17.206 3.272-33.676 4.804-46.377 4.316-12.757-.491-20.204-2.977-20.969-7.001-.765-4.024 5.25-9.069 16.936-14.208 11.636-5.116 27.52-9.736 44.724-13.008 17.204-3.271 33.676-4.804 46.377-4.316 12.757.491 20.203 2.977 20.969 7.001.765 4.024-5.25 9.069-16.936 14.208-11.635 5.116-27.518 9.736-44.724 13.008Zm-5.638-29.651c-35.431 6.738-63.001 18.814-61.46 26.92 1.541 8.107 31.621 9.221 67.051 2.483 35.43-6.737 63.001-18.813 61.459-26.92-1.541-8.106-31.62-9.22-67.05-2.483Z" fill="#000"/><path d="M147.313 165.505c-17.242 3.279-33.753 4.815-46.491 4.325-13.203-.508-20.618-3.07-21.443-7.408-.825-4.339 5.132-9.444 17.227-14.762 11.669-5.13 27.592-9.763 44.833-13.041 17.242-3.279 33.753-4.815 46.49-4.325 13.203.508 20.617 3.07 21.442 7.408.825 4.339-5.131 9.444-17.227 14.762-11.667 5.131-27.59 9.762-44.831 13.041Zm-5.639-29.651c-34.562 6.573-62.525 18.631-61.06 26.334 1.464 7.702 31.9 8.657 66.464 2.084 34.562-6.572 62.525-18.632 61.061-26.334-1.465-7.703-31.902-8.656-66.465-2.084Z" fill="#fff"/><path d="M142.653 139.205c-28.125 5.348-49.79 15.644-48.393 22.995.068.358.191.701.363 1.031a1.478 1.478 0 0 0-.154.065s9.219 15.156 26.273 17.472c8.356 1.134 24.908-1.333 29.288-2.166 4.162-.791 21.027-3.998 28.04-8.736 12.102-8.177 16.853-20.782 17.791-24.778.295-.775.385-1.529.247-2.254-1.398-7.353-25.332-8.977-53.455-3.629Z" fill="#fff"/><path d="M150.124 179.095c-3.754.714-20.796 3.344-29.45 2.169-15.766-2.14-25.027-15.267-26.444-17.412l-.116.022-.128-.439a.459.459 0 0 1 .02-.343 4.126 4.126 0 0 1-.239-.798c-1.472-7.741 19.961-18.099 48.792-23.581 28.831-5.483 52.57-3.714 54.042 4.026.15.794.064 1.634-.26 2.496-1.261 5.326-6.628 17.369-17.99 25.046-3.239 2.189-10.764 5.493-28.227 8.814Zm-54.9-15.561c1.775 2.619 10.715 14.718 25.586 16.736 8.52 1.157 25.405-1.452 29.128-2.16 17.295-3.289 24.692-6.525 27.851-8.66 11.128-7.518 16.368-19.298 17.583-24.476l.02-.064c.265-.698.341-1.364.223-1.983-1.321-6.948-25.531-8.428-52.869-3.229-27.336 5.198-49.315 15.46-47.993 22.409.057.302.163.602.315.893l.258.493-.102.041Z" fill="#fff"/><path d="M150.233 179.67c-3.773.717-20.907 3.36-29.638 2.174-15.298-2.076-24.465-14.16-26.637-17.345l-.258.049-.277-.949a1.088 1.088 0 0 1-.035-.479 4.772 4.772 0 0 1-.196-.717c-.4-2.102.65-4.36 3.119-6.712 2.285-2.178 5.729-4.385 10.232-6.562 9.16-4.428 21.912-8.331 35.905-10.992 13.994-2.661 27.287-3.71 37.434-2.954 4.988.371 9.001 1.161 11.926 2.348 3.16 1.28 4.966 2.997 5.365 5.099.169.888.078 1.822-.272 2.774-1.291 5.403-6.743 17.604-18.224 25.362-3.282 2.22-10.883 5.565-28.444 8.904Zm-54.107-15.864c2.41 3.361 11.049 14.025 24.762 15.886 8.443 1.145 25.236-1.452 28.939-2.156 17.197-3.27 24.52-6.465 27.634-8.569 10.978-7.417 16.145-19.024 17.342-24.126l.042-.138c.226-.595.292-1.155.195-1.665-.576-3.028-6.459-5.104-16.139-5.695-10.07-.614-22.871.426-36.045 2.931-13.176 2.505-25.465 6.235-34.605 10.504-8.788 4.103-13.498 8.193-12.922 11.221.047.246.133.492.26.732l.558 1.068-.02.007Z" fill="#000"/><path d="M183.184 163.789c.955 5.021-13.89 11.379-33.002 15.013-19.112 3.634-35.254 3.168-36.209-1.851-.954-5.02 13.765-12.036 32.877-15.67 19.112-3.635 35.38-2.511 36.334 2.508Z" fill="#000"/><path d="M150.275 179.295c-9.452 1.797-18.341 2.623-25.031 2.328-7.188-.318-11.257-1.902-11.766-4.578-1.141-5.999 16.024-12.976 33.278-16.257 17.252-3.28 35.78-3.089 36.92 2.908.509 2.677-2.694 5.643-9.264 8.577-6.114 2.73-14.685 5.225-24.137 7.022Zm-3.332-17.523c-20.406 3.881-33.268 10.932-32.479 15.084.847 4.452 16.494 5.09 35.623 1.452 19.129-3.637 33.45-9.973 32.604-14.426-.789-4.152-15.342-5.99-35.748-2.11Z" fill="#fff"/><path d="M150.384 179.87c-9.494 1.805-18.431 2.635-25.165 2.338-7.598-.337-11.742-2.037-12.315-5.054-.589-3.097 2.893-6.482 10.07-9.787 6.23-2.87 14.858-5.477 23.672-7.153 8.815-1.676 17.797-2.418 24.645-2.035 7.89.44 12.372 2.311 12.961 5.408.573 3.018-2.656 6.119-9.6 9.221-6.155 2.748-14.774 5.256-24.268 7.062Zm-3.332-17.522c-9.401 1.788-17.939 4.413-24.041 7.391-6.277 3.065-8.234 5.63-7.972 7.008.676 3.556 14.876 4.802 34.939.987 20.063-3.815 32.815-10.185 32.138-13.742-.262-1.379-3.024-3.046-9.988-3.593-6.769-.531-15.673.161-25.076 1.949Z" fill="#000"/><path d="M171.934 165.909c.585 3.074-9.476 7.154-22.376 9.607-12.901 2.453-23.757 2.351-24.342-.724-.584-3.074 9.4-7.556 22.301-10.009 12.9-2.453 23.833-1.949 24.417 1.126Z" fill="#fff"/><path d="M149.65 176.009c-11.488 2.185-24.188 2.766-24.927-1.122-.749-3.937 11.136-8.398 22.699-10.596 11.562-2.199 24.255-2.412 25.004 1.524.74 3.887-11.288 8.009-22.776 10.194Zm-2.041-10.733c-13.476 2.563-22.358 7.022-21.901 9.423.427 2.247 9.631 3.01 23.755.325 14.123-2.686 22.405-6.773 21.977-9.021-.455-2.401-10.355-3.29-23.831-.727ZM194.751 102.103c-1.245.045-2.504.099-3.776.162-.424 6.007-3.354 15.632-3.354 15.632l2.919 1.034c2.59-5.394 3.752-12.902 4.211-16.828ZM224.757 123.43l1.469 4.145c8.276-1.871 16.578-11.815 18.534-14.284a5.195 5.195 0 0 0-.062-.463c-.264-1.392-1.114-2.67-2.498-3.824-5.518 8.835-17.443 14.426-17.443 14.426ZM205.629 101.945c-2.51-.021-5.099.002-7.755.065-.494 6.466-3.168 15.561-3.168 15.561l6.43-.201c2.394-4.371 3.821-11.359 4.493-15.425ZM240.663 107.91a21.148 21.148 0 0 0-2.923-1.476c-2.836 3.08-10.136 10.576-16.957 14.009l2.408 1.925c.001-.002 13.494-7.969 17.472-14.458ZM235.006 105.43c-5.664-1.811-13.644-2.969-23.563-3.35-.725-.028-1.459-.051-2.198-.071-.934 5.312-2.763 12.845-5.95 15.971l15.002 1.913c0-.001 10.702-7.58 16.709-14.463Z" fill="#000"/><path d="m193.742 101.754-14.831.778 12.781.973-13.392 1.185 13.109.911-13.719 1.248 13.109.911-13.987 1.639 13.642.129-14.58 2.091 14.298.006-15.566 2.279 15.018.207-16.02 1.685 16.52.944 3.618-14.986ZM170.98 101.997l-19.178-4.182 15.534 1.13-17.02-3.572 14.877 1.256-15.704-3.821 9.964.488-11.388-2.6 7.541.267 7.179 3.741 8.195 7.293ZM183.993 161.478s8.888-10.541 10.769-22.133l-3.002-1.471s-4.026 16.425-9.847 21.617l2.08 1.987ZM189.085 136.342s-3.228 15.251-9.394 22.211l-8.384-1.129s7.028-14.953 6.718-23.745l11.06 2.663ZM174.99 135.618s-1.896 13.297-5.904 20.867c0 0-6.82-.065-11.42.809l10.451-2.327-10.825.357 11.436-2.515-11.607-.176 12.485-2.374-12.922.074 14.127-2.686-15.018-.208 15.3-1.889-15.8-.741 17.005-1.871-18.224-.959 19.102-1.591-18.882-.834 19.492-1.324-19.334-1.429 20.538-1.183ZM79.75 123.971c1.174-.416 2.366-.827 3.572-1.236 2.6 5.433 8.858 13.31 8.858 13.31l-2.336 2.034c-4.39-4.068-8.227-10.624-10.094-14.108ZM59.665 154.824l.155 4.395c-8.385 1.297-19.757-4.905-22.483-6.484-.042-.15-.084-.3-.113-.453-.264-1.393.057-2.893.92-4.474 8.377 6.192 21.521 7.016 21.521 7.016ZM69.572 127.817c2.327-.941 4.744-1.87 7.237-2.785 2.834 5.833 8.659 13.312 8.659 13.312l-6.055 2.172c-3.83-3.187-7.722-9.164-9.841-12.699ZM39.172 146.224a21.166 21.166 0 0 1 2.178-2.445c3.768 1.824 13.311 6.117 20.915 6.806l-1.534 2.675c-.001-.001-15.475-2.461-21.559-7.036ZM43.525 141.842c4.604-3.764 11.602-7.77 20.688-11.765.665-.292 1.339-.583 2.019-.873 2.819 4.598 7.285 10.934 11.397 12.672l-13.253 7.287c0-.002-12.736-3.123-20.851-7.321Z" fill="#000"/><path d="m80.56 123.275 14.081-4.719-11.532 5.597 12.892-3.814-11.86 5.659 13.22-3.875-11.86 5.66 13.612-3.61-12.642 5.127 14.332-3.406-13.3 5.253 15.317-3.594-13.894 5.705 15.52-4.312-15.02 6.941-8.867-12.612ZM103.464 114.835l16.305-10.929-14.035 6.754 14.521-9.571-13.378 6.629 13.207-9.32-9.09 4.112 9.638-6.598-6.915 3.017-5.305 6.114-4.948 9.792ZM97.587 153.74s8.6 13.003 16.89 17.214l7.385-4.128s-12.026-11.33-14.965-19.622l-9.31 6.536ZM110.432 147.894s6.644 11.672 13.151 17.243c0 0 6.32-2.564 10.92-3.439l-10.575 1.671 10.2-3.642-11.562 1.859 10.733-4.424-12.483 2.374 12.047-4.674-14.127 2.687 13.893-5.706-14.925 3.859 14.425-6.489-16.505 4.501 16.6-7.581-18.351 5.531 17.258-7.707-18.618 5.924 17.461-8.426-19.542 6.439Z" fill="#000"/><path d="M137.213 126.119a3.566 3.566 0 1 1 7.009-1.332 3.567 3.567 0 0 1-7.009 1.332Z" fill="#fff"/><path d="M141.477 129.451a4.074 4.074 0 0 1-4.757-3.237 4.073 4.073 0 0 1 3.237-4.757 4.073 4.073 0 0 1 4.757 3.237 4.071 4.071 0 0 1-3.237 4.757Zm-1.333-7.009a3.07 3.07 0 0 0-2.438 3.584 3.068 3.068 0 0 0 3.584 2.439 3.068 3.068 0 0 0 2.439-3.584 3.07 3.07 0 0 0-3.585-2.439Z" fill="#000"/><path d="M139.038 127.362a2.007 2.007 0 1 1 3.942-.75 2.007 2.007 0 0 1-3.942.75Z" fill="#000"/><path d="M161.609 121.934a3.565 3.565 0 0 1 2.837-4.171 3.567 3.567 0 1 1-2.837 4.171Z" fill="#fff"/><path d="M165.873 125.265a4.073 4.073 0 0 1-4.757-3.237 4.073 4.073 0 0 1 3.237-4.757 4.074 4.074 0 0 1 4.757 3.237 4.074 4.074 0 0 1-3.237 4.757Zm-1.333-7.008a3.068 3.068 0 0 0-2.439 3.584 3.069 3.069 0 0 0 3.584 2.439 3.069 3.069 0 0 0 2.439-3.585 3.068 3.068 0 0 0-3.584-2.438Z" fill="#000"/><path d="M163.434 123.177a2.007 2.007 0 1 1 3.944-.75 2.007 2.007 0 0 1-3.944.75Z" fill="#000"/><path d="M183.532 120.262a3.567 3.567 0 1 1 7.008-1.334 3.567 3.567 0 0 1-7.008 1.334Z" fill="#fff"/><path d="M187.796 123.593a4.074 4.074 0 0 1-4.757-3.237 4.074 4.074 0 0 1 3.237-4.757 4.073 4.073 0 0 1 4.757 3.237 4.074 4.074 0 0 1-3.237 4.757Zm-1.333-7.01a3.07 3.07 0 0 0-2.439 3.585 3.069 3.069 0 0 0 3.584 2.439 3.069 3.069 0 0 0 2.439-3.585 3.07 3.07 0 0 0-3.584-2.439Z" fill="#000"/><path d="M185.355 121.505a2.007 2.007 0 1 1 3.944-.75 2.007 2.007 0 0 1-3.944.75Z" fill="#000"/><path d="M201.761 120.655a3.567 3.567 0 1 1 7.008-1.334 3.567 3.567 0 0 1-7.008 1.334Z" fill="#fff"/><path d="M206.027 123.986a4.073 4.073 0 0 1-4.757-3.237 4.072 4.072 0 0 1 3.236-4.757 4.073 4.073 0 0 1 4.757 3.237 4.074 4.074 0 0 1-3.236 4.757Zm-1.333-7.01a3.068 3.068 0 0 0-2.439 3.584 3.068 3.068 0 0 0 3.584 2.439 3.068 3.068 0 0 0 2.439-3.584 3.07 3.07 0 0 0-3.584-2.439Z" fill="#000"/><path d="M203.586 121.896a2.007 2.007 0 1 1 3.943-.75 2.007 2.007 0 0 1-3.943.75Z" fill="#000"/><path d="M214.244 123.047a3.567 3.567 0 1 1 7.01-1.33 3.567 3.567 0 0 1-7.01 1.33Z" fill="#fff"/><path d="M218.509 126.378a4.072 4.072 0 0 1-4.757-3.237 4.075 4.075 0 0 1 3.237-4.757 4.073 4.073 0 0 1 4.757 3.237 4.073 4.073 0 0 1-3.237 4.757Zm-1.333-7.009a3.068 3.068 0 0 0-2.438 3.584 3.069 3.069 0 0 0 3.584 2.439 3.07 3.07 0 0 0 2.439-3.585 3.07 3.07 0 0 0-3.585-2.438Z" fill="#000"/><path d="M218.416 125.885a2.007 2.007 0 1 0-.75-3.944 2.007 2.007 0 0 0 .75 3.944Z" fill="#000"/><path d="M223.035 129.885a3.233 3.233 0 1 1 6.352-1.208 3.233 3.233 0 0 1-6.352 1.208Z" fill="#fff"/><path d="M226.907 132.951a3.74 3.74 0 0 1-4.366-2.972 3.738 3.738 0 0 1 2.971-4.366 3.738 3.738 0 0 1 4.366 2.971 3.738 3.738 0 0 1-2.971 4.367Zm-1.208-6.353a2.734 2.734 0 0 0-2.173 3.193 2.734 2.734 0 0 0 3.194 2.173 2.735 2.735 0 0 0 2.173-3.194 2.734 2.734 0 0 0-3.194-2.172Z" fill="#000"/><path d="M224.688 131.011a1.818 1.818 0 1 1 3.572-.68 1.818 1.818 0 0 1-3.572.68Z" fill="#000"/><path d="M118.35 130.16a3.566 3.566 0 1 0-7.007 1.33 3.566 3.566 0 0 0 7.007-1.33Z" fill="#fff"/><path d="M115.606 134.824a4.074 4.074 0 0 1-4.757-3.237 4.073 4.073 0 0 1 3.237-4.757 4.073 4.073 0 0 1 4.757 3.237 4.073 4.073 0 0 1-3.237 4.757Zm-1.333-7.009a3.07 3.07 0 0 0-2.439 3.584 3.07 3.07 0 0 0 3.585 2.439 3.07 3.07 0 0 0 2.439-3.584 3.069 3.069 0 0 0-3.585-2.439Z" fill="#000"/><path d="M117.109 131.986a2.007 2.007 0 1 0-3.943.749 2.007 2.007 0 0 0 3.943-.749Z" fill="#000"/><path d="M97.345 136.652a3.567 3.567 0 1 0-7.009 1.333 3.567 3.567 0 0 0 7.009-1.333Z" fill="#fff"/><path d="M94.6 141.316a4.074 4.074 0 0 1-4.758-3.237 4.073 4.073 0 0 1 3.237-4.757 4.074 4.074 0 0 1 4.757 3.237 4.072 4.072 0 0 1-3.237 4.757Zm-1.334-7.01a3.07 3.07 0 0 0-2.439 3.584 3.069 3.069 0 0 0 3.585 2.439 3.069 3.069 0 0 0 2.439-3.584 3.068 3.068 0 0 0-3.585-2.439Z" fill="#000"/><path d="M96.103 138.476a2.007 2.007 0 1 0-3.943.749 2.007 2.007 0 0 0 3.943-.749Z" fill="#000"/><path d="M80.53 143.707a3.566 3.566 0 1 0-7.007 1.331 3.566 3.566 0 0 0 7.007-1.331Z" fill="#fff"/><path d="M77.786 148.371a4.074 4.074 0 0 1-4.757-3.237 4.073 4.073 0 0 1 3.237-4.757 4.073 4.073 0 0 1 4.757 3.237 4.074 4.074 0 0 1-3.237 4.757Zm-1.333-7.01a3.068 3.068 0 0 0-2.439 3.584 3.069 3.069 0 0 0 3.585 2.439 3.07 3.07 0 0 0 2.438-3.584 3.07 3.07 0 0 0-3.584-2.439Z" fill="#000"/><path d="M79.288 145.532a2.006 2.006 0 0 0-2.347-1.596 2.006 2.006 0 1 0 .75 3.942 2.006 2.006 0 0 0 1.597-2.346Z" fill="#000"/><path d="M69.796 150.515a3.567 3.567 0 1 0-7.009 1.332 3.567 3.567 0 0 0 7.01-1.332Z" fill="#fff"/><path d="M67.052 155.179a4.073 4.073 0 0 1-4.757-3.237 4.074 4.074 0 0 1 3.237-4.757 4.074 4.074 0 0 1 4.757 3.237 4.074 4.074 0 0 1-3.237 4.757Zm-1.333-7.01a3.07 3.07 0 0 0-2.438 3.585 3.07 3.07 0 0 0 3.584 2.439 3.07 3.07 0 0 0 2.439-3.585 3.07 3.07 0 0 0-3.585-2.439Z" fill="#000"/><path d="M68.555 152.339a2.008 2.008 0 1 0-3.945.751 2.008 2.008 0 0 0 3.945-.751Z" fill="#000"/><path d="M64.131 160.101a3.233 3.233 0 1 0-6.352 1.208 3.233 3.233 0 0 0 6.352-1.208Z" fill="#fff"/><path d="M61.652 164.374a3.738 3.738 0 0 1-4.366-2.971 3.739 3.739 0 0 1 2.971-4.366 3.739 3.739 0 0 1 4.367 2.971 3.738 3.738 0 0 1-2.972 4.366Zm-1.208-6.352a2.733 2.733 0 0 0-2.172 3.192 2.734 2.734 0 0 0 3.193 2.174 2.735 2.735 0 0 0 2.173-3.194 2.735 2.735 0 0 0-3.194-2.172Z" fill="#000"/><path d="M63.005 161.755a1.818 1.818 0 1 0-3.572.68 1.818 1.818 0 0 0 3.572-.68ZM111.55 175.254s-12.138-6.543-18.142-16.635l2.253-2.47s9.774 13.8 17.094 16.493l-1.205 2.612Z" fill="#000"/></g><g clip-path="url('#clip1_520_49160')"><path d="m1151.09 415.416 7.27 97.652-7.27-97.652ZM1151.09 415.416c.28 8.161.72 16.312 1.21 24.458.23 4.074.52 8.144.78 12.216l.86 12.21.95 12.203.52 6.099.25 3.05.27 3.048c.72 8.13 1.5 16.254 2.43 24.367-.28-8.162-.72-16.312-1.21-24.458l-.18-3.055-.2-3.054-.4-6.108-.87-12.209-.95-12.204c-.35-4.066-.67-8.133-1.04-12.197-.72-8.127-1.5-16.253-2.42-24.366ZM1145.93 413.79l-1.39 94.919 1.39-94.919ZM1145.93 413.79c-.44 7.906-.72 15.813-.95 23.721-.13 3.953-.2 7.908-.3 11.863l-.22 11.864-.13 11.866-.04 5.932-.01 2.968v2.966c0 7.912.05 15.825.26 23.739.44-7.905.73-15.812.96-23.72l.09-2.966.07-2.966.14-5.932.22-11.864.13-11.865c.01-3.957.05-7.911.04-11.868 0-7.912-.05-15.823-.26-23.738ZM1140.78 412.162l-10.05 92.186 10.05-92.186Z" fill="#000"/><path d="M1140.78 412.162c-1.16 7.646-2.17 15.311-3.12 22.981-.49 3.833-.92 7.672-1.38 11.509l-1.3 11.519-1.22 11.527-.57 5.768-.29 2.884-.26 2.885c-.73 7.694-1.4 15.395-1.91 23.113 1.16-7.648 2.17-15.311 3.12-22.98l.36-2.876.34-2.877.68-5.756 1.3-11.519 1.21-11.528c.38-3.845.78-7.688 1.13-11.537.72-7.695 1.39-15.396 1.91-23.113ZM1135.62 410.536l-18.7 89.452 18.7-89.452ZM1135.62 410.536c-1.87 7.389-3.6 14.808-5.27 22.24-.85 3.713-1.64 7.436-2.46 11.155l-2.38 11.173-2.3 11.19-1.12 5.601-.55 2.802-.55 2.804c-1.44 7.478-2.83 14.967-4.08 22.489 1.88-7.388 3.61-14.807 5.28-22.239l.63-2.786.61-2.79 1.22-5.579 2.38-11.174 2.3-11.19c.74-3.737 1.5-7.467 2.21-11.209 1.45-7.477 2.84-14.966 4.08-22.487ZM1130.47 408.909c-2.59 7.13-5.03 14.306-7.42 21.498-1.21 3.592-2.36 7.2-3.54 10.8l-3.47 10.827-3.38 10.852-1.66 5.437-.82 2.718-.82 2.723c-2.17 7.261-4.29 14.538-6.26 21.863 2.59-7.128 5.04-14.304 7.43-21.496l.89-2.696.89-2.701 1.76-5.404 3.46-10.827 3.38-10.852c1.1-3.626 2.23-7.244 3.3-10.878 2.17-7.262 4.29-14.54 6.26-21.864ZM1125.32 407.283l-36.03 83.985 36.03-83.985ZM1125.32 407.283c-3.3 6.872-6.46 13.804-9.57 20.757-1.57 3.471-3.08 6.964-4.62 10.447l-4.55 10.481-4.46 10.515-2.2 5.271-1.1 2.636-1.09 2.643c-2.89 7.044-5.74 14.11-8.44 21.237 3.3-6.872 6.46-13.802 9.56-20.757l1.17-2.607 1.15-2.613 2.31-5.227 4.54-10.482 4.46-10.515c1.46-3.517 2.95-7.022 4.39-10.55 2.89-7.045 5.74-14.11 8.45-21.236ZM1120.16 405.656l-44.69 81.252 44.69-81.252ZM1120.16 405.656c-4 6.615-7.88 13.305-11.7 20.022-1.93 3.35-3.8 6.729-5.7 10.093l-5.62 10.137-5.56 10.176-2.74 5.105-1.37 2.553-1.36 2.56c-3.62 6.827-7.2 13.68-10.64 20.606 4.01-6.614 7.88-13.304 11.71-20.019l1.44-2.517 1.42-2.525 2.84-5.052 5.62-10.136 5.55-10.178c1.83-3.406 3.67-6.798 5.47-10.219 3.63-6.827 7.2-13.68 10.64-20.606ZM1115.01 404.029l-53.35 78.519 53.35-78.519ZM1115.01 404.029c-4.71 6.363-9.3 12.811-13.84 19.29-2.28 3.231-4.52 6.493-6.78 9.741l-6.7 9.79-6.64 9.838-3.29 4.939-1.64 2.47-1.63 2.479c-4.35 6.607-8.66 13.246-12.83 19.972 4.71-6.361 9.3-12.809 13.84-19.288l1.7-2.428 1.69-2.438 3.38-4.876 6.71-9.791 6.63-9.839c2.19-3.296 4.4-6.577 6.56-9.888 4.35-6.609 8.66-13.246 12.84-19.971ZM1109.85 402.402l-62.01 75.785 62.01-75.785Z" fill="#000"/><path d="M1109.85 402.402c-5.41 6.111-10.71 12.32-15.97 18.562-2.64 3.113-5.23 6.26-7.85 9.391l-7.79 9.446-7.72 9.498-3.83 4.772-1.91 2.387-1.91 2.398c-5.07 6.388-10.11 12.81-15.03 19.331 5.42-6.11 10.72-12.317 15.98-18.56l1.97-2.339 1.96-2.35 3.92-4.702 7.78-9.447 7.72-9.5c2.55-3.185 5.12-6.352 7.65-9.556 5.08-6.389 10.12-12.811 15.03-19.331Z" fill="#000"/><path d="m1180.37 358.633-32.53-10.267-.64-.202-32.53-10.267c22.5-19.317 57.98-9.497 65.7 20.736Z" fill="#fff"/><path d="m1113.49 338.139 67.71 21.368-.26-1.019c-.06-.225-1.46-5.585-5.49-11.896-10.86-16.992-30.14-23.843-49.84-15.729-6.92 2.853-11.14 6.44-11.32 6.591l-.8.685Zm66 19.603-63.59-20.07c1.56-1.177 5.19-3.685 10.2-5.744 17.93-7.371 37.1-2.299 48.34 15.259 2.92 4.562 4.45 8.696 5.05 10.555Z" fill="#000"/><path d="m1113.66 338.103 67.42 21.278-.22-.874c-.06-.224-1.45-5.572-5.48-11.871-10.93-17.11-30.24-23.729-49.74-15.697-6.91 2.848-11.12 6.426-11.29 6.577l-.69.587Zm65.96 19.766-63.89-20.166c23.49-17.802 54.54-8.979 63.89 20.166Z" fill="#fff"/><path d="m1112.48 338.345 69.43 21.911-.49-1.894c-.06-.228-1.47-5.669-5.55-12.042-11.27-17.638-31.01-23.93-50.45-15.923-7.01 2.889-11.28 6.521-11.46 6.675l-1.48 1.273Zm66.21 18.617-61.68-19.469c23.42-16.463 51.79-7.935 61.68 19.469Z" fill="#000"/><path d="M1180.82 360.527s-6.73-10.891-32.24-18.944c-25.51-8.052-36-2.596-36-2.596l68.24 21.54Z" fill="#000"/><path d="M1074.48 333.221c20.45 1.626 46.56 7.21 73.53 15.721 26.97 8.512 51.55 18.931 69.23 29.336 17.23 10.144 26.05 19.338 24.19 25.225-1.86 5.886-14.36 8.352-34.29 6.768-20.44-1.627-46.56-7.21-73.53-15.722s-51.55-18.93-69.23-29.335c-17.23-10.144-26.05-19.338-24.19-25.225 1.86-5.886 14.36-8.354 34.29-6.768Z" fill="#fff"/><path d="M1074.56 332.221c20.52 1.632 46.71 7.231 73.75 15.765s51.7 18.985 69.44 29.427c17.93 10.554 26.68 19.927 24.64 26.392-2.04 6.464-14.59 9.115-35.33 7.465-20.52-1.632-46.71-7.231-73.75-15.765s-51.7-18.985-69.44-29.427c-17.93-10.554-26.67-19.928-24.63-26.391 2.04-6.464 14.58-9.115 35.32-7.466Zm-10.18 32.992c17.68 10.405 42.27 20.824 69.23 29.335 26.97 8.512 53.09 14.096 73.53 15.722 19.94 1.586 32.43-.881 34.29-6.767 1.86-5.887-6.96-15.08-24.19-25.225-17.68-10.405-42.26-20.823-69.23-29.335-26.97-8.512-53.08-14.095-73.53-15.722-19.93-1.586-32.43.882-34.29 6.768-1.85 5.887 6.96 15.08 24.19 25.224Z" fill="#fff"/><path d="M1133.14 396.063c27.08 8.547 53.31 14.155 73.88 15.791 10.37.825 18.73.59 24.84-.702 6.27-1.326 10-3.738 11.09-7.171 1.08-3.433-.59-7.551-4.97-12.238-4.25-4.561-10.96-9.553-19.93-14.835-17.78-10.464-42.48-20.934-69.56-29.481-27.08-8.547-53.32-14.155-73.88-15.79-10.38-.826-18.74-.59-24.85.701-6.27 1.326-10 3.739-11.08 7.173-1.09 3.433.58 7.55 4.96 12.236 4.26 4.562 10.97 9.553 19.94 14.835 17.77 10.465 42.48 20.934 69.56 29.481Zm14.69-46.562c26.93 8.499 51.47 18.899 69.11 29.282 8.53 5.021 14.97 9.768 19.13 14.11 3.99 4.155 5.65 7.762 4.8 10.435-.84 2.671-4.27 4.673-9.92 5.787-5.9 1.165-13.89 1.358-23.76.573-20.4-1.623-46.47-7.197-73.4-15.696-26.93-8.499-51.47-18.897-69.11-29.282l-.3.504.3-.504c-8.53-5.021-14.97-9.768-19.13-14.11-3.98-4.155-5.64-7.763-4.8-10.434.84-2.672 4.27-4.673 9.92-5.788 5.9-1.165 13.9-1.358 23.76-.573 20.41 1.622 46.47 7.197 73.4 15.696Z" fill="#000"/><path d="M1132.19 399.069c-45.64-14.404-79.95-34.6-76.63-45.11 3.32-10.509 43-7.353 88.64 7.051 45.64 14.403 79.94 34.6 76.63 45.109-3.32 10.51-43.01 7.353-88.64-7.05Z" fill="#000"/><path d="M1132.04 399.545c22.1 6.977 43.52 11.555 60.3 12.889 17 1.352 27.28-.838 28.96-6.166 1.69-5.328-5.48-13.027-20.17-21.677-14.51-8.538-34.67-17.083-56.78-24.06s-43.52-11.555-60.3-12.889c-17-1.352-27.28.838-28.97 6.165-1.68 5.329 5.49 13.027 20.18 21.678 14.51 8.538 34.67 17.083 56.78 24.06Zm12.01-38.058c22.04 6.955 42.13 15.468 56.57 23.968 14.04 8.268 21.23 15.745 19.73 20.511-1.51 4.767-11.69 6.761-27.93 5.467-16.71-1.328-38.04-5.89-60.08-12.845-22.04-6.955-42.13-15.468-56.57-23.968-14.04-8.268-21.23-15.744-19.73-20.511 1.5-4.766 11.69-6.76 27.93-5.467 16.71 1.328 38.04 5.89 60.08 12.845Z" fill="#fff"/><path d="M1130.97 402.92c-43.15-13.619-75.59-32.716-72.45-42.654 3.13-9.937 40.66-6.952 83.81 6.667 43.15 13.62 75.59 32.717 72.46 42.654-3.14 9.938-40.67 6.953-83.82-6.667Z" fill="#000"/><path d="M1130.72 403.719c20.93 6.605 41.21 10.939 57.1 12.203 11.5.915 25.65.603 27.76-6.081 2.11-6.684-9.3-15.064-19.24-20.918-13.74-8.087-32.83-16.179-53.76-22.785-20.93-6.605-41.21-10.939-57.1-12.203-11.5-.915-25.65-.603-27.76 6.081-2.11 6.685 9.3 15.065 19.24 20.918 13.74 8.087 32.83 16.179 53.76 22.785Zm11.36-35.987c46.26 14.601 74.53 33.3 71.91 41.605-2.62 8.304-36.5 7.388-82.77-7.213-46.26-14.601-74.53-33.3-71.91-41.604 2.62-8.304 36.51-7.389 82.77 7.212Z" fill="#fff"/><path d="M1130.86 403.267c16.7 5.272 32.88 8.729 45.55 9.737 12.73 1.012 20.41-.581 21.65-4.487 1.23-3.907-4.15-9.624-15.15-16.101-10.96-6.448-26.19-12.903-42.89-18.174-16.7-5.271-32.87-8.729-45.54-9.737-12.73-1.012-20.42.581-21.65 4.488-1.23 3.906 4.15 9.623 15.15 16.1 10.95 6.448 26.18 12.903 42.88 18.174Zm9.09-28.782c34.39 10.855 60.35 26.088 57.87 33.957-2.49 7.869-32.49 5.44-66.88-5.415-34.39-10.855-60.35-26.088-57.87-33.957 2.48-7.869 32.48-5.44 66.88 5.415Z" fill="#000"/><path d="M1130.71 403.746c16.74 5.283 32.95 8.749 45.66 9.759 13.17 1.048 20.84-.625 22.17-4.836 1.33-4.212-3.99-9.981-15.38-16.684-10.98-6.467-26.25-12.938-42.99-18.221-16.73-5.282-32.95-8.748-45.65-9.758-13.18-1.048-20.84.625-22.17 4.836-1.33 4.212 3.99 9.981 15.37 16.684 10.99 6.467 26.26 12.938 42.99 18.22Zm9.09-28.782c33.55 10.589 59.9 25.85 57.54 33.328-2.36 7.476-32.7 4.847-66.25-5.743-33.55-10.589-59.9-25.851-57.54-33.328 2.36-7.477 32.7-4.846 66.25 5.743Z" fill="#fff"/><path d="M1138.43 378.177c27.3 8.617 47.61 21.388 45.35 28.524-.1.347-.27.674-.48.981.11.055.16.084.15.082 0 0-10.94 13.968-28.15 14.263-8.43.144-24.57-4.25-28.83-5.593-4.04-1.275-20.41-6.442-26.81-11.971-11.06-9.542-14.3-22.619-14.76-26.697-.2-.805-.2-1.563.02-2.267 2.25-7.138 26.21-5.938 53.51 2.678Z" fill="#fff"/><path d="M1126.32 416.911c3.65 1.151 20.26 5.766 28.99 5.616 15.91-.272 26.65-12.22 28.31-14.184l.11.036.18-.421c.06-.135.06-.248.02-.343.14-.248.25-.502.33-.764 2.37-7.515-17.69-20.32-45.68-29.153-27.99-8.833-51.77-9.866-54.14-2.353-.24.771-.26 1.615-.04 2.509.63 5.437 4.55 18.028 14.93 26.987 2.96 2.554 10.04 6.72 26.99 12.07Zm56.35-9c-2.07 2.392-12.37 13.357-27.37 13.613-8.6.147-25.06-4.429-28.68-5.569-16.79-5.299-23.75-9.382-26.64-11.873-10.16-8.774-13.98-21.089-14.58-26.373l-.01-.066c-.19-.725-.18-1.395.01-1.996 2.13-6.744 26.34-5.368 52.88 3.007 26.53 8.375 47.16 21.149 45.03 27.895-.1.293-.24.579-.42.85l-.32.459.1.053Z" fill="#fff"/><path d="M1126.15 417.47c3.66 1.156 20.36 5.794 29.17 5.643 15.44-.265 25.96-11.188 28.49-14.095l.26.079.38-.91c.07-.157.1-.315.09-.472.11-.224.21-.455.28-.689.65-2.04-.13-4.406-2.31-7.032-2.01-2.431-5.17-5.027-9.39-7.719-8.57-5.473-20.78-10.849-34.36-15.136-13.58-4.287-26.66-6.891-36.83-7.333-4.99-.217-9.07.095-12.12.93-3.29.9-5.28 2.393-5.92 4.433-.28.863-.3 1.8-.06 2.788.65 5.517 4.63 18.273 15.12 27.328 2.99 2.59 10.15 6.805 27.2 12.185Zm55.59-9.395c-2.79 3.054-12.62 12.629-26.45 12.865-8.52.145-24.89-4.407-28.49-5.542-16.69-5.269-23.59-9.302-26.43-11.757-10.04-8.656-13.8-20.79-14.39-25.997l-.03-.142c-.15-.618-.15-1.182.01-1.677.92-2.939 7.01-4.309 16.69-3.758 10.07.573 22.66 3.111 35.45 7.147 12.79 4.036 24.56 9.185 33.13 14.498 8.25 5.107 12.44 9.723 11.52 12.662-.08.239-.19.473-.35.696l-.68.996.02.009Z" fill="#000"/><path d="M1095.29 397.826c-1.54 4.873 12.46 12.932 31.01 18.787 18.55 5.855 34.64 7.29 36.18 2.417 1.53-4.872-12.26-13.57-30.81-19.425-18.55-5.856-34.84-6.652-36.38-1.779Z" fill="#000"/><path d="M1126.15 417.092c9.17 2.896 17.9 4.761 24.58 5.254 7.18.528 11.41-.566 12.23-3.164 1.83-5.823-14.39-14.769-31.14-20.055s-35.17-7.273-37.01-1.452c-.82 2.599 2.02 5.921 8.2 9.607 5.75 3.43 13.96 6.914 23.14 9.81Zm5.37-17.009c19.81 6.251 31.75 14.766 30.48 18.796-1.37 4.322-16.98 3.116-35.55-2.745-18.57-5.86-32.04-13.836-30.68-18.158 1.27-4.03 15.94-4.146 35.75 2.107Z" fill="#fff"/><path d="M1125.97 417.65c9.22 2.909 18 4.783 24.72 5.28 7.58.558 11.9-.643 12.82-3.571.95-3.006-2.11-6.777-8.85-10.903-5.85-3.583-14.11-7.185-22.66-9.886-8.56-2.7-17.39-4.493-24.24-4.917-7.89-.49-12.56.84-13.51 3.847-.92 2.929 1.92 6.388 8.45 10.285 5.79 3.452 14.06 6.957 23.27 9.865Zm5.37-17.008c9.13 2.88 17.3 6.491 23.01 10.165 5.87 3.782 7.51 6.559 7.09 7.897-1.09 3.452-15.34 3.02-34.81-3.126-19.48-6.147-31.39-13.972-30.3-17.425.42-1.339 3.36-2.669 10.34-2.394 6.78.268 15.54 2.002 24.67 4.883Z" fill="#000"/><path d="M1106.21 401.252c-.94 2.984 8.57 8.218 21.1 12.17 12.52 3.953 23.31 5.128 24.25 2.143.95-2.985-8.44-8.609-20.97-12.561-12.52-3.953-23.43-4.737-24.38-1.752Z" fill="#fff"/><path d="M1127.16 413.902c11.15 3.519 23.69 5.589 24.88 1.815 1.21-3.821-10.07-9.648-21.29-13.19-11.23-3.543-23.81-5.246-25.01-1.425-1.2 3.772 10.26 9.28 21.42 12.8Zm3.28-10.419c13.09 4.129 21.38 9.601 20.65 11.932-.69 2.181-9.92 1.857-23.63-2.47-13.71-4.327-21.46-9.359-20.77-11.541.74-2.33 10.67-2.05 23.75 2.079ZM1091.05 335.207c1.23.19 2.48.392 3.74.604-.29 6.015 1.49 15.918 1.49 15.918l-3.02.684c-1.94-5.662-2.21-13.253-2.21-17.206ZM1058.75 352.86l-1.95 3.944c-8-2.831-15.07-13.681-16.72-16.363a3.6 3.6 0 0 1 .11-.453c.43-1.351 1.42-2.52 2.93-3.504 4.44 9.422 15.63 16.376 15.63 16.376ZM1080.27 333.771c2.5.273 5.06.601 7.69.976-.27 6.479 1.32 15.826 1.32 15.826l-6.36-.956c-1.86-4.623-2.46-11.73-2.65-15.846ZM1044.78 335.576c.9-.42 1.93-.794 3.07-1.122 2.46 3.392 8.83 11.694 15.2 15.905l-2.62 1.628c0-.001-12.46-9.5-15.65-16.411ZM1050.69 333.781c5.83-1.133 13.9-1.345 23.79-.558.72.058 1.45.121 2.19.188.3 5.385 1.24 13.08 4.03 16.56l-15.12.136c0-.001-9.74-8.785-14.89-16.326Z" fill="#000"/><path d="m1092.1 334.98 14.63 2.516-12.8-.536 13.16 2.75-13.13-.636 13.48 2.852-13.13-.636 13.7 3.272-13.56-1.476 14.23 3.791-14.2-1.675 15.19 4.092-14.94-1.559 15.71 3.557-16.51-1.005-1.83-15.307ZM1114.67 337.895l19.54-1.899-15.56-.702 17.32-1.548-14.92-.501 16.05-1.949-9.96-.687 11.62-1.244-7.52-.62-7.57 2.871-9 6.279ZM1094.76 395.435s-7.59-11.513-8.09-23.245l3.15-1.108s2.07 16.784 7.24 22.624l-2.3 1.729ZM1092.66 369.875s1.41 15.525 6.71 23.161l8.46-.135s-5.22-15.676-3.88-24.371l-11.29 1.345ZM1106.74 370.811s.32 13.428 3.41 21.416c0 0 6.78.737 11.24 2.147l-10.1-3.54 10.71 1.627-11.06-3.842 11.54 1.19-12.12-3.825 12.83 1.592-13.71-4.328 14.93 1.558-14.97-3.673 15.78 1.121-16.67-3.857 18.21 1.189-18.78-3.824 18.85 1.39-19.2-3.605 19.37.853-20.26-3.589ZM1202.69 370.439c-1.12-.55-2.25-1.099-3.4-1.647-3.22 5.09-10.37 12.177-10.37 12.177l2.09 2.294c4.83-3.523 9.41-9.583 11.68-12.824ZM1219.01 403.438l-.67 4.347c8.17 2.273 20.19-2.55 23.09-3.797a6.5 6.5 0 0 0 .16-.437c.43-1.352.29-2.879-.39-4.551-9.04 5.165-22.19 4.438-22.19 4.438ZM1212.34 375.455c-2.2-1.208-4.49-2.415-6.86-3.617-3.5 5.46-10.16 12.202-10.16 12.202l5.76 2.869c4.18-2.715 8.74-8.193 11.26-11.454ZM1240.37 397.308c-.5-.864-1.13-1.76-1.88-2.685-3.95 1.369-13.93 4.51-21.57 4.301l1.21 2.837c0-.001 15.66-.625 22.24-4.453ZM1236.56 392.445c-4.13-4.279-10.61-9.08-19.16-14.116-.63-.367-1.26-.736-1.9-1.103-3.34 4.235-8.52 10.002-12.81 11.245l12.3 8.793c.01-.001 13.02-1.604 21.57-4.819Z" fill="#000"/><path d="m1201.97 369.655-13.43-6.342 10.79 6.914-12.35-5.303 11.11 7.014-12.67-5.402 11.11 7.014-13.1-5.184 11.96 6.577-13.84-5.067 12.59 6.78-14.78-5.369 13.12 7.299-14.9-6.107 14.1 8.659 10.29-11.483ZM1180.21 358.58l-14.91-12.77 13.15 8.357-13.3-11.211 12.51 8.155-12.02-10.807 8.54 5.152-8.79-7.686 6.51 3.809 4.55 6.696 3.76 10.305ZM1181.48 397.906s-10.07 11.902-18.8 15.109l-6.85-4.966s13.28-9.839 17.17-17.728l8.48 7.585ZM1169.41 390.592s-7.97 10.811-15.09 15.578c0 0-5.97-3.289-10.44-4.698l10.31 2.902-9.71-4.815 11.27 3.205-10.14-5.655 12.12 3.824-11.42-6.057 13.72 4.328-13.13-7.299 14.37 5.586-13.56-8.138 15.86 6.409-15.6-9.48 17.58 7.65-16.24-9.682 17.8 8.071-16.35-10.42 18.65 8.691Z" fill="#000"/><path d="M1145.37 365.822a3.57 3.57 0 0 0-2.33-4.476 3.56 3.56 0 0 0-4.47 2.328 3.565 3.565 0 1 0 6.8 2.148Z" fill="#fff"/><path d="M1140.74 368.627a4.082 4.082 0 0 0 5.11-2.655 4.08 4.08 0 0 0-2.66-5.105 4.067 4.067 0 0 0-5.1 2.656 4.065 4.065 0 0 0 2.65 5.104Zm2.15-6.803a3.065 3.065 0 0 1-1.84 5.847 3.062 3.062 0 0 1-2-3.847 3.06 3.06 0 0 1 3.84-2Z" fill="#000"/><path d="M1143.41 366.84a2 2 0 0 0-1.31-2.518 2.015 2.015 0 0 0-2.52 1.31 2.013 2.013 0 0 0 1.32 2.517 2 2 0 0 0 2.51-1.309Z" fill="#000"/><path d="M1121.64 358.798a3.57 3.57 0 0 0-6.81-2.147 3.57 3.57 0 0 0 6.81 2.147Z" fill="#fff"/><path d="M1117.01 361.604a4.067 4.067 0 0 0 5.1-2.656 4.065 4.065 0 0 0-2.65-5.104 4.08 4.08 0 0 0-5.11 2.655 4.08 4.08 0 0 0 2.66 5.105Zm2.15-6.804a3.07 3.07 0 0 1 2 3.846 3.075 3.075 0 0 1-3.85 2.001 3.07 3.07 0 0 1-2-3.846 3.07 3.07 0 0 1 3.85-2.001Z" fill="#000"/><path d="M1119.68 359.816a2.008 2.008 0 1 0-3.83-1.207 2.008 2.008 0 0 0 3.83 1.207Z" fill="#000"/><path d="M1100.06 354.56a3.564 3.564 0 1 0-6.8-2.147 3.561 3.561 0 0 0 2.33 4.475 3.56 3.56 0 0 0 4.47-2.328Z" fill="#fff"/><path d="M1095.43 357.367a4.081 4.081 0 0 0 5.11-2.655 4.08 4.08 0 0 0-2.66-5.105 4.067 4.067 0 0 0-5.1 2.656c-.68 2.139.52 4.429 2.65 5.104Zm2.15-6.804a3.065 3.065 0 0 1-1.84 5.847 3.062 3.062 0 0 1-2-3.847 3.06 3.06 0 0 1 3.84-2Z" fill="#000"/><path d="M1098.1 355.578a2 2 0 0 0-1.31-2.518 2 2 0 0 0-2.51 1.31 1.999 1.999 0 0 0 1.31 2.517 2 2 0 0 0 2.51-1.309Z" fill="#000"/><path d="M1081.91 352.806a3.561 3.561 0 0 0-2.33-4.475 3.564 3.564 0 0 0-4.47 2.328 3.57 3.57 0 0 0 2.33 4.475 3.56 3.56 0 0 0 4.47-2.328Z" fill="#fff"/><path d="M1077.28 355.613a4.08 4.08 0 0 0 5.11-2.655 4.079 4.079 0 0 0-2.66-5.104 4.07 4.07 0 0 0-5.1 2.655c-.68 2.139.52 4.429 2.65 5.104Zm2.15-6.804a3.064 3.064 0 0 1-1.84 5.847 3.065 3.065 0 0 1 1.84-5.847Z" fill="#000"/><path d="M1079.95 353.824a2.002 2.002 0 1 0-3.82-1.208 1.998 1.998 0 0 0 1.31 2.517 1.998 1.998 0 0 0 2.51-1.309Z" fill="#000"/><path d="M1069.23 353.714a3.556 3.556 0 0 0-2.32-4.475 3.57 3.57 0 0 0-4.48 2.328 3.57 3.57 0 0 0 2.33 4.475 3.56 3.56 0 0 0 4.47-2.328Z" fill="#fff"/><path d="M1064.61 356.522a4.067 4.067 0 0 0 5.1-2.656c.68-2.139-.52-4.429-2.65-5.104a4.08 4.08 0 0 0-5.11 2.655 4.08 4.08 0 0 0 2.66 5.105Zm2.14-6.805a3.075 3.075 0 0 1 2.01 3.846 3.075 3.075 0 0 1-3.85 2.001 3.064 3.064 0 0 1 1.84-5.847Z" fill="#000"/><path d="M1064.76 356.042a2 2 0 0 1-1.31-2.518 2.007 2.007 0 1 1 1.31 2.518Z" fill="#000"/><path d="M1059.7 359.472a3.233 3.233 0 0 0-2.11-4.056 3.239 3.239 0 0 0-4.06 2.11 3.241 3.241 0 0 0 2.11 4.056 3.235 3.235 0 0 0 4.06-2.11Z" fill="#fff"/><path d="M1055.5 362.061a3.733 3.733 0 1 0 2.24-7.123 3.733 3.733 0 0 0-2.24 7.123Zm1.94-6.166a2.724 2.724 0 0 1 1.78 3.426 2.73 2.73 0 0 1-3.42 1.783 2.738 2.738 0 0 1-1.79-3.427 2.738 2.738 0 0 1 3.43-1.782Z" fill="#000"/><path d="M1057.93 360.396a1.82 1.82 0 0 0-3.47-1.094 1.82 1.82 0 0 0 3.47 1.094Z" fill="#000"/><path d="M1163.63 372.051a3.56 3.56 0 0 1 4.47-2.328 3.57 3.57 0 0 1 2.33 4.476 3.564 3.564 0 0 1-4.47 2.328 3.563 3.563 0 0 1-2.33-4.476Z" fill="#fff"/><path d="M1165.8 377.004a4.082 4.082 0 0 0 5.11-2.655 4.08 4.08 0 0 0-2.66-5.105 4.067 4.067 0 0 0-5.1 2.656 4.066 4.066 0 0 0 2.65 5.104Zm2.15-6.803a3.065 3.065 0 0 1-1.84 5.847 3.062 3.062 0 0 1-2-3.847 3.06 3.06 0 0 1 3.84-2Z" fill="#000"/><path d="M1164.65 374.009a2 2 0 0 1 2.51-1.31 1.999 1.999 0 0 1 1.31 2.518 2 2 0 0 1-2.51 1.31 2 2 0 0 1-1.31-2.518Z" fill="#000"/><path d="M1183.72 380.965a3.57 3.57 0 0 1 6.81 2.148 3.57 3.57 0 0 1-6.81-2.148Z" fill="#fff"/><path d="M1185.9 385.92a4.082 4.082 0 0 0 5.11-2.655 4.08 4.08 0 0 0-2.66-5.105 4.067 4.067 0 0 0-5.1 2.656 4.066 4.066 0 0 0 2.65 5.104Zm2.15-6.805a3.07 3.07 0 0 1 2 3.847 3.07 3.07 0 0 1-3.85 2 3.077 3.077 0 0 1-2-3.846 3.076 3.076 0 0 1 3.85-2.001Z" fill="#000"/><path d="M1184.74 382.923a2.007 2.007 0 1 1 1.31 2.517 2.014 2.014 0 0 1-1.31-2.517Z" fill="#000"/><path d="M1199.59 389.948a3.57 3.57 0 0 1 6.81 2.147 3.57 3.57 0 0 1-6.81-2.147Z" fill="#fff"/><path d="M1201.77 394.902a4.065 4.065 0 0 0 5.1-2.655 4.065 4.065 0 0 0-2.65-5.104 4.081 4.081 0 0 0-5.11 2.655 4.08 4.08 0 0 0 2.66 5.104Zm2.15-6.804a3.069 3.069 0 0 1 2 3.846 3.075 3.075 0 0 1-3.85 2.001 3.07 3.07 0 0 1-2-3.846 3.075 3.075 0 0 1 3.85-2.001Z" fill="#000"/><path d="M1200.61 391.905a2.008 2.008 0 1 1 1.31 2.517 2.015 2.015 0 0 1-1.31-2.517Z" fill="#000"/><path d="M1209.45 397.969a3.57 3.57 0 0 1 6.81 2.148 3.57 3.57 0 0 1-6.81-2.148Z" fill="#fff"/><path d="M1211.63 402.924a4.067 4.067 0 0 0 5.1-2.655 4.066 4.066 0 0 0-2.65-5.105 4.082 4.082 0 0 0-5.11 2.655 4.08 4.08 0 0 0 2.66 5.105Zm2.15-6.805a3.07 3.07 0 0 1 2 3.846 3.074 3.074 0 0 1-3.85 2.001 3.068 3.068 0 0 1-2-3.846 3.076 3.076 0 0 1 3.85-2.001Z" fill="#000"/><path d="M1210.47 399.927a2.007 2.007 0 1 1 3.832 1.208 2.007 2.007 0 0 1-3.832-1.208Z" fill="#000"/><path d="M1213.95 408.158a3.234 3.234 0 0 1 6.17 1.947 3.235 3.235 0 0 1-6.17-1.947Z" fill="#fff"/><path d="M1215.91 412.692c1.96.62 4.07-.473 4.69-2.437a3.744 3.744 0 0 0-2.44-4.686 3.746 3.746 0 0 0-4.69 2.438 3.743 3.743 0 0 0 2.44 4.685Zm1.95-6.166a2.739 2.739 0 0 1 1.78 3.425 2.736 2.736 0 0 1-3.43 1.784 2.742 2.742 0 0 1-1.78-3.428 2.735 2.735 0 0 1 3.43-1.781Z" fill="#000"/><path d="M1214.88 409.93a1.815 1.815 0 1 1 3.46 1.095 1.815 1.815 0 1 1-3.46-1.095ZM1165.08 417.631s12.82-5.071 19.97-14.388l-1.95-2.718s-11.32 12.556-18.91 14.37l.89 2.736Z" fill="#000"/></g><path fill-rule="evenodd" clip-rule="evenodd" d="M215.588 358.333c-10.998 23.648-39.083 33.904-62.731 22.907-23.648-10.998-33.904-39.083-22.907-62.731 10.998-23.648 39.083-33.904 62.731-22.907 23.648 10.998 33.904 39.083 22.907 62.731Zm2.518 1.172c-11.644 25.039-41.381 35.898-66.421 24.253-25.039-11.644-35.898-41.381-24.253-66.421 11.644-25.039 41.381-35.898 66.421-24.253 25.039 11.644 35.898 41.381 24.253 66.421Zm-5.038-2.341c-10.351 22.257-36.784 31.909-59.041 21.559-22.257-10.35-31.91-36.784-21.559-59.041 10.35-22.257 36.784-31.909 59.041-21.559 22.257 10.35 31.909 36.784 21.559 59.041Zm-28.458 3.707c-5.741 7.394-16.049 10.067-24.906 5.949l.002-.002c-8.857-4.118-13.433-13.713-11.478-22.868a2.997 2.997 0 0 1 1.301-1.904 3.021 3.021 0 0 1 2.274-.422 3.038 3.038 0 0 1 1.911 1.309c.439.671.592 1.488.426 2.269a14.455 14.455 0 0 0 8.102 16.162c6.326 2.942 13.549 1.01 17.601-4.209a3.018 3.018 0 0 1 2.01-1.132 3.037 3.037 0 0 1 2.228.619 3.022 3.022 0 0 1 1.143 2.007 3 3 0 0 1-.613 2.221l-.001.001Zm-17.231-37.21a5.555 5.555 0 1 1-10.075-4.684 5.555 5.555 0 0 1 10.075 4.684Zm5.038 2.342c-2.588 5.565-9.196 7.978-14.76 5.39-5.565-2.587-7.978-9.196-5.39-14.76 2.587-5.564 9.196-7.977 14.76-5.39 5.564 2.588 7.977 9.196 5.39 14.76Zm17.807 14.409a5.556 5.556 0 1 0 4.684-10.077 5.556 5.556 0 0 0-4.684 10.077Zm-2.343 5.037c5.564 2.588 12.173.175 14.76-5.39 2.588-5.564.175-12.172-5.389-14.76-5.565-2.587-12.173-.174-14.761 5.39-2.587 5.564-.174 12.172 5.39 14.76ZM1038.6 575.333c11 23.648 39.09 33.904 62.73 22.907 23.65-10.998 33.91-39.083 22.91-62.731-11-23.648-39.08-33.904-62.73-22.907-23.65 10.998-33.91 39.083-22.91 62.731Zm-2.52 1.172c11.65 25.039 41.39 35.898 66.42 24.253 25.04-11.644 35.9-41.381 24.26-66.421-11.65-25.039-41.38-35.898-66.42-24.253-25.04 11.644-35.9 41.381-24.26 66.421Zm5.04-2.341c10.35 22.257 36.79 31.909 59.04 21.559 22.26-10.35 31.91-36.784 21.56-59.041-10.35-22.257-36.78-31.909-59.04-21.559-22.26 10.35-31.91 36.784-21.56 59.041Zm28.46 3.707c5.74 7.394 16.05 10.067 24.91 5.949l-.01-.002c8.86-4.118 13.44-13.713 11.48-22.868a2.988 2.988 0 0 0-1.3-1.904 3.014 3.014 0 0 0-2.27-.422c-.79.167-1.48.638-1.91 1.309-.44.671-.6 1.488-.43 2.269a14.46 14.46 0 0 1-8.1 16.162c-6.33 2.942-13.55 1.01-17.6-4.209a3.045 3.045 0 0 0-2.01-1.132 3.03 3.03 0 0 0-3.37 2.626c-.1.793.12 1.592.61 2.221v.001Zm17.23-37.21a5.555 5.555 0 0 0 7.38 2.695 5.563 5.563 0 0 0 2.7-7.38 5.558 5.558 0 0 0-7.38-2.695 5.554 5.554 0 0 0-2.7 7.38Zm-5.04 2.342c2.59 5.565 9.2 7.978 14.76 5.39 5.57-2.587 7.98-9.196 5.39-14.76-2.58-5.564-9.19-7.977-14.76-5.39-5.56 2.588-7.97 9.196-5.39 14.76Zm-17.8 14.409a5.553 5.553 0 0 1-7.38-2.695 5.554 5.554 0 1 1 10.07-4.686c1.29 2.783.09 6.087-2.69 7.381Zm2.34 5.037a11.109 11.109 0 0 1-14.76-5.39c-2.59-5.564-.18-12.172 5.39-14.76 5.56-2.587 12.17-.174 14.76 5.39s.17 12.172-5.39 14.76Z" fill="#0E1012"/><path d="m344.738 437.85 1.13-.413c-.239-1.237-.195-2.701.16-4.402.718-3.375 3.205-7.334 5.963-9.051l-.417-1.141c-1.599.214-3.3.066-5.067-.428-3.597-.996-6.809-3.272-8.269-5.85l-1.13.413c.257 1.539.145 3.151-.307 4.919-.887 3.497-3.118 6.654-5.89 8.5l.417 1.141c1.653-.234 3.491-.044 5.452.564 3.986 1.224 6.7 3.559 7.958 5.748Z" fill="#0E1012"/><defs><clipPath id="clip0_520_49160"><path fill="#fff" transform="rotate(-10.767 392.648 28.3)" d="M0 0h252v252H0z"/></clipPath><clipPath id="clip1_520_49160"><path fill="#fff" transform="scale(-1 1) rotate(-17.516 427.425 4339.09)" d="M0 0h252v252H0z"/></clipPath></defs></svg>