<svg width="346" height="547" fill="none" xmlns="http://www.w3.org/2000/svg"><path d="m337.493 300.235.753-.276c-.159-.825-.129-1.801.107-2.935.479-2.249 2.137-4.889 3.975-6.033l-.278-.761c-1.066.143-2.2.044-3.378-.285-2.398-.664-4.539-2.182-5.513-3.9l-.753.275c.172 1.026.097 2.101-.204 3.279-.592 2.332-2.079 4.437-3.927 5.667l.278.761c1.102-.157 2.328-.03 3.635.376 2.657.815 4.466 2.372 5.305 3.832Z" fill="#0E1012"/><g clip-path="url('#clip0_523_51880')"><path d="M58.517 69.76 49.7 115.09l8.819-45.33Z" fill="#000"/><path d="M58.517 69.76c-.585 3.807-1.242 7.6-1.924 11.387-.334 1.895-.694 3.786-1.042 5.679l-1.082 5.67-1.121 5.662-.577 2.828-.29 1.414-.296 1.413a448.082 448.082 0 0 1-2.486 11.277c.584-3.807 1.24-7.6 1.922-11.387l.255-1.421.262-1.419.526-2.838 1.083-5.67 1.123-5.663c.387-1.885.762-3.772 1.162-5.654a455.23 455.23 0 0 1 2.486-11.277ZM61.02 69.285l-4.61 44.53 4.61-44.53ZM61.02 69.285a425.837 425.837 0 0 1-.868 11.162c-.158 1.859-.343 3.715-.515 5.573l-.556 5.568-.596 5.564-.314 2.78-.157 1.391-.166 1.389a421.349 421.349 0 0 1-1.438 11.103c.232-3.726.536-7.445.867-11.162l.123-1.394.13-1.393.263-2.785.557-5.569.597-5.564c.212-1.853.412-3.708.638-5.56.437-3.705.9-7.407 1.436-11.103ZM63.525 68.808l-.404 43.73.404-43.73Z" fill="#000"/><path d="M63.525 68.808c.118 3.645.164 7.29.185 10.935.017 1.822.007 3.645.01 5.467l-.03 5.466-.07 5.466-.05 2.733-.027 1.367-.034 1.366a401.801 401.801 0 0 1-.388 10.93c-.12-3.646-.166-7.29-.187-10.935l-.008-1.367-.001-1.366-.001-2.734.031-5.466.07-5.466c.038-1.822.062-3.644.112-5.466.088-3.644.202-7.287.388-10.93ZM66.03 68.333l3.804 42.929-3.804-42.93Z" fill="#000"/><path d="M66.03 68.333a395.67 395.67 0 0 1 1.235 10.707c.192 1.786.359 3.574.537 5.361l.496 5.365.456 5.367.212 2.686.105 1.342.098 1.344c.263 3.582.5 7.167.665 10.758-.47-3.564-.866-7.134-1.237-10.707l-.14-1.34-.133-1.34-.264-2.681-.495-5.365-.455-5.368c-.138-1.79-.29-3.58-.414-5.372a390.873 390.873 0 0 1-.667-10.757ZM68.534 67.857a391.226 391.226 0 0 1 2.283 10.48c.368 1.748.709 3.502 1.062 5.254l1.021 5.262.982 5.27.475 2.638.237 1.319.23 1.32a386.649 386.649 0 0 1 1.72 10.586 383.926 383.926 0 0 1-2.284-10.479l-.272-1.312-.263-1.314-.527-2.628-1.02-5.263-.982-5.27c-.314-1.759-.64-3.515-.941-5.277a395.893 395.893 0 0 1-1.721-10.586ZM71.037 67.38l12.22 41.33-12.22-41.33ZM71.037 67.38a395.834 395.834 0 0 1 3.33 10.252c.54 1.712 1.057 3.432 1.585 5.149l1.547 5.16 1.51 5.172.738 2.59.369 1.296.36 1.298a390.138 390.138 0 0 1 2.78 10.414 390.557 390.557 0 0 1-3.33-10.251l-.402-1.286-.395-1.288-.789-2.575-1.546-5.16-1.507-5.173c-.49-1.728-.993-3.452-1.469-5.184a393.378 393.378 0 0 1-2.78-10.413ZM73.541 66.904l16.427 40.53-16.427-40.53ZM73.541 66.904c1.51 3.32 2.953 6.668 4.372 10.026.716 1.675 1.407 3.362 2.11 5.043l2.072 5.058 2.035 5.074 1.003 2.543.5 1.271.494 1.275a400.313 400.313 0 0 1 3.84 10.24 404.263 404.263 0 0 1-4.373-10.025l-.533-1.258-.526-1.261-1.05-2.524-2.072-5.059-2.034-5.073c-.666-1.697-1.344-3.388-1.997-5.09a411.468 411.468 0 0 1-3.841-10.24ZM76.045 66.428l20.634 39.729-20.634-39.73Z" fill="#000"/><path d="M76.045 66.428a426.962 426.962 0 0 1 5.412 9.8c.89 1.64 1.757 3.292 2.634 4.939l2.598 4.956 2.562 4.975 1.266 2.495.633 1.248.625 1.252a421.492 421.492 0 0 1 4.904 10.064 420.945 420.945 0 0 1-5.413-9.8l-.664-1.232-.657-1.235-1.313-2.471-2.596-4.957-2.561-4.976c-.843-1.664-1.696-3.323-2.525-4.994a423.992 423.992 0 0 1-4.905-10.064ZM78.549 65.951l24.841 38.929-24.841-38.929ZM78.549 65.951A454.525 454.525 0 0 1 85 75.53c1.064 1.603 2.105 3.221 3.157 4.833l3.123 4.855 3.089 4.876 1.53 2.447.765 1.224.758 1.229a450.076 450.076 0 0 1 5.968 9.886 448.008 448.008 0 0 1-6.452-9.577l-.795-1.205-.787-1.21-1.574-2.418-3.122-4.856-3.088-4.877c-1.018-1.633-2.047-3.259-3.053-4.9a453.384 453.384 0 0 1-5.97-9.886Z" fill="#000"/><path d="m47.95 41.544 15.804-3.005.31-.059 15.804-3.005c-9.467-10.294-26.627-7.662-31.917 6.07Z" fill="#fff"/><path d="m80.407 35.653-32.892 6.255.178-.463c.04-.102.99-2.535 3.229-5.267 6.026-7.356 15.437-9.496 24.212-4.604 3.085 1.72 4.862 3.634 4.936 3.714l.337.365ZM48.41 41.176 79.304 35.3c-.665-.637-2.223-2.013-4.455-3.255-7.993-4.446-17.251-3.133-23.488 4.467-1.62 1.974-2.565 3.826-2.95 4.663Z" fill="#000"/><path d="m80.33 35.628-32.754 6.228.154-.397c.039-.102.987-2.529 3.222-5.256 6.069-7.407 15.477-9.437 24.162-4.595 3.08 1.717 4.853 3.627 4.927 3.707l.288.313Zm-31.986 5.6 31.04-5.902c-10.014-9.64-25.048-7.229-31.04 5.903Z" fill="#fff"/><path d="M80.868 35.806 47.14 42.22l.331-.86c.04-.104 1.006-2.573 3.267-5.332 6.256-7.636 15.85-9.488 24.51-4.66 3.124 1.74 4.921 3.679 4.996 3.76l.624.678Zm-32.039 5.05 29.967-5.699c-10.06-9.009-23.818-6.587-29.967 5.699Z" fill="#000"/><path d="M47.631 42.406s3.757-4.727 16.152-7.084c12.395-2.357 17.005.78 17.005.78L47.63 42.405Z" fill="#000"/><path d="M98.948 35.513c-9.665-.372-22.204.796-35.306 3.287-13.102 2.492-25.194 6.008-34.049 9.901-8.632 3.796-13.27 7.613-12.727 10.473.544 2.86 6.26 4.708 15.683 5.07 9.666.372 22.204-.795 35.306-3.287 13.103-2.492 25.194-6.008 34.049-9.901 8.632-3.796 13.271-7.613 12.727-10.473-.544-2.86-6.26-4.708-15.683-5.07Z" fill="#fff"/><path d="M98.967 35.041c-9.7-.372-22.276.798-35.412 3.296-13.136 2.498-25.265 6.025-34.151 9.932-8.982 3.95-13.6 7.854-13.002 10.995.597 3.14 6.325 5.077 16.13 5.454 9.7.373 22.276-.798 35.413-3.296 13.136-2.498 25.264-6.025 34.15-9.932 8.982-3.95 13.599-7.854 13.002-10.994-.598-3.14-6.326-5.077-16.13-5.455Zm2.937 16.016c-8.854 3.893-20.946 7.41-34.048 9.9-13.103 2.492-25.641 3.66-35.307 3.288-9.423-.362-15.139-2.21-15.682-5.07-.544-2.86 4.095-6.676 12.727-10.472 8.854-3.894 20.946-7.41 34.048-9.901 13.103-2.492 25.641-3.66 35.307-3.288 9.423.362 15.139 2.21 15.682 5.07.544 2.86-4.094 6.677-12.727 10.472Z" fill="#fff"/><path d="M67.996 61.693c-13.155 2.502-25.754 3.674-35.475 3.3-4.905-.189-8.807-.762-11.595-1.705-2.864-.97-4.477-2.306-4.795-3.974-.317-1.667.693-3.503 3.002-5.456 2.248-1.9 5.666-3.866 10.16-5.842 8.905-3.916 21.054-7.45 34.21-9.951 13.156-2.502 25.755-3.674 35.475-3.3 4.906.188 8.807.762 11.595 1.705 2.865.969 4.478 2.305 4.795 3.974.317 1.667-.693 3.503-3.002 5.455-2.247 1.9-5.666 3.866-10.159 5.843-8.905 3.915-21.055 7.45-34.21 9.95Zm-4.301-22.62c-13.083 2.487-25.153 5.997-33.99 9.882-4.272 1.879-7.55 3.745-9.74 5.548-2.096 1.725-3.073 3.322-2.826 4.62.246 1.298 1.742 2.426 4.325 3.26 2.699.873 6.432 1.407 11.097 1.586 9.645.37 22.162-.795 35.244-3.282 13.082-2.488 25.153-5.997 33.989-9.883l.111.252-.111-.252c4.273-1.879 7.55-3.745 9.741-5.548 2.096-1.725 3.073-3.323 2.826-4.62-.246-1.299-1.743-2.426-4.325-3.261-2.699-.873-6.433-1.406-11.097-1.586-9.645-.37-22.162.795-35.244 3.283Z" fill="#000"/><path d="M68.273 63.15c22.172-4.215 39.358-11.772 38.387-16.878-.971-5.106-19.731-5.827-41.903-1.61C42.587 48.876 25.4 56.433 26.371 61.54c.971 5.105 19.731 5.827 41.903 1.61Z" fill="#000"/><path d="M68.317 63.383c-10.74 2.042-21.023 3-28.955 2.694-8.035-.309-12.732-1.905-13.224-4.493-.492-2.588 3.29-5.797 10.652-9.034 7.266-3.194 17.183-6.078 27.923-8.12 10.74-2.043 21.023-3 28.954-2.694 8.036.308 12.732 1.904 13.224 4.493.493 2.589-3.291 5.796-10.652 9.033-7.266 3.195-17.183 6.079-27.922 8.121ZM64.8 44.894c-10.706 2.036-20.586 4.91-27.82 8.09-7.036 3.093-10.819 6.196-10.378 8.512.44 2.315 5.097 3.813 12.778 4.108 7.896.304 18.142-.65 28.847-2.686 10.706-2.035 20.586-4.909 27.82-8.09 7.036-3.093 10.819-6.195 10.379-8.511-.441-2.316-5.098-3.814-12.778-4.109-7.897-.303-18.142.65-28.848 2.686Z" fill="#fff"/><path d="M68.63 65.025c20.964-3.987 37.215-11.132 36.297-15.96-.918-4.828-18.658-5.51-39.622-1.523-20.964 3.986-37.215 11.131-36.297 15.96.918 4.827 18.657 5.51 39.622 1.523Z" fill="#000"/><path d="M68.703 65.412c-10.167 1.934-19.904 2.84-27.417 2.55-5.436-.208-12.048-1.139-12.665-4.386-.618-3.248 5.19-6.54 10.171-8.73 6.882-3.026 16.272-5.757 26.44-7.69 10.167-1.934 19.904-2.84 27.417-2.551 5.437.209 12.048 1.14 12.665 4.387.618 3.247-5.19 6.54-10.171 8.73-6.882 3.026-16.272 5.757-26.44 7.69ZM65.38 47.93c-22.475 4.274-36.751 11.465-35.984 15.499.767 4.034 16.686 5.484 39.161 1.21s36.751-11.465 35.984-15.499c-.767-4.034-16.686-5.483-39.161-1.21Z" fill="#fff"/><path d="M68.661 65.192c-8.114 1.543-15.882 2.265-21.871 2.035-6.016-.231-9.528-1.404-9.889-3.302-.36-1.897 2.476-4.277 7.987-6.7 5.488-2.413 12.978-4.592 21.092-6.135 8.113-1.542 15.881-2.265 21.87-2.035 6.017.232 9.528 1.404 9.89 3.302.36 1.897-2.477 4.277-7.987 6.7-5.487 2.413-12.978 4.592-21.092 6.135Zm-2.659-13.983c-16.709 3.177-29.71 8.872-28.984 12.695.727 3.823 14.912 4.348 31.62 1.17 16.71-3.176 29.712-8.872 28.985-12.695-.727-3.823-14.912-4.348-31.621-1.17Z" fill="#000"/><path d="M68.705 65.424c-8.131 1.547-15.917 2.271-21.925 2.04-6.226-.24-9.723-1.448-10.112-3.494-.389-2.046 2.42-4.453 8.124-6.961 5.503-2.42 13.012-4.604 21.143-6.15 8.131-1.546 15.918-2.271 21.924-2.04 6.227.24 9.723 1.448 10.112 3.494.39 2.046-2.42 4.453-8.124 6.961-5.502 2.42-13.011 4.604-21.142 6.15Zm-2.66-13.983c-16.298 3.1-29.486 8.787-28.795 12.42.69 3.631 15.044 4.082 31.344.982 16.3-3.1 29.487-8.787 28.796-12.419-.69-3.633-15.045-4.082-31.344-.983Z" fill="#fff"/><path d="M66.508 53.023C53.245 55.545 43.027 60.4 43.686 63.867c.032.17.09.331.171.487a.775.775 0 0 0-.072.03s4.347 7.148 12.39 8.24c3.94.535 11.746-.629 13.812-1.021 1.963-.374 9.916-1.886 13.223-4.12 5.708-3.856 7.948-9.801 8.39-11.685.14-.366.182-.721.117-1.064-.66-3.467-11.947-4.233-25.21-1.71Z" fill="#fff"/><path d="M70.033 71.835c-1.77.337-9.807 1.577-13.889 1.023-7.434-1.009-11.802-7.2-12.47-8.211l-.055.01-.06-.207a.217.217 0 0 1 .009-.162 1.941 1.941 0 0 1-.112-.376c-.695-3.65 9.413-8.535 23.01-11.12 13.596-2.586 24.79-1.752 25.485 1.898.071.375.03.77-.122 1.177-.595 2.512-3.126 8.191-8.484 11.812-1.528 1.032-5.077 2.59-13.312 4.156Zm-25.89-7.338c.836 1.235 5.053 6.941 12.065 7.893 4.019.545 11.981-.686 13.737-1.02 8.156-1.55 11.645-3.076 13.135-4.083 5.248-3.546 7.719-9.101 8.291-11.543l.01-.03c.125-.33.16-.643.105-.935-.623-3.277-12.04-3.975-24.932-1.523-12.892 2.451-23.257 7.29-22.634 10.568.027.142.077.284.149.421l.121.233-.047.019Z" fill="#fff"/><path d="M70.083 72.106c-1.779.338-9.86 1.585-13.977 1.025-7.214-.979-11.537-6.678-12.561-8.18l-.122.024-.13-.448a.515.515 0 0 1-.017-.226 2.261 2.261 0 0 1-.093-.338c-.188-.991.306-2.056 1.47-3.166 1.079-1.027 2.703-2.067 4.827-3.094 4.32-2.088 10.333-3.929 16.932-5.184 6.6-1.255 12.868-1.75 17.653-1.393 2.353.175 4.245.548 5.625 1.107 1.49.604 2.342 1.414 2.53 2.405.08.42.036.86-.129 1.309-.608 2.547-3.18 8.301-8.594 11.96-1.548 1.047-5.132 2.624-13.414 4.199Zm-25.516-7.481c1.137 1.585 5.21 6.614 11.677 7.491 3.982.54 11.901-.684 13.648-1.016 8.11-1.543 11.563-3.05 13.032-4.041 5.177-3.498 7.613-8.972 8.178-11.378l.02-.065a1.44 1.44 0 0 0 .092-.785c-.272-1.428-3.046-2.407-7.611-2.686-4.749-.29-10.786.2-16.999 1.382-6.213 1.182-12.009 2.94-16.32 4.954-4.143 1.934-6.365 3.864-6.093 5.291.022.117.063.232.122.346l.264.504-.01.002Z" fill="#000"/><path d="M85.623 64.615c.45 2.368-6.55 5.366-15.564 7.08-9.013 1.714-16.626 1.494-17.076-.873-.45-2.368 6.492-5.676 15.505-7.39 9.013-1.714 16.684-1.184 17.135 1.183Z" fill="#000"/><path d="M70.103 71.928c-4.457.847-8.65 1.237-11.804 1.097-3.39-.15-5.31-.897-5.55-2.159-.537-2.828 7.557-6.119 15.694-7.666 8.137-1.547 16.874-1.457 17.412 1.371.24 1.263-1.27 2.661-4.37 4.045-2.882 1.288-6.924 2.464-11.382 3.312Zm-1.571-8.264c-9.623 1.83-15.69 5.156-15.317 7.113.4 2.1 7.778 2.4 16.8.685 9.02-1.715 15.774-4.703 15.375-6.803-.372-1.958-7.235-2.825-16.858-.995Z" fill="#fff"/><path d="M70.155 72.2c-4.478.85-8.692 1.242-11.868 1.102-3.583-.16-5.537-.96-5.808-2.384-.278-1.46 1.365-3.056 4.75-4.615 2.938-1.354 7.006-2.583 11.163-3.373s8.393-1.14 11.622-.96c3.721.208 5.835 1.09 6.112 2.55.27 1.423-1.252 2.886-4.527 4.349-2.902 1.296-6.967 2.479-11.444 3.33Zm-1.572-8.264c-4.433.843-8.46 2.081-11.337 3.485-2.96 1.446-3.884 2.656-3.76 3.305.319 1.678 7.016 2.265 16.477.466 9.462-1.8 15.475-4.803 15.156-6.48-.123-.651-1.426-1.437-4.71-1.695-3.193-.25-7.392.076-11.826.92Z" fill="#000"/><path d="M80.316 65.614c.276 1.45-4.469 3.374-10.552 4.53-6.084 1.157-11.204 1.11-11.48-.34-.275-1.45 4.433-3.564 10.517-4.721s11.24-.92 11.515.53Z" fill="#fff"/><path d="M69.807 70.378c-5.418 1.03-11.407 1.304-11.756-.53-.353-1.856 5.252-3.96 10.705-4.997s11.439-1.137 11.792.72c.349 1.832-5.323 3.776-10.741 4.807Zm-.963-5.062c-6.355 1.209-10.543 3.311-10.328 4.444.201 1.06 4.542 1.42 11.203.153 6.66-1.267 10.566-3.194 10.364-4.254-.215-1.132-4.883-1.552-11.239-.343ZM91.076 35.525c-.587.02-1.18.047-1.78.076-.2 2.833-1.582 7.372-1.582 7.372l1.377.488c1.22-2.544 1.769-6.085 1.985-7.936ZM105.227 45.583l.693 1.955c3.903-.882 7.818-5.572 8.74-6.736a2.3 2.3 0 0 0-.029-.218c-.124-.657-.525-1.26-1.178-1.804-2.602 4.166-8.226 6.803-8.226 6.803ZM96.206 35.45c-1.184-.01-2.405.001-3.658.031-.233 3.05-1.494 7.339-1.494 7.339l3.033-.095c1.129-2.062 1.801-5.357 2.118-7.274ZM112.728 38.264c-.4-.247-.86-.48-1.378-.697-1.337 1.453-4.78 4.988-7.997 6.607l1.136.908c0-.001 6.363-3.759 8.239-6.819ZM110.061 37.093c-2.671-.854-6.434-1.4-11.112-1.58a91.725 91.725 0 0 0-1.036-.033c-.441 2.505-1.304 6.058-2.806 7.532l7.074.902s5.047-3.575 7.88-6.82Z" fill="#000"/><path d="m90.6 35.36-6.994.367 6.028.459-6.316.558 6.183.43-6.47.589 6.182.43-6.596.772 6.433.06-6.876.987 6.743.003-7.34 1.075 7.081.097-7.554.795 7.79.445L90.6 35.36ZM79.867 35.474l-9.044-1.972 7.326.533-8.027-1.684 7.016.592-7.406-1.802 4.7.23-5.371-1.226 3.556.126 3.386 1.764 3.864 3.44ZM86.004 63.525s4.192-4.971 5.079-10.438l-1.416-.693s-1.899 7.745-4.644 10.194l.981.937ZM88.405 51.67s-1.523 7.193-4.43 10.475l-3.954-.532s3.314-7.052 3.168-11.199l5.216 1.256ZM81.759 51.33s-.894 6.27-2.784 9.84c0 0-3.217-.03-5.386.383l4.928-1.098-5.105.168 5.394-1.186-5.474-.083 5.888-1.12-6.094.036 6.662-1.267-7.082-.098 7.215-.89-7.45-.35 8.019-.883-8.595-.452 9.008-.75L72 53.186l9.192-.624-9.118-.674 9.686-.558ZM36.843 45.837c.554-.196 1.116-.39 1.684-.583 1.226 2.563 4.178 6.278 4.178 6.278l-1.102.958c-2.07-1.918-3.88-5.01-4.76-6.653ZM27.371 60.388l.073 2.073c-3.954.611-9.317-2.314-10.603-3.058-.02-.07-.04-.142-.053-.214-.125-.657.027-1.364.434-2.11 3.95 2.92 10.15 3.309 10.15 3.309ZM32.044 47.651c1.097-.444 2.237-.882 3.413-1.314 1.336 2.751 4.083 6.278 4.083 6.278l-2.855 1.025c-1.807-1.503-3.642-4.322-4.641-5.989ZM17.707 56.33a9.973 9.973 0 0 1 1.027-1.152c1.777.86 6.277 2.884 9.863 3.21l-.723 1.26s-7.298-1.16-10.167-3.317ZM19.76 54.265c2.17-1.775 5.47-3.664 9.756-5.548.313-.138.631-.275.952-.412 1.329 2.169 3.435 5.157 5.374 5.976l-6.25 3.437c0-.001-6.006-1.473-9.833-3.453Z" fill="#000"/><path d="m37.225 45.51 6.641-2.226-5.438 2.64 6.08-1.8-5.593 2.67 6.234-1.828-5.593 2.669 6.42-1.702-5.962 2.418 6.758-1.607-6.272 2.478 7.224-1.695-6.553 2.69 7.32-2.033-7.084 3.273-4.181-5.948ZM48.027 41.53l7.69-5.155-6.62 3.185 6.848-4.513-6.309 3.126 6.229-4.395-4.287 1.939 4.545-3.112-3.26 1.423-2.503 2.883-2.333 4.618ZM45.254 59.876s4.056 6.132 7.966 8.118l3.483-1.947s-5.672-5.343-7.058-9.253l-4.39 3.082ZM51.312 57.12s3.133 5.505 6.202 8.132c0 0 2.98-1.21 5.15-1.622l-4.988.788 4.81-1.717-5.452.877 5.062-2.087-5.887 1.12 5.681-2.204-6.662 1.266 6.552-2.69-7.039 1.82 6.803-3.06-7.784 2.122 7.829-3.575-8.654 2.608 8.138-3.634-8.78 2.793 8.235-3.973-9.216 3.036Z" fill="#000"/><path d="M63.943 46.85a1.682 1.682 0 1 1 3.304-.63 1.682 1.682 0 0 1-3.304.63Z" fill="#fff"/><path d="M65.953 48.421a1.921 1.921 0 0 1-2.243-1.526 1.92 1.92 0 0 1 1.527-2.244 1.92 1.92 0 0 1 2.243 1.527 1.92 1.92 0 0 1-1.527 2.243Zm-.628-3.305a1.447 1.447 0 1 0 1.69 1.15 1.447 1.447 0 0 0-1.69-1.15Z" fill="#000"/><path d="M64.804 47.436a.946.946 0 1 1 1.86-.354.946.946 0 0 1-1.86.354Z" fill="#000"/><path d="M75.449 44.877a1.682 1.682 0 1 1 3.304-.629 1.682 1.682 0 0 1-3.304.63Z" fill="#fff"/><path d="M77.46 46.449a1.92 1.92 0 0 1-2.244-1.527 1.92 1.92 0 0 1 1.526-2.243 1.92 1.92 0 0 1 2.244 1.526 1.92 1.92 0 0 1-1.527 2.244Zm-.63-3.306c-.783.15-1.298.907-1.15 1.69.15.784.907 1.3 1.69 1.15a1.447 1.447 0 0 0 1.151-1.69 1.447 1.447 0 0 0-1.69-1.15Z" fill="#000"/><path d="M76.308 45.463a.947.947 0 1 1 1.86-.353.947.947 0 0 1-1.86.353Z" fill="#000"/><path d="M85.787 44.088a1.682 1.682 0 1 1 3.305-.628 1.682 1.682 0 0 1-3.305.628Z" fill="#fff"/><path d="M87.797 45.66a1.921 1.921 0 0 1-2.243-1.527 1.92 1.92 0 0 1 1.526-2.243 1.92 1.92 0 0 1 2.244 1.526 1.921 1.921 0 0 1-1.527 2.243Zm-.629-3.306c-.783.149-1.299.907-1.15 1.69.15.783.907 1.3 1.69 1.15a1.447 1.447 0 0 0 1.15-1.69 1.448 1.448 0 0 0-1.69-1.15Z" fill="#000"/><path d="M86.646 44.674a.946.946 0 1 1 1.86-.354.946.946 0 0 1-1.86.354Z" fill="#000"/><path d="M94.383 44.274a1.682 1.682 0 1 1 3.304-.63 1.682 1.682 0 0 1-3.304.63Z" fill="#fff"/><path d="M96.395 45.845a1.92 1.92 0 0 1-2.244-1.526 1.92 1.92 0 0 1 1.527-2.244 1.921 1.921 0 0 1 2.243 1.527 1.921 1.921 0 0 1-1.526 2.243Zm-.629-3.306c-.783.15-1.299.907-1.15 1.69a1.447 1.447 0 0 0 2.84-.54 1.448 1.448 0 0 0-1.69-1.15Z" fill="#000"/><path d="M95.243 44.86a.946.946 0 1 1 1.86-.354.946.946 0 0 1-1.86.354Z" fill="#000"/><path d="M100.269 45.4a1.683 1.683 0 1 1 3.307-.626 1.683 1.683 0 0 1-3.307.627Z" fill="#fff"/><path d="M102.281 46.972a1.921 1.921 0 0 1-2.243-1.526 1.922 1.922 0 0 1 1.527-2.244 1.921 1.921 0 0 1 2.243 1.527 1.92 1.92 0 0 1-1.527 2.243Zm-.628-3.306a1.447 1.447 0 0 0 .54 2.84 1.447 1.447 0 0 0 1.15-1.69 1.447 1.447 0 0 0-1.69-1.15Z" fill="#000"/><path d="M102.237 46.74a.947.947 0 1 0-.356-1.861.947.947 0 0 0 .356 1.86Z" fill="#000"/><path d="M104.416 48.627a1.524 1.524 0 1 1 2.995-.57 1.524 1.524 0 0 1-2.995.57Z" fill="#fff"/><path d="M106.242 50.073a1.762 1.762 0 0 1-2.059-1.401 1.763 1.763 0 0 1 1.401-2.06 1.763 1.763 0 0 1 2.059 1.402 1.764 1.764 0 0 1-1.401 2.059Zm-.57-2.996a1.29 1.29 0 0 0-1.025 1.506 1.29 1.29 0 0 0 2.531-.481 1.289 1.289 0 0 0-1.506-1.025Z" fill="#000"/><path d="M105.195 49.157a.858.858 0 1 1 1.685-.32.858.858 0 0 1-1.685.32Z" fill="#000"/><path d="M55.047 48.757a1.682 1.682 0 1 0-3.305.628 1.682 1.682 0 0 0 3.305-.628Z" fill="#fff"/><path d="M53.752 50.956a1.92 1.92 0 0 1-2.243-1.526 1.92 1.92 0 0 1 1.526-2.243 1.92 1.92 0 0 1 2.244 1.526 1.921 1.921 0 0 1-1.527 2.243Zm-.628-3.305c-.783.149-1.3.907-1.15 1.69a1.448 1.448 0 0 0 1.69 1.15 1.447 1.447 0 0 0-.54-2.84Z" fill="#000"/><path d="M54.462 49.617a.947.947 0 1 0-1.86.354.947.947 0 0 0 1.86-.354Z" fill="#000"/><path d="M45.14 51.817a1.682 1.682 0 1 0-3.304.629 1.682 1.682 0 0 0 3.305-.629Z" fill="#fff"/><path d="M43.846 54.017a1.921 1.921 0 0 1-2.243-1.527 1.92 1.92 0 0 1 1.526-2.243 1.92 1.92 0 0 1 2.243 1.526 1.92 1.92 0 0 1-1.526 2.244Zm-.629-3.306a1.448 1.448 0 0 0-1.15 1.69c.149.783.907 1.3 1.69 1.15a1.447 1.447 0 0 0-.54-2.84Z" fill="#000"/><path d="M44.555 52.678a.946.946 0 1 0-1.86.353.946.946 0 0 0 1.86-.353Z" fill="#000"/><path d="M37.213 55.145a1.682 1.682 0 1 0-3.305.628 1.682 1.682 0 0 0 3.305-.628Z" fill="#fff"/><path d="M35.918 57.345a1.92 1.92 0 0 1-2.243-1.526 1.92 1.92 0 0 1 1.526-2.244 1.921 1.921 0 0 1 2.244 1.527 1.921 1.921 0 0 1-1.527 2.243Zm-.628-3.306c-.784.15-1.3.907-1.15 1.69a1.447 1.447 0 0 0 1.69 1.15 1.447 1.447 0 0 0 1.15-1.69 1.448 1.448 0 0 0-1.69-1.15Z" fill="#000"/><path d="M36.627 56.006a.946.946 0 1 0-1.86.353.946.946 0 0 0 1.86-.353Z" fill="#000"/><path d="M32.15 58.354a1.683 1.683 0 1 0-3.305.63 1.683 1.683 0 0 0 3.306-.63Z" fill="#fff"/><path d="M30.856 60.554a1.92 1.92 0 0 1-2.244-1.526 1.921 1.921 0 0 1 1.527-2.244 1.921 1.921 0 0 1 2.243 1.527 1.921 1.921 0 0 1-1.526 2.243Zm-.629-3.306c-.783.15-1.299.908-1.15 1.69.149.784.907 1.3 1.69 1.15a1.447 1.447 0 0 0 1.15-1.69 1.448 1.448 0 0 0-1.69-1.15Z" fill="#000"/><path d="M31.563 59.215a.947.947 0 1 0-1.86.354.947.947 0 0 0 1.86-.354Z" fill="#000"/><path d="M29.478 62.876a1.525 1.525 0 1 0-2.996.57 1.525 1.525 0 0 0 2.996-.57Z" fill="#fff"/><path d="M28.308 64.891a1.763 1.763 0 0 1-2.06-1.401 1.764 1.764 0 0 1 1.402-2.06 1.764 1.764 0 0 1 2.06 1.402 1.763 1.763 0 0 1-1.402 2.06Zm-.57-2.996a1.289 1.289 0 0 0 .482 2.531 1.29 1.29 0 0 0 1.025-1.506 1.29 1.29 0 0 0-1.507-1.025Z" fill="#000"/><path d="M28.946 63.657a.857.857 0 1 0-1.684.32.857.857 0 0 0 1.684-.32ZM51.84 70.022s-5.724-3.085-8.556-7.845l1.063-1.165s4.609 6.509 8.06 7.779l-.567 1.231Z" fill="#000"/></g><g clip-path="url('#clip1_523_51880')"><path d="m287.434 477.761 8.818 45.329-8.818-45.329ZM287.434 477.761a450.685 450.685 0 0 0 1.924 11.387c.334 1.895.694 3.785 1.042 5.678l1.082 5.67 1.121 5.662.577 2.828.289 1.414.297 1.413a449.848 449.848 0 0 0 2.486 11.277c-.584-3.807-1.241-7.6-1.922-11.387l-.255-1.421-.262-1.419-.525-2.839-1.084-5.669-1.122-5.663c-.388-1.885-.763-3.772-1.163-5.654a454.32 454.32 0 0 0-2.485-11.277ZM284.93 477.285l4.611 44.53-4.611-44.53Z" fill="#000"/><path d="M284.93 477.285c.233 3.727.538 7.446.869 11.162.158 1.859.343 3.715.515 5.573l.556 5.568.596 5.564.314 2.781.158 1.39.165 1.389c.438 3.705.902 7.408 1.438 11.103a420.348 420.348 0 0 0-.867-11.162l-.123-1.394-.13-1.393-.263-2.785-.557-5.569-.597-5.564c-.212-1.853-.411-3.708-.637-5.56a424.857 424.857 0 0 0-1.437-11.103ZM282.427 476.808l.403 43.73-.403-43.73ZM282.427 476.808c-.119 3.645-.165 7.29-.185 10.935-.017 1.822-.008 3.645-.011 5.467l.03 5.466.07 5.466.051 2.733.026 1.367.034 1.366c.088 3.643.202 7.287.388 10.93.12-3.646.166-7.29.187-10.935l.008-1.367.002-1.366v-2.734l-.031-5.466-.07-5.466c-.037-1.822-.062-3.644-.112-5.466a406.979 406.979 0 0 0-.387-10.93ZM279.921 476.333l-3.803 42.929 3.803-42.929Z" fill="#000"/><path d="M279.922 476.333a393.598 393.598 0 0 0-1.236 10.707c-.192 1.786-.358 3.574-.537 5.361l-.496 5.365-.456 5.368-.212 2.685-.105 1.342-.098 1.344c-.263 3.582-.5 7.167-.665 10.758.47-3.564.867-7.134 1.238-10.707l.14-1.34.133-1.34.263-2.681.495-5.365.455-5.368c.139-1.791.29-3.58.414-5.372.264-3.582.502-7.166.667-10.757ZM277.417 475.857a388.834 388.834 0 0 0-2.283 10.479c-.367 1.749-.709 3.503-1.062 5.255l-1.021 5.262-.982 5.269-.475 2.639-.237 1.319-.229 1.32a384.286 384.286 0 0 0-1.721 10.586 388.029 388.029 0 0 0 2.285-10.479l.271-1.312.264-1.314.526-2.628 1.021-5.263.981-5.269c.314-1.76.641-3.516.941-5.278a392.686 392.686 0 0 0 1.721-10.586ZM274.914 475.381l-12.219 41.329 12.219-41.329Z" fill="#000"/><path d="M274.914 475.381a394.928 394.928 0 0 0-3.329 10.251c-.542 1.712-1.058 3.432-1.586 5.149l-1.547 5.16-1.509 5.172-.739 2.591-.369 1.295-.361 1.298a390.133 390.133 0 0 0-2.779 10.414 391.158 391.158 0 0 0 3.33-10.251l.403-1.286.394-1.287.789-2.576 1.546-5.161 1.508-5.172c.49-1.728.992-3.452 1.468-5.184a391.114 391.114 0 0 0 2.781-10.413ZM272.41 474.904l-16.426 40.53 16.426-40.53ZM272.41 474.904a408.245 408.245 0 0 0-4.372 10.026c-.716 1.675-1.407 3.362-2.11 5.043l-2.072 5.058-2.035 5.074-1.002 2.543-.501 1.271-.493 1.275a400.784 400.784 0 0 0-3.841 10.24 402.305 402.305 0 0 0 4.373-10.025l.533-1.258.526-1.262 1.051-2.523 2.071-5.059 2.034-5.073c.667-1.697 1.344-3.388 1.997-5.09a409.947 409.947 0 0 0 3.841-10.24ZM269.906 474.428l-20.633 39.729 20.633-39.729Z" fill="#000"/><path d="M269.906 474.428a428.807 428.807 0 0 0-5.412 9.8c-.89 1.64-1.757 3.292-2.634 4.938l-2.597 4.957-2.563 4.975-1.266 2.495-.633 1.248-.625 1.252a420.92 420.92 0 0 0-4.904 10.064 420.887 420.887 0 0 0 5.413-9.8l.664-1.232.657-1.235 1.313-2.471 2.597-4.957 2.561-4.976c.842-1.664 1.695-3.323 2.524-4.994a422.818 422.818 0 0 0 4.905-10.064ZM267.402 473.951l-24.841 38.929 24.841-38.929ZM267.402 473.951a457.99 457.99 0 0 0-6.451 9.578c-1.064 1.604-2.105 3.222-3.157 4.834l-3.123 4.855-3.089 4.876-1.53 2.447-.765 1.224-.758 1.229a451.53 451.53 0 0 0-5.968 9.886 447.742 447.742 0 0 0 6.452-9.577l.795-1.205.787-1.21 1.575-2.418 3.121-4.856 3.088-4.877c1.018-1.633 2.047-3.259 3.053-4.899a454.06 454.06 0 0 0 5.97-9.887Z" fill="#000"/><path d="m298.001 449.544-15.804-3.005-.31-.059-15.804-3.005c9.467-10.294 26.627-7.662 31.918 6.069Z" fill="#fff"/><path d="m265.545 443.653 32.891 6.255-.178-.463c-.039-.102-.99-2.535-3.229-5.267-6.026-7.356-15.437-9.496-24.212-4.604-3.085 1.72-4.862 3.634-4.936 3.715l-.336.364Zm31.995 5.523-30.893-5.875a22.22 22.22 0 0 1 4.456-3.255c7.992-4.446 17.25-3.133 23.487 4.467 1.621 1.974 2.566 3.826 2.95 4.663Z" fill="#000"/><path d="m265.622 443.628 32.753 6.228-.153-.397c-.04-.102-.988-2.529-3.223-5.256-6.068-7.407-15.477-9.437-24.162-4.595-3.08 1.717-4.853 3.627-4.927 3.707l-.288.313Zm31.985 5.601-31.04-5.903c10.014-9.639 25.048-7.229 31.04 5.903Z" fill="#fff"/><path d="m265.083 443.807 33.728 6.413-.331-.86c-.04-.104-1.006-2.573-3.267-5.332-6.256-7.635-15.85-9.488-24.51-4.661-3.123 1.742-4.921 3.68-4.996 3.762l-.624.678Zm32.039 5.049-29.967-5.699c10.059-9.009 23.818-6.587 29.967 5.699Z" fill="#000"/><path d="M298.32 450.406s-3.756-4.727-16.152-7.084c-12.394-2.357-17.005.779-17.005.779l33.157 6.305Z" fill="#000"/><path d="M247.003 443.513c9.665-.372 22.204.796 35.306 3.287 13.102 2.492 25.194 6.008 34.049 9.901 8.632 3.796 13.271 7.613 12.727 10.473-.544 2.86-6.26 4.708-15.683 5.07-9.665.372-22.204-.796-35.306-3.287-13.102-2.492-25.194-6.008-34.049-9.901-8.632-3.796-13.271-7.613-12.727-10.473.544-2.86 6.26-4.708 15.683-5.07Z" fill="#fff"/><path d="M246.984 443.041c9.7-.372 22.277.798 35.413 3.296 13.136 2.498 25.264 6.025 34.15 9.933 8.982 3.948 13.599 7.853 13.002 10.994-.597 3.14-6.325 5.077-16.129 5.454-9.701.373-22.277-.798-35.413-3.296-13.136-2.498-25.265-6.025-34.151-9.932-8.981-3.949-13.599-7.854-13.001-10.994.597-3.141 6.325-5.077 16.129-5.455Zm-2.937 16.016c8.854 3.893 20.946 7.409 34.049 9.901 13.102 2.491 25.64 3.659 35.306 3.287 9.423-.362 15.139-2.21 15.682-5.07.544-2.859-4.095-6.676-12.727-10.472-8.854-3.894-20.946-7.41-34.048-9.901-13.102-2.492-25.641-3.659-35.307-3.288-9.422.362-15.138 2.211-15.682 5.07-.544 2.86 4.095 6.677 12.727 10.473Z" fill="#fff"/><path d="M277.955 469.693c13.156 2.502 25.755 3.674 35.475 3.3 4.905-.189 8.807-.762 11.595-1.706 2.864-.968 4.478-2.305 4.795-3.973.317-1.667-.693-3.503-3.002-5.456-2.247-1.9-5.666-3.866-10.16-5.842-8.904-3.916-21.054-7.45-34.21-9.951-13.156-2.502-25.755-3.674-35.475-3.3-4.906.188-8.807.762-11.595 1.705-2.865.969-4.478 2.305-4.795 3.974-.317 1.667.693 3.503 3.002 5.455 2.248 1.901 5.666 3.866 10.16 5.843 8.904 3.915 21.054 7.449 34.21 9.951Zm4.301-22.621c13.083 2.488 25.154 5.998 33.99 9.883 4.272 1.879 7.55 3.745 9.74 5.548 2.096 1.725 3.074 3.322 2.827 4.621-.247 1.297-1.743 2.425-4.326 3.26-2.699.872-6.432 1.406-11.097 1.585-9.645.371-22.161-.795-35.244-3.282-13.082-2.488-25.152-5.997-33.989-9.883l-.111.252.111-.252c-4.273-1.879-7.55-3.745-9.74-5.548-2.097-1.725-3.074-3.323-2.827-4.62.247-1.299 1.743-2.426 4.325-3.261 2.699-.873 6.433-1.406 11.097-1.586 9.646-.371 22.163.796 35.244 3.283Z" fill="#000"/><path d="M277.678 471.151c-22.171-4.216-39.357-11.773-38.387-16.879.971-5.106 19.732-5.827 41.903-1.611s39.357 11.773 38.386 16.879c-.971 5.105-19.731 5.827-41.902 1.611Z" fill="#000"/><path d="M277.634 471.383c10.74 2.042 21.023 2.999 28.955 2.694 8.035-.309 12.732-1.905 13.224-4.493.492-2.588-3.291-5.797-10.652-9.033-7.266-3.195-17.183-6.079-27.922-8.122-10.74-2.042-21.023-2.999-28.955-2.694-8.035.309-12.732 1.905-13.224 4.494-.492 2.589 3.291 5.796 10.652 9.033 7.266 3.195 17.183 6.079 27.922 8.121Zm3.516-18.489c10.706 2.036 20.586 4.909 27.82 8.09 7.036 3.093 10.819 6.196 10.379 8.512-.441 2.315-5.098 3.813-12.778 4.108-7.897.304-18.142-.65-28.848-2.686-10.706-2.035-20.586-4.909-27.82-8.089-7.036-3.094-10.819-6.196-10.378-8.512.44-2.316 5.097-3.814 12.778-4.109 7.896-.304 18.141.65 28.847 2.686Z" fill="#fff"/><path d="M277.322 473.025c-20.965-3.987-37.215-11.132-36.297-15.96.918-4.828 18.657-5.51 39.621-1.524 20.965 3.987 37.215 11.133 36.297 15.96-.918 4.828-18.657 5.51-39.621 1.524Z" fill="#000"/><path d="M277.248 473.413c10.167 1.933 19.905 2.839 27.417 2.55 5.437-.209 12.048-1.14 12.666-4.387.617-3.247-5.191-6.54-10.172-8.73-6.882-3.026-16.272-5.757-26.439-7.691-10.168-1.933-19.905-2.839-27.417-2.55-5.438.209-12.049 1.139-12.666 4.387-.618 3.247 5.19 6.539 10.171 8.73 6.882 3.025 16.272 5.757 26.44 7.691Zm3.324-17.484c22.475 4.274 36.751 11.465 35.984 15.499-.767 4.034-16.686 5.484-39.161 1.21s-36.751-11.465-35.984-15.499c.768-4.034 16.687-5.483 39.161-1.21Z" fill="#fff"/><path d="M277.29 473.192c8.114 1.542 15.882 2.265 21.871 2.035 6.017-.232 9.528-1.404 9.889-3.302.361-1.897-2.476-4.277-7.987-6.7-5.487-2.413-12.978-4.592-21.091-6.134-8.114-1.543-15.882-2.266-21.871-2.036-6.017.232-9.528 1.404-9.889 3.302-.361 1.897 2.476 4.277 7.987 6.7 5.487 2.413 12.977 4.592 21.091 6.135Zm2.659-13.984c16.709 3.178 29.711 8.873 28.984 12.696-.727 3.823-14.912 4.348-31.621 1.171-16.708-3.178-29.71-8.873-28.983-12.696.726-3.823 14.912-4.348 31.62-1.171Z" fill="#000"/><path d="M277.246 473.424c8.131 1.547 15.918 2.271 21.925 2.04 6.226-.239 9.723-1.448 10.112-3.494.389-2.046-2.42-4.453-8.124-6.961-5.503-2.42-13.012-4.604-21.143-6.15-8.131-1.546-15.917-2.271-21.924-2.04-6.227.24-9.723 1.448-10.112 3.494-.389 2.046 2.42 4.453 8.124 6.961 5.502 2.42 13.011 4.604 21.142 6.15Zm2.659-13.983c16.3 3.1 29.487 8.787 28.796 12.419-.691 3.632-15.044 4.083-31.344.983-16.3-3.099-29.487-8.787-28.796-12.419.691-3.633 15.045-4.082 31.344-.983Z" fill="#fff"/><path d="M279.443 461.023c13.264 2.522 23.481 7.378 22.822 10.844-.032.169-.09.331-.171.487l.073.03s-4.348 7.148-12.39 8.24c-3.941.535-11.747-.629-13.813-1.022-1.962-.373-9.916-1.885-13.223-4.119-5.707-3.856-7.948-9.801-8.39-11.685-.139-.366-.182-.721-.117-1.063.66-3.468 11.947-4.234 25.209-1.712Z" fill="#fff"/><path d="M275.918 479.835c1.771.337 9.808 1.577 13.889 1.023 7.435-1.009 11.803-7.199 12.47-8.211l.055.01.061-.207a.219.219 0 0 0-.009-.162c.05-.123.087-.249.112-.376.694-3.651-9.413-8.535-23.01-11.121-13.597-2.585-24.792-1.751-25.486 1.899-.071.374-.03.771.123 1.177.594 2.512 3.125 8.191 8.484 11.812 1.527 1.032 5.076 2.59 13.311 4.156Zm25.891-7.338c-.837 1.235-5.053 6.941-12.066 7.893-4.019.545-11.981-.685-13.737-1.019-8.156-1.551-11.644-3.077-13.134-4.084-5.248-3.546-7.719-9.101-8.292-11.543l-.01-.03a1.718 1.718 0 0 1-.105-.935c.623-3.277 12.041-3.975 24.933-1.523 12.891 2.451 23.256 7.291 22.633 10.568a1.545 1.545 0 0 1-.148.421l-.122.233.048.019Z" fill="#fff"/><path d="M275.868 480.106c1.779.338 9.859 1.584 13.977 1.025 7.214-.979 11.537-6.678 12.562-8.18l.122.024.13-.448a.5.5 0 0 0 .016-.226c.04-.111.072-.225.093-.338.189-.991-.306-2.056-1.471-3.166-1.078-1.027-2.702-2.067-4.825-3.094-4.32-2.088-10.334-3.929-16.933-5.184-6.599-1.255-12.868-1.75-17.653-1.393-2.352.175-4.245.548-5.625 1.107-1.49.604-2.341 1.414-2.53 2.405-.08.419-.036.859.129 1.309.608 2.547 3.18 8.301 8.594 11.96 1.548 1.047 5.132 2.624 13.414 4.199Zm25.516-7.481c-1.136 1.585-5.21 6.614-11.677 7.491-3.982.54-11.901-.684-13.648-1.016-8.11-1.543-11.563-3.049-13.032-4.042-5.177-3.497-7.613-8.971-8.178-11.377l-.02-.065a1.448 1.448 0 0 1-.092-.785c.272-1.428 3.046-2.407 7.611-2.686 4.749-.29 10.786.201 16.999 1.382 6.213 1.182 12.009 2.941 16.319 4.954 4.145 1.934 6.366 3.864 6.094 5.291a1.208 1.208 0 0 1-.122.345l-.263.504.009.004Z" fill="#000"/><path d="M260.329 472.615c-.451 2.368 6.55 5.366 15.563 7.08 9.013 1.714 16.626 1.494 17.076-.873.45-2.367-6.492-5.676-15.505-7.39-9.013-1.714-16.684-1.184-17.134 1.183Z" fill="#000"/><path d="M275.848 479.928c4.458.847 8.65 1.237 11.804 1.097 3.39-.15 5.309-.897 5.549-2.159.538-2.828-7.556-6.119-15.693-7.666-8.136-1.547-16.874-1.457-17.412 1.371-.24 1.263 1.271 2.661 4.369 4.045 2.883 1.288 6.926 2.464 11.383 3.312Zm1.572-8.264c9.623 1.83 15.688 5.155 15.316 7.113-.399 2.1-7.778 2.401-16.799.685-9.022-1.715-15.775-4.703-15.376-6.803.372-1.958 7.235-2.825 16.859-.995Z" fill="#fff"/><path d="M275.797 480.199c4.477.851 8.692 1.243 11.867 1.103 3.583-.159 5.538-.961 5.808-2.383.278-1.461-1.364-3.057-4.749-4.616-2.938-1.354-7.007-2.583-11.164-3.373-4.157-.791-8.392-1.141-11.622-.96-3.721.208-5.834 1.09-6.112 2.55-.271 1.423 1.252 2.886 4.527 4.349 2.903 1.296 6.967 2.479 11.445 3.33Zm1.571-8.263c4.433.843 8.46 2.081 11.337 3.486 2.961 1.445 3.884 2.655 3.76 3.304-.319 1.678-7.016 2.265-16.477.466-9.461-1.799-15.475-4.803-15.156-6.481.124-.65 1.426-1.436 4.71-1.694 3.193-.251 7.392.076 11.826.919Z" fill="#000"/><path d="M265.635 473.614c-.276 1.45 4.469 3.374 10.553 4.531 6.083 1.157 11.203 1.108 11.479-.342.275-1.45-4.433-3.563-10.517-4.72-6.084-1.157-11.239-.919-11.515.531Z" fill="#fff"/><path d="M276.144 478.378c5.418 1.03 11.407 1.304 11.756-.53.353-1.856-5.252-3.96-10.705-4.997s-11.439-1.137-11.792.719c-.349 1.833 5.324 3.777 10.741 4.808Zm.963-5.062c6.355 1.208 10.544 3.311 10.328 4.444-.201 1.059-4.542 1.42-11.202.153-6.661-1.267-10.566-3.194-10.365-4.254.215-1.132 4.884-1.552 11.239-.343ZM254.875 443.525c.587.021 1.181.046 1.781.076.199 2.833 1.581 7.372 1.581 7.372l-1.376.488c-1.222-2.544-1.77-6.085-1.986-7.936ZM240.724 453.583l-.693 1.955c-3.903-.882-7.818-5.572-8.74-6.736.007-.073.015-.146.029-.218.125-.657.525-1.26 1.178-1.804 2.602 4.167 8.226 6.803 8.226 6.803ZM249.746 443.451c1.184-.01 2.404 0 3.657.03.233 3.05 1.494 7.339 1.494 7.339l-3.032-.095c-1.13-2.062-1.802-5.357-2.119-7.274ZM233.223 446.263c.4-.246.86-.479 1.378-.696 1.338 1.453 4.78 4.988 7.997 6.607l-1.136.908c0-.001-6.363-3.759-8.239-6.819ZM235.89 445.094c2.671-.855 6.435-1.401 11.112-1.581.342-.013.688-.024 1.037-.033.44 2.505 1.303 6.057 2.806 7.532l-7.075.902c0-.001-5.047-3.574-7.88-6.82Z" fill="#000"/><path d="m255.351 443.36 6.994.367-6.028.459 6.316.558-6.182.43 6.47.589-6.182.429 6.595.773-6.433.061 6.876.986-6.743.003 7.341 1.074-7.082.098 7.555.795-7.791.445-1.706-7.067ZM266.084 443.474l9.044-1.972-7.325.533 8.026-1.684-7.016.592 7.406-1.802-4.699.23 5.371-1.226-3.557.126-3.385 1.764-3.865 3.439ZM259.947 471.525s-4.192-4.971-5.079-10.438l1.416-.693s1.899 7.745 4.644 10.194l-.981.937ZM257.546 459.67s1.523 7.193 4.43 10.475l3.954-.532s-3.314-7.052-3.168-11.199l-5.216 1.256ZM264.192 459.33s.895 6.271 2.784 9.841c0 0 3.217-.031 5.386.382l-4.928-1.098 5.105.168-5.394-1.186 5.474-.083-5.887-1.119 6.093.035-6.662-1.267 7.082-.098-7.215-.891 7.451-.349-8.019-.883 8.594-.452-9.008-.75 8.904-.394-9.192-.624 9.118-.674-9.686-.558ZM309.108 453.837c-.554-.196-1.116-.39-1.684-.582-1.226 2.561-4.178 6.277-4.178 6.277l1.102.958c2.07-1.918 3.88-5.01 4.76-6.653ZM318.58 468.388l-.073 2.073c3.954.611 9.317-2.314 10.603-3.058a2.57 2.57 0 0 0 .053-.214c.125-.657-.027-1.364-.434-2.11-3.95 2.92-10.149 3.309-10.149 3.309ZM313.907 455.651a110.052 110.052 0 0 0-3.413-1.313c-1.336 2.75-4.083 6.277-4.083 6.277l2.855 1.025c1.807-1.503 3.642-4.322 4.641-5.989ZM328.244 464.331a9.893 9.893 0 0 0-1.027-1.153c-1.777.86-6.277 2.884-9.863 3.21l.723 1.261c.001-.001 7.298-1.161 10.167-3.318ZM326.192 462.265c-2.171-1.775-5.471-3.664-9.757-5.548a96.762 96.762 0 0 0-.951-.412c-1.33 2.169-3.436 5.157-5.375 5.976l6.25 3.436s6.006-1.472 9.833-3.452Z" fill="#000"/><path d="m308.726 453.509-6.641-2.225 5.438 2.639-6.08-1.798 5.593 2.668-6.234-1.827 5.593 2.669-6.419-1.702 5.962 2.418-6.759-1.607 6.272 2.478-7.223-1.695 6.552 2.69-7.319-2.033 7.083 3.273 4.182-5.948ZM297.924 449.529l-7.689-5.154 6.618 3.185-6.847-4.513 6.309 3.126-6.229-4.395 4.287 1.939-4.545-3.112 3.261 1.423 2.502 2.884 2.333 4.617ZM300.697 467.876s-4.056 6.132-7.966 8.118l-3.482-1.947s5.671-5.343 7.057-9.253l4.391 3.082ZM294.639 465.12s-3.133 5.505-6.202 8.132c0 0-2.98-1.209-5.149-1.622l4.987.788-4.811-1.717 5.453.877-5.062-2.087 5.887 1.12-5.681-2.205 6.662 1.267-6.552-2.69 7.039 1.819-6.803-3.059 7.784 2.122-7.829-3.575 8.654 2.608-8.138-3.634 8.78 2.793-8.234-3.973 9.215 3.036Z" fill="#000"/><path d="M282.008 454.85a1.682 1.682 0 1 0-3.304-.63 1.682 1.682 0 0 0 3.304.63Z" fill="#fff"/><path d="M279.998 456.421a1.92 1.92 0 0 0 .717-3.77 1.922 1.922 0 0 0-2.244 1.527 1.92 1.92 0 0 0 1.527 2.243Zm.628-3.305a1.449 1.449 0 0 1 1.151 1.69 1.448 1.448 0 0 1-1.691 1.151 1.447 1.447 0 0 1 .54-2.841Z" fill="#000"/><path d="M281.147 455.436a.946.946 0 1 0-1.859-.355.946.946 0 0 0 1.859.355Z" fill="#000"/><path d="M270.502 452.877a1.682 1.682 0 1 0-3.304-.63 1.682 1.682 0 0 0 3.304.63Z" fill="#fff"/><path d="M268.492 454.449a1.92 1.92 0 1 0-1.527-2.244 1.922 1.922 0 0 0 1.527 2.244Zm.628-3.306c.784.149 1.3.907 1.151 1.691a1.448 1.448 0 0 1-1.691 1.15 1.447 1.447 0 0 1 .54-2.841Z" fill="#000"/><path d="M269.643 453.463a.947.947 0 1 0-1.86-.354.947.947 0 0 0 1.86.354Z" fill="#000"/><path d="M260.164 452.088a1.682 1.682 0 1 0-3.306-.629 1.682 1.682 0 0 0 3.306.629Z" fill="#fff"/><path d="M258.154 453.659a1.92 1.92 0 1 0-1.526-2.243 1.92 1.92 0 0 0 1.526 2.243Zm.629-3.305a1.447 1.447 0 0 1 1.15 1.69 1.447 1.447 0 0 1-2.841-.54 1.448 1.448 0 0 1 1.691-1.15Z" fill="#000"/><path d="M259.306 452.674a.948.948 0 0 0-1.86-.354.948.948 0 0 0 1.86.354Z" fill="#000"/><path d="M251.569 452.274a1.683 1.683 0 1 0-3.306-.628 1.683 1.683 0 0 0 3.306.628Z" fill="#fff"/><path d="M249.556 453.845a1.921 1.921 0 0 0 2.244-1.526 1.922 1.922 0 0 0-1.527-2.244 1.922 1.922 0 0 0-2.243 1.527 1.92 1.92 0 0 0 1.526 2.243Zm.629-3.306a1.447 1.447 0 0 1-.54 2.841 1.448 1.448 0 0 1-1.15-1.691 1.448 1.448 0 0 1 1.69-1.15Z" fill="#000"/><path d="M250.708 452.86a.946.946 0 1 0-1.859-.355.946.946 0 0 0 1.859.355Z" fill="#000"/><path d="M245.682 453.401a1.683 1.683 0 1 0-3.306-.628 1.683 1.683 0 0 0 3.306.628Z" fill="#fff"/><path d="M243.67 454.972a1.92 1.92 0 0 0 2.243-1.527 1.92 1.92 0 0 0-1.526-2.243 1.922 1.922 0 0 0-2.244 1.527 1.922 1.922 0 0 0 1.527 2.243Zm.628-3.306a1.447 1.447 0 1 1-1.69 1.15 1.448 1.448 0 0 1 1.69-1.15Z" fill="#000"/><path d="M243.714 454.74a.947.947 0 1 1 .354-1.86.947.947 0 0 1-.354 1.86Z" fill="#000"/><path d="M241.535 456.627a1.524 1.524 0 1 0-2.994-.572 1.524 1.524 0 0 0 2.994.572Z" fill="#fff"/><path d="M239.709 458.073a1.765 1.765 0 0 0 2.06-1.401 1.765 1.765 0 0 0-1.402-2.06 1.765 1.765 0 0 0-2.059 1.402 1.764 1.764 0 0 0 1.401 2.059Zm.57-2.996a1.29 1.29 0 0 1-.481 2.531 1.29 1.29 0 0 1 .481-2.531Z" fill="#000"/><path d="M240.756 457.157a.859.859 0 0 0-1.685-.321.858.858 0 0 0 1.685.321Z" fill="#000"/><path d="M290.904 456.756a1.683 1.683 0 1 1 3.307.631 1.683 1.683 0 0 1-3.307-.631Z" fill="#fff"/><path d="M292.199 458.956a1.92 1.92 0 0 0 .717-3.77 1.92 1.92 0 0 0-.717 3.77Zm.629-3.305a1.448 1.448 0 0 1 1.15 1.69 1.449 1.449 0 0 1-1.691 1.151 1.449 1.449 0 0 1-1.15-1.691 1.448 1.448 0 0 1 1.691-1.15Z" fill="#000"/><path d="M291.489 457.617a.947.947 0 1 1 1.86.354.947.947 0 0 1-1.86-.354Z" fill="#000"/><path d="M300.81 459.817a1.682 1.682 0 1 1 3.305.629 1.682 1.682 0 0 1-3.305-.629Z" fill="#fff"/><path d="M302.105 462.017a1.923 1.923 0 0 0 2.244-1.527 1.92 1.92 0 1 0-2.244 1.527Zm.629-3.306a1.448 1.448 0 0 1 1.15 1.69 1.448 1.448 0 0 1-1.69 1.151 1.446 1.446 0 0 1 .54-2.841Z" fill="#000"/><path d="M301.396 460.678a.946.946 0 1 1 1.858.352.946.946 0 0 1-1.858-.352Z" fill="#000"/><path d="M308.738 463.145a1.682 1.682 0 1 1 3.304.628 1.682 1.682 0 0 1-3.304-.628Z" fill="#fff"/><path d="M310.033 465.345a1.92 1.92 0 0 0 .717-3.77 1.923 1.923 0 0 0-2.244 1.527 1.922 1.922 0 0 0 1.527 2.243Zm.629-3.306a1.448 1.448 0 0 1 1.15 1.691 1.448 1.448 0 0 1-1.691 1.15 1.448 1.448 0 0 1-1.15-1.691 1.449 1.449 0 0 1 1.691-1.15Z" fill="#000"/><path d="M309.325 464.006a.945.945 0 1 1 1.859.354.945.945 0 1 1-1.859-.354Z" fill="#000"/><path d="M313.8 466.354a1.683 1.683 0 1 1 3.306.63 1.683 1.683 0 0 1-3.306-.63Z" fill="#fff"/><path d="M315.095 468.554a1.921 1.921 0 0 0 2.244-1.527 1.922 1.922 0 0 0-1.527-2.243 1.922 1.922 0 0 0-2.243 1.527 1.92 1.92 0 0 0 1.526 2.243Zm.629-3.306a1.447 1.447 0 0 1-.54 2.841 1.448 1.448 0 0 1-1.15-1.691 1.448 1.448 0 0 1 1.69-1.15Z" fill="#000"/><path d="M314.388 467.215a.946.946 0 1 1 1.86.353.946.946 0 0 1-1.86-.353Z" fill="#000"/><path d="M316.473 470.875a1.526 1.526 0 1 1 2.998.572 1.526 1.526 0 0 1-2.998-.572Z" fill="#fff"/><path d="M317.643 472.891a1.762 1.762 0 0 0 .658-3.46 1.762 1.762 0 0 0-.658 3.46Zm.57-2.996a1.29 1.29 0 0 1-.482 2.531 1.29 1.29 0 0 1 .482-2.531Z" fill="#000"/><path d="M317.005 471.657a.856.856 0 1 1 1.683.319.856.856 0 0 1-1.683-.319ZM294.112 478.023s5.724-3.086 8.555-7.846l-1.063-1.165s-4.609 6.509-8.061 7.779l.569 1.232Z" fill="#000"/></g><path d="m312.283 63.053.75.285c.419-.728 1.08-1.447 2.001-2.15 1.834-1.387 4.816-2.298 6.955-1.96l.288-.757c-.9-.59-1.693-1.407-2.368-2.426-1.379-2.072-2.004-4.62-1.616-6.557l-.749-.285c-.542.888-1.302 1.652-2.301 2.345-1.973 1.376-4.475 1.994-6.678 1.715l-.288.757c.936.603 1.78 1.501 2.503 2.663 1.475 2.356 1.824 4.717 1.503 6.37ZM24.443 463.053l.75.285c.42-.728 1.08-1.447 2.001-2.15 1.835-1.387 4.816-2.298 6.955-1.96l.288-.757c-.9-.59-1.693-1.407-2.368-2.426-1.378-2.072-2.004-4.621-1.615-6.557l-.75-.285c-.542.888-1.302 1.652-2.3 2.345-1.974 1.376-4.476 1.994-6.679 1.715l-.287.757c.935.603 1.779 1.501 2.502 2.663 1.475 2.356 1.824 4.717 1.503 6.37Z" fill="#0E1012"/><defs><clipPath id="clip0_523_51880"><path fill="#fff" transform="rotate(-10.767 117.796 11.1)" d="M0 0h118.841v118.841H0z"/></clipPath><clipPath id="clip1_523_51880"><path fill="#fff" transform="scale(-1 1) rotate(-10.767 2109.61 2050.667)" d="M0 0h118.841v118.841H0z"/></clipPath></defs></svg>