<svg width="10" height="9" fill="none" xmlns="http://www.w3.org/2000/svg"><path d="M8.16 0c.576 0 .97.117 1.184.352.213.213.32.608.32 1.184v1.856c0 .79-.064 1.493-.192 2.112a7.392 7.392 0 0 1-.512 1.728c-.213.533-.47 1.045-.768 1.536l-1.728-.512c.15-.64.256-1.259.32-1.856.064-.597.096-1.248.096-1.952-.81 0-1.216-.448-1.216-1.344l.032-1.568c.021-.576.139-.97.352-1.184C6.283.117 6.667 0 7.2 0h.96ZM2.528 0c.576 0 .97.117 1.184.352.213.213.32.608.32 1.184v1.856c0 .79-.064 1.493-.192 2.112a7.392 7.392 0 0 1-.512 1.728c-.213.533-.47 1.045-.768 1.536L.8 8.256c.17-.64.277-1.259.32-1.856.064-.597.107-1.248.128-1.952C.438 4.448.021 4 0 3.104l.032-1.568C.053.96.171.566.384.352.619.117 1.014 0 1.568 0h.96Z" fill="#595E66"/></svg>