<svg width="10" height="9" fill="none" xmlns="http://www.w3.org/2000/svg"><path d="M1.504 8.768c-.576 0-.97-.107-1.184-.32C.107 8.235 0 7.84 0 7.264V5.376c0-.768.053-1.461.16-2.08.128-.64.299-1.216.512-1.728.235-.533.501-1.056.8-1.568l1.76.544c-.17.64-.288 1.259-.352 1.856a48.12 48.12 0 0 0-.096 1.92c.81 0 1.227.448 1.248 1.344L4 7.264c-.021.576-.15.97-.384 1.184-.213.213-.597.32-1.152.32h-.96Zm5.632 0c-.555 0-.939-.107-1.152-.32-.213-.213-.33-.608-.352-1.184V5.376c.021-.768.085-1.461.192-2.08.128-.64.299-1.216.512-1.728.213-.533.48-1.056.8-1.568l1.728.544c-.17.64-.288 1.259-.352 1.856a48.12 48.12 0 0 0-.096 1.92c.81 0 1.227.448 1.248 1.344l-.032 1.6c-.021.576-.15.97-.384 1.184-.213.213-.597.32-1.152.32h-.96Z" fill="#595E66"/></svg>