<svg aria-hidden="true" style="width:0;height:0;position:absolute;overflow:hidden" xmlns="http://www.w3.org/2000/svg"><defs><symbol id="icon-confirmation-tick" viewBox="0 0 45 32"><path stroke-linejoin="round" stroke-linecap="round" stroke-width="3.809" d="m2.045 16.085 13.62 13.622L42.907 2.464"/></symbol><symbol id="icon-arrow-down" viewBox="0 0 32 32"><path fill="none" stroke="#0E1012" style="stroke:var(--color1,#0e1012)" stroke-linejoin="round" stroke-linecap="round" stroke-width="2" d="M15.334 25.333V6.666M20.667 20l-5.333 5.333M10 20l5.333 5.333"/></symbol><symbol id="icon-arrow-left" viewBox="0 0 32 32"><path stroke="#" style="stroke:var(--color1)" stroke-linejoin="round" stroke-linecap="round" stroke-width="2" d="M6 16h18.667m-13.334 5.333L6 16m5.333-5.333L6 16"/></symbol><symbol id="icon-arrow-right" viewBox="0 0 32 32"><path stroke="#" style="stroke:var(--color1)" stroke-linejoin="round" stroke-linecap="round" stroke-width="2" d="M6.667 16h18.667M20 21.333 25.333 16M20 10.667 25.333 16"/></symbol><symbol id="icon-arrow-up" viewBox="0 0 32 32"><path fill="none" stroke="#0E1012" style="stroke:var(--color1,#0e1012)" stroke-linejoin="round" stroke-linecap="round" stroke-width="2" d="M15.334 25.333V6.666M10 11.333 15.333 6m5.334 5.333L15.334 6"/></symbol><symbol id="icon-burger" viewBox="0 0 32 32"><path fill="none" stroke="#0E1012" style="stroke:var(--color1,#0e1012)" stroke-linejoin="round" stroke-linecap="round" stroke-width="1.5" d="M6 8h20M6 16h20M6 24h20"/></symbol><symbol id="icon-chevrone-down" viewBox="0 0 32 32"><path fill="none" stroke="#0E1012" style="stroke:var(--color1,#0e1012)" stroke-linejoin="round" stroke-linecap="round" stroke-width="2" d="m8 12 8 8 8-8"/></symbol><symbol id="icon-chevrone-left" viewBox="0 0 32 32"><path fill="none" stroke="#0E1012" style="stroke:var(--color1,#0e1012)" stroke-linejoin="round" stroke-linecap="round" stroke-width="2" d="m20 24-8-8 8-8"/></symbol><symbol id="icon-chevrone-right" viewBox="0 0 32 32"><path fill="none" stroke="#0E1012" style="stroke:var(--color1,#0e1012)" stroke-linejoin="round" stroke-linecap="round" stroke-width="2" d="m12 24 8-8-8-8"/></symbol><symbol id="icon-chevrone-up" viewBox="0 0 32 32"><path fill="none" style="stroke:var(--color1)" stroke-linejoin="round" stroke-linecap="round" stroke-width="2" d="m8 20 8-8 8 8"/></symbol><symbol id="icon-circle" viewBox="0 0 32 32"><path fill="#0E1012" style="fill:var(--color1,#0e1012)" d="M20 16a4 4 0 1 1-8 0 4 4 0 0 1 8 0z"/></symbol><symbol id="icon-close" viewBox="0 0 32 32"><path fill="currentColor" stroke="currentColor" style="stroke:var(--color1)" stroke-linejoin="round" stroke-linecap="round" d="M24 8 8 24M8 8l16 16"/></symbol><symbol id="icon-delete" viewBox="0 0 32 32"><path stroke="#" style="stroke:var(--color1)" stroke-linejoin="round" stroke-linecap="round" stroke-width="2" d="M5.333 9.333h21.333m-13.332 5.334v8m5.332-8v8M6.667 9.333l1.333 16A2.67 2.67 0 0 0 10.667 28h10.667a2.67 2.67 0 0 0 2.667-2.667l1.333-16"/><path style="stroke:var(--color1)" stroke-linejoin="round" stroke-linecap="round" stroke-width="2" d="M12 9.333v-4a1.335 1.335 0 0 1 1.334-1.334h5.333a1.335 1.335 0 0 1 1.334 1.334v4"/></symbol><symbol id="icon-dots-horizontal" viewBox="0 0 32 32"><path fill="#0E1012" style="fill:var(--color1,#0e1012);stroke:var(--color1,#0e1012)" stroke="#0E1012" stroke-linejoin="round" stroke-linecap="round" stroke-width="2" d="M6.666 17.333a1.333 1.333 0 1 0 0-2.667 1.333 1.333 0 0 0 0 2.667zm9.334 0a1.333 1.333 0 1 0 0-2.667 1.333 1.333 0 0 0 0 2.667zm9.333 0a1.333 1.333 0 1 0 0-2.667 1.333 1.333 0 0 0 0 2.667z"/></symbol><symbol id="icon-facebook" viewBox="0 0 32 32"><path fill="#FFF" stroke="#0E1012" style="stroke:var(--color1,#0e1012)" stroke-linejoin="round" stroke-linecap="round" stroke-width="1.454" d="M24 2.667h-4a6.67 6.67 0 0 0-6.667 6.667v4h-4v5.333h4v10.667h5.333V18.667h4l1.333-5.333h-5.333v-4A1.335 1.335 0 0 1 20 8h4V2.667z"/></symbol><symbol id="icon-filter" viewBox="0 0 32 32"><path fill="none" stroke="#0E1012" style="stroke:var(--color1,#0e1012)" stroke-linejoin="round" stroke-linecap="round" stroke-width="1.5" d="M7.333 6.667h17.333a1.332 1.332 0 0 1 .667 2.001l-6.667 7.333v9.333l-5.333-4v-5.333L6.666 8.668a1.333 1.333 0 0 1 .158-1.678c.143-.145.317-.255.509-.323z"/></symbol><symbol id="icon-eye-open" viewBox="0 0 32 32"><path fill="none" stroke="#c2c6cb" style="stroke:var(--color1,#c2c6cb)" stroke-linejoin="round" stroke-linecap="round" stroke-width="2" d="M16 18.667a2.667 2.667 0 1 0 0-5.334 2.667 2.667 0 0 0 0 5.334z"/><path fill="none" stroke="#c2c6cb" style="stroke:var(--color1,#c2c6cb)" stroke-linejoin="round" stroke-linecap="round" stroke-width="2" d="M29.333 16c-3.556 6.223-8 9.333-13.333 9.333S6.223 22.222 2.667 16c3.556-6.223 8-9.333 13.333-9.333S25.777 9.778 29.333 16z"/></symbol><symbol id="icon-instagram" viewBox="0 0 32 32"><path fill="#FFF" stroke="#FFF" style="stroke:var(--color1,#0e1012)" stroke-linejoin="round" stroke-linecap="round" stroke-width="1.454" d="M21.333 5.333H10.666a5.333 5.333 0 0 0-5.333 5.333v10.667a5.333 5.333 0 0 0 5.333 5.333h10.667a5.333 5.333 0 0 0 5.333-5.333V10.666a5.333 5.333 0 0 0-5.333-5.333z"/><path fill="none" stroke="#0E1012" style="stroke:var(--color1,#0e1012)" stroke-linejoin="round" stroke-linecap="round" stroke-width="1.454" d="M16 20a4 4 0 1 0 0-8 4 4 0 0 0 0 8zm6-10v.001"/></symbol><symbol id="icon-minus" viewBox="0 0 32 32"><path fill="none" stroke="#0E1012" style="stroke:var(--color1,#0e1012)" stroke-linejoin="round" stroke-linecap="round" stroke-width="1.333" d="M6.667 16h18.667"/></symbol><symbol id="icon-plus" viewBox="0 0 32 32"><path fill="none" stroke="#0E1012" style="stroke:var(--color1,#0e1012)" stroke-linejoin="round" stroke-linecap="round" stroke-width="2" d="M16 6.667v18.667M6.667 16h18.667"/></symbol><symbol id="icon-sale" viewBox="0 0 32 32"><path fill="none" stroke="#0E1012" style="stroke:var(--color1,#0e1012)" stroke-linejoin="round" stroke-linecap="round" stroke-width="1.333" d="m5.333 25.333 20-20"/><path fill="#0E1012" style="fill:var(--color1,#0e1012);stroke:var(--color1,#0e1012)" stroke="#0E1012" stroke-linejoin="round" stroke-linecap="round" stroke-width="1.333" d="M7 8.667a1.667 1.667 0 1 0 0-3.334 1.667 1.667 0 0 0 0 3.334zm16.667 16.666a1.667 1.667 0 1 0 0-3.333 1.667 1.667 0 0 0 0 3.333z"/></symbol><symbol id="icon-search" viewBox="0 0 32 32"><path fill="none" stroke="#0E1012" style="stroke:var(--color1,#0e1012)" stroke-linejoin="round" stroke-linecap="round" stroke-width="1.333" d="M13.333 22.667a9.333 9.333 0 1 0 0-18.666 9.333 9.333 0 1 0 0 18.666zM28 28l-8-8"/></symbol><symbol id="icon-size-plus" viewBox="0 0 32 32"><path fill="none" stroke="#0E1012" style="stroke:var(--color1,#0e1012)" stroke-linejoin="round" stroke-linecap="round" stroke-width="1.333" d="M13.333 22.667a9.333 9.333 0 1 0 0-18.666 9.333 9.333 0 1 0 0 18.666zm-4-9.334h8m-4-4v8M28 28l-8-8"/></symbol><symbol id="icon-sort" viewBox="0 0 32 32"><path style="stroke:var(--color1)" stroke-linejoin="round" stroke-linecap="round" stroke-width="1.5" d="m4 12 5.333-5.333m0 0L14.666 12M9.333 6.667v18.667M28 20l-5.333 5.333m0 0L17.334 20m5.333 5.333V6.666"/></symbol><symbol id="icon-Star" viewBox="0 0 32 32"><path d="m25.544 19.969-8.993-3.49 8.993-3.482c1.003-.39 1.42-1.576.884-2.508s-1.777-1.161-2.618-.491l-7.599 6.057-.009-.051 1.53-9.988C17.902 4.957 17.077 4 15.998 4s-1.896.957-1.734 2.016l1.53 9.988-.008.051-7.599-6.057a1.763 1.763 0 0 0-2.618.491 1.75 1.75 0 0 0 .884 2.508l8.993 3.482-8.993 3.49c-1.003.39-1.42 1.576-.884 2.508s1.777 1.161 2.618.491l7.455-5.939-1.377 8.954a1.755 1.755 0 0 0 1.734 2.016 1.75 1.75 0 0 0 1.734-2.016l-1.377-8.954 7.455 5.939a1.763 1.763 0 0 0 2.618-.491 1.745 1.745 0 0 0-.884-2.508z"/></symbol><symbol id="icon-telegram" viewBox="0 0 32 32"><path fill="#FFF" stroke="#FFF" style="stroke:var(--color1,#0e1012)" stroke-linejoin="round" stroke-linecap="round" stroke-width="1.454" d="m20 13.333-5.333 5.333 8 8L28 5.333 4 14.666l5.333 2.667 2.667 8L16 20"/></symbol><symbol id="icon-user" viewBox="0 0 32 32"><path fill="none" stroke="#0E1012" style="stroke:var(--color1,#0e1012)" stroke-linejoin="round" stroke-linecap="round" stroke-width="1.5" d="M16 14.667a5.333 5.333 0 1 0 0-10.666 5.333 5.333 0 0 0 0 10.666zM8 28v-2.667A5.332 5.332 0 0 1 13.333 20h5.333a5.332 5.332 0 0 1 5.333 5.333V28"/></symbol><symbol id="icon-google" viewBox="0 0 32 32"><path fill="none" stroke="#0E1012" style="stroke:var(--color1,#0e1012)" stroke-linejoin="round" stroke-linecap="round" stroke-width="2" d="M23.717 6.811a12 12 0 0 0-19.372 6.333 12 12 0 1 0 23.656 2.855H17.334"/></symbol><symbol id="icon-apple" viewBox="0 0 32 32"><path fill="none" stroke="#0E1012" style="stroke:var(--color1,#0e1012)" stroke-linejoin="round" stroke-linecap="round" stroke-width="2" d="M12 10.667c-4 0-5.333 4-5.333 7.333 0 4 2.667 10 5.333 10 1.451-.061 2.239-.667 4-.667 1.749 0 2 .667 4 .667s5.333-4 5.333-6.667c-.037-.013-3.296-.537-3.333-4-.025-2.893 3.221-3.939 3.333-4-1.364-1.989-3.935-2.617-4.667-2.667-1.911-.148-3.773 1.333-4.667 1.333-.907 0-2.533-1.333-4-1.333zM16 6.667A2.668 2.668 0 0 0 18.667 4 2.668 2.668 0 0 0 16 6.667"/></symbol><symbol id="icon-ware" viewBox="0 0 32 32"><path fill="#0E1012" style="fill:var(--color1,#0e1012)" d="M6 0h20a6 6 0 0 1 6 6v20a6 6 0 0 1-6 6H6a6 6 0 0 1-6-6V6a6 6 0 0 1 6-6z"/><path fill="#adb4c8" style="fill:var(--color2,#adb4c8)" d="M6.586 23.919a2 2 0 1 0 2.828 2.828l-2.828-2.828zM26.748 9.414a2 2 0 1 0-2.828-2.828l2.828 2.828zM9.414 26.748 26.747 9.415l-2.828-2.828L6.586 23.92l2.828 2.828z"/></symbol></defs></svg>