<svg aria-hidden="true" style="width:0;height:0;position:absolute;overflow:hidden" xmlns="http://www.w3.org/2000/svg"><defs><symbol id="icon-confirmation-tick" viewBox="0 0 45 32"><path stroke-linejoin="round" stroke-linecap="round" stroke-width="3.809" d="m2.045 16.085 13.62 13.622L42.907 2.464"/></symbol><symbol id="icon-arrow-down" viewBox="0 0 32 32"><path fill="none" stroke="#0E1012" style="stroke:var(--color1,#0e1012)" stroke-linejoin="round" stroke-linecap="round" stroke-width="2" d="M15.334 25.333V6.666M20.667 20l-5.333 5.333M10 20l5.333 5.333"/></symbol><symbol id="icon-arrow-left" viewBox="0 0 32 32"><path stroke="#" style="stroke:var(--color1)" stroke-linejoin="round" stroke-linecap="round" d="M6 16h18.667m-13.334 5.333L6 16m5.333-5.333L6 16"/></symbol><symbol id="icon-arrow-right" viewBox="0 0 32 32"><path stroke="#" style="stroke:var(--color1)" stroke-linejoin="round" stroke-linecap="round" d="M6.667 16h18.667M20 21.333 25.333 16M20 10.667 25.333 16"/></symbol><symbol id="icon-arrow-up" viewBox="0 0 32 32"><path fill="none" stroke="#0E1012" style="stroke:var(--color1,#0e1012)" stroke-linejoin="round" stroke-linecap="round" stroke-width="2" d="M15.334 25.333V6.666M10 11.333 15.333 6m5.334 5.333L15.334 6"/></symbol><symbol id="icon-burger" viewBox="0 0 32 32"><path fill="none" stroke="#0E1012" style="stroke:var(--color1,#0e1012)" stroke-linejoin="round" stroke-linecap="round" stroke-width="1.5" d="M6 8h20M6 16h20M6 24h20"/></symbol><symbol id="icon-chevrone-down" viewBox="0 0 32 32"><path fill="none" stroke-linejoin="round" stroke-linecap="round" stroke-width="2" d="m8 12 8 8 8-8"/></symbol><symbol id="icon-d-left" viewBox="0 0 32 32"><path fill="none" stroke="#0E1012" style="stroke:var(--color1,#0e1012)" stroke-linejoin="round" stroke-linecap="round" stroke-width="2" d="m20 24-8-8 8-8"/></symbol><symbol id="icon-chevrone-right" viewBox="0 0 32 32"><path fill="none" stroke="#0E1012" style="stroke:var(--color1,#0e1012)" stroke-linejoin="round" stroke-linecap="round" stroke-width="2" d="m12 24 8-8-8-8"/></symbol><symbol id="icon-chevrone-up" viewBox="0 0 32 32"><path fill="none" style="stroke:var(--color1)" stroke-linejoin="round" stroke-linecap="round" stroke-width="2" d="m8 20 8-8 8 8"/></symbol><symbol id="icon-circle" viewBox="0 0 32 32"><path fill="#0E1012" style="fill:var(--color1,#0e1012)" d="M20 16a4 4 0 1 1-8 0 4 4 0 0 1 8 0z"/></symbol><symbol id="icon-close" viewBox="0 0 32 32"><path fill="currentColor" stroke="currentColor" style="stroke:var(--color1)" stroke-linejoin="round" stroke-linecap="round" d="M24 8 8 24M8 8l16 16"/></symbol><symbol id="icon-delete" viewBox="0 0 32 32"><path stroke="#" style="stroke:var(--color1)" stroke-linejoin="round" stroke-linecap="round" stroke-width="2" d="M5.333 9.333h21.333m-13.332 5.334v8m5.332-8v8M6.667 9.333l1.333 16A2.67 2.67 0 0 0 10.667 28h10.667a2.67 2.67 0 0 0 2.667-2.667l1.333-16"/><path style="stroke:var(--color1)" stroke-linejoin="round" stroke-linecap="round" stroke-width="2" d="M12 9.333v-4a1.335 1.335 0 0 1 1.334-1.334h5.333a1.335 1.335 0 0 1 1.334 1.334v4"/></symbol><symbol id="icon-dots-horizontal" viewBox="0 0 32 32"><path fill="#0E1012" style="fill:var(--color1,#0e1012);stroke:var(--color1,#0e1012)" stroke="#0E1012" stroke-linejoin="round" stroke-linecap="round" stroke-width="2" d="M6.666 17.333a1.333 1.333 0 1 0 0-2.667 1.333 1.333 0 0 0 0 2.667zm9.334 0a1.333 1.333 0 1 0 0-2.667 1.333 1.333 0 0 0 0 2.667zm9.333 0a1.333 1.333 0 1 0 0-2.667 1.333 1.333 0 0 0 0 2.667z"/></symbol><symbol id="icon-facebook" viewBox="0 0 32 32"><path fill="#FFF" stroke="#0E1012" style="stroke:var(--color1,#0e1012)" stroke-linejoin="round" stroke-linecap="round" d="M24 2.667h-4a6.67 6.67 0 0 0-6.667 6.667v4h-4v5.333h4v10.667h5.333V18.667h4l1.333-5.333h-5.333v-4A1.335 1.335 0 0 1 20 8h4V2.667z"/></symbol><symbol id="icon-filter" viewBox="0 0 32 32"><path fill="none" stroke="#0E1012" style="stroke:var(--color1,#0e1012)" stroke-linejoin="round" stroke-linecap="round" stroke-width="1.5" d="M7.333 6.667h17.333a1.332 1.332 0 0 1 .667 2.001l-6.667 7.333v9.333l-5.333-4v-5.333L6.666 8.668a1.333 1.333 0 0 1 .158-1.678c.143-.145.317-.255.509-.323z"/></symbol><symbol id="icon-eye-open" viewBox="0 0 32 32"><path fill="none" stroke="#c2c6cb" style="stroke:var(--color1,#c2c6cb)" stroke-linejoin="round" stroke-linecap="round" stroke-width="2" d="M16 18.667a2.667 2.667 0 1 0 0-5.334 2.667 2.667 0 0 0 0 5.334z"/><path fill="none" stroke="#c2c6cb" style="stroke:var(--color1,#c2c6cb)" stroke-linejoin="round" stroke-linecap="round" stroke-width="2" d="M29.333 16c-3.556 6.223-8 9.333-13.333 9.333S6.223 22.222 2.667 16c3.556-6.223 8-9.333 13.333-9.333S25.777 9.778 29.333 16z"/></symbol><symbol id="icon-instagram" viewBox="0 0 32 32"><path fill="#FFF" stroke="#FFF" style="stroke:var(--color1,#0e1012)" stroke-linejoin="round" stroke-linecap="round" d="M21.333 5.333H10.666a5.333 5.333 0 0 0-5.333 5.333v10.667a5.333 5.333 0 0 0 5.333 5.333h10.667a5.333 5.333 0 0 0 5.333-5.333V10.666a5.333 5.333 0 0 0-5.333-5.333z"/><path fill="none" stroke="#0E1012" style="stroke:var(--color1,#0e1012)" stroke-linejoin="round" stroke-linecap="round" stroke-width="1.454" d="M16 20a4 4 0 1 0 0-8 4 4 0 0 0 0 8zm6-10v.001"/></symbol><symbol id="icon-minus" viewBox="0 0 32 32"><path fill="none" stroke="#0E1012" style="stroke:var(--color1,#0e1012)" stroke-linejoin="round" stroke-linecap="round" stroke-width="1.333" d="M6.667 16h18.667"/></symbol><symbol id="icon-plus" viewBox="0 0 32 32"><path fill="none" stroke="#0E1012" style="stroke:var(--color1,#0e1012)" stroke-linejoin="round" stroke-linecap="round" d="M16 6.667v18.667M6.667 16h18.667"/></symbol><symbol id="icon-sale" viewBox="0 0 32 32"><path fill="none" stroke="#0E1012" style="stroke:var(--color1,#0e1012)" stroke-linejoin="round" stroke-linecap="round" stroke-width="1.333" d="m5.333 25.333 20-20"/><path fill="#0E1012" style="fill:var(--color1,#0e1012);stroke:var(--color1,#0e1012)" stroke="#0E1012" stroke-linejoin="round" stroke-linecap="round" stroke-width="1.333" d="M7 8.667a1.667 1.667 0 1 0 0-3.334 1.667 1.667 0 0 0 0 3.334zm16.667 16.666a1.667 1.667 0 1 0 0-3.333 1.667 1.667 0 0 0 0 3.333z"/></symbol><symbol id="icon-search" viewBox="0 0 32 32"><path fill="none" stroke="#0E1012" style="stroke:var(--color1,#0e1012)" stroke-linejoin="round" stroke-linecap="round" d="M13.333 22.667a9.333 9.333 0 1 0 0-18.666 9.333 9.333 0 1 0 0 18.666zM28 28l-8-8"/></symbol><symbol id="icon-size-plus" viewBox="0 0 32 32"><path fill="none" stroke="#0E1012" style="stroke:var(--color1,#0e1012)" stroke-linejoin="round" stroke-linecap="round" stroke-width="1.333" d="M13.333 22.667a9.333 9.333 0 1 0 0-18.666 9.333 9.333 0 1 0 0 18.666zm-4-9.334h8m-4-4v8M28 28l-8-8"/></symbol><symbol id="icon-sort" viewBox="0 0 32 32"><path style="stroke:var(--color1)" stroke-linejoin="round" stroke-linecap="round" stroke-width="1.5" d="m4 12 5.333-5.333m0 0L14.666 12M9.333 6.667v18.667M28 20l-5.333 5.333m0 0L17.334 20m5.333 5.333V6.666"/></symbol><symbol id="icon-Star" viewBox="0 0 32 32"><path d="m25.544 19.969-8.993-3.49 8.993-3.482c1.003-.39 1.42-1.576.884-2.508s-1.777-1.161-2.618-.491l-7.599 6.057-.009-.051 1.53-9.988C17.902 4.957 17.077 4 15.998 4s-1.896.957-1.734 2.016l1.53 9.988-.008.051-7.599-6.057a1.763 1.763 0 0 0-2.618.491 1.75 1.75 0 0 0 .884 2.508l8.993 3.482-8.993 3.49c-1.003.39-1.42 1.576-.884 2.508s1.777 1.161 2.618.491l7.455-5.939-1.377 8.954a1.755 1.755 0 0 0 1.734 2.016 1.75 1.75 0 0 0 1.734-2.016l-1.377-8.954 7.455 5.939a1.763 1.763 0 0 0 2.618-.491 1.745 1.745 0 0 0-.884-2.508z"/></symbol><symbol id="icon-telegram" viewBox="0 0 32 32"><path fill="#FFF" stroke="#FFF" style="stroke:var(--color1,#0e1012)" stroke-linejoin="round" stroke-linecap="round" d="m20 13.333-5.333 5.333 8 8L28 5.333 4 14.666l5.333 2.667 2.667 8L16 20"/></symbol><symbol id="icon-user" viewBox="0 0 32 32"><path fill="none" stroke="#0E1012" style="stroke:var(--color1,#0e1012)" stroke-linejoin="round" stroke-linecap="round" stroke-width="1.5" d="M16 14.667a5.333 5.333 0 1 0 0-10.666 5.333 5.333 0 0 0 0 10.666zM8 28v-2.667A5.332 5.332 0 0 1 13.333 20h5.333a5.332 5.332 0 0 1 5.333 5.333V28"/></symbol><symbol id="icon-google" viewBox="0 0 32 32"><path fill="none" stroke="#0E1012" style="stroke:var(--color1,#0e1012)" stroke-linejoin="round" stroke-linecap="round" d="M23.717 6.811a12 12 0 0 0-19.372 6.333 12 12 0 1 0 23.656 2.855H17.334"/></symbol><symbol id="icon-payment-card-new" viewBox="0 0 32 32"><path d="M8 6.276c-2.42 0-4.39 1.97-4.39 4.39v10.668c0 2.42 1.97 4.39 4.39 4.39h16c2.42 0 4.39-1.97 4.39-4.39V10.666c0-2.42-1.97-4.39-4.39-4.39zm0 .78h16a3.604 3.604 0 0 1 3.61 3.61v10.668a3.604 3.604 0 0 1-3.61 3.61H8a3.605 3.605 0 0 1-3.61-3.61V10.666A3.605 3.605 0 0 1 8 7.056z"/><path d="M4 12.944a.39.39 0 1 0 0 .78h24a.39.39 0 1 0 0-.78zM9.334 19.61a.39.39 0 1 0 0 .78h.014a.39.39 0 1 0 0-.78zM14.666 19.61a.39.39 0 1 0 0 .78h2.666a.39.39 0 1 0 0-.78z"/></symbol><symbol id="icon-apple" viewBox="0 0 32 32"><path fill="none" stroke="#0E1012" style="stroke:var(--color1,#0e1012)" stroke-linejoin="round" stroke-linecap="round" d="M12 10.667c-4 0-5.333 4-5.333 7.333 0 4 2.667 10 5.333 10 1.451-.061 2.239-.667 4-.667 1.749 0 2 .667 4 .667s5.333-4 5.333-6.667c-.037-.013-3.296-.537-3.333-4-.025-2.893 3.221-3.939 3.333-4-1.364-1.989-3.935-2.617-4.667-2.667-1.911-.148-3.773 1.333-4.667 1.333-.907 0-2.533-1.333-4-1.333z"/><path fill="none" stroke="#0E1012" style="stroke:var(--color1,#0e1012)" stroke-linejoin="round" stroke-linecap="round" stroke-width="2" d="M16 6.667A2.668 2.668 0 0 0 18.667 4 2.668 2.668 0 0 0 16 6.667"/></symbol><symbol id="icon-info" viewBox="0 0 32 32"><path fill="none" style="stroke:var(--color1)" stroke-linejoin="round" stroke-linecap="round" stroke-width="2" d="M16 28c6.627 0 12-5.373 12-12S22.627 4 16 4 4 9.373 4 16s5.373 12 12 12zM16 10.667h.013"/><path fill="none" style="stroke:var(--color1)" stroke-linejoin="round" stroke-linecap="round" stroke-width="2" d="M14.666 16h1.333v5.333h1.333"/></symbol><symbol id="icon-shop" viewBox="0 0 32 32"><path stroke-linejoin="round" stroke-linecap="round" stroke-width="1.333" d="M4 28h24M4 9.333v1.333a4.003 4.003 0 0 0 4 4 4.003 4.003 0 0 0 4-4V9.333m0 1.334a4.003 4.003 0 0 0 4 4 4.003 4.003 0 0 0 4-4V9.334m0 1.333a4.003 4.003 0 0 0 4 4 4.003 4.003 0 0 0 4-4V9.334H4l2.667-5.333h18.667l2.667 5.333M6.667 27.999V14.466M25.333 27.999V14.466M12 28v-5.333A2.67 2.67 0 0 1 14.667 20h2.667a2.67 2.67 0 0 1 2.667 2.667V28"/></symbol><symbol id="icon-truck" viewBox="0 0 32 32"><path stroke-linejoin="round" stroke-linecap="round" stroke-width="1.333" d="M9.333 25.333a2.667 2.667 0 1 0 0-5.334 2.667 2.667 0 0 0 0 5.334zM22.667 25.333a2.667 2.667 0 1 0 0-5.334 2.667 2.667 0 0 0 0 5.334z"/><path stroke-linejoin="round" stroke-linecap="round" stroke-width="1.333" d="M6.667 22.667H4V8a1.335 1.335 0 0 1 1.334-1.334h12v16M12 22.667h8m5.333 0H28v-8H17.333m0-6.667H24l4 6.667"/></symbol><symbol id="icon-radiobutton" viewBox="0 0 32 32"><path stroke-width="2" d="M31 16c0 8.284-6.716 15-15 15S1 24.284 1 16C1 7.716 7.716 1 16 1s15 6.716 15 15z"/><path stroke-width="2" d="M23 16a7 7 0 1 1-14 0 7 7 0 0 1 14 0z"/></symbol><symbol id="icon-privat-bank" viewBox="0 0 32 32"><path fill="none" stroke="#0e1012" style="stroke:var(--color1,#0e1012)" stroke-width=".78" d="M27.974 16.364c0 6.412-5.198 11.61-11.61 11.61s-11.61-5.198-11.61-11.61c0-6.412 5.198-11.61 11.61-11.61s11.61 5.198 11.61 11.61z"/><path d="M11.876 11.636c.63 0 1.172.058 1.627.175.455.108.809.319 1.063.633s.38.768.38 1.36c0 .35-.044.678-.131.983a3.1 3.1 0 0 1-.446.929c-.21.323-.516.705-.918 1.145l-2.375 2.518c.219-.036.437-.058.656-.067.227-.018.455-.027.682-.027h2.795v1.805H8.728v-1.104c0-.162.022-.31.066-.444.044-.144.114-.274.21-.391l2.257-2.478c.534-.566.94-1.069 1.22-1.508.289-.44.429-.822.42-1.145-.009-.198-.061-.341-.157-.431-.088-.09-.223-.148-.407-.175s-.411-.04-.682-.04c-.306 0-.595.004-.866.013-.262 0-.547.009-.853.027a37.53 37.53 0 0 0-1.05.081l-.079-1.535a12.37 12.37 0 0 1 1.155-.216c.35-.045.678-.072.984-.081.315-.018.625-.027.931-.027zM20.707 11.798l-2.178 5.347c-.061.144-.061.256 0 .337.061.072.153.108.276.108h5.196v1.226l-1.115.202h-5.524a1 1 0 0 1-.63-.202 1.053 1.053 0 0 1-.354-.539 1.055 1.055 0 0 1 .066-.673l2.375-5.805h1.889zm2.191 1.805v7.488h-1.85v-6.007l.328-1.482h1.522z"/></symbol><symbol id="icon-Union" viewBox="0 0 32 32"><path d="M31.111 16c0 8.346-6.765 15.111-15.111 15.111S.889 24.346.889 16 7.654.889 16 .889 31.111 7.654 31.111 16zM32 16c0 8.837-7.163 16-16 16S0 24.837 0 16 7.163 0 16 0s16 7.163 16 16zm-1.778 0c0 7.855-6.367 14.222-14.222 14.222S1.778 23.855 1.778 16C1.778 8.145 8.145 1.778 16 1.778S30.222 8.145 30.222 16zm-7.757 4.916c-.668 2.92-3.298 5.087-6.424 5.087a6.573 6.573 0 0 1-6.416-5.087.96.96 0 0 1 .724-1.157.968.968 0 0 1 1.161.723c.472 2.061 2.299 3.596 4.532 3.596s4.068-1.535 4.539-3.596a.968.968 0 0 1 1.884.434zm-10.021-8.472a1.778 1.778 0 1 1-3.556 0 1.778 1.778 0 0 1 3.556 0zm1.778 0a3.556 3.556 0 1 1-7.112 0 3.556 3.556 0 0 1 7.112 0zm7.111 1.778a1.778 1.778 0 1 0 0-3.556 1.778 1.778 0 0 0 0 3.556zm0 1.778a3.556 3.556 0 1 0 0-7.112 3.556 3.556 0 0 0 0 7.112z"/></symbol><symbol id="icon-union-1" viewBox="0 0 32 32"><path d="M31.111 16c0 8.346-6.765 15.111-15.111 15.111S.889 24.346.889 16 7.654.889 16 .889 31.111 7.654 31.111 16zM32 16c0 8.837-7.163 16-16 16S0 24.837 0 16 7.163 0 16 0s16 7.163 16 16zm-1.778 0c0 7.855-6.367 14.222-14.222 14.222S1.778 23.855 1.778 16C1.778 8.145 8.145 1.778 16 1.778S30.222 8.145 30.222 16zm-7.757 4.916c-.668 2.92-3.298 5.087-6.424 5.087a6.573 6.573 0 0 1-6.416-5.087.96.96 0 0 1 .724-1.157.968.968 0 0 1 1.161.723c.472 2.061 2.299 3.596 4.532 3.596s4.068-1.535 4.539-3.596a.968.968 0 0 1 1.884.434zm-10.021-8.472a1.778 1.778 0 1 1-3.556 0 1.778 1.778 0 0 1 3.556 0zm1.778 0a3.556 3.556 0 1 1-7.112 0 3.556 3.556 0 0 1 7.112 0zm7.111 1.778a1.778 1.778 0 1 0 0-3.556 1.778 1.778 0 0 0 0 3.556zm0 1.778a3.556 3.556 0 1 0 0-7.112 3.556 3.556 0 0 0 0 7.112z"/></symbol><symbol id="icon-ware" viewBox="0 0 32 32"><path fill="#0E1012" style="fill:var(--color1,#0e1012)" d="M6 0h20a6 6 0 0 1 6 6v20a6 6 0 0 1-6 6H6a6 6 0 0 1-6-6V6a6 6 0 0 1 6-6z"/><path fill="#adb4c8" style="fill:var(--color2,#adb4c8)" d="M6.586 23.919a2 2 0 1 0 2.828 2.828l-2.828-2.828zM26.748 9.414a2 2 0 1 0-2.828-2.828l2.828 2.828zM9.414 26.748 26.747 9.415l-2.828-2.828L6.586 23.92l2.828 2.828z"/></symbol></defs></svg>