<svg width="343" height="122" viewBox="0 0 343 122" fill="none" xmlns="http://www.w3.org/2000/svg">
<path fill-rule="evenodd" clip-rule="evenodd" d="M198.309 5.90336C191.852 1.96779 183.114 0 172.093 0C161.072 0 152.278 1.96779 145.71 5.90336C139.254 9.83893 134.634 16.2483 131.851 25.1314C129.068 33.9021 127.676 45.7088 127.676 60.5515C127.676 75.3942 129.068 87.2572 131.851 96.1403C134.634 104.911 139.254 111.264 145.71 115.2C152.278 119.135 161.072 121.103 172.093 121.103C183.114 121.103 191.852 119.135 198.309 115.2C204.877 111.264 209.552 104.911 212.335 96.1403C215.23 87.2572 216.677 75.3942 216.677 60.5515C216.677 45.7088 215.23 33.9021 212.335 25.1314C209.552 16.2483 204.877 9.83893 198.309 5.90336ZM162.742 22.0954C165.191 20.8585 168.252 20.2401 171.926 20.2401C175.711 20.2401 178.828 20.8585 181.277 22.0954C183.837 23.3323 185.841 25.4125 187.288 28.3361C188.847 31.2597 189.904 35.3639 190.461 40.6488C191.129 45.8213 191.463 52.4555 191.463 60.5515C191.463 68.5351 191.129 75.1694 190.461 80.4543C189.904 85.7392 188.847 89.8434 187.288 92.767C185.841 95.6905 183.837 97.7708 181.277 99.0077C178.828 100.245 175.711 100.863 171.926 100.863C168.252 100.863 165.191 100.245 162.742 99.0077C160.293 97.7708 158.345 95.6905 156.898 92.767C155.451 89.8434 154.393 85.7392 153.725 80.4543C153.169 75.1694 152.89 68.5351 152.89 60.5515C152.89 52.4555 153.169 45.8213 153.725 40.6488C154.393 35.3639 155.451 31.2597 156.898 28.3361C158.345 25.4125 160.293 23.3323 162.742 22.0954ZM28.2032 69.3222L55.9219 2.36134H31.8767L1.65335 75.0569C0.428827 77.868 0.150528 80.6791 0.81845 83.4903C1.59769 86.1889 3.10051 88.4378 5.32691 90.237C7.55331 91.9236 10.225 92.767 13.342 92.767H60.2633V118.742H83.8075V92.7372L97.8339 90.237V74.8882H83.8075V24.9627H64.4378L60.2633 43.5161V74.8882H31.7098C30.1513 74.8882 28.9824 74.4385 28.2032 73.5389C27.4239 72.5269 27.4239 71.1213 28.2032 69.3222ZM300.978 2.36134L273.259 69.3222C272.48 71.1213 272.48 72.5269 273.259 73.5389C274.039 74.4385 275.208 74.8882 276.766 74.8882H305.32V43.5161L309.494 24.9627H328.864V74.8882H342.89V90.237L328.864 92.7372V118.742H305.32V92.767H258.398C255.281 92.767 252.61 91.9236 250.383 90.237C248.157 88.4378 246.654 86.1889 245.875 83.4903C245.207 80.6791 245.485 77.868 246.71 75.0569L276.933 2.36134H300.978Z" fill="#0E1012"/>
</svg>
