<svg width="32" height="32" viewBox="0 0 32 32" fill="none" xmlns="http://www.w3.org/2000/svg">
<path fill-rule="evenodd" clip-rule="evenodd" d="M31.1111 16C31.1111 24.3456 24.3456 31.1111 16 31.1111C7.65436 31.1111 0.888889 24.3456 0.888889 16C0.888889 7.65436 7.65436 0.888889 16 0.888889C24.3456 0.888889 31.1111 7.65436 31.1111 16ZM32 16C32 24.8366 24.8366 32 16 32C7.16344 32 0 24.8366 0 16C0 7.16344 7.16344 0 16 0C24.8366 0 32 7.16344 32 16ZM30.2221 16.0002C30.2221 23.8549 23.8546 30.2224 15.9999 30.2224C8.14517 30.2224 1.77767 23.8549 1.77767 16.0002C1.77767 8.1455 8.14517 1.77799 15.9999 1.77799C23.8546 1.77799 30.2221 8.1455 30.2221 16.0002ZM22.4652 20.916C21.7973 23.8361 19.167 26.0028 16.0413 26.0028L16.0415 26.0023C12.9161 26.0023 10.2933 23.8356 9.62543 20.9155C9.56695 20.6665 9.61032 20.4044 9.74606 20.1874C9.88179 19.9702 10.0989 19.8158 10.349 19.7582C10.5993 19.7006 10.8624 19.7444 11.0801 19.88C11.2978 20.0156 11.4526 20.2319 11.5098 20.4811C11.9813 22.5421 13.8091 24.0774 16.0415 24.0774C18.2739 24.0774 20.1093 22.5421 20.5808 20.4811C20.6389 20.2324 20.7936 20.0167 21.0111 19.8815C21.2287 19.7464 21.4913 19.7028 21.7412 19.7604C21.9911 19.8179 22.2079 19.972 22.3437 20.1885C22.4794 20.4053 22.5232 20.6668 22.4654 20.9156L22.4652 20.916ZM12.4444 12.4444C12.4444 13.4262 11.6485 14.2222 10.6666 14.2222C9.6848 14.2222 8.88886 13.4262 8.88886 12.4444C8.88886 11.4626 9.6848 10.6666 10.6666 10.6666C11.6485 10.6666 12.4444 11.4626 12.4444 12.4444ZM14.2222 12.4444C14.2222 14.4081 12.6303 15.9999 10.6666 15.9999C8.70296 15.9999 7.11108 14.4081 7.11108 12.4444C7.11108 10.4807 8.70296 8.88883 10.6666 8.88883C12.6303 8.88883 14.2222 10.4807 14.2222 12.4444ZM21.3333 14.2222C22.3151 14.2222 23.1111 13.4262 23.1111 12.4444C23.1111 11.4626 22.3151 10.6666 21.3333 10.6666C20.3515 10.6666 19.5555 11.4626 19.5555 12.4444C19.5555 13.4262 20.3515 14.2222 21.3333 14.2222ZM21.3333 15.9999C23.297 15.9999 24.8889 14.4081 24.8889 12.4444C24.8889 10.4807 23.297 8.88883 21.3333 8.88883C19.3696 8.88883 17.7778 10.4807 17.7778 12.4444C17.7778 14.4081 19.3696 15.9999 21.3333 15.9999Z" fill="#0E1012"/>
</svg>
