<svg width="346" height="547" viewBox="0 0 346 547" fill="none" xmlns="http://www.w3.org/2000/svg">
<path d="M337.493 300.235L338.246 299.959C338.087 299.134 338.117 298.158 338.353 297.024C338.832 294.775 340.49 292.135 342.328 290.991L342.05 290.23C340.984 290.373 339.85 290.274 338.672 289.945C336.274 289.281 334.133 287.763 333.159 286.045L332.406 286.32C332.578 287.346 332.503 288.421 332.202 289.599C331.61 291.931 330.123 294.036 328.275 295.266L328.553 296.027C329.655 295.87 330.881 295.997 332.188 296.403C334.845 297.218 336.654 298.775 337.493 300.235Z" fill="#0E1012"/>
<g clip-path="url(#clip0_523_51880)">
<path d="M58.5175 69.7606L49.6988 115.09L58.5175 69.7606Z" fill="black"/>
<path d="M58.5175 69.7606C57.9318 73.567 57.2752 77.3597 56.5934 81.1475C56.2594 83.0425 55.8991 84.9329 55.5513 86.8256L54.469 92.4957L53.3477 98.1581L52.7707 100.986L52.4819 102.4L52.185 103.813C51.3971 107.58 50.584 111.342 49.6987 115.09C50.2831 111.283 50.9398 107.49 51.6215 103.703L51.8758 102.282L52.1381 100.863L52.6636 98.0245L53.7472 92.3547L54.8697 86.6922C55.257 84.807 55.6318 82.9199 56.0324 81.0377C56.8205 77.2714 57.6334 73.5088 58.5175 69.7606Z" fill="black"/>
<path d="M61.0208 69.2853L56.4098 113.815L61.0208 69.2853Z" fill="black"/>
<path d="M61.0208 69.2853C60.7877 73.012 60.483 76.7311 60.1523 80.4473C59.9941 82.3059 59.8093 84.1622 59.637 86.0198L59.0808 91.588L58.4853 97.1523L58.1714 99.9326L58.0136 101.323L57.8483 102.712C57.4103 106.417 56.9465 110.12 56.4098 113.815C56.6417 110.089 56.9464 106.37 57.277 102.653L57.3997 101.259L57.5304 99.8664L57.793 97.0807L58.3503 91.5122L58.9471 85.9484C59.159 84.0948 59.3586 82.2404 59.5846 80.3883C60.022 76.6827 60.4853 72.9806 61.0208 69.2853Z" fill="black"/>
<path d="M63.5247 68.808L63.1207 112.538L63.5247 68.808Z" fill="black"/>
<path d="M63.5247 68.808C63.6432 72.4533 63.6892 76.0984 63.7097 79.743C63.7265 81.5653 63.7174 83.3876 63.7204 85.2101L63.6905 90.6764L63.6206 96.1425L63.5693 98.8753L63.5431 100.242L63.5089 101.608C63.4215 105.251 63.3074 108.895 63.1207 112.538C63.0014 108.892 62.955 105.248 62.9345 101.603L62.9257 100.236L62.9247 98.8696L62.9239 96.1364L62.955 90.6699L63.0254 85.2037C63.0625 83.3821 63.0868 81.5599 63.1372 79.7382C63.2251 76.0942 63.3385 72.4507 63.5247 68.808Z" fill="black"/>
<path d="M66.0299 68.3327L69.8336 111.262L66.0299 68.3327Z" fill="black"/>
<path d="M66.0293 68.3328C66.4978 71.897 66.8942 75.4671 67.2652 79.0402C67.4572 80.8261 67.6236 82.6139 67.802 84.4012L68.2977 89.7657L68.7541 95.1335L68.9659 97.8187L69.0712 99.1614L69.1689 100.505C69.4321 104.087 69.6692 107.672 69.8337 111.263C69.364 107.699 68.9676 104.129 68.5966 100.556L68.4562 99.2161L68.3235 97.8756L68.0599 95.1948L67.5653 89.83L67.1101 84.462C66.9716 82.6713 66.8206 80.8819 66.6959 79.0904C66.4321 75.5084 66.1944 71.9239 66.0293 68.3328Z" fill="black"/>
<path d="M68.5338 67.857C69.3508 71.3392 70.0967 74.8355 70.8174 78.3361C71.1845 80.0851 71.5259 81.839 71.8789 83.5906L72.9002 88.8528L73.8823 94.1225L74.3573 96.7606L74.5942 98.0795L74.8235 99.3999C75.438 102.921 76.0273 106.446 76.5444 109.986C75.7262 106.504 74.9797 103.008 74.2596 99.5071L73.9883 98.1948L73.7245 96.881L73.1981 94.2526L72.1775 88.9903L71.196 83.7205C70.882 81.9614 70.5552 80.2048 70.2547 78.4431C69.6414 74.9221 69.0519 71.396 68.5338 67.857Z" fill="black"/>
<path d="M71.0371 67.3809L83.2561 108.71L71.0371 67.3809Z" fill="black"/>
<path d="M71.0371 67.3809C72.201 70.782 73.2962 74.2035 74.3662 77.6322C74.9077 79.3444 75.4241 81.0644 75.9525 82.7809L77.4994 87.9413L79.0084 93.1131L79.7472 95.7036L80.1158 96.9993L80.4769 98.297C81.4432 101.756 82.3849 105.223 83.2562 108.711C82.0911 105.31 80.996 101.889 79.926 98.4598L79.5236 97.1742L79.1288 95.8865L78.3402 93.311L76.7945 88.1503L75.2866 82.9783C74.7965 81.2502 74.2945 79.5263 73.8182 77.7944C72.8512 74.3347 71.9096 70.8683 71.0371 67.3809Z" fill="black"/>
<path d="M73.541 66.9043L89.9676 107.434L73.541 66.9043Z" fill="black"/>
<path d="M73.541 66.9043C75.0512 70.2245 76.4935 73.5721 77.9128 76.9295C78.6289 78.6055 79.3203 80.2916 80.0228 81.9726L82.0947 87.0313L84.1301 92.1049L85.1326 94.6476L85.6333 95.9194L86.1266 97.1938C87.4453 100.591 88.7405 103.999 89.967 107.434C88.4562 104.114 87.0134 100.766 85.5942 97.4093L85.061 96.151L84.535 94.8895L83.4842 92.3663L81.4129 87.3074L79.3787 82.2336C78.7125 80.5372 78.0353 78.846 77.382 77.1441C76.0639 73.7463 74.7693 70.3386 73.541 66.9043Z" fill="black"/>
<path d="M76.0449 66.4277L96.6786 106.157L76.0449 66.4277Z" fill="black"/>
<path d="M76.0449 66.4277C77.8993 69.6685 79.6899 72.9427 81.4573 76.2284C82.3474 77.8683 83.2137 79.52 84.0911 81.1665L86.6885 86.1229L89.2508 91.0981L90.517 93.5931L91.1498 94.8409L91.7755 96.0925C93.4471 99.428 95.0957 102.776 96.6792 106.157C94.8237 102.917 93.0331 99.6428 91.2657 96.357L90.6021 95.1253L89.945 93.89L88.6319 91.419L86.0356 86.4618L83.4745 81.4863C82.6323 79.8216 81.7791 78.1627 80.9497 76.4919C79.278 73.1559 77.629 69.8089 76.0449 66.4277Z" fill="black"/>
<path d="M78.5488 65.9512L103.39 104.88L78.5488 65.9512Z" fill="black"/>
<path d="M78.5488 65.9512C80.7475 69.1132 82.8842 72.3149 85.0004 75.5295C86.0639 77.1333 87.1052 78.7511 88.1574 80.3626L91.28 85.2179L94.369 90.0942L95.8995 92.5413L96.6639 93.7653L97.4219 94.9936C99.4464 98.2668 101.449 101.554 103.39 104.88C101.191 101.718 99.0531 98.5176 96.9381 95.3027L96.1434 94.0978L95.3558 92.8884L93.7817 90.4696L90.6603 85.614L87.5723 80.7369C86.5541 79.1039 85.5252 77.4783 84.5188 75.8376C82.4937 72.5639 80.4908 69.277 78.5488 65.9512Z" fill="black"/>
<path d="M47.9505 41.5443L63.7543 38.5391L64.0643 38.4801L79.868 35.4749C70.4007 25.1811 53.2407 27.8134 47.9505 41.5443Z" fill="white"/>
<path d="M80.4066 35.6534L47.5148 41.9081L47.693 41.4454C47.7322 41.343 48.6831 38.9103 50.9217 36.1783C56.9481 28.8222 66.3592 26.6824 75.1338 31.5741C78.219 33.2943 79.9958 35.2077 80.0705 35.2885L80.4066 35.6534ZM48.4111 41.1758L79.3041 35.3012C78.6391 34.6637 77.0807 33.2882 74.8486 32.0463C66.8561 27.5999 57.598 28.9128 51.3609 36.5127C49.7404 38.4872 48.7957 40.3387 48.4111 41.1758Z" fill="black"/>
<path d="M80.3291 35.6279L47.5763 41.8562L47.7295 41.4593C47.7688 41.3575 48.7171 38.9301 50.9518 36.2031C57.0205 28.7961 66.429 26.7662 75.1143 31.6084C78.1941 33.3254 79.967 35.2347 80.041 35.315L80.3291 35.6279ZM48.3443 41.2287L79.3844 35.3261C69.3701 25.6868 54.3364 28.0974 48.3443 41.2287Z" fill="white"/>
<path d="M80.8679 35.8065L47.1402 42.2201L47.4714 41.36C47.5116 41.2562 48.4773 38.7868 50.7381 36.0282C56.9944 28.3925 66.5883 26.5397 75.2484 31.3673C78.3716 33.1087 80.1694 35.0466 80.2442 35.1285L80.8679 35.8065ZM48.829 40.8556L78.7962 35.1571C68.7367 26.1481 54.9782 28.5697 48.829 40.8556Z" fill="black"/>
<path d="M47.631 42.4064C47.631 42.4064 51.3876 37.6788 63.7829 35.3217C76.1776 32.9648 80.7878 36.1013 80.7878 36.1013L47.631 42.4064Z" fill="black"/>
<path d="M98.9484 35.513C89.2829 35.1414 76.7443 36.3088 63.6421 38.8003C50.5399 41.2918 38.448 44.8081 29.5935 48.7014C20.9611 52.4968 16.3226 56.3143 16.8664 59.174C17.4102 62.0338 23.1267 63.8815 32.5491 64.2443C42.2146 64.6158 54.7532 63.4485 67.8554 60.957C80.9576 58.4655 93.0495 54.9491 101.904 51.0558C110.536 47.2604 115.175 43.443 114.631 40.5832C114.087 37.7234 108.371 35.875 98.9484 35.513Z" fill="white"/>
<path d="M98.967 35.0414C89.2668 34.6686 76.6907 35.8389 63.5546 38.3368C50.4186 40.8347 38.29 44.3623 29.4037 48.2695C20.4219 52.2185 15.8048 56.1231 16.402 59.2637C16.9992 62.4043 22.7272 64.3411 32.5315 64.7177C42.2317 65.0906 54.8079 63.9203 67.9445 61.4222C81.0806 58.9243 93.2091 55.3967 102.095 51.4896C111.077 47.5407 115.694 43.636 115.097 40.496C114.499 37.3555 108.771 35.4187 98.967 35.0414ZM101.904 51.0565C93.0497 54.9498 80.9578 58.4662 67.8556 60.9577C54.7534 63.4492 42.2147 64.6165 32.5493 64.245C23.1264 63.883 17.4105 62.0351 16.8667 59.1753C16.3229 56.3156 20.9621 52.4986 29.5938 48.7027C38.4482 44.8094 50.5402 41.2931 63.6424 38.8016C76.7446 36.3101 89.2832 35.1427 98.9487 35.5143C108.372 35.8763 114.088 37.7247 114.631 40.5845C115.175 43.4443 110.537 47.2611 101.904 51.0565Z" fill="white"/>
<path d="M67.9963 61.6929C54.8405 64.1946 42.2416 65.3668 32.5213 64.9929C27.6158 64.8044 23.7142 64.2307 20.9261 63.2875C18.0618 62.3188 16.4485 60.9822 16.1314 59.3144C15.8143 57.6467 16.8242 55.8106 19.1331 53.8582C21.3805 51.958 24.7991 49.9924 29.2929 48.0159C38.1976 44.1003 50.3473 40.5663 63.5032 38.0646C76.6591 35.5629 89.2579 34.3907 98.9783 34.7645C103.884 34.9531 107.785 35.5268 110.573 36.47C113.438 37.4387 115.051 38.7753 115.368 40.4436C115.685 42.1114 114.675 43.9469 112.366 45.8993C110.119 47.7996 106.7 49.7651 102.207 51.7416C93.3019 55.6572 81.1522 59.1912 67.9963 61.6929ZM63.6948 39.0721C50.6125 41.5599 38.5417 45.0698 29.7056 48.9548C25.4327 50.8336 22.1554 52.6998 19.9651 54.5027C17.8689 56.2277 16.8916 57.8253 17.1385 59.1235C17.3852 60.4212 18.8814 61.549 21.4638 62.3838C24.1628 63.2563 27.8964 63.7899 32.5607 63.9693C42.206 64.3398 54.7226 63.1743 67.805 60.6865C80.8873 58.1988 92.9576 54.6896 101.794 50.8039L101.905 51.0562L101.794 50.8039C106.067 48.925 109.344 47.0588 111.535 45.256C113.631 43.5309 114.608 41.9334 114.361 40.6357C114.115 39.3375 112.618 38.2102 110.036 37.3748C107.337 36.5024 103.603 35.9688 98.9391 35.7894C89.2936 35.4182 76.7766 36.5845 63.6948 39.0721Z" fill="black"/>
<path d="M68.2735 63.1507C90.4445 58.9347 107.631 51.3779 106.66 46.2721C105.689 41.1664 86.9286 40.4451 64.7575 44.6611C42.5865 48.8772 25.4004 56.434 26.3713 61.5397C27.3422 66.6455 46.1024 67.3667 68.2735 63.1507Z" fill="black"/>
<path d="M68.3167 63.3831C57.577 65.4254 47.2937 66.3822 39.3623 66.0771C31.3267 65.7682 26.6302 64.1723 26.138 61.584C25.6458 58.9956 29.4288 55.7873 36.7901 52.5505C44.056 49.3561 53.9727 46.4717 64.7125 44.4294C75.4523 42.3872 85.7355 41.4303 93.6669 41.7355C101.703 42.0444 106.399 43.6403 106.891 46.2286C107.384 48.8175 103.6 52.0253 96.2391 55.262C88.9733 58.4571 79.0565 61.3408 68.3167 63.3831ZM64.8009 44.8941C54.095 46.9299 44.2148 49.8031 36.9807 52.9836C29.9454 56.0774 26.1623 59.1799 26.6027 61.4956C27.043 63.8113 31.7004 65.3094 39.3806 65.6042C47.2773 65.9081 57.5225 64.9543 68.2284 62.9184C78.9343 60.8826 88.8144 58.0094 96.0485 54.8289C103.084 51.7352 106.867 48.6327 106.427 46.317C105.986 44.0012 101.329 42.5031 93.6486 42.2083C85.7519 41.9045 75.5068 42.8583 64.8009 44.8941Z" fill="white"/>
<path d="M68.6296 65.0247C89.5939 61.0381 105.845 53.8926 104.927 49.0648C104.009 44.2369 86.2693 43.5549 65.305 47.5415C44.3407 51.528 28.0899 58.6735 29.008 63.5014C29.9261 68.3292 47.6652 69.0112 68.6296 65.0247Z" fill="black"/>
<path d="M68.7034 65.4125C58.5357 67.346 48.7986 68.2516 41.2865 67.9629C35.8496 67.7538 29.2382 66.8233 28.6207 63.5759C28.0031 60.3285 33.8109 57.0363 38.7922 54.8461C45.674 51.8203 55.064 49.0887 65.2316 47.1553C75.3993 45.2218 85.1365 44.3162 92.6486 44.6048C98.0861 44.8138 104.697 45.7445 105.314 48.9919C105.932 52.2392 100.124 55.5314 95.1429 57.7216C88.261 60.7475 78.8711 63.479 68.7034 65.4125ZM65.3788 47.9293C42.904 52.2031 28.628 59.3937 29.3952 63.428C30.1623 67.4623 46.0813 68.9117 68.5561 64.6379C91.0309 60.3641 105.307 53.1734 104.54 49.1392C103.773 45.1049 87.8537 43.6555 65.3788 47.9293Z" fill="white"/>
<path d="M68.661 65.1915C60.5469 66.7345 52.7795 67.4573 46.79 67.2269C40.7736 66.9955 37.2621 65.8232 36.9013 63.9255C36.5404 62.0277 39.3771 59.6483 44.888 57.2249C50.3755 54.812 57.8661 52.6334 65.9796 51.0905C74.0931 49.5477 81.861 48.8248 87.8506 49.0552C93.8669 49.2866 97.3784 50.4588 97.7393 52.3566C98.1002 54.2543 95.2634 56.6337 89.7525 59.0571C84.2656 61.4699 76.7751 63.6486 68.661 65.1915ZM66.002 51.2085C49.2934 54.3857 36.2912 60.0809 37.0181 63.9039C37.7451 67.7268 51.9302 68.2521 68.6388 65.0748C85.3474 61.8975 98.3496 56.2023 97.6227 52.3794C96.8957 48.5564 82.7106 48.0312 66.002 51.2085Z" fill="black"/>
<path d="M68.7049 65.4244C60.5739 66.9706 52.7875 67.6952 46.7803 67.4639C40.5538 67.2247 37.0572 66.0164 36.6681 63.9703C36.279 61.9243 39.0881 59.5169 44.7922 57.009C50.2953 54.5895 57.8041 52.4049 65.9351 50.8588C74.0661 49.3126 81.8526 48.588 87.8592 48.8194C94.0857 49.0586 97.5823 50.2669 97.9714 52.3129C98.3605 54.359 95.5514 56.7664 89.8473 59.2743C84.3448 61.6942 76.8359 63.8782 68.7049 65.4244ZM66.0459 51.4413C49.7466 54.5408 36.5594 60.2276 37.2502 63.8602C37.9409 67.4923 52.2944 67.9426 68.5944 64.843C84.8937 61.7435 98.0808 56.0562 97.3901 52.4241C96.6993 48.7914 82.3453 48.3419 66.0459 51.4413Z" fill="white"/>
<path d="M66.5078 53.0231C53.2445 55.5452 43.027 60.4005 43.6862 63.8674C43.7183 64.0361 43.7763 64.1981 43.8574 64.3538C43.8061 64.3738 43.781 64.3847 43.7845 64.384C43.7845 64.384 48.1323 71.5316 56.1746 72.6238C60.1153 73.1585 67.9212 71.9953 69.987 71.6025C71.9496 71.2293 79.9031 69.7168 83.2102 67.4827C88.9175 63.6266 91.1579 57.6818 91.6004 55.7976C91.7395 55.4319 91.7821 55.0766 91.717 54.7345C91.0576 51.2671 79.7705 50.501 66.5078 53.0231Z" fill="white"/>
<path d="M70.0328 71.8354C68.2623 72.1721 60.2256 73.4124 56.1445 72.8584C48.7095 71.8492 44.3417 65.6586 43.6738 64.6467L43.6189 64.6571L43.5584 64.4502C43.5391 64.3837 43.5466 64.3309 43.5675 64.2882C43.5168 64.1648 43.4797 64.0394 43.4555 63.9121C42.7613 60.2614 52.8686 55.3768 66.4652 52.7913C80.0618 50.2058 91.2567 51.0401 91.9508 54.6903C92.022 55.0645 91.9811 55.4606 91.8286 55.867C91.2339 58.379 88.7029 64.0584 83.3446 67.6788C81.817 68.7108 78.2683 70.2693 70.0328 71.8354ZM44.1425 64.497C44.9792 65.7321 49.1956 71.438 56.2084 72.3896C60.2267 72.935 68.1891 71.7045 69.945 71.3706C78.1011 69.8197 81.5895 68.2938 83.0796 67.287C88.3275 63.7414 90.7986 58.1859 91.3715 55.744L91.3809 55.7138C91.5058 55.3846 91.5416 55.0705 91.4861 54.7787C90.8631 51.5021 79.4456 50.8044 66.5536 53.2559C53.6621 55.7074 43.297 60.5466 43.9202 63.8238C43.9472 63.9662 43.9972 64.1079 44.0686 64.245L44.1903 64.4777L44.1425 64.497Z" fill="white"/>
<path d="M70.0834 72.1059C68.3041 72.4443 60.2238 73.6905 56.106 73.1313C48.892 72.1521 44.5687 66.4533 43.5446 64.9514L43.4226 64.9746L43.2921 64.527C43.2695 64.4496 43.2642 64.3738 43.2757 64.3009C43.2359 64.1899 43.2046 64.0761 43.183 63.9629C42.9945 62.9716 43.4894 61.9067 44.6539 60.7974C45.7318 59.7704 47.3558 58.7297 49.4795 57.7029C53.7991 55.6149 59.8127 53.774 66.412 52.519C73.0112 51.2641 79.2802 50.7694 84.0653 51.1261C86.4176 51.3011 88.3103 51.6737 89.6899 52.2334C91.1802 52.8373 92.0316 53.6468 92.22 54.638C92.2997 55.0571 92.2564 55.4972 92.0915 55.9466C91.483 58.4944 88.9117 64.248 83.4972 67.9069C81.9494 68.9537 78.365 70.5311 70.0834 72.1059ZM44.5669 64.6245C45.7037 66.2096 49.7774 71.2385 56.2444 72.1161C60.2261 72.6563 68.1454 71.4317 69.892 71.0995C78.002 69.5574 81.4553 68.0508 82.9239 67.0585C88.1011 63.5608 90.5375 58.0869 91.1022 55.681L91.1218 55.6156C91.2288 55.3352 91.2596 55.071 91.2139 54.8305C90.9424 53.4027 88.168 52.4236 83.6028 52.1449C78.854 51.8551 72.8171 52.3456 66.6043 53.5271C60.3909 54.7086 54.5952 56.4676 50.2849 58.4806C46.1406 60.4155 43.9193 62.3446 44.1908 63.7724C44.2129 63.8886 44.2536 64.0042 44.3133 64.1175L44.5766 64.6215L44.5669 64.6245Z" fill="black"/>
<path d="M85.6227 64.6149C86.0729 66.9826 79.0721 69.9808 70.059 71.6947C61.046 73.4086 53.4332 73.1887 52.9831 70.8216C52.533 68.4545 59.4747 65.1457 68.4878 63.4318C77.5008 61.7179 85.1725 62.2478 85.6227 64.6149Z" fill="black"/>
<path d="M70.103 71.9276C65.6455 72.7752 61.4535 73.1647 58.2987 73.0255C54.909 72.8753 52.9899 72.1285 52.7499 70.8664C52.212 68.0376 60.3065 64.7473 68.4433 63.2C76.5796 61.6528 85.3169 61.743 85.8548 64.5712C86.0949 65.8339 84.5843 67.2323 81.4857 68.6163C78.6028 69.9036 74.5605 71.08 70.103 71.9276ZM68.5316 63.6641C58.9085 65.494 52.8427 68.8195 53.215 70.7774C53.6143 72.8771 60.9933 73.1778 70.0145 71.4624C79.0357 69.7469 85.7893 66.7588 85.39 64.659C85.0183 62.701 78.1552 61.8341 68.5316 63.6641Z" fill="white"/>
<path d="M70.1546 72.1991C65.6772 73.0505 61.4626 73.4418 58.2871 73.3017C54.704 73.1429 52.7497 72.3411 52.4792 70.9185C52.2014 69.458 53.8437 67.8616 57.2284 66.3028C60.1665 64.9494 64.2351 63.7202 68.3919 62.9297C72.5488 62.1393 76.7846 61.7893 80.0144 61.9699C83.735 62.1775 85.8486 63.0597 86.1263 64.5202C86.3969 65.9434 84.8738 67.4059 81.599 68.8687C78.6966 70.1646 74.6319 71.3477 70.1546 72.1991ZM68.5833 63.9361C64.1498 64.7792 60.1234 66.0173 57.2458 67.4215C54.2853 68.867 53.3625 70.0768 53.486 70.7265C53.8049 72.4036 60.5017 72.9913 69.9631 71.1921C79.4245 69.3929 85.4382 66.3888 85.1192 64.7111C84.9956 64.0608 83.6932 63.2748 80.4088 63.0169C77.2165 62.7662 73.0174 63.0929 68.5833 63.9361Z" fill="black"/>
<path d="M80.3162 65.6139C80.5919 67.0639 75.8474 68.9877 69.7636 70.1446C63.6797 71.3015 58.5602 71.2535 58.2845 69.8034C58.0087 68.3534 62.7172 66.2399 68.801 65.083C74.8848 63.9261 80.0405 64.1639 80.3162 65.6139Z" fill="white"/>
<path d="M69.8069 70.3776C64.3892 71.4078 58.4 71.6818 58.0513 69.8483C57.6983 67.9919 63.3032 65.8882 68.756 64.8513C74.2088 63.8144 80.1947 63.714 80.5477 65.5704C80.8968 67.4032 75.2247 69.3474 69.8069 70.3776ZM68.8444 65.3159C62.4891 66.5245 58.3006 68.6274 58.516 69.7599C58.7174 70.8194 63.058 71.1795 69.7185 69.913C76.3791 68.6464 80.2846 66.7188 80.083 65.6587C79.8684 64.5267 75.1996 64.1074 68.8444 65.3159Z" fill="black"/>
<path d="M91.0764 35.5247C90.4894 35.5456 89.8955 35.5715 89.2956 35.6009C89.0958 38.4339 87.7138 42.973 87.7138 42.973L89.0906 43.4606C90.3119 40.9166 90.8599 37.3762 91.0764 35.5247Z" fill="black"/>
<path d="M105.227 45.5832L105.92 47.5382C109.823 46.6557 113.738 41.9663 114.66 40.802C114.653 40.729 114.645 40.656 114.631 40.5837C114.507 39.9269 114.106 39.3245 113.453 38.7802C110.851 42.9465 105.227 45.5832 105.227 45.5832Z" fill="black"/>
<path d="M96.2055 35.4507C95.0217 35.4406 93.8007 35.4514 92.5483 35.4814C92.3152 38.5307 91.0544 42.82 91.0544 42.82L94.0866 42.7248C95.2158 40.6635 95.8884 37.3679 96.2055 35.4507Z" fill="black"/>
<path d="M112.728 38.2635C112.328 38.0166 111.868 37.7841 111.35 37.5675C110.013 39.02 106.57 42.555 103.353 44.1738L104.489 45.0816C104.489 45.081 110.852 41.3233 112.728 38.2635Z" fill="black"/>
<path d="M110.061 37.0935C107.39 36.2394 103.627 35.6932 98.949 35.5134C98.6072 35.5003 98.2609 35.4894 97.9126 35.48C97.472 37.985 96.6094 41.5375 95.1066 43.0118L102.181 43.9141C102.181 43.9135 107.228 40.3395 110.061 37.0935Z" fill="black"/>
<path d="M90.6005 35.3596L83.6062 35.7267L89.6337 36.1858L83.3182 36.7444L89.5005 37.1741L83.0304 37.7627L89.2127 38.1923L82.6167 38.9652L89.05 39.0259L82.1741 40.0123L88.9169 40.0148L81.5763 41.0895L88.6583 41.1871L81.1036 41.982L88.8941 42.427L90.6005 35.3596Z" fill="black"/>
<path d="M79.8672 35.4742L70.8228 33.5021L78.1486 34.0354L70.1224 32.3505L77.1382 32.9429L69.732 31.1407L74.4314 31.3709L69.0605 30.1445L72.6169 30.2709L76.0027 32.035L79.8672 35.4742Z" fill="black"/>
<path d="M86.0041 63.525C86.0041 63.525 90.1959 58.5539 91.0828 53.0873L89.6668 52.3936C89.6668 52.3936 87.7682 60.1393 85.0233 62.5878L86.0041 63.525Z" fill="black"/>
<path d="M88.4048 51.6703C88.4048 51.6703 86.8825 58.863 83.9749 62.145L80.0208 61.6128C80.0208 61.6128 83.3353 54.5607 83.1892 50.4144L88.4048 51.6703Z" fill="black"/>
<path d="M81.759 51.3302C81.759 51.3302 80.8647 57.6008 78.9747 61.1708C78.9747 61.1708 75.7583 61.1401 73.5891 61.5526L78.5174 60.4551L73.4124 60.6232L78.806 59.4373L73.332 59.3544L79.2197 58.2348L73.1257 58.2698L79.788 57.0029L72.7059 56.9047L79.9212 56.0141L72.4701 55.6648L80.4896 54.7822L71.895 54.3298L80.9033 53.5797L71.9988 53.1862L81.1912 52.562L72.0731 51.888L81.759 51.3302Z" fill="black"/>
<path d="M36.8431 45.8373C37.3968 45.6413 37.9587 45.4474 38.5275 45.2545C39.7532 47.8165 42.7049 51.5315 42.7049 51.5315L41.6031 52.4904C39.5327 50.5724 37.7235 47.4802 36.8431 45.8373Z" fill="black"/>
<path d="M27.3712 60.3878L27.4442 62.4607C23.4898 63.0723 18.1268 60.1473 16.8414 59.4028C16.8214 59.3322 16.8019 59.2615 16.7881 59.1891C16.6632 58.5324 16.8148 57.825 17.2222 57.0791C21.1725 59.9994 27.3712 60.3878 27.3712 60.3878Z" fill="black"/>
<path d="M32.0439 47.6513C33.1413 47.2073 34.281 46.7692 35.457 46.3375C36.7931 49.0884 39.5402 52.6155 39.5402 52.6155L36.6848 53.6399C34.8783 52.1368 33.0431 49.3182 32.0439 47.6513Z" fill="black"/>
<path d="M17.7071 56.3309C17.9887 55.9544 18.3322 55.5691 18.7338 55.1776C20.5111 56.0378 25.0115 58.0623 28.5972 58.3876L27.8742 59.6489C27.8735 59.6484 20.5761 58.4884 17.7071 56.3309Z" fill="black"/>
<path d="M19.7592 54.2653C21.9305 52.4902 25.2307 50.601 29.5158 48.7167C29.829 48.5791 30.147 48.4418 30.4676 48.3053C31.797 50.4737 33.9033 53.4616 35.8423 54.2814L29.5925 57.7175C29.5924 57.7169 23.5863 56.2448 19.7592 54.2653Z" fill="black"/>
<path d="M37.2255 45.5094L43.8664 43.2837L38.428 45.9231L44.5078 44.1246L38.9147 46.7935L45.1493 44.9662L39.5562 47.635L45.9755 45.9329L40.0135 48.3507L46.7721 46.7443L40.5003 49.2217L47.7236 47.5269L41.1711 50.2173L48.4902 48.1838L41.4069 51.4572L37.2255 45.5094Z" fill="black"/>
<path d="M48.0271 41.5293L55.7164 36.3751L49.0977 39.5602L55.9453 35.0468L49.6365 38.173L55.8649 33.778L51.578 35.717L56.1233 32.6051L52.8621 34.0279L50.3602 36.9115L48.0271 41.5293Z" fill="black"/>
<path d="M45.2543 59.8762C45.2543 59.8762 49.3103 66.0081 53.2197 67.9939L56.7025 66.0475C56.7025 66.0475 51.0308 60.7042 49.6449 56.7937L45.2543 59.8762Z" fill="black"/>
<path d="M51.3118 57.1202C51.3118 57.1202 54.4454 62.6249 57.5137 65.2519C57.5137 65.2519 60.4944 64.0428 62.6636 63.6303L57.6764 64.4184L62.4869 62.701L57.0344 63.5775L62.0959 61.4912L56.2088 62.6107L61.8903 60.4065L55.228 61.6734L61.7798 58.9825L54.7412 60.8024L61.544 57.7426L53.7603 59.8651L61.5889 56.2897L52.9347 58.8983L61.0732 55.2639L52.2933 58.0573L60.5276 54.0836L51.3118 57.1202Z" fill="black"/>
<path d="M63.9432 46.8499C63.7695 45.9369 64.3685 45.0566 65.2815 44.883C66.1945 44.7094 67.0748 45.3089 67.2483 46.2213C67.4218 47.1337 66.8224 48.0147 65.91 48.1882C64.9976 48.3617 64.1168 47.7628 63.9432 46.8499Z" fill="white"/>
<path d="M65.9533 48.4212C64.9143 48.6188 63.9076 47.9338 63.71 46.8947C63.5123 45.855 64.1974 44.8489 65.2365 44.6513C66.2761 44.4536 67.2822 45.1387 67.4798 46.1778C67.6781 47.2174 66.993 48.2235 65.9533 48.4212ZM65.3248 45.116C64.542 45.2648 64.0258 46.0235 64.1747 46.8063C64.3236 47.5897 65.0816 48.1055 65.865 47.9565C66.6484 47.8075 67.1641 47.0496 67.0152 46.2662C66.8663 45.4834 66.1082 44.967 65.3248 45.116Z" fill="black"/>
<path d="M64.8038 47.4358C64.7061 46.9221 65.0432 46.4267 65.5563 46.3291C66.07 46.2315 66.5653 46.5685 66.663 47.0822C66.7606 47.5953 66.4235 48.0907 65.9098 48.1884C65.3967 48.2859 64.9014 47.9489 64.8038 47.4358Z" fill="black"/>
<path d="M75.449 44.8772C75.2754 43.9642 75.8744 43.084 76.7873 42.9104C77.6997 42.7369 78.5807 43.3363 78.7542 44.2487C78.9278 45.1617 78.3283 46.042 77.4159 46.2155C76.5035 46.389 75.6225 45.7896 75.449 44.8772Z" fill="white"/>
<path d="M77.4592 46.4485C76.4196 46.6462 75.4134 45.9611 75.2159 44.922C75.0182 43.8824 75.7033 42.8763 76.7423 42.6787C77.782 42.481 78.7881 43.1661 78.9857 44.2052C79.1833 45.2442 78.4989 46.2508 77.4592 46.4485ZM76.8307 43.1433C76.0473 43.2923 75.5316 44.0503 75.6805 44.8337C75.8294 45.6165 76.5875 46.1328 77.3709 45.9838C78.1542 45.8349 78.6699 45.0763 78.521 44.2935C78.3721 43.5101 77.6141 42.9944 76.8307 43.1433Z" fill="black"/>
<path d="M76.3077 45.4631C76.2101 44.95 76.5471 44.4541 77.0608 44.3564C77.5739 44.2588 78.0692 44.5959 78.1669 45.1096C78.2645 45.6227 77.9275 46.1186 77.4144 46.2162C76.9006 46.3133 76.4053 45.9762 76.3077 45.4631Z" fill="black"/>
<path d="M85.7869 44.0881C85.6133 43.1752 86.2129 42.2948 87.1252 42.1213C88.0376 41.9478 88.9186 42.5472 89.0921 43.4596C89.2657 44.3726 88.6667 45.2529 87.7538 45.4265C86.8408 45.6001 85.9605 45.0011 85.7869 44.0881Z" fill="white"/>
<path d="M87.7971 45.6594C86.758 45.857 85.7513 45.172 85.5537 44.133C85.356 43.0933 86.0412 42.0872 87.0802 41.8896C88.1199 41.6919 89.126 42.377 89.3236 43.4161C89.5212 44.4552 88.8362 45.4619 87.7971 45.6594ZM87.1685 42.3537C86.3851 42.5027 85.8694 43.2612 86.0183 44.044C86.1672 44.8268 86.9252 45.3432 87.7086 45.1942C88.492 45.0452 89.0077 44.2867 88.8588 43.5039C88.71 42.7211 87.9513 42.2048 87.1685 42.3537Z" fill="black"/>
<path d="M86.6456 44.674C86.5479 44.1604 86.885 43.665 87.3987 43.5673C87.9118 43.4697 88.4071 43.8068 88.5048 44.3205C88.6024 44.8336 88.2653 45.329 87.7522 45.4265C87.2385 45.5242 86.7432 45.1872 86.6456 44.674Z" fill="black"/>
<path d="M94.3826 44.2737C94.209 43.3607 94.808 42.4805 95.7209 42.3068C96.6339 42.1332 97.5143 42.7328 97.6878 43.6452C97.8614 44.5582 97.2618 45.4385 96.3495 45.612C95.4371 45.7855 94.5562 45.1867 94.3826 44.2737Z" fill="white"/>
<path d="M96.3947 45.845C95.3551 46.0427 94.349 45.3576 94.1514 44.3185C93.9537 43.2789 94.6388 42.2727 95.6779 42.0752C96.7169 41.8776 97.7236 42.5626 97.9212 43.6016C98.1188 44.6407 97.4338 45.6474 96.3947 45.845ZM95.7661 42.5392C94.9827 42.6882 94.467 43.4462 94.616 44.2296C94.7649 45.013 95.5229 45.5287 96.3063 45.3797C97.0891 45.2309 97.6054 44.4728 97.4565 43.6894C97.307 42.9067 96.5489 42.3904 95.7661 42.5392Z" fill="black"/>
<path d="M95.2432 44.8596C95.1456 44.3459 95.4826 43.8505 95.9957 43.753C96.5094 43.6553 97.0048 43.9923 97.1025 44.506C97.2 45.0192 96.863 45.5145 96.3493 45.6122C95.8362 45.7098 95.3409 45.3733 95.2432 44.8596Z" fill="black"/>
<path d="M100.269 45.4006C100.096 44.4882 100.695 43.6073 101.608 43.4338C102.521 43.2602 103.401 43.8591 103.575 44.7721C103.748 45.6851 103.149 46.5654 102.236 46.739C101.324 46.9125 100.443 46.3136 100.269 45.4006Z" fill="white"/>
<path d="M102.281 46.9719C101.242 47.1696 100.236 46.4845 100.038 45.4455C99.8405 44.4064 100.526 43.3997 101.565 43.2021C102.604 43.0044 103.61 43.6895 103.808 44.7286C104.006 45.7677 103.321 46.7744 102.281 46.9719ZM101.653 43.6662C100.869 43.8152 100.354 44.5737 100.503 45.3565C100.652 46.1399 101.41 46.6556 102.193 46.5067C102.976 46.3578 103.492 45.5998 103.343 44.8164C103.194 44.0336 102.436 43.5173 101.653 43.6662Z" fill="black"/>
<path d="M102.237 46.7396C102.75 46.642 103.087 46.1465 102.99 45.6329C102.892 45.1193 102.397 44.7821 101.883 44.8798C101.369 44.9775 101.032 45.473 101.13 45.9865C101.228 46.5001 101.723 46.8373 102.237 46.7396Z" fill="black"/>
<path d="M104.416 48.6268C104.258 47.7996 104.802 47.0014 105.629 46.8441C106.456 46.6868 107.254 47.23 107.411 48.0571C107.569 48.8843 107.026 49.6826 106.198 49.8399C105.371 49.9967 104.573 49.454 104.416 48.6268Z" fill="white"/>
<path d="M106.242 50.0728C105.288 50.2542 104.364 49.6261 104.183 48.6716C104.001 47.7178 104.63 46.7938 105.584 46.6124C106.538 46.431 107.462 47.0597 107.643 48.0136C107.824 48.9674 107.196 49.8913 106.242 50.0728ZM105.672 47.077C104.975 47.2097 104.514 47.8851 104.647 48.5827C104.78 49.2803 105.455 49.7404 106.153 49.6076C106.851 49.4749 107.311 48.7995 107.178 48.1014C107.046 47.4038 106.37 46.9443 105.672 47.077Z" fill="black"/>
<path d="M105.195 49.1568C105.107 48.6916 105.412 48.2427 105.877 48.1543C106.343 48.0658 106.792 48.3712 106.88 48.8364C106.968 49.3017 106.663 49.7505 106.198 49.839C105.733 49.9274 105.284 49.622 105.195 49.1568Z" fill="black"/>
<path d="M55.0472 48.7565C54.8736 47.8435 53.9927 47.2447 53.0803 47.4182C52.1673 47.5918 51.5685 48.4726 51.742 49.385C51.9156 50.298 52.7964 50.8968 53.7088 50.7233C54.6218 50.5497 55.2207 49.6689 55.0472 48.7565Z" fill="white"/>
<path d="M53.7522 50.9563C52.7125 51.154 51.7064 50.4689 51.5088 49.4298C51.3111 48.3902 51.9962 47.3841 53.0353 47.1865C54.075 46.9888 55.0811 47.6739 55.2787 48.713C55.4762 49.752 54.7918 50.7586 53.7522 50.9563ZM53.1237 47.6512C52.3409 47.8 51.8245 48.5581 51.9735 49.3415C52.1223 50.1243 52.881 50.6405 53.6638 50.4917C54.4466 50.3428 54.9629 49.5841 54.814 48.8013C54.665 48.0179 53.9071 47.5022 53.1237 47.6512Z" fill="black"/>
<path d="M54.4624 49.6173C54.3649 49.1041 53.8694 48.7665 53.3557 48.8642C52.842 48.9619 52.5049 49.4572 52.6026 49.9709C52.7002 50.484 53.1957 50.8217 53.7094 50.724C54.2229 50.6257 54.56 50.1304 54.4624 49.6173Z" fill="black"/>
<path d="M45.1409 51.817C44.9673 50.9041 44.0865 50.3052 43.1741 50.4787C42.2611 50.6523 41.6622 51.5332 41.8357 52.4456C42.0094 53.3585 42.8896 53.9575 43.8026 53.7839C44.715 53.6104 45.3145 52.73 45.1409 51.817Z" fill="white"/>
<path d="M43.8459 54.0169C42.8069 54.2145 41.8002 53.5295 41.6026 52.4904C41.4049 51.4507 42.09 50.4446 43.1291 50.247C44.1687 50.0493 45.1748 50.7345 45.3724 51.7735C45.5706 52.8125 44.8856 53.8192 43.8459 54.0169ZM43.2173 50.7111C42.4345 50.86 41.9183 51.6186 42.0671 52.4014C42.216 53.1842 42.9741 53.7006 43.7575 53.5516C44.5408 53.4027 45.0565 52.6441 44.9076 51.8613C44.7594 51.0784 44.0007 50.5621 43.2173 50.7111Z" fill="black"/>
<path d="M44.555 52.678C44.4573 52.1643 43.962 51.8273 43.4489 51.9248C42.9357 52.0224 42.5987 52.5178 42.6964 53.0315C42.7939 53.5446 43.2893 53.8816 43.8024 53.7841C44.3155 53.6865 44.6526 53.1911 44.555 52.678Z" fill="black"/>
<path d="M37.2132 55.1452C37.0396 54.2322 36.1593 53.6332 35.2463 53.8068C34.3334 53.9805 33.7345 54.8613 33.908 55.7737C34.0816 56.6867 34.9619 57.2856 35.8748 57.112C36.7878 56.9384 37.3868 56.0582 37.2132 55.1452Z" fill="white"/>
<path d="M35.9182 57.345C34.8785 57.5427 33.8724 56.8576 33.6748 55.8185C33.4771 54.7789 34.1623 53.7727 35.2013 53.5752C36.2404 53.3776 37.2471 54.0626 37.4447 55.1016C37.6423 56.1407 36.9573 57.1474 35.9182 57.345ZM35.2896 54.0392C34.5062 54.1882 33.9904 54.9462 34.1394 55.7296C34.2884 56.513 35.0469 57.0286 35.8297 56.8797C36.6125 56.7309 37.1289 55.9728 36.9799 55.1894C36.831 54.4066 36.0724 53.8904 35.2896 54.0392Z" fill="black"/>
<path d="M36.6265 56.0059C36.5288 55.4922 36.0334 55.1552 35.5198 55.2529C35.0061 55.3505 34.669 55.8459 34.7667 56.3596C34.8642 56.8727 35.3596 57.2098 35.8733 57.1121C36.387 57.0144 36.7242 56.5196 36.6265 56.0059Z" fill="black"/>
<path d="M32.1507 58.3542C31.9772 57.4418 31.0962 56.8423 30.1838 57.0158C29.2709 57.1894 28.6719 58.0697 28.8455 58.9827C29.0191 59.8956 29.8999 60.4945 30.8123 60.321C31.7247 60.1475 32.3243 59.2671 32.1507 58.3542Z" fill="white"/>
<path d="M30.8557 60.554C29.816 60.7517 28.8099 60.0666 28.6123 59.0275C28.4148 57.9884 29.0998 56.9817 30.1388 56.7841C31.1779 56.5866 32.1846 57.2716 32.3822 58.3106C32.5798 59.3497 31.8948 60.3564 30.8557 60.554ZM30.2271 57.2482C29.4437 57.3972 28.928 58.1557 29.0769 58.9385C29.2259 59.7219 29.9844 60.2376 30.7672 60.0887C31.55 59.9399 32.0664 59.1818 31.9174 58.3984C31.7685 57.6156 31.0099 57.0994 30.2271 57.2482Z" fill="black"/>
<path d="M31.5634 59.215C31.4658 58.7019 30.9704 58.3643 30.4567 58.462C29.9436 58.5595 29.6065 59.0549 29.7042 59.5686C29.8017 60.0817 30.2972 60.4193 30.8103 60.3218C31.3239 60.2235 31.661 59.7281 31.5634 59.215Z" fill="black"/>
<path d="M29.4779 62.8755C29.3206 62.0483 28.5223 61.5051 27.6952 61.6624C26.868 61.8197 26.3248 62.618 26.4821 63.4452C26.6394 64.2723 27.4377 64.8155 28.2648 64.6582C29.0919 64.5003 29.6352 63.7026 29.4779 62.8755Z" fill="white"/>
<path d="M28.3082 64.8912C27.3543 65.0726 26.4304 64.4444 26.2489 63.49C26.0676 62.5361 26.6963 61.6121 27.6501 61.4307C28.604 61.2494 29.528 61.8781 29.7094 62.832C29.8908 63.7858 29.262 64.7098 28.3082 64.8912ZM27.7385 61.8954C27.0409 62.0281 26.5814 62.7034 26.7141 63.4009C26.8467 64.0985 27.5221 64.5586 28.2197 64.426C28.9173 64.2933 29.3774 63.6179 29.2446 62.9197C29.112 62.2221 28.4361 61.7628 27.7385 61.8954Z" fill="black"/>
<path d="M28.9464 63.6568C28.858 63.1915 28.4092 62.8861 27.9439 62.9746C27.4787 63.0631 27.1733 63.5119 27.2617 63.9771C27.3502 64.4424 27.799 64.7477 28.2643 64.6593C28.7295 64.5708 29.0349 64.122 28.9464 63.6568Z" fill="black"/>
<path d="M51.8395 70.0225C51.8395 70.0225 46.1157 66.9369 43.2841 62.1774L44.3467 61.0124C44.3467 61.0124 48.9558 67.5206 52.4079 68.7906L51.8395 70.0225Z" fill="black"/>
</g>
<g clip-path="url(#clip1_523_51880)">
<path d="M287.434 477.761L296.252 523.09L287.434 477.761Z" fill="black"/>
<path d="M287.434 477.761C288.019 481.567 288.676 485.36 289.358 489.148C289.692 491.043 290.052 492.933 290.4 494.826L291.482 500.496L292.603 506.158L293.18 508.986L293.469 510.4L293.766 511.813C294.554 515.58 295.367 519.342 296.252 523.09C295.668 519.283 295.011 515.49 294.33 511.703L294.075 510.282L293.813 508.863L293.288 506.024L292.204 500.355L291.082 494.692C290.694 492.807 290.319 490.92 289.919 489.038C289.131 485.271 288.318 481.509 287.434 477.761Z" fill="black"/>
<path d="M284.93 477.285L289.541 521.815L284.93 477.285Z" fill="black"/>
<path d="M284.93 477.285C285.163 481.012 285.468 484.731 285.799 488.447C285.957 490.306 286.142 492.162 286.314 494.02L286.87 499.588L287.466 505.152L287.78 507.933L287.938 509.323L288.103 510.712C288.541 514.417 289.005 518.12 289.541 521.815C289.309 518.089 289.005 514.37 288.674 510.653L288.551 509.259L288.421 507.866L288.158 505.081L287.601 499.512L287.004 493.948C286.792 492.095 286.593 490.24 286.367 488.388C285.929 484.683 285.466 480.981 284.93 477.285Z" fill="black"/>
<path d="M282.427 476.808L282.83 520.538L282.427 476.808Z" fill="black"/>
<path d="M282.427 476.808C282.308 480.453 282.262 484.098 282.242 487.743C282.225 489.565 282.234 491.388 282.231 493.21L282.261 498.676L282.331 504.142L282.382 506.875L282.408 508.242L282.442 509.608C282.53 513.251 282.644 516.895 282.83 520.538C282.95 516.892 282.996 513.248 283.017 509.603L283.025 508.236L283.027 506.87L283.027 504.136L282.996 498.67L282.926 493.204C282.889 491.382 282.864 489.56 282.814 487.738C282.726 484.094 282.613 480.451 282.427 476.808Z" fill="black"/>
<path d="M279.921 476.333L276.118 519.262L279.921 476.333Z" fill="black"/>
<path d="M279.922 476.333C279.453 479.897 279.057 483.467 278.686 487.04C278.494 488.826 278.328 490.614 278.149 492.401L277.653 497.766L277.197 503.134L276.985 505.819L276.88 507.161L276.782 508.505C276.519 512.087 276.282 515.672 276.117 519.263C276.587 515.699 276.984 512.129 277.355 508.556L277.495 507.216L277.628 505.876L277.891 503.195L278.386 497.83L278.841 492.462C278.98 490.671 279.131 488.882 279.255 487.09C279.519 483.508 279.757 479.924 279.922 476.333Z" fill="black"/>
<path d="M277.417 475.857C276.6 479.339 275.854 482.836 275.134 486.336C274.767 488.085 274.425 489.839 274.072 491.591L273.051 496.853L272.069 502.122L271.594 504.761L271.357 506.08L271.128 507.4C270.513 510.921 269.924 514.446 269.407 517.986C270.225 514.504 270.971 511.008 271.692 507.507L271.963 506.195L272.227 504.881L272.753 502.253L273.774 496.99L274.755 491.721C275.069 489.961 275.396 488.205 275.696 486.443C276.31 482.922 276.899 479.396 277.417 475.857Z" fill="black"/>
<path d="M274.914 475.381L262.695 516.71L274.914 475.381Z" fill="black"/>
<path d="M274.914 475.381C273.75 478.782 272.655 482.203 271.585 485.632C271.043 487.344 270.527 489.064 269.999 490.781L268.452 495.941L266.943 501.113L266.204 503.704L265.835 504.999L265.474 506.297C264.508 509.756 263.566 513.223 262.695 516.711C263.86 513.31 264.955 509.889 266.025 506.46L266.428 505.174L266.822 503.887L267.611 501.311L269.157 496.15L270.665 490.978C271.155 489.25 271.657 487.526 272.133 485.794C273.1 482.335 274.042 478.868 274.914 475.381Z" fill="black"/>
<path d="M272.41 474.904L255.984 515.434L272.41 474.904Z" fill="black"/>
<path d="M272.41 474.904C270.9 478.224 269.458 481.572 268.038 484.93C267.322 486.605 266.631 488.292 265.928 489.973L263.856 495.031L261.821 500.105L260.819 502.648L260.318 503.919L259.825 505.194C258.506 508.591 257.211 511.999 255.984 515.434C257.495 512.114 258.938 508.766 260.357 505.409L260.89 504.151L261.416 502.889L262.467 500.366L264.538 495.307L266.572 490.234C267.239 488.537 267.916 486.846 268.569 485.144C269.887 481.746 271.182 478.339 272.41 474.904Z" fill="black"/>
<path d="M269.906 474.428L249.273 514.157L269.906 474.428Z" fill="black"/>
<path d="M269.906 474.428C268.052 477.669 266.261 480.943 264.494 484.228C263.604 485.868 262.737 487.52 261.86 489.166L259.263 494.123L256.7 499.098L255.434 501.593L254.801 502.841L254.176 504.093C252.504 507.428 250.856 510.776 249.272 514.157C251.127 510.917 252.918 507.643 254.685 504.357L255.349 503.125L256.006 501.89L257.319 499.419L259.916 494.462L262.477 489.486C263.319 487.822 264.172 486.163 265.001 484.492C266.673 481.156 268.322 477.809 269.906 474.428Z" fill="black"/>
<path d="M267.402 473.951L242.561 512.88L267.402 473.951Z" fill="black"/>
<path d="M267.402 473.951C265.204 477.113 263.067 480.315 260.951 483.529C259.887 485.133 258.846 486.751 257.794 488.363L254.671 493.218L251.582 498.094L250.052 500.541L249.287 501.765L248.529 502.994C246.505 506.267 244.502 509.554 242.561 512.88C244.76 509.718 246.898 506.518 249.013 503.303L249.808 502.098L250.595 500.888L252.17 498.47L255.291 493.614L258.379 488.737C259.397 487.104 260.426 485.478 261.432 483.838C263.457 480.564 265.46 477.277 267.402 473.951Z" fill="black"/>
<path d="M298.001 449.544L282.197 446.539L281.887 446.48L266.083 443.475C275.55 433.181 292.71 435.813 298.001 449.544Z" fill="white"/>
<path d="M265.545 443.653L298.436 449.908L298.258 449.445C298.219 449.343 297.268 446.91 295.029 444.178C289.003 436.822 279.592 434.682 270.817 439.574C267.732 441.294 265.955 443.208 265.881 443.289L265.545 443.653ZM297.54 449.176L266.647 443.301C267.312 442.664 268.87 441.288 271.103 440.046C279.095 435.6 288.353 436.913 294.59 444.513C296.211 446.487 297.156 448.339 297.54 449.176Z" fill="black"/>
<path d="M265.622 443.628L298.375 449.856L298.222 449.459C298.182 449.357 297.234 446.93 294.999 444.203C288.931 436.796 279.522 434.766 270.837 439.608C267.757 441.325 265.984 443.235 265.91 443.315L265.622 443.628ZM297.607 449.229L266.567 443.326C276.581 433.687 291.615 436.097 297.607 449.229Z" fill="white"/>
<path d="M265.083 443.807L298.811 450.22L298.48 449.36C298.44 449.256 297.474 446.787 295.213 444.028C288.957 436.393 279.363 434.54 270.703 439.367C267.58 441.109 265.782 443.047 265.707 443.129L265.083 443.807ZM297.122 448.856L267.155 443.157C277.214 434.148 290.973 436.57 297.122 448.856Z" fill="black"/>
<path d="M298.32 450.406C298.32 450.406 294.564 445.679 282.168 443.322C269.774 440.965 265.163 444.101 265.163 444.101L298.32 450.406Z" fill="black"/>
<path d="M247.003 443.513C256.668 443.141 269.207 444.309 282.309 446.8C295.411 449.292 307.503 452.808 316.358 456.701C324.99 460.497 329.629 464.314 329.085 467.174C328.541 470.034 322.825 471.882 313.402 472.244C303.737 472.616 291.198 471.448 278.096 468.957C264.994 466.465 252.902 462.949 244.047 459.056C235.415 455.26 230.776 451.443 231.32 448.583C231.864 445.723 237.58 443.875 247.003 443.513Z" fill="white"/>
<path d="M246.984 443.041C256.684 442.669 269.261 443.839 282.397 446.337C295.533 448.835 307.661 452.362 316.547 456.27C325.529 460.218 330.146 464.123 329.549 467.264C328.952 470.404 323.224 472.341 313.42 472.718C303.719 473.091 291.143 471.92 278.007 469.422C264.871 466.924 252.742 463.397 243.856 459.49C234.875 455.541 230.257 451.636 230.855 448.496C231.452 445.355 237.18 443.419 246.984 443.041ZM244.047 459.057C252.901 462.95 264.993 466.466 278.096 468.958C291.198 471.449 303.736 472.617 313.402 472.245C322.825 471.883 328.541 470.035 329.084 467.175C329.628 464.316 324.989 460.499 316.357 456.703C307.503 452.809 295.411 449.293 282.309 446.802C269.207 444.31 256.668 443.143 247.002 443.514C237.58 443.876 231.864 445.725 231.32 448.584C230.776 451.444 235.415 455.261 244.047 459.057Z" fill="white"/>
<path d="M277.955 469.693C291.111 472.195 303.71 473.367 313.43 472.993C318.335 472.804 322.237 472.231 325.025 471.287C327.889 470.319 329.503 468.982 329.82 467.314C330.137 465.647 329.127 463.811 326.818 461.858C324.571 459.958 321.152 457.992 316.658 456.016C307.754 452.1 295.604 448.566 282.448 446.065C269.292 443.563 256.693 442.391 246.973 442.765C242.067 442.953 238.166 443.527 235.378 444.47C232.513 445.439 230.9 446.775 230.583 448.444C230.266 450.111 231.276 451.947 233.585 453.899C235.833 455.8 239.251 457.765 243.745 459.742C252.649 463.657 264.799 467.191 277.955 469.693ZM282.256 447.072C295.339 449.56 307.41 453.07 316.246 456.955C320.518 458.834 323.796 460.7 325.986 462.503C328.082 464.228 329.06 465.825 328.813 467.124C328.566 468.421 327.07 469.549 324.487 470.384C321.788 471.256 318.055 471.79 313.39 471.969C303.745 472.34 291.229 471.174 278.146 468.687C265.064 466.199 252.994 462.69 244.157 458.804L244.046 459.056L244.157 458.804C239.884 456.925 236.607 455.059 234.417 453.256C232.32 451.531 231.343 449.933 231.59 448.636C231.837 447.337 233.333 446.21 235.915 445.375C238.614 444.502 242.348 443.969 247.012 443.789C256.658 443.418 269.175 444.585 282.256 447.072Z" fill="black"/>
<path d="M277.678 471.151C255.507 466.935 238.321 459.378 239.291 454.272C240.262 449.166 259.023 448.445 281.194 452.661C303.365 456.877 320.551 464.434 319.58 469.54C318.609 474.645 299.849 475.367 277.678 471.151Z" fill="black"/>
<path d="M277.634 471.383C288.374 473.425 298.657 474.382 306.589 474.077C314.624 473.768 319.321 472.172 319.813 469.584C320.305 466.996 316.522 463.787 309.161 460.551C301.895 457.356 291.978 454.472 281.239 452.429C270.499 450.387 260.216 449.43 252.284 449.735C244.249 450.044 239.552 451.64 239.06 454.229C238.568 456.818 242.351 460.025 249.712 463.262C256.978 466.457 266.895 469.341 277.634 471.383ZM281.15 452.894C291.856 454.93 301.736 457.803 308.97 460.984C316.006 464.077 319.789 467.18 319.349 469.496C318.908 471.811 314.251 473.309 306.571 473.604C298.674 473.908 288.429 472.954 277.723 470.918C267.017 468.883 257.137 466.009 249.903 462.829C242.867 459.735 239.084 456.633 239.525 454.317C239.965 452.001 244.622 450.503 252.303 450.208C260.199 449.904 270.444 450.858 281.15 452.894Z" fill="white"/>
<path d="M277.322 473.025C256.357 469.038 240.107 461.893 241.025 457.065C241.943 452.237 259.682 451.555 280.646 455.541C301.611 459.528 317.861 466.674 316.943 471.501C316.025 476.329 298.286 477.011 277.322 473.025Z" fill="black"/>
<path d="M277.248 473.413C287.415 475.346 297.153 476.252 304.665 475.963C310.102 475.754 316.713 474.823 317.331 471.576C317.948 468.329 312.14 465.036 307.159 462.846C300.277 459.82 290.887 457.089 280.72 455.155C270.552 453.222 260.815 452.316 253.303 452.605C247.865 452.814 241.254 453.744 240.637 456.992C240.019 460.239 245.827 463.531 250.808 465.722C257.69 468.747 267.08 471.479 277.248 473.413ZM280.572 455.929C303.047 460.203 317.323 467.394 316.556 471.428C315.789 475.462 299.87 476.912 277.395 472.638C254.92 468.364 240.644 461.173 241.411 457.139C242.179 453.105 258.098 451.656 280.572 455.929Z" fill="white"/>
<path d="M277.29 473.192C285.404 474.734 293.172 475.457 299.161 475.227C305.178 474.995 308.689 473.823 309.05 471.925C309.411 470.028 306.574 467.648 301.063 465.225C295.576 462.812 288.085 460.633 279.972 459.091C271.858 457.548 264.09 456.825 258.101 457.055C252.084 457.287 248.573 458.459 248.212 460.357C247.851 462.254 250.688 464.634 256.199 467.057C261.686 469.47 269.176 471.649 277.29 473.192ZM279.949 459.208C296.658 462.386 309.66 468.081 308.933 471.904C308.206 475.727 294.021 476.252 277.312 473.075C260.604 469.897 247.602 464.202 248.329 460.379C249.055 456.556 263.241 456.031 279.949 459.208Z" fill="black"/>
<path d="M277.246 473.424C285.377 474.971 293.164 475.695 299.171 475.464C305.397 475.225 308.894 474.016 309.283 471.97C309.672 469.924 306.863 467.517 301.159 465.009C295.656 462.589 288.147 460.405 280.016 458.859C271.885 457.313 264.099 456.588 258.092 456.819C251.865 457.059 248.369 458.267 247.98 460.313C247.591 462.359 250.4 464.766 256.104 467.274C261.606 469.694 269.115 471.878 277.246 473.424ZM279.905 459.441C296.205 462.541 309.392 468.228 308.701 471.86C308.01 475.492 293.657 475.943 277.357 472.843C261.057 469.744 247.87 464.056 248.561 460.424C249.252 456.791 263.606 456.342 279.905 459.441Z" fill="white"/>
<path d="M279.443 461.023C292.707 463.545 302.924 468.401 302.265 471.867C302.233 472.036 302.175 472.198 302.094 472.354C302.145 472.374 302.17 472.385 302.167 472.384C302.167 472.384 297.819 479.532 289.777 480.624C285.836 481.159 278.03 479.995 275.964 479.602C274.002 479.229 266.048 477.717 262.741 475.483C257.034 471.627 254.793 465.682 254.351 463.798C254.212 463.432 254.169 463.077 254.234 462.735C254.894 459.267 266.181 458.501 279.443 461.023Z" fill="white"/>
<path d="M275.918 479.835C277.689 480.172 285.726 481.412 289.807 480.858C297.242 479.849 301.61 473.659 302.277 472.647L302.332 472.657L302.393 472.45C302.412 472.384 302.405 472.331 302.384 472.288C302.434 472.165 302.471 472.039 302.496 471.912C303.19 468.261 293.083 463.377 279.486 460.791C265.889 458.206 254.694 459.04 254 462.69C253.929 463.064 253.97 463.461 254.123 463.867C254.717 466.379 257.248 472.058 262.607 475.679C264.134 476.711 267.683 478.269 275.918 479.835ZM301.809 472.497C300.972 473.732 296.756 479.438 289.743 480.39C285.724 480.935 277.762 479.705 276.006 479.371C267.85 477.82 264.362 476.294 262.872 475.287C257.624 471.741 255.153 466.186 254.58 463.744L254.57 463.714C254.445 463.385 254.41 463.071 254.465 462.779C255.088 459.502 266.506 458.804 279.398 461.256C292.289 463.707 302.654 468.547 302.031 471.824C302.004 471.966 301.954 472.108 301.883 472.245L301.761 472.478L301.809 472.497Z" fill="white"/>
<path d="M275.868 480.106C277.647 480.444 285.727 481.69 289.845 481.131C297.059 480.152 301.382 474.453 302.407 472.951L302.529 472.975L302.659 472.527C302.682 472.45 302.687 472.374 302.675 472.301C302.715 472.19 302.747 472.076 302.768 471.963C302.957 470.972 302.462 469.907 301.297 468.797C300.219 467.77 298.595 466.73 296.472 465.703C292.152 463.615 286.138 461.774 279.539 460.519C272.94 459.264 266.671 458.769 261.886 459.126C259.534 459.301 257.641 459.674 256.261 460.233C254.771 460.837 253.92 461.647 253.731 462.638C253.651 463.057 253.695 463.497 253.86 463.947C254.468 466.494 257.04 472.248 262.454 475.907C264.002 476.954 267.586 478.531 275.868 480.106ZM301.384 472.625C300.248 474.21 296.174 479.239 289.707 480.116C285.725 480.656 277.806 479.432 276.059 479.1C267.949 477.557 264.496 476.051 263.027 475.058C257.85 471.561 255.414 466.087 254.849 463.681L254.829 463.616C254.722 463.335 254.692 463.071 254.737 462.831C255.009 461.403 257.783 460.424 262.348 460.145C267.097 459.855 273.134 460.346 279.347 461.527C285.56 462.709 291.356 464.468 295.666 466.481C299.811 468.415 302.032 470.345 301.76 471.772C301.738 471.889 301.698 472.004 301.638 472.117L301.375 472.621L301.384 472.625Z" fill="black"/>
<path d="M260.329 472.615C259.878 474.983 266.879 477.981 275.892 479.695C284.905 481.409 292.518 481.189 292.968 478.822C293.418 476.455 286.476 473.146 277.463 471.432C268.45 469.718 260.779 470.248 260.329 472.615Z" fill="black"/>
<path d="M275.848 479.928C280.306 480.775 284.498 481.165 287.652 481.025C291.042 480.875 292.961 480.128 293.201 478.866C293.739 476.038 285.645 472.747 277.508 471.2C269.372 469.653 260.634 469.743 260.096 472.571C259.856 473.834 261.367 475.232 264.465 476.616C267.348 477.904 271.391 479.08 275.848 479.928ZM277.42 471.664C287.043 473.494 293.108 476.819 292.736 478.777C292.337 480.877 284.958 481.178 275.937 479.462C266.915 477.747 260.162 474.759 260.561 472.659C260.933 470.701 267.796 469.834 277.42 471.664Z" fill="white"/>
<path d="M275.797 480.199C280.274 481.05 284.489 481.442 287.664 481.302C291.247 481.143 293.202 480.341 293.472 478.919C293.75 477.458 292.108 475.862 288.723 474.303C285.785 472.949 281.716 471.72 277.559 470.93C273.402 470.139 269.167 469.789 265.937 469.97C262.216 470.178 260.103 471.06 259.825 472.52C259.554 473.943 261.077 475.406 264.352 476.869C267.255 478.165 271.319 479.348 275.797 480.199ZM277.368 471.936C281.801 472.779 285.828 474.017 288.705 475.422C291.666 476.867 292.589 478.077 292.465 478.726C292.146 480.404 285.449 480.991 275.988 479.192C266.527 477.393 260.513 474.389 260.832 472.711C260.956 472.061 262.258 471.275 265.542 471.017C268.735 470.766 272.934 471.093 277.368 471.936Z" fill="black"/>
<path d="M265.635 473.614C265.359 475.064 270.104 476.988 276.188 478.145C282.271 479.302 287.391 479.253 287.667 477.803C287.942 476.353 283.234 474.24 277.15 473.083C271.066 471.926 265.911 472.164 265.635 473.614Z" fill="white"/>
<path d="M276.144 478.378C281.562 479.408 287.551 479.682 287.9 477.848C288.253 475.992 282.648 473.888 277.195 472.851C271.742 471.814 265.756 471.714 265.403 473.57C265.054 475.403 270.727 477.347 276.144 478.378ZM277.107 473.316C283.462 474.524 287.651 476.627 287.435 477.76C287.234 478.819 282.893 479.18 276.233 477.913C269.572 476.646 265.667 474.719 265.868 473.659C266.083 472.527 270.752 472.107 277.107 473.316Z" fill="black"/>
<path d="M254.875 443.525C255.462 443.546 256.056 443.571 256.656 443.601C256.855 446.434 258.237 450.973 258.237 450.973L256.861 451.461C255.639 448.917 255.091 445.376 254.875 443.525Z" fill="black"/>
<path d="M240.724 453.583L240.031 455.538C236.128 454.656 232.213 449.966 231.291 448.802C231.298 448.729 231.306 448.656 231.32 448.584C231.445 447.927 231.845 447.324 232.498 446.78C235.1 450.947 240.724 453.583 240.724 453.583Z" fill="black"/>
<path d="M249.746 443.451C250.93 443.441 252.15 443.451 253.403 443.481C253.636 446.531 254.897 450.82 254.897 450.82L251.865 450.725C250.735 448.663 250.063 445.368 249.746 443.451Z" fill="black"/>
<path d="M233.223 446.263C233.623 446.017 234.083 445.784 234.601 445.567C235.939 447.02 239.381 450.555 242.598 452.174L241.462 453.082C241.462 453.081 235.099 449.323 233.223 446.263Z" fill="black"/>
<path d="M235.89 445.094C238.561 444.239 242.325 443.693 247.002 443.513C247.344 443.5 247.69 443.489 248.039 443.48C248.479 445.985 249.342 449.537 250.845 451.012L243.77 451.914C243.77 451.913 238.723 448.34 235.89 445.094Z" fill="black"/>
<path d="M255.351 443.36L262.345 443.727L256.317 444.186L262.633 444.744L256.451 445.174L262.921 445.763L256.739 446.192L263.334 446.965L256.901 447.026L263.777 448.012L257.034 448.015L264.375 449.089L257.293 449.187L264.848 449.982L257.057 450.427L255.351 443.36Z" fill="black"/>
<path d="M266.084 443.474L275.128 441.502L267.803 442.035L275.829 440.351L268.813 440.943L276.219 439.141L271.52 439.371L276.891 438.145L273.334 438.271L269.949 440.035L266.084 443.474Z" fill="black"/>
<path d="M259.947 471.525C259.947 471.525 255.755 466.554 254.868 461.087L256.284 460.394C256.284 460.394 258.183 468.139 260.928 470.588L259.947 471.525Z" fill="black"/>
<path d="M257.546 459.67C257.546 459.67 259.069 466.863 261.976 470.145L265.93 469.613C265.93 469.613 262.616 462.561 262.762 458.414L257.546 459.67Z" fill="black"/>
<path d="M264.192 459.33C264.192 459.33 265.087 465.601 266.976 469.171C266.976 469.171 270.193 469.14 272.362 469.553L267.434 468.455L272.539 468.623L267.145 467.437L272.619 467.354L266.732 466.235L272.825 466.27L266.163 465.003L273.245 464.905L266.03 464.014L273.481 463.665L265.462 462.782L274.056 462.33L265.048 461.58L273.952 461.186L264.76 460.562L273.878 459.888L264.192 459.33Z" fill="black"/>
<path d="M309.108 453.837C308.554 453.641 307.992 453.447 307.424 453.255C306.198 455.816 303.246 459.532 303.246 459.532L304.348 460.49C306.418 458.572 308.228 455.48 309.108 453.837Z" fill="black"/>
<path d="M318.58 468.388L318.507 470.461C322.461 471.072 327.824 468.147 329.11 467.403C329.13 467.332 329.149 467.262 329.163 467.189C329.288 466.532 329.136 465.825 328.729 465.079C324.779 467.999 318.58 468.388 318.58 468.388Z" fill="black"/>
<path d="M313.907 455.651C312.81 455.207 311.67 454.769 310.494 454.338C309.158 457.088 306.411 460.615 306.411 460.615L309.266 461.64C311.073 460.137 312.908 457.318 313.907 455.651Z" fill="black"/>
<path d="M328.244 464.331C327.962 463.954 327.619 463.569 327.217 463.178C325.44 464.038 320.94 466.062 317.354 466.388L318.077 467.649C318.078 467.648 325.375 466.488 328.244 464.331Z" fill="black"/>
<path d="M326.192 462.265C324.021 460.49 320.721 458.601 316.435 456.717C316.122 456.579 315.804 456.442 315.484 456.305C314.154 458.474 312.048 461.462 310.109 462.281L316.359 465.717C316.359 465.717 322.365 464.245 326.192 462.265Z" fill="black"/>
<path d="M308.726 453.509L302.085 451.284L307.523 453.923L301.443 452.125L307.036 454.793L300.802 452.966L306.395 455.635L299.976 453.933L305.938 456.351L299.179 454.744L305.451 457.222L298.228 455.527L304.78 458.217L297.461 456.184L304.544 459.457L308.726 453.509Z" fill="black"/>
<path d="M297.924 449.529L290.235 444.375L296.853 447.56L290.006 443.047L296.315 446.173L290.086 441.778L294.373 443.717L289.828 440.605L293.089 442.028L295.591 444.912L297.924 449.529Z" fill="black"/>
<path d="M300.697 467.876C300.697 467.876 296.641 474.008 292.731 475.994L289.249 474.047C289.249 474.047 294.92 468.704 296.306 464.794L300.697 467.876Z" fill="black"/>
<path d="M294.639 465.12C294.639 465.12 291.506 470.625 288.437 473.252C288.437 473.252 285.457 472.043 283.288 471.63L288.275 472.418L283.464 470.701L288.917 471.578L283.855 469.491L289.742 470.611L284.061 468.406L290.723 469.673L284.171 466.983L291.21 468.802L284.407 465.743L292.191 467.865L284.362 464.29L293.016 466.898L284.878 463.264L293.658 466.057L285.424 462.084L294.639 465.12Z" fill="black"/>
<path d="M282.008 454.85C282.182 453.937 281.583 453.057 280.67 452.883C279.757 452.709 278.876 453.309 278.703 454.221C278.529 455.134 279.129 456.015 280.041 456.188C280.954 456.362 281.834 455.763 282.008 454.85Z" fill="white"/>
<path d="M279.998 456.421C281.037 456.619 282.044 455.934 282.241 454.895C282.439 453.855 281.754 452.849 280.715 452.651C279.675 452.454 278.669 453.139 278.471 454.178C278.273 455.217 278.958 456.223 279.998 456.421ZM280.626 453.116C281.409 453.265 281.925 454.024 281.777 454.806C281.628 455.59 280.87 456.105 280.086 455.957C279.303 455.808 278.787 455.05 278.936 454.266C279.085 453.483 279.843 452.967 280.626 453.116Z" fill="black"/>
<path d="M281.147 455.436C281.245 454.922 280.908 454.427 280.395 454.329C279.881 454.231 279.386 454.569 279.288 455.082C279.191 455.595 279.528 456.091 280.041 456.188C280.554 456.286 281.05 455.949 281.147 455.436Z" fill="black"/>
<path d="M270.502 452.877C270.676 451.964 270.077 451.084 269.164 450.91C268.251 450.737 267.37 451.336 267.197 452.249C267.023 453.162 267.623 454.042 268.535 454.216C269.448 454.389 270.329 453.79 270.502 452.877Z" fill="white"/>
<path d="M268.492 454.449C269.532 454.646 270.538 453.961 270.735 452.922C270.933 451.882 270.248 450.876 269.209 450.679C268.169 450.481 267.163 451.166 266.965 452.205C266.768 453.244 267.452 454.251 268.492 454.449ZM269.12 451.143C269.904 451.292 270.42 452.05 270.271 452.834C270.122 453.616 269.364 454.133 268.58 453.984C267.797 453.835 267.281 453.076 267.43 452.294C267.579 451.51 268.337 450.994 269.12 451.143Z" fill="black"/>
<path d="M269.643 453.463C269.741 452.95 269.404 452.454 268.89 452.356C268.377 452.259 267.882 452.596 267.784 453.11C267.687 453.623 268.024 454.119 268.537 454.216C269.051 454.313 269.546 453.976 269.643 453.463Z" fill="black"/>
<path d="M260.164 452.088C260.338 451.175 259.738 450.295 258.826 450.121C257.914 449.948 257.033 450.547 256.859 451.46C256.685 452.373 257.284 453.253 258.197 453.426C259.11 453.6 259.991 453.001 260.164 452.088Z" fill="white"/>
<path d="M258.154 453.659C259.193 453.857 260.2 453.172 260.397 452.133C260.595 451.093 259.91 450.087 258.871 449.89C257.831 449.692 256.825 450.377 256.628 451.416C256.43 452.455 257.115 453.462 258.154 453.659ZM258.783 450.354C259.566 450.503 260.082 451.261 259.933 452.044C259.784 452.827 259.026 453.343 258.243 453.194C257.459 453.045 256.944 452.287 257.092 451.504C257.241 450.721 258 450.205 258.783 450.354Z" fill="black"/>
<path d="M259.306 452.674C259.403 452.16 259.066 451.665 258.553 451.567C258.039 451.47 257.544 451.807 257.446 452.32C257.349 452.834 257.686 453.329 258.199 453.427C258.713 453.524 259.208 453.187 259.306 452.674Z" fill="black"/>
<path d="M251.569 452.274C251.742 451.361 251.143 450.48 250.23 450.307C249.317 450.133 248.437 450.733 248.263 451.645C248.09 452.558 248.689 453.439 249.602 453.612C250.514 453.786 251.395 453.187 251.569 452.274Z" fill="white"/>
<path d="M249.556 453.845C250.596 454.043 251.602 453.358 251.8 452.319C251.997 451.279 251.312 450.273 250.273 450.075C249.234 449.878 248.228 450.563 248.03 451.602C247.832 452.641 248.517 453.647 249.556 453.845ZM250.185 450.539C250.968 450.688 251.484 451.446 251.335 452.23C251.186 453.013 250.428 453.529 249.645 453.38C248.862 453.231 248.346 452.473 248.495 451.689C248.644 450.907 249.402 450.39 250.185 450.539Z" fill="black"/>
<path d="M250.708 452.86C250.806 452.346 250.469 451.851 249.955 451.753C249.442 451.655 248.946 451.992 248.849 452.506C248.751 453.019 249.088 453.515 249.602 453.612C250.115 453.71 250.61 453.373 250.708 452.86Z" fill="black"/>
<path d="M245.682 453.401C245.855 452.488 245.256 451.607 244.344 451.434C243.431 451.26 242.55 451.859 242.377 452.772C242.203 453.685 242.802 454.565 243.715 454.739C244.627 454.912 245.508 454.314 245.682 453.401Z" fill="white"/>
<path d="M243.67 454.972C244.709 455.17 245.715 454.485 245.913 453.445C246.111 452.406 245.426 451.4 244.387 451.202C243.347 451.004 242.341 451.69 242.143 452.729C241.946 453.768 242.631 454.774 243.67 454.972ZM244.298 451.666C245.082 451.815 245.597 452.574 245.448 453.357C245.3 454.14 244.541 454.656 243.758 454.507C242.975 454.358 242.459 453.6 242.608 452.816C242.757 452.034 243.516 451.517 244.298 451.666Z" fill="black"/>
<path d="M243.714 454.74C243.201 454.642 242.864 454.146 242.961 453.633C243.059 453.119 243.555 452.782 244.068 452.88C244.582 452.977 244.919 453.473 244.821 453.987C244.724 454.5 244.228 454.837 243.714 454.74Z" fill="black"/>
<path d="M241.535 456.627C241.693 455.8 241.15 455.001 240.322 454.844C239.495 454.687 238.697 455.23 238.54 456.057C238.382 456.884 238.926 457.683 239.753 457.84C240.581 457.997 241.378 457.454 241.535 456.627Z" fill="white"/>
<path d="M239.709 458.073C240.663 458.254 241.587 457.626 241.769 456.672C241.95 455.718 241.321 454.794 240.367 454.612C239.414 454.431 238.49 455.06 238.308 456.014C238.127 456.967 238.755 457.891 239.709 458.073ZM240.279 455.077C240.977 455.21 241.437 455.885 241.304 456.583C241.171 457.28 240.496 457.74 239.798 457.608C239.1 457.475 238.64 456.8 238.773 456.101C238.906 455.404 239.581 454.944 240.279 455.077Z" fill="black"/>
<path d="M240.756 457.157C240.844 456.692 240.539 456.243 240.074 456.154C239.608 456.066 239.16 456.371 239.071 456.836C238.983 457.302 239.288 457.75 239.753 457.839C240.219 457.927 240.667 457.622 240.756 457.157Z" fill="black"/>
<path d="M290.904 456.756C291.078 455.844 291.958 455.245 292.871 455.418C293.784 455.592 294.383 456.473 294.209 457.385C294.036 458.298 293.155 458.897 292.242 458.723C291.329 458.55 290.731 457.669 290.904 456.756Z" fill="white"/>
<path d="M292.199 458.956C293.239 459.154 294.245 458.469 294.442 457.43C294.64 456.39 293.955 455.384 292.916 455.186C291.876 454.989 290.87 455.674 290.673 456.713C290.475 457.752 291.159 458.759 292.199 458.956ZM292.828 455.651C293.61 455.8 294.127 456.558 293.978 457.341C293.829 458.124 293.07 458.641 292.287 458.492C291.505 458.343 290.988 457.584 291.137 456.801C291.286 456.018 292.044 455.502 292.828 455.651Z" fill="black"/>
<path d="M291.489 457.617C291.586 457.104 292.082 456.767 292.595 456.864C293.109 456.962 293.446 457.457 293.349 457.971C293.251 458.484 292.756 458.822 292.242 458.724C291.728 458.626 291.391 458.13 291.489 457.617Z" fill="black"/>
<path d="M300.81 459.817C300.984 458.904 301.865 458.305 302.777 458.479C303.69 458.652 304.289 459.533 304.115 460.446C303.942 461.359 303.062 461.957 302.149 461.784C301.236 461.61 300.637 460.73 300.81 459.817Z" fill="white"/>
<path d="M302.105 462.017C303.144 462.214 304.151 461.529 304.349 460.49C304.546 459.451 303.861 458.445 302.822 458.247C301.782 458.049 300.776 458.734 300.579 459.774C300.381 460.812 301.066 461.819 302.105 462.017ZM302.734 458.711C303.517 458.86 304.033 459.619 303.884 460.401C303.735 461.184 302.977 461.701 302.194 461.552C301.41 461.403 300.895 460.644 301.044 459.861C301.192 459.078 301.95 458.562 302.734 458.711Z" fill="black"/>
<path d="M301.396 460.678C301.494 460.164 301.989 459.827 302.502 459.925C303.015 460.022 303.352 460.518 303.255 461.031C303.157 461.545 302.662 461.882 302.149 461.784C301.636 461.687 301.299 461.191 301.396 460.678Z" fill="black"/>
<path d="M308.738 463.145C308.912 462.232 309.792 461.633 310.705 461.807C311.618 461.98 312.217 462.861 312.043 463.774C311.87 464.687 310.989 465.286 310.076 465.112C309.163 464.938 308.564 464.058 308.738 463.145Z" fill="white"/>
<path d="M310.033 465.345C311.073 465.543 312.079 464.858 312.276 463.819C312.474 462.779 311.789 461.773 310.75 461.575C309.711 461.378 308.704 462.063 308.506 463.102C308.309 464.141 308.994 465.147 310.033 465.345ZM310.662 462.039C311.445 462.188 311.961 462.946 311.812 463.73C311.663 464.513 310.904 465.029 310.121 464.88C309.339 464.731 308.822 463.973 308.971 463.189C309.12 462.407 309.879 461.89 310.662 462.039Z" fill="black"/>
<path d="M309.325 464.006C309.422 463.492 309.918 463.155 310.431 463.253C310.945 463.351 311.282 463.846 311.184 464.36C311.087 464.873 310.592 465.21 310.078 465.112C309.564 465.014 309.227 464.52 309.325 464.006Z" fill="black"/>
<path d="M313.8 466.354C313.974 465.442 314.855 464.842 315.767 465.016C316.68 465.189 317.279 466.07 317.106 466.983C316.932 467.896 316.051 468.494 315.139 468.321C314.226 468.147 313.627 467.267 313.8 466.354Z" fill="white"/>
<path d="M315.095 468.554C316.135 468.752 317.141 468.067 317.339 467.027C317.536 465.988 316.851 464.982 315.812 464.784C314.773 464.587 313.767 465.272 313.569 466.311C313.371 467.35 314.056 468.356 315.095 468.554ZM315.724 465.248C316.507 465.397 317.023 466.156 316.874 466.939C316.725 467.722 315.967 468.238 315.184 468.089C314.401 467.94 313.885 467.182 314.034 466.398C314.183 465.616 314.941 465.099 315.724 465.248Z" fill="black"/>
<path d="M314.388 467.215C314.485 466.702 314.981 466.364 315.495 466.462C316.008 466.56 316.345 467.055 316.247 467.569C316.149 468.082 315.654 468.419 315.141 468.322C314.627 468.223 314.29 467.728 314.388 467.215Z" fill="black"/>
<path d="M316.473 470.875C316.631 470.048 317.429 469.505 318.256 469.662C319.083 469.82 319.626 470.618 319.469 471.445C319.312 472.272 318.514 472.816 317.686 472.658C316.859 472.5 316.316 471.703 316.473 470.875Z" fill="white"/>
<path d="M317.643 472.891C318.597 473.073 319.521 472.444 319.702 471.49C319.884 470.536 319.255 469.612 318.301 469.431C317.347 469.249 316.423 469.878 316.242 470.832C316.06 471.786 316.689 472.71 317.643 472.891ZM318.213 469.895C318.91 470.028 319.37 470.703 319.237 471.401C319.104 472.099 318.429 472.559 317.731 472.426C317.034 472.293 316.574 471.618 316.707 470.92C316.839 470.222 317.515 469.763 318.213 469.895Z" fill="black"/>
<path d="M317.005 471.657C317.093 471.192 317.542 470.886 318.007 470.975C318.473 471.063 318.778 471.512 318.689 471.977C318.601 472.442 318.152 472.748 317.687 472.659C317.222 472.571 316.916 472.122 317.005 471.657Z" fill="black"/>
<path d="M294.112 478.023C294.112 478.023 299.836 474.937 302.667 470.177L301.604 469.012C301.604 469.012 296.995 475.521 293.543 476.791L294.112 478.023Z" fill="black"/>
</g>
<path d="M312.283 63.0528L313.033 63.3376C313.452 62.6097 314.113 61.8909 315.034 61.1882C316.868 59.8008 319.85 58.8903 321.989 59.2283L322.277 58.4708C321.377 57.8814 320.584 57.0644 319.909 56.0445C318.53 53.9731 317.905 51.4244 318.293 49.4877L317.544 49.2029C317.002 50.0908 316.242 50.8546 315.243 51.5482C313.27 52.9242 310.768 53.542 308.565 53.2626L308.277 54.02C309.213 54.623 310.057 55.5213 310.78 56.6833C312.255 59.0389 312.604 61.4002 312.283 63.0528Z" fill="#0E1012"/>
<path d="M24.4429 463.053L25.1927 463.338C25.6122 462.61 26.2734 461.891 27.1941 461.188C29.0285 459.801 32.0098 458.89 34.1491 459.228L34.4368 458.471C33.537 457.881 32.7442 457.064 32.0693 456.045C30.6906 453.973 30.0652 451.424 30.4536 449.488L29.7037 449.203C29.1621 450.091 28.4021 450.855 27.4032 451.548C25.4301 452.924 22.9277 453.542 20.7254 453.263L20.4377 454.02C21.3731 454.623 22.2168 455.521 22.9399 456.683C24.4149 459.039 24.7642 461.4 24.4429 463.053Z" fill="#0E1012"/>
<defs>
<clipPath id="clip0_523_51880">
<rect width="118.841" height="118.841" fill="white" transform="translate(0 22.2012) rotate(-10.7668)"/>
</clipPath>
<clipPath id="clip1_523_51880">
<rect width="118.841" height="118.841" fill="white" transform="matrix(-0.982396 -0.186812 -0.186812 0.982396 345.951 430.201)"/>
</clipPath>
</defs>
</svg>
