<svg width="1287" height="622" viewBox="0 0 1287 622" fill="none" xmlns="http://www.w3.org/2000/svg">
<path d="M1020.74 52.8503L1021.87 52.4372C1021.63 51.1997 1021.67 49.7355 1022.03 48.0347C1022.75 44.6603 1025.23 40.7009 1027.99 38.984L1027.57 37.8426C1025.97 38.0574 1024.27 37.9092 1022.51 37.4151C1018.91 36.4194 1015.7 34.1428 1014.24 31.5651L1013.11 31.9782C1013.37 33.517 1013.25 35.1292 1012.8 36.8966C1011.91 40.3942 1009.68 43.5515 1006.91 45.3968L1007.33 46.5382C1008.98 46.3037 1010.82 46.4941 1012.78 47.1021C1016.77 48.3255 1019.48 50.6606 1020.74 52.8503Z" fill="#0E1012"/>
<path d="M12.0759 523.491L13.2007 523.919C13.83 522.827 14.8217 521.748 16.2027 520.694C18.9544 518.613 23.4263 517.248 26.6352 517.754L27.0668 516.618C25.7172 515.734 24.5279 514.509 23.5155 512.979C21.4475 509.872 20.5094 506.049 21.092 503.144L19.9672 502.716C19.1548 504.048 18.0148 505.194 16.5165 506.234C13.5567 508.298 9.80323 509.225 6.49965 508.806L6.0681 509.942C7.47126 510.847 8.73681 512.194 9.82144 513.937C12.034 517.47 12.5579 521.012 12.0759 523.491Z" fill="#0E1012"/>
<path d="M895.738 616.85L896.868 616.437C896.629 615.2 896.673 613.736 897.028 612.035C897.746 608.66 900.233 604.701 902.991 602.984L902.574 601.843C900.975 602.057 899.274 601.909 897.507 601.415C893.91 600.419 890.698 598.143 889.238 595.565L888.108 595.978C888.365 597.517 888.253 599.129 887.801 600.897C886.914 604.394 884.683 607.551 881.911 609.397L882.328 610.538C883.981 610.304 885.819 610.494 887.78 611.102C891.766 612.326 894.48 614.661 895.738 616.85Z" fill="#0E1012"/>
<path d="M158.164 25.5792L159.289 26.0065C159.918 24.9145 160.91 23.8364 162.291 22.7823C165.043 20.7012 169.514 19.3354 172.723 19.8424L173.155 18.7063C171.805 17.8222 170.616 16.5966 169.604 15.0668C167.536 11.9597 166.598 8.13657 167.18 5.23152L166.055 4.80429C165.243 6.13625 164.103 7.28187 162.605 8.3223C159.645 10.3863 155.891 11.313 152.588 10.8939L152.156 12.03C153.559 12.9345 154.825 14.2819 155.91 16.0249C158.122 19.5583 158.646 23.1003 158.164 25.5792Z" fill="#0E1012"/>
<path d="M1161.49 176.97L1162.66 177.238C1163.14 176.07 1163.97 174.866 1165.19 173.631C1167.63 171.191 1171.87 169.221 1175.12 169.281L1175.39 168.096C1173.93 167.407 1172.59 166.357 1171.37 164.981C1168.9 162.189 1167.44 158.532 1167.62 155.574L1166.44 155.306C1165.82 156.737 1164.85 158.029 1163.51 159.266C1160.86 161.718 1157.27 163.154 1153.94 163.194L1153.67 164.379C1155.19 165.081 1156.63 166.241 1157.94 167.818C1160.62 171.013 1161.63 174.449 1161.49 176.97Z" fill="#0E1012"/>
<g clip-path="url(#clip0_520_49160)">
<path d="M125.708 174.7L107.008 270.821L125.708 174.7Z" fill="black"/>
<path d="M125.708 174.7C124.466 182.771 123.073 190.814 121.628 198.846C120.92 202.864 120.156 206.872 119.418 210.886L117.123 222.909L114.745 234.916L113.522 240.913L112.91 243.911L112.28 246.906C110.609 254.895 108.885 262.872 107.008 270.82C108.247 262.747 109.639 254.705 111.085 246.673L111.624 243.661L112.181 240.651L113.295 234.633L115.593 222.61L117.973 210.603C118.794 206.606 119.589 202.604 120.438 198.613C122.109 190.626 123.833 182.648 125.708 174.7Z" fill="black"/>
<path d="M131.017 173.69L121.239 268.114L131.017 173.69Z" fill="black"/>
<path d="M131.017 173.69C130.523 181.592 129.876 189.478 129.175 197.358C128.84 201.299 128.448 205.236 128.082 209.175L126.903 220.982L125.64 232.781L124.975 238.676L124.64 241.625L124.29 244.571C123.361 252.427 122.377 260.279 121.239 268.114C121.731 260.212 122.377 252.326 123.078 244.446L123.338 241.49L123.615 238.536L124.172 232.629L125.354 220.821L126.62 209.023C127.069 205.093 127.492 201.161 127.972 197.233C128.899 189.376 129.881 181.525 131.017 173.69Z" fill="black"/>
<path d="M136.327 172.681L135.47 265.409L136.327 172.681Z" fill="black"/>
<path d="M136.327 172.681C136.578 180.411 136.676 188.14 136.719 195.868C136.755 199.732 136.736 203.597 136.742 207.461L136.679 219.052L136.531 230.643L136.422 236.438L136.366 239.336L136.294 242.233C136.108 249.958 135.866 257.684 135.47 265.409C135.218 257.678 135.119 249.95 135.076 242.222L135.057 239.324L135.055 236.426L135.053 230.63L135.119 219.039L135.268 207.448C135.347 203.585 135.399 199.721 135.505 195.858C135.692 188.131 135.932 180.405 136.327 172.681Z" fill="black"/>
<path d="M141.636 171.671L149.702 262.702L141.636 171.671Z" fill="black"/>
<path d="M141.636 171.671C142.63 179.229 143.47 186.799 144.257 194.376C144.664 198.163 145.017 201.953 145.395 205.743L146.446 217.119L147.414 228.501L147.863 234.195L148.087 237.042L148.294 239.891C148.852 247.487 149.354 255.088 149.703 262.703C148.707 255.146 147.867 247.575 147.08 239.999L146.782 237.158L146.501 234.315L145.942 228.631L144.893 217.255L143.928 205.872C143.634 202.075 143.314 198.281 143.05 194.482C142.49 186.886 141.986 179.286 141.636 171.671Z" fill="black"/>
<path d="M146.945 170.661C148.678 178.045 150.259 185.459 151.788 192.881C152.566 196.59 153.29 200.309 154.038 204.024L156.204 215.182L158.286 226.356L159.294 231.95L159.796 234.747L160.282 237.547C161.585 245.012 162.835 252.488 163.932 259.994C162.197 252.611 160.614 245.197 159.087 237.774L158.511 234.991L157.952 232.205L156.836 226.632L154.672 215.473L152.59 204.299C151.925 200.569 151.232 196.844 150.594 193.108C149.294 185.642 148.044 178.165 146.945 170.661Z" fill="black"/>
<path d="M152.254 169.652L178.164 257.29L152.254 169.652Z" fill="black"/>
<path d="M152.254 169.652C154.722 176.864 157.045 184.12 159.313 191.39C160.462 195.021 161.557 198.668 162.677 202.308L165.957 213.25L169.157 224.217L170.724 229.71L171.505 232.457L172.271 235.209C174.32 242.544 176.317 249.896 178.164 257.292C175.694 250.08 173.372 242.826 171.103 235.554L170.25 232.828L169.412 230.098L167.74 224.636L164.463 213.693L161.265 202.726C160.226 199.062 159.161 195.406 158.151 191.734C156.101 184.398 154.104 177.047 152.254 169.652Z" fill="black"/>
<path d="M157.563 168.643L192.395 254.584L157.563 168.643Z" fill="black"/>
<path d="M157.563 168.643C160.765 175.683 163.824 182.781 166.833 189.901C168.352 193.455 169.818 197.03 171.307 200.594L175.701 211.321L180.017 222.08L182.143 227.472L183.204 230.168L184.25 232.871C187.047 240.075 189.793 247.301 192.394 254.584C189.19 247.544 186.131 240.446 183.121 233.328L181.991 230.659L180.875 227.984L178.647 222.634L174.255 211.907L169.942 201.148C168.529 197.551 167.093 193.965 165.708 190.356C162.913 183.151 160.168 175.925 157.563 168.643Z" fill="black"/>
<path d="M162.873 167.633L206.626 251.878L162.873 167.633Z" fill="black"/>
<path d="M162.873 167.633C166.806 174.505 170.602 181.448 174.35 188.415C176.237 191.892 178.074 195.395 179.935 198.886L185.443 209.396L190.876 219.946L193.561 225.236L194.903 227.882L196.23 230.536C199.774 237.609 203.27 244.708 206.628 251.878C202.693 245.007 198.896 238.064 195.149 231.097L193.741 228.485L192.348 225.866L189.564 220.626L184.058 210.114L178.628 199.564C176.842 196.034 175.033 192.516 173.274 188.974C169.729 181.9 166.232 174.802 162.873 167.633Z" fill="black"/>
<path d="M168.182 166.623L220.858 249.171L168.182 166.623Z" fill="black"/>
<path d="M168.182 166.623C172.845 173.328 177.375 180.117 181.863 186.934C184.118 190.335 186.326 193.765 188.557 197.182L195.178 207.478L201.729 217.818L204.974 223.007L206.595 225.602L208.202 228.207C212.495 235.147 216.742 242.117 220.858 249.171C216.194 242.467 211.661 235.679 207.176 228.862L205.491 226.307L203.821 223.743L200.483 218.614L193.864 208.317L187.316 197.976C185.157 194.513 182.976 191.066 180.842 187.587C176.547 180.645 172.3 173.675 168.182 166.623Z" fill="black"/>
<path d="M103.301 114.868L136.812 108.496L137.47 108.371L170.981 101.998C150.906 80.1705 114.519 85.7522 103.301 114.868Z" fill="white"/>
<path d="M172.123 102.377L102.377 115.64L102.755 114.659C102.838 114.441 104.854 109.283 109.601 103.49C122.38 87.8915 142.336 83.3541 160.942 93.7268C167.484 97.3745 171.252 101.432 171.41 101.603L172.123 102.377ZM104.277 114.087L169.785 101.63C168.375 100.278 165.071 97.3615 160.337 94.7281C143.389 85.2995 123.758 88.0835 110.532 104.199C107.096 108.386 105.093 112.312 104.277 114.087Z" fill="black"/>
<path d="M171.96 102.322L102.508 115.529L102.833 114.687C102.917 114.471 104.928 109.324 109.666 103.541C122.535 87.835 142.485 83.5308 160.902 93.7984C167.433 97.4393 171.192 101.488 171.349 101.658L171.96 102.322ZM104.137 114.198L169.957 101.682C148.722 81.2418 116.843 86.3534 104.137 114.198Z" fill="white"/>
<path d="M173.103 102.7L101.584 116.3L102.287 114.476C102.372 114.256 104.42 109.02 109.214 103.17C122.48 86.9792 142.823 83.0504 161.187 93.2871C167.81 96.9798 171.622 101.089 171.78 101.263L173.103 102.7ZM105.165 113.407L168.71 101.323C147.379 82.22 118.205 87.3548 105.165 113.407Z" fill="black"/>
<path d="M102.627 116.697C102.627 116.697 110.593 106.673 136.877 101.675C163.159 96.6766 172.935 103.328 172.935 103.328L102.627 116.697Z" fill="black"/>
<path d="M211.443 102.078C190.947 101.291 164.36 103.766 136.577 109.049C108.794 114.332 83.1533 121.789 64.3776 130.044C46.073 138.092 36.237 146.187 37.3902 152.251C38.5433 158.315 50.6649 162.233 70.6449 163.002C91.1403 163.79 117.728 161.315 145.511 156.032C173.294 150.749 198.934 143.292 217.71 135.037C236.015 126.988 245.851 118.894 244.698 112.83C243.544 106.766 231.424 102.846 211.443 102.078Z" fill="white"/>
<path d="M211.482 101.077C190.913 100.286 164.245 102.768 136.391 108.065C108.536 113.361 82.8179 120.841 63.9747 129.127C44.929 137.5 35.1386 145.78 36.4049 152.44C37.6713 159.099 49.8172 163.206 70.6071 164.005C91.1761 164.795 117.844 162.314 145.699 157.017C173.554 151.72 199.272 144.24 218.114 135.955C237.16 127.581 246.95 119.301 245.684 112.643C244.418 105.984 232.271 101.877 211.482 101.077ZM217.71 135.036C198.934 143.292 173.294 150.748 145.511 156.032C117.728 161.315 91.1401 163.79 70.6447 163.002C50.6637 162.235 38.5434 158.316 37.3902 152.252C36.2371 146.188 46.0745 138.094 64.3777 130.045C83.1533 121.79 108.794 114.333 136.577 109.05C164.36 103.767 190.948 101.292 211.443 102.079C231.424 102.847 243.545 106.767 244.698 112.831C245.851 118.895 236.015 126.988 217.71 135.036Z" fill="white"/>
<path d="M145.808 157.592C117.911 162.897 91.1954 165.382 70.5837 164.589C60.1816 164.19 51.9085 162.973 45.9964 160.973C39.9227 158.919 36.5018 156.085 35.8293 152.548C35.1568 149.012 37.2985 145.119 42.1943 140.979C46.9599 136.949 54.209 132.781 63.7381 128.59C82.6202 120.287 108.383 112.793 136.28 107.489C164.177 102.184 190.892 99.6982 211.504 100.491C221.906 100.891 230.179 102.107 236.091 104.107C242.165 106.161 245.586 108.996 246.259 112.533C246.931 116.07 244.789 119.962 239.893 124.102C235.127 128.131 227.879 132.299 218.35 136.49C199.467 144.793 173.704 152.287 145.808 157.592ZM136.686 109.625C108.946 114.9 83.3497 122.343 64.613 130.581C55.5525 134.565 48.6031 138.522 43.9586 142.345C39.5136 146.003 37.4413 149.391 37.9648 152.144C38.4881 154.895 41.6606 157.287 47.1365 159.057C52.8598 160.907 60.7768 162.038 70.6673 162.419C91.1199 163.205 117.661 160.733 145.402 155.458C173.143 150.183 198.737 142.741 217.475 134.502L217.71 135.037L217.475 134.502C226.536 130.518 233.485 126.561 238.129 122.738C242.574 119.08 244.647 115.692 244.124 112.941C243.6 110.188 240.428 107.797 234.952 106.026C229.228 104.176 221.311 103.044 211.421 102.664C190.968 101.877 164.426 104.35 136.686 109.625Z" fill="black"/>
<path d="M146.396 160.685C193.409 151.745 229.852 135.721 227.793 124.895C225.734 114.068 185.954 112.539 138.941 121.479C91.9276 130.419 55.4849 146.443 57.5437 157.269C59.6025 168.096 99.3831 169.625 146.396 160.685Z" fill="black"/>
<path d="M146.49 161.177C123.716 165.508 101.911 167.537 85.0925 166.89C68.0533 166.235 58.0944 162.851 57.0507 157.362C56.007 151.874 64.0287 145.071 79.6382 138.207C95.0454 131.433 116.074 125.317 138.847 120.987C161.62 116.656 183.426 114.627 200.244 115.274C217.283 115.929 227.242 119.313 228.286 124.802C229.33 130.291 221.308 137.093 205.698 143.957C190.291 150.732 169.263 156.847 146.49 161.177ZM139.034 121.972C116.333 126.289 95.3822 132.381 80.0424 139.126C65.1243 145.686 57.1022 152.265 58.036 157.175C58.9698 162.085 68.8456 165.262 85.1314 165.887C101.876 166.532 123.601 164.509 146.302 160.192C169.004 155.875 189.954 149.783 205.294 143.038C220.212 136.478 228.234 129.899 227.3 124.989C226.367 120.079 216.491 116.902 200.205 116.277C183.46 115.632 161.736 117.655 139.034 121.972Z" fill="white"/>
<path d="M147.151 164.657C191.605 156.204 226.064 141.052 224.118 130.815C222.171 120.577 184.556 119.131 140.101 127.584C95.647 136.038 61.1878 151.19 63.1345 161.427C65.0812 171.664 102.697 173.11 147.151 164.657Z" fill="black"/>
<path d="M147.307 165.478C125.747 169.578 105.1 171.498 89.1702 170.886C77.6415 170.443 63.6222 168.47 62.3127 161.584C61.0033 154.698 73.3186 147.717 83.8812 143.072C98.474 136.656 118.385 130.864 139.945 126.764C161.506 122.664 182.153 120.744 198.082 121.356C209.612 121.799 223.63 123.773 224.94 130.659C226.249 137.545 213.934 144.525 203.371 149.17C188.779 155.586 168.868 161.378 147.307 165.478ZM140.257 128.405C92.6002 137.468 62.3284 152.715 63.9551 161.27C65.5818 169.825 99.3376 172.898 146.995 163.835C194.652 154.773 224.924 139.525 223.297 130.971C221.671 122.416 187.915 119.343 140.257 128.405Z" fill="white"/>
<path d="M147.219 165.012C130.013 168.284 113.543 169.816 100.842 169.328C88.0845 168.837 80.6385 166.351 79.8732 162.327C79.108 158.303 85.1232 153.258 96.8089 148.119C108.445 143.003 124.329 138.383 141.533 135.111C158.737 131.84 175.209 130.307 187.91 130.795C200.667 131.286 208.113 133.772 208.879 137.796C209.644 141.82 203.629 146.865 191.943 152.004C180.308 157.12 164.425 161.74 147.219 165.012ZM141.581 135.361C106.15 142.099 78.5795 154.175 80.121 162.281C81.6625 170.388 111.742 171.502 147.172 164.764C182.602 158.027 210.173 145.951 208.631 137.844C207.09 129.738 177.011 128.624 141.581 135.361Z" fill="black"/>
<path d="M147.313 165.505C130.071 168.784 113.56 170.32 100.822 169.83C87.6187 169.322 80.2043 166.76 79.3793 162.422C78.5542 158.083 84.5107 152.978 96.6061 147.66C108.275 142.53 124.198 137.897 141.439 134.619C158.681 131.34 175.192 129.804 187.929 130.294C201.132 130.802 208.546 133.364 209.371 137.702C210.196 142.041 204.24 147.146 192.144 152.464C180.477 157.595 164.554 162.226 147.313 165.505ZM141.674 135.854C107.112 142.427 79.1488 154.485 80.6136 162.188C82.0782 169.89 112.514 170.845 147.078 164.272C181.64 157.7 209.603 145.64 208.139 137.938C206.674 130.235 176.237 129.282 141.674 135.854Z" fill="white"/>
<path d="M142.653 139.205C114.528 144.553 92.8623 154.849 94.2602 162.2C94.3283 162.558 94.4513 162.901 94.6231 163.231C94.5145 163.274 94.4611 163.297 94.4685 163.296C94.4685 163.296 103.688 178.452 120.742 180.768C129.098 181.902 145.65 179.435 150.03 178.602C154.192 177.811 171.057 174.604 178.07 169.866C190.172 161.689 194.923 149.084 195.861 145.088C196.156 144.313 196.246 143.559 196.108 142.834C194.71 135.481 170.776 133.857 142.653 139.205Z" fill="white"/>
<path d="M150.124 179.095C146.37 179.809 129.328 182.439 120.674 181.264C104.908 179.124 95.6466 165.997 94.2304 163.852L94.1141 163.874L93.9858 163.435C93.9448 163.294 93.9607 163.182 94.0051 163.092C93.8976 162.83 93.8188 162.564 93.7675 162.294C92.2954 154.553 113.728 144.195 142.559 138.713C171.39 133.23 195.129 134.999 196.601 142.739C196.751 143.533 196.665 144.373 196.341 145.235C195.08 150.561 189.713 162.604 178.351 170.281C175.112 172.47 167.587 175.774 150.124 179.095ZM95.2244 163.534C96.9985 166.153 105.939 178.252 120.81 180.27C129.33 181.427 146.215 178.818 149.938 178.11C167.233 174.821 174.63 171.585 177.789 169.45C188.917 161.932 194.157 150.152 195.372 144.974L195.392 144.91C195.657 144.212 195.733 143.546 195.615 142.927C194.294 135.979 170.084 134.499 142.746 139.698C115.41 144.896 93.4314 155.158 94.7528 162.107C94.8102 162.409 94.9161 162.709 95.0676 163L95.3256 163.493L95.2244 163.534Z" fill="white"/>
<path d="M150.233 179.67C146.46 180.387 129.326 183.03 120.595 181.844C105.297 179.768 96.13 167.684 93.9584 164.499L93.6997 164.548L93.423 163.599C93.3751 163.435 93.3638 163.274 93.3883 163.12C93.3037 162.884 93.2373 162.643 93.1917 162.403C92.792 160.301 93.8414 158.043 96.3107 155.691C98.5964 153.513 102.04 151.306 106.543 149.129C115.703 144.701 128.455 140.798 142.448 138.137C156.442 135.476 169.735 134.427 179.882 135.183C184.87 135.554 188.883 136.344 191.808 137.531C194.968 138.811 196.774 140.528 197.173 142.63C197.342 143.518 197.251 144.452 196.901 145.404C195.61 150.807 190.158 163.008 178.677 170.766C175.395 172.986 167.794 176.331 150.233 179.67ZM96.1262 163.806C98.5366 167.167 107.175 177.831 120.888 179.692C129.331 180.837 146.124 178.24 149.827 177.536C167.024 174.266 174.347 171.071 177.461 168.967C188.439 161.55 193.606 149.943 194.803 144.841L194.845 144.703C195.071 144.108 195.137 143.548 195.04 143.038C194.464 140.01 188.581 137.934 178.901 137.343C168.831 136.729 156.03 137.769 142.856 140.274C129.68 142.779 117.391 146.509 108.251 150.778C99.4632 154.881 94.7529 158.971 95.3286 161.999C95.3755 162.245 95.4618 162.491 95.5883 162.731L96.1468 163.799L96.1262 163.806Z" fill="black"/>
<path d="M183.184 163.789C184.139 168.81 169.294 175.168 150.182 178.802C131.07 182.436 114.928 181.97 113.973 176.951C113.019 171.931 127.738 164.915 146.85 161.281C165.962 157.646 182.23 158.77 183.184 163.789Z" fill="black"/>
<path d="M150.275 179.295C140.823 181.092 131.934 181.918 125.244 181.623C118.056 181.305 113.987 179.721 113.478 177.045C112.337 171.046 129.502 164.069 146.756 160.788C164.008 157.508 182.536 157.699 183.676 163.696C184.185 166.373 180.982 169.339 174.412 172.273C168.298 175.003 159.727 177.498 150.275 179.295ZM146.943 161.772C126.537 165.653 113.675 172.704 114.464 176.856C115.311 181.308 130.958 181.946 150.087 178.308C169.216 174.671 183.537 168.335 182.691 163.882C181.902 159.73 167.349 157.892 146.943 161.772Z" fill="white"/>
<path d="M150.384 179.87C140.89 181.675 131.953 182.505 125.219 182.208C117.621 181.871 113.477 180.171 112.904 177.154C112.315 174.057 115.797 170.672 122.974 167.367C129.204 164.497 137.832 161.89 146.646 160.214C155.461 158.538 164.443 157.796 171.291 158.179C179.181 158.619 183.663 160.49 184.252 163.587C184.825 166.605 181.596 169.706 174.652 172.808C168.497 175.556 159.878 178.064 150.384 179.87ZM147.052 162.348C137.651 164.136 129.113 166.761 123.011 169.739C116.734 172.804 114.777 175.369 115.039 176.747C115.715 180.303 129.915 181.549 149.978 177.734C170.041 173.919 182.793 167.549 182.116 163.992C181.854 162.613 179.092 160.946 172.128 160.399C165.359 159.868 156.455 160.56 147.052 162.348Z" fill="black"/>
<path d="M171.934 165.909C172.519 168.983 162.458 173.063 149.558 175.516C136.657 177.969 125.801 177.867 125.216 174.792C124.632 171.718 134.616 167.236 147.517 164.783C160.417 162.33 171.35 162.834 171.934 165.909Z" fill="white"/>
<path d="M149.65 176.009C138.162 178.194 125.462 178.775 124.723 174.887C123.974 170.95 135.859 166.489 147.422 164.291C158.984 162.092 171.677 161.879 172.426 165.815C173.166 169.702 161.138 173.824 149.65 176.009ZM147.609 165.276C134.133 167.839 125.251 172.298 125.708 174.699C126.135 176.946 135.339 177.709 149.463 175.024C163.586 172.338 171.868 168.251 171.44 166.003C170.985 163.602 161.085 162.713 147.609 165.276Z" fill="black"/>
<path d="M194.751 102.103C193.506 102.148 192.247 102.202 190.975 102.265C190.551 108.272 187.621 117.897 187.621 117.897L190.54 118.931C193.13 113.537 194.292 106.029 194.751 102.103Z" fill="black"/>
<path d="M224.757 123.43L226.226 127.575C234.502 125.704 242.804 115.76 244.76 113.291C244.744 113.136 244.728 112.982 244.698 112.828C244.434 111.436 243.584 110.158 242.2 109.004C236.682 117.839 224.757 123.43 224.757 123.43Z" fill="black"/>
<path d="M205.629 101.945C203.119 101.924 200.53 101.947 197.874 102.01C197.38 108.476 194.706 117.571 194.706 117.571L201.136 117.37C203.53 112.999 204.957 106.011 205.629 101.945Z" fill="black"/>
<path d="M240.663 107.91C239.815 107.387 238.838 106.894 237.74 106.434C234.904 109.514 227.604 117.01 220.783 120.443L223.191 122.368C223.192 122.366 236.685 114.399 240.663 107.91Z" fill="black"/>
<path d="M235.006 105.43C229.342 103.619 221.362 102.461 211.443 102.08C210.718 102.052 209.984 102.029 209.245 102.009C208.311 107.321 206.482 114.854 203.295 117.98L218.297 119.893C218.297 119.892 228.999 112.313 235.006 105.43Z" fill="black"/>
<path d="M193.742 101.754L178.911 102.532L191.692 103.505L178.3 104.69L191.409 105.601L177.69 106.849L190.799 107.76L176.812 109.399L190.454 109.528L175.874 111.619L190.172 111.625L174.606 113.904L189.624 114.111L173.604 115.796L190.124 116.74L193.742 101.754Z" fill="black"/>
<path d="M170.98 101.997L151.802 97.8149L167.336 98.9459L150.316 95.3731L165.193 96.6291L149.489 92.8076L159.453 93.2957L148.065 90.6953L155.606 90.9633L162.785 94.704L170.98 101.997Z" fill="black"/>
<path d="M183.993 161.478C183.993 161.478 192.881 150.937 194.762 139.345L191.76 137.874C191.76 137.874 187.734 154.299 181.913 159.491L183.993 161.478Z" fill="black"/>
<path d="M189.085 136.342C189.085 136.342 185.857 151.593 179.691 158.553L171.307 157.424C171.307 157.424 178.335 142.471 178.025 133.679L189.085 136.342Z" fill="black"/>
<path d="M174.99 135.618C174.99 135.618 173.094 148.915 169.086 156.485C169.086 156.485 162.266 156.42 157.666 157.294L168.117 154.967L157.292 155.324L168.728 152.809L157.121 152.633L169.606 150.259L156.684 150.333L170.811 147.647L155.793 147.439L171.093 145.55L155.293 144.809L172.298 142.938L154.074 141.979L173.176 140.388L154.294 139.554L173.786 138.23L154.452 136.801L174.99 135.618Z" fill="black"/>
<path d="M79.7503 123.971C80.9244 123.555 82.1159 123.144 83.322 122.735C85.9211 128.168 92.1801 136.045 92.1801 136.045L89.8438 138.079C85.4535 134.011 81.6172 127.455 79.7503 123.971Z" fill="black"/>
<path d="M59.6654 154.824L59.8202 159.219C51.4351 160.516 40.063 154.314 37.3374 152.735C37.2948 152.585 37.2535 152.435 37.2243 152.282C36.9595 150.889 37.2809 149.389 38.1447 147.808C46.5214 154 59.6654 154.824 59.6654 154.824Z" fill="black"/>
<path d="M69.5719 127.817C71.8991 126.876 74.3158 125.947 76.8095 125.032C79.6425 130.865 85.4678 138.344 85.4678 138.344L79.4128 140.516C75.5823 137.329 71.6908 131.352 69.5719 127.817Z" fill="black"/>
<path d="M39.1724 146.224C39.7696 145.426 40.4979 144.609 41.3495 143.779C45.1183 145.603 54.6613 149.896 62.2647 150.585L60.7314 153.26C60.73 153.259 45.2561 150.799 39.1724 146.224Z" fill="black"/>
<path d="M43.5247 141.842C48.1291 138.078 55.1269 134.072 64.2135 130.077C64.8775 129.785 65.552 129.494 66.2318 129.204C69.0506 133.802 73.517 140.138 77.6286 141.876L64.376 149.163C64.3758 149.161 51.6401 146.04 43.5247 141.842Z" fill="black"/>
<path d="M80.5593 123.275L94.6411 118.556L83.1091 124.153L96.0011 120.339L84.1411 125.998L97.3614 122.123L85.5014 127.783L99.1133 124.173L86.4711 129.3L100.803 125.894L87.5033 131.147L102.82 127.553L88.9257 133.258L104.446 128.946L89.4257 135.887L80.5593 123.275Z" fill="black"/>
<path d="M103.464 114.835L119.769 103.906L105.734 110.66L120.255 101.089L106.877 107.718L120.084 98.3988L110.994 102.51L120.632 95.9116L113.717 98.9286L108.412 105.043L103.464 114.835Z" fill="black"/>
<path d="M97.5866 153.74C97.5866 153.74 106.187 166.743 114.477 170.954L121.862 166.826C121.862 166.826 109.836 155.496 106.897 147.204L97.5866 153.74Z" fill="black"/>
<path d="M110.432 147.894C110.432 147.894 117.076 159.566 123.583 165.137C123.583 165.137 129.903 162.573 134.503 161.698L123.928 163.369L134.128 159.727L122.566 161.586L133.299 157.162L120.816 159.536L132.863 154.862L118.736 157.549L132.629 151.843L117.704 155.702L132.129 149.213L115.624 153.714L132.224 146.133L113.873 151.664L131.131 143.957L112.513 149.881L129.974 141.455L110.432 147.894Z" fill="black"/>
<path d="M137.213 126.119C136.845 124.184 138.115 122.317 140.051 121.949C141.987 121.581 143.854 122.852 144.222 124.787C144.589 126.721 143.318 128.589 141.384 128.957C139.449 129.325 137.581 128.055 137.213 126.119Z" fill="white"/>
<path d="M141.477 129.451C139.274 129.87 137.139 128.417 136.72 126.214C136.301 124.009 137.754 121.876 139.957 121.457C142.162 121.038 144.295 122.49 144.714 124.694C145.135 126.898 143.682 129.031 141.477 129.451ZM140.144 122.442C138.485 122.758 137.39 124.366 137.706 126.026C138.021 127.687 139.629 128.781 141.29 128.465C142.951 128.149 144.045 126.542 143.729 124.881C143.413 123.221 141.806 122.126 140.144 122.442Z" fill="black"/>
<path d="M139.038 127.362C138.831 126.273 139.546 125.223 140.634 125.016C141.723 124.809 142.774 125.523 142.981 126.613C143.188 127.701 142.473 128.751 141.384 128.958C140.296 129.165 139.245 128.451 139.038 127.362Z" fill="black"/>
<path d="M161.609 121.934C161.24 119.998 162.51 118.131 164.446 117.763C166.381 117.395 168.249 118.667 168.617 120.601C168.985 122.537 167.714 124.404 165.779 124.772C163.844 125.14 161.976 123.869 161.609 121.934Z" fill="white"/>
<path d="M165.873 125.265C163.668 125.684 161.535 124.231 161.116 122.028C160.697 119.824 162.149 117.69 164.353 117.271C166.557 116.852 168.691 118.305 169.11 120.508C169.529 122.711 168.077 124.846 165.873 125.265ZM164.54 118.257C162.879 118.572 161.785 120.18 162.101 121.841C162.417 123.501 164.024 124.596 165.685 124.28C167.347 123.964 168.44 122.355 168.124 120.695C167.808 119.034 166.201 117.941 164.54 118.257Z" fill="black"/>
<path d="M163.434 123.177C163.227 122.089 163.941 121.037 165.03 120.83C166.118 120.623 167.169 121.338 167.376 122.427C167.583 123.515 166.868 124.567 165.78 124.774C164.691 124.98 163.64 124.265 163.434 123.177Z" fill="black"/>
<path d="M183.532 120.262C183.163 118.326 184.435 116.459 186.37 116.091C188.304 115.724 190.172 116.995 190.54 118.929C190.908 120.865 189.638 122.732 187.702 123.1C185.766 123.468 183.9 122.198 183.532 120.262Z" fill="white"/>
<path d="M187.796 123.593C185.593 124.012 183.458 122.56 183.039 120.356C182.62 118.152 184.073 116.018 186.276 115.599C188.481 115.18 190.614 116.633 191.033 118.836C191.452 121.04 189.999 123.174 187.796 123.593ZM186.463 116.583C184.802 116.899 183.709 118.508 184.024 120.168C184.34 121.828 185.947 122.923 187.608 122.607C189.27 122.291 190.363 120.682 190.047 119.022C189.732 117.362 188.123 116.268 186.463 116.583Z" fill="black"/>
<path d="M185.355 121.505C185.148 120.416 185.863 119.365 186.952 119.158C188.04 118.951 189.091 119.666 189.298 120.755C189.505 121.843 188.79 122.894 187.702 123.101C186.613 123.308 185.562 122.593 185.355 121.505Z" fill="black"/>
<path d="M201.761 120.655C201.393 118.719 202.663 116.852 204.599 116.484C206.535 116.116 208.401 117.387 208.769 119.322C209.138 121.258 207.866 123.125 205.931 123.493C203.997 123.86 202.129 122.591 201.761 120.655Z" fill="white"/>
<path d="M206.027 123.986C203.822 124.405 201.689 122.952 201.27 120.749C200.85 118.544 202.303 116.411 204.506 115.992C206.71 115.573 208.844 117.025 209.263 119.229C209.682 121.432 208.23 123.567 206.027 123.986ZM204.694 116.976C203.032 117.292 201.939 118.899 202.255 120.56C202.571 122.221 204.178 123.315 205.839 122.999C207.499 122.684 208.594 121.076 208.278 119.415C207.961 117.755 206.353 116.66 204.694 116.976Z" fill="black"/>
<path d="M203.586 121.896C203.379 120.806 204.094 119.756 205.182 119.549C206.271 119.342 207.321 120.057 207.529 121.146C207.735 122.234 207.021 123.284 205.931 123.492C204.843 123.698 203.793 122.985 203.586 121.896Z" fill="black"/>
<path d="M214.244 123.047C213.876 121.113 215.147 119.245 217.082 118.877C219.018 118.508 220.884 119.779 221.252 121.714C221.62 123.65 220.35 125.517 218.414 125.885C216.48 126.253 214.612 124.983 214.244 123.047Z" fill="white"/>
<path d="M218.509 126.378C216.305 126.798 214.171 125.345 213.752 123.141C213.334 120.938 214.786 118.803 216.989 118.384C219.194 117.965 221.327 119.418 221.746 121.621C222.165 123.825 220.713 125.959 218.509 126.378ZM217.176 119.369C215.515 119.684 214.422 121.293 214.738 122.953C215.053 124.614 216.662 125.707 218.322 125.392C219.982 125.076 221.077 123.469 220.761 121.807C220.445 120.148 218.836 119.053 217.176 119.369Z" fill="black"/>
<path d="M218.416 125.885C219.505 125.678 220.22 124.627 220.013 123.538C219.806 122.449 218.755 121.734 217.666 121.941C216.577 122.149 215.862 123.199 216.069 124.288C216.276 125.377 217.327 126.092 218.416 125.885Z" fill="black"/>
<path d="M223.035 129.885C222.701 128.131 223.853 126.439 225.607 126.105C227.361 125.771 229.054 126.923 229.387 128.677C229.721 130.431 228.569 132.124 226.815 132.457C225.059 132.79 223.368 131.639 223.035 129.885Z" fill="white"/>
<path d="M226.907 132.951C224.885 133.335 222.926 132.003 222.541 129.979C222.156 127.957 223.489 125.997 225.512 125.613C227.535 125.228 229.494 126.561 229.878 128.584C230.263 130.607 228.931 132.566 226.907 132.951ZM225.699 126.598C224.22 126.879 223.244 128.312 223.526 129.791C223.807 131.27 225.239 132.246 226.72 131.964C228.199 131.683 229.174 130.251 228.893 128.77C228.612 127.291 227.18 126.317 225.699 126.598Z" fill="black"/>
<path d="M224.688 131.011C224.5 130.024 225.148 129.073 226.134 128.885C227.121 128.697 228.072 129.345 228.26 130.331C228.448 131.318 227.8 132.27 226.813 132.457C225.827 132.645 224.875 131.997 224.688 131.011Z" fill="black"/>
<path d="M118.35 130.16C117.982 128.224 116.115 126.954 114.18 127.322C112.244 127.69 110.974 129.558 111.342 131.493C111.71 133.428 113.578 134.698 115.513 134.33C117.448 133.962 118.718 132.095 118.35 130.16Z" fill="white"/>
<path d="M115.606 134.824C113.402 135.243 111.268 133.79 110.849 131.587C110.43 129.382 111.883 127.249 114.086 126.83C116.291 126.411 118.424 127.863 118.843 130.067C119.262 132.27 117.811 134.404 115.606 134.824ZM114.273 127.815C112.613 128.131 111.519 129.738 111.834 131.399C112.15 133.059 113.759 134.154 115.419 133.838C117.079 133.523 118.173 131.914 117.858 130.254C117.542 128.593 115.935 127.499 114.273 127.815Z" fill="black"/>
<path d="M117.109 131.986C116.903 130.898 115.852 130.182 114.763 130.389C113.673 130.596 112.959 131.646 113.166 132.736C113.373 133.824 114.423 134.54 115.513 134.332C116.602 134.124 117.316 133.074 117.109 131.986Z" fill="black"/>
<path d="M97.3446 136.652C96.9764 134.716 95.1087 133.446 93.1739 133.814C91.238 134.182 89.9681 136.05 90.336 137.985C90.7042 139.921 92.5707 141.191 94.5067 140.823C96.4414 140.455 97.7127 138.588 97.3446 136.652Z" fill="white"/>
<path d="M94.5993 141.316C92.396 141.735 90.2613 140.282 89.8423 138.079C89.4231 135.874 90.8759 133.741 93.0792 133.322C95.2837 132.903 97.4172 134.356 97.8362 136.559C98.2564 138.762 96.8038 140.897 94.5993 141.316ZM93.2663 134.306C91.6064 134.622 90.5117 136.23 90.8274 137.89C91.143 139.55 92.7505 140.645 94.4117 140.329C96.0728 140.013 97.1663 138.405 96.8506 136.745C96.5362 135.085 94.9275 133.99 93.2663 134.306Z" fill="black"/>
<path d="M96.1026 138.476C95.8954 137.387 94.845 136.672 93.757 136.879C92.6689 137.086 91.9542 138.136 92.1613 139.226C92.3682 140.314 93.4186 141.029 94.5067 140.822C95.5947 140.615 96.3095 139.564 96.1026 138.476Z" fill="black"/>
<path d="M80.5301 143.707C80.162 141.771 78.2954 140.501 76.3595 140.869C74.4235 141.237 73.1537 143.105 73.5216 145.039C73.8897 146.975 75.7563 148.245 77.6922 147.877C79.6282 147.509 80.8983 145.643 80.5301 143.707Z" fill="white"/>
<path d="M77.7861 148.371C75.5815 148.79 73.4481 147.337 73.0291 145.134C72.6099 142.929 74.0626 140.796 76.266 140.377C78.4693 139.958 80.6039 141.41 81.0229 143.614C81.4419 145.817 79.9894 147.952 77.7861 148.371ZM76.4531 141.361C74.7919 141.677 73.6983 143.284 74.0142 144.945C74.33 146.606 75.9385 147.7 77.5985 147.384C79.2584 147.068 80.3533 145.461 80.0374 143.8C79.7217 142.14 78.113 141.045 76.4531 141.361Z" fill="black"/>
<path d="M79.2881 145.532C79.081 144.443 78.0306 143.728 76.9413 143.936C75.852 144.143 75.1373 145.193 75.3444 146.282C75.5513 147.37 76.6017 148.085 77.691 147.878C78.7803 147.671 79.4953 146.622 79.2881 145.532Z" fill="black"/>
<path d="M69.7965 150.515C69.4286 148.581 67.5606 147.309 65.6258 147.677C63.6899 148.046 62.4198 149.912 62.788 151.848C63.1561 153.784 65.0239 155.054 66.9586 154.686C68.8933 154.318 70.1646 152.451 69.7965 150.515Z" fill="white"/>
<path d="M67.0524 155.179C64.8479 155.598 62.7144 154.146 62.2955 151.942C61.8765 149.739 63.329 147.604 65.5323 147.185C67.7356 146.766 69.8703 148.219 70.2893 150.422C70.7083 152.625 69.2557 154.76 67.0524 155.179ZM65.7194 148.169C64.0583 148.485 62.9649 150.094 63.2805 151.754C63.5964 153.415 65.2049 154.508 66.8648 154.193C68.5247 153.877 69.6196 152.269 69.3037 150.608C68.9881 148.948 67.3794 147.854 65.7194 148.169Z" fill="black"/>
<path d="M68.5545 152.339C68.3476 151.251 67.297 150.535 66.2077 150.742C65.1196 150.949 64.4049 152 64.612 153.089C64.8189 154.177 65.8696 154.893 66.9576 154.686C68.0466 154.478 68.7614 153.427 68.5545 152.339Z" fill="black"/>
<path d="M64.131 160.101C63.7975 158.347 62.1048 157.195 60.3508 157.529C58.5968 157.862 57.445 159.555 57.7786 161.309C58.1121 163.063 59.8048 164.215 61.5588 163.881C63.3125 163.547 64.4646 161.855 64.131 160.101Z" fill="white"/>
<path d="M61.6524 164.374C59.6298 164.759 57.6707 163.427 57.2858 161.403C56.9012 159.381 58.2344 157.421 60.257 157.037C62.2796 156.652 64.239 157.985 64.6236 160.008C65.0082 162.031 63.675 163.99 61.6524 164.374ZM60.4444 158.022C58.9652 158.303 57.9908 159.735 58.2721 161.214C58.5534 162.694 59.9856 163.669 61.4648 163.388C62.944 163.107 63.9196 161.674 63.6381 160.194C63.3568 158.715 61.9236 157.741 60.4444 158.022Z" fill="black"/>
<path d="M63.0048 161.755C62.8172 160.769 61.8655 160.121 60.8789 160.309C59.8924 160.496 59.2448 161.448 59.4324 162.435C59.62 163.421 60.5717 164.069 61.5583 163.881C62.5448 163.694 63.1924 162.742 63.0048 161.755Z" fill="black"/>
<path d="M111.55 175.254C111.55 175.254 99.4123 168.711 93.4082 158.619L95.6613 156.149C95.6613 156.149 105.435 169.949 112.755 172.642L111.55 175.254Z" fill="black"/>
</g>
<g clip-path="url(#clip1_520_49160)">
<path d="M1151.09 415.416L1158.36 513.068L1151.09 415.416Z" fill="black"/>
<path d="M1151.09 415.416C1151.37 423.577 1151.81 431.728 1152.3 439.874C1152.53 443.948 1152.82 448.018 1153.08 452.09L1153.94 464.3L1154.89 476.503L1155.41 482.602L1155.66 485.652L1155.93 488.7C1156.65 496.83 1157.43 504.954 1158.36 513.067C1158.08 504.905 1157.64 496.755 1157.15 488.609L1156.97 485.554L1156.77 482.5L1156.37 476.392L1155.5 464.183L1154.55 451.979C1154.2 447.913 1153.88 443.846 1153.51 439.782C1152.79 431.655 1152.01 423.529 1151.09 415.416Z" fill="black"/>
<path d="M1145.93 413.79L1144.54 508.709L1145.93 413.79Z" fill="black"/>
<path d="M1145.93 413.79C1145.49 421.696 1145.21 429.603 1144.98 437.511C1144.85 441.464 1144.78 445.419 1144.68 449.374L1144.46 461.238L1144.33 473.104L1144.29 479.036L1144.28 482.004L1144.28 484.97C1144.28 492.882 1144.33 500.795 1144.54 508.709C1144.98 500.804 1145.27 492.897 1145.5 484.989L1145.59 482.023L1145.66 479.057L1145.8 473.125L1146.02 461.261L1146.15 449.396C1146.16 445.439 1146.2 441.485 1146.19 437.528C1146.19 429.616 1146.14 421.705 1145.93 413.79Z" fill="black"/>
<path d="M1140.78 412.162L1130.73 504.348L1140.78 412.162Z" fill="black"/>
<path d="M1140.78 412.162C1139.62 419.808 1138.61 427.473 1137.66 435.143C1137.17 438.976 1136.74 442.815 1136.28 446.652L1134.98 458.171L1133.76 469.698L1133.19 475.466L1132.9 478.35L1132.64 481.235C1131.91 488.929 1131.24 496.63 1130.73 504.348C1131.89 496.7 1132.9 489.037 1133.85 481.368L1134.21 478.492L1134.55 475.615L1135.23 469.859L1136.53 458.34L1137.74 446.812C1138.12 442.967 1138.52 439.124 1138.87 435.275C1139.59 427.58 1140.26 419.879 1140.78 412.162Z" fill="black"/>
<path d="M1135.62 410.536L1116.92 499.988L1135.62 410.536Z" fill="black"/>
<path d="M1135.62 410.536C1133.75 417.925 1132.02 425.344 1130.35 432.776C1129.5 436.489 1128.71 440.212 1127.89 443.931L1125.51 455.104L1123.21 466.294L1122.09 471.895L1121.54 474.697L1120.99 477.501C1119.55 484.979 1118.16 492.468 1116.91 499.99C1118.79 492.602 1120.52 485.183 1122.19 477.751L1122.82 474.965L1123.43 472.175L1124.65 466.596L1127.03 455.422L1129.33 444.232C1130.07 440.495 1130.83 436.765 1131.54 433.023C1132.99 425.546 1134.38 418.057 1135.62 410.536Z" fill="black"/>
<path d="M1130.47 408.909C1127.88 416.039 1125.44 423.215 1123.05 430.407C1121.84 433.999 1120.69 437.607 1119.51 441.207L1116.04 452.034L1112.66 462.886L1111 468.323L1110.18 471.041L1109.36 473.764C1107.19 481.025 1105.07 488.302 1103.1 495.627C1105.69 488.499 1108.14 481.323 1110.53 474.131L1111.42 471.435L1112.31 468.734L1114.07 463.33L1117.53 452.503L1120.91 441.651C1122.01 438.025 1123.14 434.407 1124.21 430.773C1126.38 423.511 1128.5 416.233 1130.47 408.909Z" fill="black"/>
<path d="M1125.32 407.283L1089.29 491.268L1125.32 407.283Z" fill="black"/>
<path d="M1125.32 407.283C1122.02 414.155 1118.86 421.087 1115.75 428.04C1114.18 431.511 1112.67 435.004 1111.13 438.487L1106.58 448.968L1102.12 459.483L1099.92 464.754L1098.82 467.39L1097.73 470.033C1094.84 477.077 1091.99 484.143 1089.29 491.27C1092.59 484.398 1095.75 477.468 1098.85 470.513L1100.02 467.906L1101.17 465.293L1103.48 460.066L1108.02 449.584L1112.48 439.069C1113.94 435.552 1115.43 432.047 1116.87 428.519C1119.76 421.474 1122.61 414.409 1125.32 407.283Z" fill="black"/>
<path d="M1120.16 405.656L1075.47 486.908L1120.16 405.656Z" fill="black"/>
<path d="M1120.16 405.656C1116.16 412.271 1112.28 418.961 1108.46 425.678C1106.53 429.028 1104.66 432.407 1102.76 435.771L1097.14 445.908L1091.58 456.084L1088.84 461.189L1087.47 463.742L1086.11 466.302C1082.49 473.129 1078.91 479.982 1075.47 486.908C1079.48 480.294 1083.35 473.604 1087.18 466.889L1088.62 464.372L1090.04 461.847L1092.88 456.795L1098.5 446.659L1104.05 436.481C1105.88 433.075 1107.72 429.683 1109.52 426.262C1113.15 419.435 1116.72 412.582 1120.16 405.656Z" fill="black"/>
<path d="M1115.01 404.029L1061.66 482.548L1115.01 404.029Z" fill="black"/>
<path d="M1115.01 404.029C1110.3 410.392 1105.71 416.84 1101.17 423.319C1098.89 426.55 1096.65 429.812 1094.39 433.06L1087.69 442.85L1081.05 452.688L1077.76 457.627L1076.12 460.097L1074.49 462.576C1070.14 469.183 1065.83 475.822 1061.66 482.548C1066.37 476.187 1070.96 469.739 1075.5 463.26L1077.2 460.832L1078.89 458.394L1082.27 453.518L1088.98 443.727L1095.61 433.888C1097.8 430.592 1100.01 427.311 1102.17 424C1106.52 417.391 1110.83 410.754 1115.01 404.029Z" fill="black"/>
<path d="M1109.85 402.402L1047.84 478.187L1109.85 402.402Z" fill="black"/>
<path d="M1109.85 402.402C1104.44 408.513 1099.14 414.722 1093.88 420.964C1091.24 424.077 1088.65 427.224 1086.03 430.355L1078.24 439.801L1070.52 449.299L1066.69 454.071L1064.78 456.458L1062.87 458.856C1057.8 465.244 1052.76 471.666 1047.84 478.187C1053.26 472.077 1058.56 465.87 1063.82 459.627L1065.79 457.288L1067.75 454.938L1071.67 450.236L1079.45 440.789L1087.17 431.289C1089.72 428.104 1092.29 424.937 1094.82 421.733C1099.9 415.344 1104.94 408.922 1109.85 402.402Z" fill="black"/>
<path d="M1180.37 358.633L1147.84 348.366L1147.2 348.164L1114.67 337.897C1137.17 318.58 1172.65 328.4 1180.37 358.633Z" fill="white"/>
<path d="M1113.49 338.139L1181.2 359.507L1180.94 358.488C1180.88 358.263 1179.48 352.903 1175.45 346.592C1164.59 329.6 1145.31 322.749 1125.61 330.863C1118.69 333.716 1114.47 337.303 1114.29 337.454L1113.49 338.139ZM1179.49 357.742L1115.9 337.672C1117.46 336.495 1121.09 333.987 1126.1 331.928C1144.03 324.557 1163.2 329.629 1174.44 347.187C1177.36 351.749 1178.89 355.883 1179.49 357.742Z" fill="black"/>
<path d="M1113.66 338.103L1181.08 359.381L1180.86 358.507C1180.8 358.283 1179.41 352.935 1175.38 346.636C1164.45 329.526 1145.14 322.907 1125.64 330.939C1118.73 333.787 1114.52 337.365 1114.35 337.516L1113.66 338.103ZM1179.62 357.869L1115.73 337.703C1139.22 319.901 1170.27 328.724 1179.62 357.869Z" fill="white"/>
<path d="M1112.48 338.345L1181.91 360.256L1181.42 358.362C1181.36 358.134 1179.95 352.693 1175.87 346.32C1164.6 328.682 1144.86 322.39 1125.42 330.397C1118.41 333.286 1114.14 336.918 1113.96 337.072L1112.48 338.345ZM1178.69 356.962L1117.01 337.493C1140.43 321.03 1168.8 329.558 1178.69 356.962Z" fill="black"/>
<path d="M1180.82 360.527C1180.82 360.527 1174.09 349.636 1148.58 341.583C1123.07 333.531 1112.58 338.987 1112.58 338.987L1180.82 360.527Z" fill="black"/>
<path d="M1074.48 333.221C1094.93 334.847 1121.04 340.431 1148.01 348.942C1174.98 357.454 1199.56 367.873 1217.24 378.278C1234.47 388.422 1243.29 397.616 1241.43 403.503C1239.57 409.389 1227.07 411.855 1207.14 410.271C1186.7 408.644 1160.58 403.061 1133.61 394.549C1106.64 386.037 1082.06 375.619 1064.38 365.214C1047.15 355.07 1038.33 345.876 1040.19 339.989C1042.05 334.103 1054.55 331.635 1074.48 333.221Z" fill="white"/>
<path d="M1074.56 332.221C1095.08 333.853 1121.27 339.452 1148.31 347.986C1175.35 356.52 1200.01 366.971 1217.75 377.413C1235.68 387.967 1244.43 397.34 1242.39 403.805C1240.35 410.269 1227.8 412.92 1207.06 411.27C1186.54 409.638 1160.35 404.039 1133.31 395.505C1106.27 386.971 1081.61 376.52 1063.87 366.078C1045.94 355.524 1037.2 346.15 1039.24 339.687C1041.28 333.223 1053.82 330.572 1074.56 332.221ZM1064.38 365.213C1082.06 375.618 1106.65 386.037 1133.61 394.548C1160.58 403.06 1186.7 408.644 1207.14 410.27C1227.08 411.856 1239.57 409.389 1241.43 403.503C1243.29 397.616 1234.47 388.423 1217.24 378.278C1199.56 367.873 1174.98 357.455 1148.01 348.943C1121.04 340.431 1094.93 334.848 1074.48 333.221C1054.55 331.635 1042.05 334.103 1040.19 339.989C1038.34 345.876 1047.15 355.069 1064.38 365.213Z" fill="white"/>
<path d="M1133.14 396.063C1160.22 404.61 1186.45 410.218 1207.02 411.854C1217.39 412.679 1225.75 412.444 1231.86 411.152C1238.13 409.826 1241.86 407.414 1242.95 403.981C1244.03 400.548 1242.36 396.43 1237.98 391.743C1233.73 387.182 1227.02 382.19 1218.05 376.908C1200.27 366.444 1175.57 355.974 1148.49 347.427C1121.41 338.88 1095.17 333.272 1074.61 331.637C1064.23 330.811 1055.87 331.047 1049.76 332.338C1043.49 333.664 1039.76 336.077 1038.68 339.511C1037.59 342.944 1039.26 347.061 1043.64 351.747C1047.9 356.309 1054.61 361.3 1063.58 366.582C1081.35 377.047 1106.06 387.516 1133.14 396.063ZM1147.83 349.501C1174.76 358 1199.3 368.4 1216.94 378.783C1225.47 383.804 1231.91 388.551 1236.07 392.893C1240.06 397.048 1241.72 400.655 1240.87 403.328C1240.03 405.999 1236.6 408.001 1230.95 409.115C1225.05 410.28 1217.06 410.473 1207.19 409.688C1186.79 408.065 1160.72 402.491 1133.79 393.992C1106.86 385.493 1082.32 375.095 1064.68 364.71L1064.38 365.214L1064.68 364.71C1056.15 359.689 1049.71 354.942 1045.55 350.6C1041.57 346.445 1039.91 342.837 1040.75 340.166C1041.59 337.494 1045.02 335.493 1050.67 334.378C1056.57 333.213 1064.57 333.02 1074.43 333.805C1094.84 335.427 1120.9 341.002 1147.83 349.501Z" fill="black"/>
<path d="M1132.19 399.069C1086.55 384.665 1052.24 364.469 1055.56 353.959C1058.88 343.45 1098.56 346.606 1144.2 361.01C1189.84 375.413 1224.14 395.61 1220.83 406.119C1217.51 416.629 1177.82 413.472 1132.19 399.069Z" fill="black"/>
<path d="M1132.04 399.545C1154.14 406.522 1175.56 411.1 1192.34 412.434C1209.34 413.786 1219.62 411.596 1221.3 406.268C1222.99 400.94 1215.82 393.241 1201.13 384.591C1186.62 376.053 1166.46 367.508 1144.35 360.531C1122.24 353.554 1100.83 348.976 1084.05 347.642C1067.05 346.29 1056.77 348.48 1055.08 353.807C1053.4 359.136 1060.57 366.834 1075.26 375.485C1089.77 384.023 1109.93 392.568 1132.04 399.545ZM1144.05 361.487C1166.09 368.442 1186.18 376.955 1200.62 385.455C1214.66 393.723 1221.85 401.2 1220.35 405.966C1218.84 410.733 1208.66 412.727 1192.42 411.433C1175.71 410.105 1154.38 405.543 1132.34 398.588C1110.3 391.633 1090.21 383.12 1075.77 374.62C1061.73 366.352 1054.54 358.876 1056.04 354.109C1057.54 349.343 1067.73 347.349 1083.97 348.642C1100.68 349.97 1122.01 354.532 1144.05 361.487Z" fill="white"/>
<path d="M1130.97 402.92C1087.82 389.301 1055.38 370.204 1058.52 360.266C1061.65 350.329 1099.18 353.314 1142.33 366.933C1185.48 380.553 1217.92 399.65 1214.79 409.587C1211.65 419.525 1174.12 416.54 1130.97 402.92Z" fill="black"/>
<path d="M1130.72 403.719C1151.65 410.324 1171.93 414.658 1187.82 415.922C1199.32 416.837 1213.47 416.525 1215.58 409.841C1217.69 403.157 1206.28 394.777 1196.34 388.923C1182.6 380.836 1163.51 372.744 1142.58 366.138C1121.65 359.533 1101.37 355.199 1085.48 353.935C1073.98 353.02 1059.83 353.332 1057.72 360.016C1055.61 366.701 1067.02 375.081 1076.96 380.934C1090.7 389.021 1109.79 397.113 1130.72 403.719ZM1142.08 367.732C1188.34 382.333 1216.61 401.032 1213.99 409.337C1211.37 417.641 1177.49 416.725 1131.22 402.124C1084.96 387.523 1056.69 368.824 1059.31 360.52C1061.93 352.216 1095.82 353.131 1142.08 367.732Z" fill="white"/>
<path d="M1130.86 403.267C1147.56 408.539 1163.74 411.996 1176.41 413.004C1189.14 414.016 1196.82 412.423 1198.06 408.517C1199.29 404.61 1193.91 398.893 1182.91 392.416C1171.95 385.968 1156.72 379.513 1140.02 374.242C1123.32 368.971 1107.15 365.513 1094.48 364.505C1081.75 363.493 1074.06 365.086 1072.83 368.993C1071.6 372.899 1076.98 378.616 1087.98 385.093C1098.93 391.541 1114.16 397.996 1130.86 403.267ZM1139.95 374.485C1174.34 385.34 1200.3 400.573 1197.82 408.442C1195.33 416.311 1165.33 413.882 1130.94 403.027C1096.55 392.172 1070.59 376.939 1073.07 369.07C1075.55 361.201 1105.55 363.63 1139.95 374.485Z" fill="black"/>
<path d="M1130.71 403.746C1147.45 409.029 1163.66 412.495 1176.37 413.505C1189.54 414.553 1197.21 412.88 1198.54 408.669C1199.87 404.457 1194.55 398.688 1183.16 391.985C1172.18 385.518 1156.91 379.047 1140.17 373.764C1123.44 368.482 1107.22 365.016 1094.52 364.006C1081.34 362.958 1073.68 364.631 1072.35 368.842C1071.02 373.054 1076.34 378.823 1087.72 385.526C1098.71 391.993 1113.98 398.464 1130.71 403.746ZM1139.8 374.964C1173.35 385.553 1199.7 400.814 1197.34 408.292C1194.98 415.768 1164.64 413.139 1131.09 402.549C1097.54 391.96 1071.19 376.698 1073.55 369.221C1075.91 361.744 1106.25 364.375 1139.8 374.964Z" fill="white"/>
<path d="M1138.43 378.177C1165.73 386.794 1186.04 399.565 1183.78 406.701C1183.68 407.048 1183.51 407.375 1183.3 407.682C1183.41 407.737 1183.46 407.766 1183.45 407.764C1183.45 407.764 1172.51 421.732 1155.3 422.027C1146.87 422.171 1130.73 417.777 1126.47 416.434C1122.43 415.159 1106.06 409.992 1099.66 404.463C1088.6 394.921 1085.36 381.844 1084.9 377.766C1084.7 376.961 1084.7 376.203 1084.92 375.499C1087.17 368.361 1111.13 369.561 1138.43 378.177Z" fill="white"/>
<path d="M1126.32 416.911C1129.97 418.062 1146.58 422.677 1155.31 422.527C1171.22 422.255 1181.96 410.307 1183.62 408.343L1183.73 408.379L1183.91 407.958C1183.97 407.823 1183.97 407.71 1183.93 407.615C1184.07 407.367 1184.18 407.113 1184.26 406.851C1186.63 399.336 1166.57 386.531 1138.58 377.698C1110.59 368.865 1086.81 367.832 1084.44 375.345C1084.2 376.116 1084.18 376.96 1084.4 377.854C1085.03 383.291 1088.95 395.882 1099.33 404.841C1102.29 407.395 1109.37 411.561 1126.32 416.911ZM1182.67 407.911C1180.6 410.303 1170.3 421.268 1155.3 421.524C1146.7 421.671 1130.24 417.095 1126.62 415.955C1109.83 410.656 1102.87 406.573 1099.98 404.082C1089.82 395.308 1086 382.993 1085.4 377.709L1085.39 377.643C1085.2 376.918 1085.21 376.248 1085.4 375.647C1087.53 368.903 1111.74 370.279 1138.28 378.654C1164.81 387.029 1185.44 399.803 1183.31 406.549C1183.21 406.842 1183.07 407.128 1182.89 407.399L1182.57 407.858L1182.67 407.911Z" fill="white"/>
<path d="M1126.15 417.47C1129.81 418.626 1146.51 423.264 1155.32 423.113C1170.76 422.848 1181.28 411.925 1183.81 409.018L1184.07 409.097L1184.45 408.187C1184.52 408.03 1184.55 407.872 1184.54 407.715C1184.65 407.491 1184.75 407.26 1184.82 407.026C1185.47 404.986 1184.69 402.62 1182.51 399.994C1180.5 397.563 1177.34 394.967 1173.12 392.275C1164.55 386.802 1152.34 381.426 1138.76 377.139C1125.18 372.852 1112.1 370.248 1101.93 369.806C1096.94 369.589 1092.86 369.901 1089.81 370.736C1086.52 371.636 1084.53 373.129 1083.89 375.169C1083.61 376.032 1083.59 376.969 1083.83 377.957C1084.48 383.474 1088.46 396.23 1098.95 405.285C1101.94 407.875 1109.1 412.09 1126.15 417.47ZM1181.74 408.075C1178.95 411.129 1169.12 420.704 1155.29 420.94C1146.77 421.085 1130.4 416.533 1126.8 415.398C1110.11 410.129 1103.21 406.096 1100.37 403.641C1090.33 394.985 1086.57 382.851 1085.98 377.644L1085.95 377.502C1085.8 376.884 1085.8 376.32 1085.96 375.825C1086.88 372.886 1092.97 371.516 1102.65 372.067C1112.72 372.64 1125.31 375.178 1138.1 379.214C1150.89 383.25 1162.66 388.399 1171.23 393.712C1179.48 398.819 1183.67 403.435 1182.75 406.374C1182.67 406.613 1182.56 406.847 1182.4 407.07L1181.72 408.066L1181.74 408.075Z" fill="black"/>
<path d="M1095.29 397.826C1093.75 402.699 1107.75 410.758 1126.3 416.613C1144.85 422.468 1160.94 423.903 1162.48 419.03C1164.01 414.158 1150.22 405.46 1131.67 399.605C1113.12 393.749 1096.83 392.953 1095.29 397.826Z" fill="black"/>
<path d="M1126.15 417.092C1135.32 419.988 1144.05 421.853 1150.73 422.346C1157.91 422.874 1162.14 421.78 1162.96 419.182C1164.79 413.359 1148.57 404.413 1131.82 399.127C1115.07 393.841 1096.65 391.854 1094.81 397.675C1093.99 400.274 1096.83 403.596 1103.01 407.282C1108.76 410.712 1116.97 414.196 1126.15 417.092ZM1131.52 400.083C1151.33 406.334 1163.27 414.849 1162 418.879C1160.63 423.201 1145.02 421.995 1126.45 416.134C1107.88 410.274 1094.41 402.298 1095.77 397.976C1097.04 393.946 1111.71 393.83 1131.52 400.083Z" fill="white"/>
<path d="M1125.97 417.65C1135.19 420.559 1143.97 422.433 1150.69 422.93C1158.27 423.488 1162.59 422.287 1163.51 419.359C1164.46 416.353 1161.4 412.582 1154.66 408.456C1148.81 404.873 1140.55 401.271 1132 398.57C1123.44 395.87 1114.61 394.077 1107.76 393.653C1099.87 393.163 1095.2 394.493 1094.25 397.5C1093.33 400.429 1096.17 403.888 1102.7 407.785C1108.49 411.237 1116.76 414.742 1125.97 417.65ZM1131.34 400.642C1140.47 403.522 1148.64 407.133 1154.35 410.807C1160.22 414.589 1161.86 417.366 1161.44 418.704C1160.35 422.156 1146.1 421.724 1126.63 415.578C1107.15 409.431 1095.24 401.606 1096.33 398.153C1096.75 396.814 1099.69 395.484 1106.67 395.759C1113.45 396.027 1122.21 397.761 1131.34 400.642Z" fill="black"/>
<path d="M1106.21 401.252C1105.27 404.236 1114.78 409.47 1127.31 413.422C1139.83 417.375 1150.62 418.55 1151.56 415.565C1152.51 412.58 1143.12 406.956 1130.59 403.004C1118.07 399.051 1107.16 398.267 1106.21 401.252Z" fill="white"/>
<path d="M1127.16 413.902C1138.31 417.421 1150.85 419.491 1152.04 415.717C1153.25 411.896 1141.97 406.069 1130.75 402.527C1119.52 398.984 1106.94 397.281 1105.74 401.102C1104.54 404.874 1116 410.382 1127.16 413.902ZM1130.44 403.483C1143.53 407.612 1151.82 413.084 1151.09 415.415C1150.4 417.596 1141.17 417.272 1127.46 412.945C1113.75 408.618 1106 403.586 1106.69 401.404C1107.43 399.074 1117.36 399.354 1130.44 403.483Z" fill="black"/>
<path d="M1091.05 335.207C1092.28 335.397 1093.53 335.599 1094.79 335.811C1094.5 341.826 1096.28 351.729 1096.28 351.729L1093.26 352.413C1091.32 346.751 1091.05 339.16 1091.05 335.207Z" fill="black"/>
<path d="M1058.75 352.86L1056.8 356.804C1048.8 353.973 1041.73 343.123 1040.08 340.441C1040.11 340.289 1040.14 340.137 1040.19 339.988C1040.62 338.637 1041.61 337.468 1043.12 336.484C1047.56 345.906 1058.75 352.86 1058.75 352.86Z" fill="black"/>
<path d="M1080.27 333.771C1082.77 334.044 1085.33 334.372 1087.96 334.747C1087.69 341.226 1089.28 350.573 1089.28 350.573L1082.92 349.617C1081.06 344.994 1080.46 337.887 1080.27 333.771Z" fill="black"/>
<path d="M1044.78 335.576C1045.68 335.156 1046.71 334.782 1047.85 334.454C1050.31 337.846 1056.68 346.148 1063.05 350.359L1060.43 351.987C1060.43 351.986 1047.97 342.487 1044.78 335.576Z" fill="black"/>
<path d="M1050.69 333.781C1056.52 332.648 1064.59 332.436 1074.48 333.223C1075.2 333.281 1075.93 333.344 1076.67 333.411C1076.97 338.796 1077.91 346.491 1080.7 349.971L1065.58 350.107C1065.58 350.106 1055.84 341.322 1050.69 333.781Z" fill="black"/>
<path d="M1092.1 334.98L1106.73 337.496L1093.93 336.96L1107.09 339.71L1093.96 339.074L1107.44 341.926L1094.31 341.29L1108.01 344.562L1094.45 343.086L1108.68 346.877L1094.48 345.202L1109.67 349.294L1094.73 347.735L1110.44 351.292L1093.93 350.287L1092.1 334.98Z" fill="black"/>
<path d="M1114.67 337.895L1134.21 335.996L1118.65 335.294L1135.97 333.746L1121.05 333.245L1137.1 331.296L1127.14 330.609L1138.76 329.365L1131.24 328.745L1123.67 331.616L1114.67 337.895Z" fill="black"/>
<path d="M1094.76 395.435C1094.76 395.435 1087.17 383.922 1086.67 372.19L1089.82 371.082C1089.82 371.082 1091.89 387.866 1097.06 393.706L1094.76 395.435Z" fill="black"/>
<path d="M1092.66 369.875C1092.66 369.875 1094.07 385.4 1099.37 393.036L1107.83 392.901C1107.83 392.901 1102.61 377.225 1103.95 368.53L1092.66 369.875Z" fill="black"/>
<path d="M1106.74 370.811C1106.74 370.811 1107.06 384.239 1110.15 392.227C1110.15 392.227 1116.93 392.964 1121.39 394.374L1111.29 390.834L1122 392.461L1110.94 388.619L1122.48 389.809L1110.36 385.984L1123.19 387.576L1109.48 383.248L1124.41 384.806L1109.44 381.133L1125.22 382.254L1108.55 378.397L1126.76 379.586L1107.98 375.762L1126.83 377.152L1107.63 373.547L1127 374.4L1106.74 370.811Z" fill="black"/>
<path d="M1202.69 370.439C1201.57 369.889 1200.44 369.34 1199.29 368.792C1196.07 373.882 1188.92 380.969 1188.92 380.969L1191.01 383.263C1195.84 379.74 1200.42 373.68 1202.69 370.439Z" fill="black"/>
<path d="M1219.01 403.438L1218.34 407.785C1226.51 410.058 1238.53 405.235 1241.43 403.988C1241.49 403.844 1241.54 403.7 1241.59 403.551C1242.02 402.199 1241.88 400.672 1241.2 399C1232.16 404.165 1219.01 403.438 1219.01 403.438Z" fill="black"/>
<path d="M1212.34 375.455C1210.14 374.247 1207.85 373.04 1205.48 371.838C1201.98 377.298 1195.32 384.04 1195.32 384.04L1201.08 386.909C1205.26 384.194 1209.82 378.716 1212.34 375.455Z" fill="black"/>
<path d="M1240.37 397.308C1239.87 396.444 1239.24 395.548 1238.49 394.623C1234.54 395.992 1224.56 399.133 1216.92 398.924L1218.13 401.761C1218.13 401.76 1233.79 401.136 1240.37 397.308Z" fill="black"/>
<path d="M1236.56 392.445C1232.43 388.166 1225.95 383.365 1217.4 378.329C1216.77 377.962 1216.14 377.593 1215.5 377.226C1212.16 381.461 1206.98 387.228 1202.69 388.471L1214.99 397.264C1215 397.263 1228.01 395.66 1236.56 392.445Z" fill="black"/>
<path d="M1201.97 369.655L1188.54 363.313L1199.33 370.227L1186.98 364.924L1198.09 371.938L1185.42 366.536L1196.53 373.55L1183.43 368.366L1195.39 374.943L1181.55 369.876L1194.14 376.656L1179.36 371.287L1192.48 378.586L1177.58 372.479L1191.68 381.138L1201.97 369.655Z" fill="black"/>
<path d="M1180.21 358.58L1165.3 345.81L1178.45 354.167L1165.15 342.956L1177.66 351.111L1165.64 340.304L1174.18 345.456L1165.39 337.77L1171.9 341.579L1176.45 348.275L1180.21 358.58Z" fill="black"/>
<path d="M1181.48 397.906C1181.48 397.906 1171.41 409.808 1162.68 413.015L1155.83 408.049C1155.83 408.049 1169.11 398.21 1173 390.321L1181.48 397.906Z" fill="black"/>
<path d="M1169.41 390.592C1169.41 390.592 1161.44 401.403 1154.32 406.17C1154.32 406.17 1148.35 402.881 1143.88 401.472L1154.19 404.374L1144.48 399.559L1155.75 402.764L1145.61 397.109L1157.73 400.933L1146.31 394.876L1160.03 399.204L1146.9 391.905L1161.27 397.491L1147.71 389.353L1163.57 395.762L1147.97 386.282L1165.55 393.932L1149.31 384.25L1167.11 392.321L1150.76 381.901L1169.41 390.592Z" fill="black"/>
<path d="M1145.37 365.822C1145.96 363.942 1144.92 361.939 1143.04 361.346C1141.16 360.753 1139.16 361.796 1138.57 363.674C1137.97 365.552 1139.02 367.557 1140.89 368.15C1142.77 368.742 1144.78 367.701 1145.37 365.822Z" fill="white"/>
<path d="M1140.74 368.627C1142.88 369.302 1145.17 368.11 1145.85 365.972C1146.52 363.832 1145.33 361.542 1143.19 360.867C1141.05 360.192 1138.76 361.384 1138.09 363.523C1137.41 365.662 1138.6 367.952 1140.74 368.627ZM1142.89 361.824C1144.5 362.332 1145.4 364.058 1144.89 365.67C1144.38 367.282 1142.66 368.179 1141.05 367.671C1139.43 367.162 1138.54 365.437 1139.05 363.824C1139.55 362.213 1141.28 361.315 1142.89 361.824Z" fill="black"/>
<path d="M1143.41 366.84C1143.75 365.783 1143.16 364.655 1142.1 364.322C1141.05 363.988 1139.92 364.575 1139.58 365.632C1139.25 366.688 1139.84 367.815 1140.9 368.149C1141.95 368.482 1143.08 367.896 1143.41 366.84Z" fill="black"/>
<path d="M1121.64 358.798C1122.23 356.919 1121.19 354.916 1119.31 354.323C1117.43 353.73 1115.43 354.773 1114.83 356.651C1114.24 358.53 1115.28 360.533 1117.16 361.126C1119.04 361.719 1121.04 360.676 1121.64 358.798Z" fill="white"/>
<path d="M1117.01 361.604C1119.15 362.279 1121.44 361.087 1122.11 358.948C1122.79 356.808 1121.6 354.519 1119.46 353.844C1117.32 353.168 1115.03 354.36 1114.35 356.499C1113.68 358.638 1114.87 360.928 1117.01 361.604ZM1119.16 354.8C1120.77 355.309 1121.67 357.034 1121.16 358.646C1120.65 360.258 1118.92 361.156 1117.31 360.647C1115.7 360.138 1114.8 358.412 1115.31 356.801C1115.82 355.188 1117.54 354.291 1119.16 354.8Z" fill="black"/>
<path d="M1119.68 359.816C1120.01 358.76 1119.43 357.632 1118.37 357.298C1117.31 356.965 1116.18 357.551 1115.85 358.609C1115.52 359.665 1116.1 360.793 1117.16 361.126C1118.22 361.459 1119.34 360.873 1119.68 359.816Z" fill="black"/>
<path d="M1100.06 354.56C1100.65 352.681 1099.61 350.677 1097.73 350.085C1095.86 349.492 1093.85 350.535 1093.26 352.413C1092.66 354.292 1093.71 356.295 1095.59 356.888C1097.47 357.481 1099.47 356.439 1100.06 354.56Z" fill="white"/>
<path d="M1095.43 357.367C1097.57 358.042 1099.86 356.851 1100.54 354.712C1101.21 352.572 1100.02 350.283 1097.88 349.607C1095.74 348.932 1093.45 350.124 1092.78 352.263C1092.1 354.402 1093.3 356.692 1095.43 357.367ZM1097.58 350.563C1099.19 351.072 1100.09 352.798 1099.58 354.409C1099.07 356.02 1097.35 356.919 1095.74 356.41C1094.12 355.901 1093.23 354.175 1093.74 352.563C1094.24 350.952 1095.97 350.054 1097.58 350.563Z" fill="black"/>
<path d="M1098.1 355.578C1098.44 354.521 1097.85 353.394 1096.79 353.06C1095.74 352.727 1094.61 353.313 1094.28 354.37C1093.94 355.426 1094.53 356.554 1095.59 356.887C1096.64 357.221 1097.77 356.634 1098.1 355.578Z" fill="black"/>
<path d="M1081.91 352.806C1082.51 350.927 1081.46 348.924 1079.58 348.331C1077.71 347.738 1075.7 348.781 1075.11 350.659C1074.52 352.538 1075.56 354.541 1077.44 355.134C1079.32 355.727 1081.32 354.685 1081.91 352.806Z" fill="white"/>
<path d="M1077.28 355.613C1079.42 356.289 1081.71 355.097 1082.39 352.958C1083.06 350.818 1081.87 348.529 1079.73 347.854C1077.6 347.179 1075.3 348.37 1074.63 350.509C1073.95 352.648 1075.15 354.938 1077.28 355.613ZM1079.43 348.809C1081.04 349.318 1081.94 351.042 1081.43 352.655C1080.92 354.267 1079.2 355.165 1077.59 354.656C1075.98 354.147 1075.08 352.422 1075.59 350.81C1076.1 349.199 1077.82 348.3 1079.43 348.809Z" fill="black"/>
<path d="M1079.95 353.824C1080.29 352.767 1079.7 351.64 1078.65 351.306C1077.59 350.973 1076.46 351.559 1076.13 352.616C1075.79 353.673 1076.38 354.8 1077.44 355.133C1078.49 355.467 1079.62 354.882 1079.95 353.824Z" fill="black"/>
<path d="M1069.23 353.714C1069.83 351.836 1068.79 349.832 1066.91 349.239C1065.03 348.646 1063.02 349.688 1062.43 351.567C1061.84 353.446 1062.88 355.449 1064.76 356.042C1066.64 356.635 1068.64 355.593 1069.23 353.714Z" fill="white"/>
<path d="M1064.61 356.522C1066.75 357.197 1069.04 356.005 1069.71 353.866C1070.39 351.727 1069.19 349.437 1067.06 348.762C1064.92 348.086 1062.63 349.278 1061.95 351.417C1061.28 353.556 1062.47 355.846 1064.61 356.522ZM1066.75 349.717C1068.37 350.226 1069.26 351.952 1068.76 353.563C1068.25 355.176 1066.52 356.072 1064.91 355.564C1063.3 355.055 1062.4 353.33 1062.91 351.718C1063.42 350.106 1065.14 349.208 1066.75 349.717Z" fill="black"/>
<path d="M1064.76 356.042C1063.7 355.709 1063.11 354.581 1063.45 353.524C1063.78 352.467 1064.91 351.881 1065.97 352.214C1067.02 352.548 1067.61 353.675 1067.28 354.732C1066.94 355.79 1065.82 356.376 1064.76 356.042Z" fill="black"/>
<path d="M1059.7 359.472C1060.24 357.769 1059.29 355.953 1057.59 355.416C1055.89 354.878 1054.07 355.823 1053.53 357.526C1053 359.228 1053.94 361.045 1055.64 361.582C1057.35 362.119 1059.16 361.175 1059.7 359.472Z" fill="white"/>
<path d="M1055.5 362.061C1057.46 362.681 1059.56 361.589 1060.18 359.624C1060.8 357.661 1059.71 355.558 1057.74 354.938C1055.78 354.319 1053.68 355.412 1053.06 357.376C1052.44 359.339 1053.53 361.441 1055.5 362.061ZM1057.44 355.895C1058.88 356.348 1059.68 357.885 1059.22 359.321C1058.77 360.757 1057.23 361.557 1055.8 361.104C1054.36 360.651 1053.56 359.114 1054.01 357.677C1054.47 356.241 1056 355.441 1057.44 355.895Z" fill="black"/>
<path d="M1057.93 360.396C1058.23 359.438 1057.7 358.417 1056.74 358.115C1055.78 357.813 1054.76 358.344 1054.46 359.302C1054.16 360.259 1054.69 361.28 1055.65 361.583C1056.6 361.885 1057.63 361.354 1057.93 360.396Z" fill="black"/>
<path d="M1163.63 372.051C1164.22 370.172 1166.22 369.131 1168.1 369.723C1169.98 370.316 1171.02 372.32 1170.43 374.199C1169.84 376.078 1167.83 377.119 1165.96 376.527C1164.08 375.933 1163.03 373.929 1163.63 372.051Z" fill="white"/>
<path d="M1165.8 377.004C1167.94 377.679 1170.23 376.487 1170.91 374.349C1171.58 372.209 1170.39 369.919 1168.25 369.244C1166.11 368.569 1163.82 369.761 1163.15 371.9C1162.47 374.038 1163.66 376.329 1165.8 377.004ZM1167.95 370.201C1169.56 370.709 1170.46 372.434 1169.95 374.047C1169.44 375.658 1167.72 376.556 1166.11 376.048C1164.49 375.539 1163.6 373.813 1164.11 372.201C1164.61 370.589 1166.34 369.692 1167.95 370.201Z" fill="black"/>
<path d="M1164.65 374.009C1164.98 372.952 1166.11 372.365 1167.16 372.699C1168.22 373.032 1168.81 374.159 1168.47 375.217C1168.14 376.273 1167.01 376.861 1165.96 376.527C1164.9 376.192 1164.31 375.065 1164.65 374.009Z" fill="black"/>
<path d="M1183.72 380.965C1184.32 379.086 1186.32 378.045 1188.2 378.637C1190.08 379.23 1191.12 381.235 1190.53 383.113C1189.93 384.992 1187.93 386.034 1186.05 385.441C1184.17 384.848 1183.13 382.845 1183.72 380.965Z" fill="white"/>
<path d="M1185.9 385.92C1188.04 386.595 1190.33 385.403 1191.01 383.265C1191.68 381.125 1190.49 378.835 1188.35 378.16C1186.21 377.485 1183.92 378.677 1183.25 380.816C1182.57 382.954 1183.76 385.245 1185.9 385.92ZM1188.05 379.115C1189.66 379.624 1190.56 381.35 1190.05 382.962C1189.54 384.573 1187.82 385.471 1186.2 384.962C1184.59 384.453 1183.7 382.728 1184.2 381.116C1184.71 379.505 1186.44 378.607 1188.05 379.115Z" fill="black"/>
<path d="M1184.74 382.923C1185.08 381.866 1186.2 381.28 1187.26 381.613C1188.32 381.946 1188.9 383.074 1188.57 384.131C1188.24 385.187 1187.11 385.773 1186.05 385.44C1185 385.107 1184.41 383.98 1184.74 382.923Z" fill="black"/>
<path d="M1199.59 389.948C1200.19 388.069 1202.19 387.027 1204.07 387.62C1205.95 388.213 1206.99 390.217 1206.4 392.095C1205.8 393.974 1203.8 395.016 1201.92 394.423C1200.04 393.83 1199 391.827 1199.59 389.948Z" fill="white"/>
<path d="M1201.77 394.902C1203.91 395.578 1206.2 394.386 1206.87 392.247C1207.55 390.107 1206.36 387.818 1204.22 387.143C1202.08 386.468 1199.79 387.659 1199.11 389.798C1198.44 391.937 1199.63 394.227 1201.77 394.902ZM1203.92 388.098C1205.53 388.607 1206.43 390.331 1205.92 391.944C1205.41 393.557 1203.68 394.453 1202.07 393.945C1200.46 393.436 1199.56 391.711 1200.07 390.099C1200.58 388.487 1202.31 387.589 1203.92 388.098Z" fill="black"/>
<path d="M1200.61 391.905C1200.95 390.848 1202.07 390.261 1203.13 390.595C1204.19 390.929 1204.77 392.056 1204.44 393.113C1204.11 394.17 1202.98 394.756 1201.92 394.422C1200.87 394.088 1200.28 392.962 1200.61 391.905Z" fill="black"/>
<path d="M1209.45 397.969C1210.05 396.091 1212.05 395.048 1213.93 395.641C1215.81 396.234 1216.85 398.237 1216.26 400.117C1215.66 401.996 1213.66 403.037 1211.78 402.445C1209.9 401.852 1208.86 399.849 1209.45 397.969Z" fill="white"/>
<path d="M1211.63 402.924C1213.77 403.599 1216.06 402.407 1216.73 400.269C1217.41 398.13 1216.22 395.839 1214.08 395.164C1211.94 394.489 1209.65 395.681 1208.97 397.819C1208.3 399.958 1209.49 402.249 1211.63 402.924ZM1213.78 396.119C1215.39 396.628 1216.29 398.354 1215.78 399.965C1215.27 401.578 1213.54 402.475 1211.93 401.966C1210.32 401.458 1209.42 399.733 1209.93 398.12C1210.44 396.509 1212.17 395.611 1213.78 396.119Z" fill="black"/>
<path d="M1210.47 399.927C1210.81 398.871 1211.93 398.283 1212.99 398.617C1214.05 398.95 1214.63 400.077 1214.3 401.135C1213.97 402.191 1212.84 402.779 1211.78 402.445C1210.72 402.11 1210.14 400.983 1210.47 399.927Z" fill="black"/>
<path d="M1213.95 408.158C1214.49 406.456 1216.31 405.511 1218.01 406.048C1219.71 406.586 1220.66 408.402 1220.12 410.105C1219.58 411.807 1217.76 412.752 1216.06 412.215C1214.36 411.676 1213.41 409.861 1213.95 408.158Z" fill="white"/>
<path d="M1215.91 412.692C1217.87 413.312 1219.98 412.219 1220.6 410.255C1221.22 408.291 1220.12 406.189 1218.16 405.569C1216.2 404.95 1214.09 406.043 1213.47 408.007C1212.85 409.97 1213.95 412.073 1215.91 412.692ZM1217.86 406.526C1219.29 406.979 1220.09 408.515 1219.64 409.951C1219.19 411.387 1217.65 412.188 1216.21 411.735C1214.78 411.281 1213.98 409.744 1214.43 408.307C1214.88 406.872 1216.42 406.073 1217.86 406.526Z" fill="black"/>
<path d="M1214.88 409.93C1215.18 408.973 1216.2 408.442 1217.16 408.744C1218.11 409.046 1218.65 410.067 1218.34 411.025C1218.04 411.983 1217.02 412.514 1216.06 412.212C1215.1 411.909 1214.57 410.888 1214.88 409.93Z" fill="black"/>
<path d="M1165.08 417.631C1165.08 417.631 1177.9 412.56 1185.05 403.243L1183.1 400.525C1183.1 400.525 1171.78 413.081 1164.19 414.895L1165.08 417.631Z" fill="black"/>
</g>
<path fill-rule="evenodd" clip-rule="evenodd" d="M215.588 358.333C204.59 381.981 176.505 392.237 152.857 381.24C129.209 370.242 118.953 342.157 129.95 318.509C140.948 294.861 169.033 284.605 192.681 295.602C216.329 306.6 226.585 334.685 215.588 358.333ZM218.106 359.505C206.462 384.544 176.725 395.403 151.685 383.758C126.646 372.114 115.787 342.377 127.432 317.337C139.076 292.298 168.813 281.439 193.853 293.084C218.892 304.728 229.751 334.465 218.106 359.505ZM213.068 357.164C202.717 379.421 176.284 389.073 154.027 378.723C131.77 368.373 122.117 341.939 132.468 319.682C142.818 297.425 169.252 287.773 191.509 298.123C213.766 308.473 223.418 334.907 213.068 357.164ZM184.61 360.871C178.869 368.265 168.561 370.938 159.704 366.82L159.706 366.818C150.849 362.7 146.273 353.105 148.228 343.95C148.39 343.167 148.859 342.482 149.529 342.046C150.2 341.609 151.019 341.458 151.803 341.624C152.588 341.791 153.276 342.262 153.714 342.933C154.153 343.604 154.306 344.421 154.14 345.202C152.76 351.664 155.916 358.422 162.242 361.364C168.568 364.306 175.791 362.374 179.843 357.155C180.336 356.527 181.058 356.12 181.853 356.023C182.647 355.927 183.449 356.15 184.081 356.642C184.713 357.134 185.125 357.857 185.224 358.649C185.323 359.442 185.103 360.241 184.611 360.87L184.61 360.871ZM167.379 323.661C166.086 326.443 162.781 327.65 159.999 326.356C157.217 325.062 156.011 321.758 157.304 318.976C158.598 316.194 161.902 314.987 164.684 316.281C167.467 317.575 168.673 320.879 167.379 323.661ZM172.417 326.003C169.829 331.568 163.221 333.981 157.657 331.393C152.092 328.806 149.679 322.197 152.267 316.633C154.854 311.069 161.463 308.656 167.027 311.243C172.591 313.831 175.004 320.439 172.417 326.003ZM190.224 340.412C193.006 341.705 196.31 340.499 197.604 337.717C198.898 334.935 197.691 331.63 194.909 330.337C192.127 329.043 188.823 330.249 187.529 333.031C186.235 335.814 187.442 339.118 190.224 340.412ZM187.881 345.449C193.445 348.037 200.054 345.624 202.641 340.059C205.229 334.495 202.816 327.887 197.252 325.299C191.687 322.712 185.079 325.125 182.491 330.689C179.904 336.253 182.317 342.861 187.881 345.449Z" fill="#0E1012"/>
<path fill-rule="evenodd" clip-rule="evenodd" d="M1038.6 575.333C1049.6 598.981 1077.69 609.237 1101.33 598.24C1124.98 587.242 1135.24 559.157 1124.24 535.509C1113.24 511.861 1085.16 501.605 1061.51 512.602C1037.86 523.6 1027.6 551.685 1038.6 575.333ZM1036.08 576.505C1047.73 601.544 1077.47 612.403 1102.5 600.758C1127.54 589.114 1138.4 559.377 1126.76 534.337C1115.11 509.298 1085.38 498.439 1060.34 510.084C1035.3 521.728 1024.44 551.465 1036.08 576.505ZM1041.12 574.164C1051.47 596.421 1077.91 606.073 1100.16 595.723C1122.42 585.373 1132.07 558.939 1121.72 536.682C1111.37 514.425 1084.94 504.773 1062.68 515.123C1040.42 525.473 1030.77 551.907 1041.12 574.164ZM1069.58 577.871C1075.32 585.265 1085.63 587.938 1094.49 583.82L1094.48 583.818C1103.34 579.7 1107.92 570.105 1105.96 560.95C1105.8 560.167 1105.33 559.482 1104.66 559.046C1103.99 558.609 1103.17 558.458 1102.39 558.624C1101.6 558.791 1100.91 559.262 1100.48 559.933C1100.04 560.604 1099.88 561.421 1100.05 562.202C1101.43 568.664 1098.27 575.422 1091.95 578.364C1085.62 581.306 1078.4 579.374 1074.35 574.155C1073.85 573.527 1073.13 573.12 1072.34 573.023C1071.54 572.927 1070.74 573.15 1070.11 573.642C1069.48 574.134 1069.07 574.857 1068.97 575.649C1068.87 576.442 1069.09 577.241 1069.58 577.87L1069.58 577.871ZM1086.81 540.661C1088.1 543.443 1091.41 544.65 1094.19 543.356C1096.97 542.062 1098.18 538.758 1096.89 535.976C1095.59 533.194 1092.29 531.987 1089.51 533.281C1086.72 534.575 1085.52 537.879 1086.81 540.661ZM1081.77 543.003C1084.36 548.568 1090.97 550.981 1096.53 548.393C1102.1 545.806 1104.51 539.197 1101.92 533.633C1099.34 528.069 1092.73 525.656 1087.16 528.243C1081.6 530.831 1079.19 537.439 1081.77 543.003ZM1063.97 557.412C1061.18 558.705 1057.88 557.499 1056.59 554.717C1055.29 551.935 1056.5 548.63 1059.28 547.337C1062.06 546.043 1065.37 547.249 1066.66 550.031C1067.95 552.814 1066.75 556.118 1063.97 557.412ZM1066.31 562.449C1060.74 565.037 1054.14 562.624 1051.55 557.059C1048.96 551.495 1051.37 544.887 1056.94 542.299C1062.5 539.712 1069.11 542.125 1071.7 547.689C1074.29 553.253 1071.87 559.861 1066.31 562.449Z" fill="#0E1012"/>
<path d="M344.738 437.85L345.868 437.437C345.629 436.2 345.673 434.736 346.028 433.035C346.746 429.66 349.233 425.701 351.991 423.984L351.574 422.843C349.975 423.057 348.274 422.909 346.507 422.415C342.91 421.419 339.698 419.143 338.238 416.565L337.108 416.978C337.365 418.517 337.253 420.129 336.801 421.897C335.914 425.394 333.683 428.551 330.911 430.397L331.328 431.538C332.981 431.304 334.819 431.494 336.78 432.102C340.766 433.326 343.48 435.661 344.738 437.85Z" fill="#0E1012"/>
<defs>
<clipPath id="clip0_520_49160">
<rect width="252" height="252" fill="white" transform="translate(1.62549 73.8496) rotate(-10.7668)"/>
</clipPath>
<clipPath id="clip1_520_49160">
<rect width="252" height="252" fill="white" transform="matrix(-0.95363 -0.30098 -0.30098 0.95363 1286.16 329.848)"/>
</clipPath>
</defs>
</svg>
