<svg width="10" height="9" viewBox="0 0 10 9" fill="none" xmlns="http://www.w3.org/2000/svg">
<path d="M8.16 0C8.736 0 9.13067 0.117333 9.344 0.351999C9.55733 0.565332 9.664 0.959999 9.664 1.536V3.392C9.664 4.18133 9.6 4.88533 9.472 5.504C9.36533 6.12267 9.19467 6.69867 8.96 7.232C8.74667 7.76533 8.49067 8.27733 8.192 8.768L6.464 8.256C6.61333 7.616 6.72 6.99733 6.784 6.4C6.848 5.80267 6.88 5.152 6.88 4.448C6.06933 4.448 5.664 4 5.664 3.104L5.696 1.536C5.71733 0.959999 5.83467 0.565332 6.048 0.351999C6.28267 0.117333 6.66667 0 7.2 0H8.16ZM2.528 0C3.104 0 3.49867 0.117333 3.712 0.351999C3.92533 0.565332 4.032 0.959999 4.032 1.536V3.392C4.032 4.18133 3.968 4.88533 3.84 5.504C3.73333 6.12267 3.56267 6.69867 3.328 7.232C3.11467 7.76533 2.85867 8.27733 2.56 8.768L0.8 8.256C0.970667 7.616 1.07733 6.99733 1.12 6.4C1.184 5.80267 1.22667 5.152 1.248 4.448C0.437333 4.448 0.0213334 4 0 3.104L0.0320001 1.536C0.0533334 0.959999 0.170667 0.565332 0.384 0.351999C0.618667 0.117333 1.01333 0 1.568 0H2.528Z" fill="#595E66"/>
</svg>
