<svg width="10" height="9" viewBox="0 0 10 9" fill="none" xmlns="http://www.w3.org/2000/svg">
<path d="M1.504 8.768C0.928 8.768 0.533333 8.66133 0.32 8.448C0.106667 8.23467 0 7.84 0 7.264V5.376C0 4.608 0.0533333 3.91467 0.16 3.296C0.288 2.656 0.458667 2.08 0.672 1.568C0.906667 1.03467 1.17333 0.512 1.472 0L3.232 0.544001C3.06133 1.184 2.944 1.80267 2.88 2.4C2.83733 2.99733 2.80533 3.63733 2.784 4.32C3.59467 4.32 4.01067 4.768 4.032 5.664L4 7.264C3.97867 7.84 3.85067 8.23467 3.616 8.448C3.40267 8.66133 3.01867 8.768 2.464 8.768H1.504ZM7.136 8.768C6.58133 8.768 6.19733 8.66133 5.984 8.448C5.77067 8.23467 5.65333 7.84 5.632 7.264V5.376C5.65333 4.608 5.71733 3.91467 5.824 3.296C5.952 2.656 6.12267 2.08 6.336 1.568C6.54933 1.03467 6.816 0.512 7.136 0L8.864 0.544001C8.69333 1.184 8.576 1.80267 8.512 2.4C8.46933 2.99733 8.43733 3.63733 8.416 4.32C9.22667 4.32 9.64267 4.768 9.664 5.664L9.632 7.264C9.61067 7.84 9.48267 8.23467 9.248 8.448C9.03467 8.66133 8.65067 8.768 8.096 8.768H7.136Z" fill="#595E66"/>
</svg>
