<svg aria-hidden="true" style="position:absolute;width:0;height:0;overflow:hidden" xmlns="http://www.w3.org/2000/svg"><defs>
<symbol id="icon-confirmation-tick" viewBox="0 0 45 32">
<path stroke-linejoin="round" stroke-linecap="round" stroke-miterlimit="4" stroke-width="3.8095" d="M2.045 16.085l13.62 13.622 27.242-27.243"></path>
</symbol>
<symbol id="icon-arrow-down" viewBox="0 0 32 32"><path fill="none" stroke="#0E1012" style="stroke:var(--color1, #0E1012)" stroke-linejoin="round" stroke-linecap="round" stroke-width="2" d="M15.334 25.333V6.666M20.667 20l-5.333 5.333M10 20l5.333 5.333"/></symbol><symbol id="icon-arrow-left" viewBox="0 0 32 32"><path fill="" stroke="#" style="stroke:var(--color1)" stroke-linejoin="round" stroke-linecap="round" stroke-width="2" d="M6 16h18.667M11.333 21.333 6 16M11.333 10.667 6 16"/></symbol><symbol id="icon-arrow-right" viewBox="0 0 32 32"><path fill="" stroke="#" style="stroke:var(--color1)" stroke-linejoin="round" stroke-linecap="round" stroke-width="2" d="M6.667 16h18.667M20 21.333 25.333 16M20 10.667 25.333 16"/></symbol><symbol id="icon-arrow-up" viewBox="0 0 32 32"><path fill="none" stroke="#0E1012" style="stroke:var(--color1, #0E1012)" stroke-linejoin="round" stroke-linecap="round" stroke-width="2" d="M15.334 25.333V6.666M10 11.333 15.333 6M20.667 11.333 15.334 6"/></symbol><symbol id="icon-burger" viewBox="0 0 32 32"><path fill="none" stroke="#0E1012" style="stroke:var(--color1, #0E1012)" stroke-linejoin="round" stroke-linecap="round" stroke-width="1.5" d="M6 8h20M6 16h20M6 24h20"/></symbol><symbol id="icon-chevrone-down" viewBox="0 0 32 32"><path fill="none" stroke="" stroke-linejoin="round" stroke-linecap="round" stroke-width="2" d="m8 12 8 8 8-8"/></symbol><symbol id="icon-d-left" viewBox="0 0 32 32"><path fill="none" stroke="#0E1012" style="stroke:var(--color1, #0E1012)" stroke-linejoin="round" stroke-linecap="round" stroke-width="2" d="m20 24-8-8 8-8"/></symbol><symbol id="icon-chevrone-right" viewBox="0 0 32 32"><path fill="none" stroke="#0E1012" style="stroke:var(--color1, #0E1012)" stroke-linejoin="round" stroke-linecap="round" stroke-width="2" d="m12 24 8-8-8-8"/></symbol><symbol id="icon-chevrone-up" viewBox="0 0 32 32"><path fill="none" stroke="" style="stroke:var(--color1 )" stroke-linejoin="round" stroke-linecap="round" stroke-width="2" d="m8 20 8-8 8 8"/></symbol><symbol id="icon-circle" viewBox="0 0 32 32"><path fill="#0E1012" style="fill:var(--color1, #0E1012)" d="M20 16a4 4 0 1 1-8 0 4 4 0 0 1 8 0z"/></symbol><symbol id="icon-close" viewBox="0 0 32 32"><path fill="currentColor" stroke="currentColor" style="stroke:var(--color1)" stroke-linejoin="round" stroke-linecap="round" stroke-width="" d="M24 8 8 24M8 8l16 16"/></symbol><symbol id="icon-delete" viewBox="0 0 32 32"><path fill="" stroke="#" style="stroke:var(--color1)" stroke-linejoin="round" stroke-linecap="round" stroke-width="2" d="M5.333 9.333h21.333M13.334 14.667v8M18.666 14.667v8M6.667 9.333l1.333 16A2.67 2.67 0 0 0 10.667 28h10.667a2.67 2.67 0 0 0 2.667-2.667l1.333-16"/><path fill="" stroke="" style="stroke:var(--color1)" stroke-linejoin="round" stroke-linecap="round" stroke-width="2" d="M12 9.333v-4a1.335 1.335 0 0 1 1.334-1.334h5.333a1.335 1.335 0 0 1 1.334 1.334v4"/></symbol><symbol id="icon-dots-horizontal" viewBox="0 0 32 32"><path fill="#0E1012" style="fill:var(--color1, #0E1012);stroke:var(--color1, #0E1012)" stroke="#0E1012" stroke-linejoin="round" stroke-linecap="round" stroke-width="2" d="M6.666 17.333a1.333 1.333 0 1 0 0-2.667 1.333 1.333 0 0 0 0 2.667zM16 17.333a1.333 1.333 0 1 0 0-2.667 1.333 1.333 0 0 0 0 2.667zM25.333 17.333a1.333 1.333 0 1 0 0-2.667 1.333 1.333 0 0 0 0 2.667z"/></symbol><symbol id="icon-facebook" viewBox="0 0 32 32"><path fill="#FFFFFF" stroke="#0E1012" style="stroke:var(--color1, #0E1012)" stroke-linejoin="round" stroke-linecap="round" stroke-width="1.454" d="M24 2.667h-4a6.67 6.67 0 0 0-6.667 6.667v4h-4v5.333h4v10.667h5.333V18.667h4l1.333-5.333h-5.333v-4A1.335 1.335 0 0 1 20 8h4V2.667z"/></symbol><symbol id="icon-filter" viewBox="0 0 32 32"><path fill="none" stroke="#0E1012" style="stroke:var(--color1, #0E1012)" stroke-linejoin="round" stroke-linecap="round" stroke-width="1.5" d="M7.333 6.667h17.333a1.332 1.332 0 0 1 .667 2.001l-6.667 7.333v9.333l-5.333-4v-5.333L6.666 8.668a1.333 1.333 0 0 1 .158-1.678c.143-.145.317-.255.509-.323z"/></symbol>
<symbol id="icon-eye-open" viewBox="0 0 32 32">
<path fill="none" stroke="#c2c6cb" style="stroke: var(--color1, #c2c6cb)" stroke-linejoin="round" stroke-linecap="round" stroke-miterlimit="4" stroke-width="2" d="M16 18.667c1.473 0 2.667-1.194 2.667-2.667s-1.194-2.667-2.667-2.667c-1.473 0-2.667 1.194-2.667 2.667s1.194 2.667 2.667 2.667z"></path>
<path fill="none" stroke="#c2c6cb" style="stroke: var(--color1, #c2c6cb)" stroke-linejoin="round" stroke-linecap="round" stroke-miterlimit="4" stroke-width="2" d="M29.333 16c-3.556 6.223-8 9.333-13.333 9.333s-9.777-3.111-13.333-9.333c3.556-6.223 8-9.333 13.333-9.333s9.777 3.111 13.333 9.333z"></path>
</symbol><symbol id="icon-instagram" viewBox="0 0 32 32"><path fill="#FFFFFF" stroke="#FFFFFF" style="stroke:var(--color1, #0E1012)" stroke-linejoin="round" stroke-linecap="round" stroke-width="1.454" d="M21.333 5.333H10.666a5.333 5.333 0 0 0-5.333 5.333v10.667a5.333 5.333 0 0 0 5.333 5.333h10.667a5.333 5.333 0 0 0 5.333-5.333V10.666a5.333 5.333 0 0 0-5.333-5.333z"/><path fill="none" stroke="#0E1012" style="stroke:var(--color1, #0E1012)" stroke-linejoin="round" stroke-linecap="round" stroke-width="1.454" d="M16 20a4 4 0 1 0 0-8 4 4 0 0 0 0 8zM22 10v.001"/></symbol><symbol id="icon-minus" viewBox="0 0 32 32"><path fill="none" stroke="#0E1012" style="stroke:var(--color1, #0E1012)" stroke-linejoin="round" stroke-linecap="round" stroke-width="1.333" d="M6.667 16h18.667"/></symbol><symbol id="icon-plus" viewBox="0 0 32 32"><path fill="none" stroke="#0E1012" style="stroke:var(--color1, #0E1012)" stroke-linejoin="round" stroke-linecap="round" stroke-width="" d="M16 6.667v18.667M6.667 16h18.667"/></symbol><symbol id="icon-sale" viewBox="0 0 32 32"><path fill="none" stroke="#0E1012" style="stroke:var(--color1, #0E1012)" stroke-linejoin="round" stroke-linecap="round" stroke-width="1.333" d="m5.333 25.333 20-20"/><path fill="#0E1012" style="fill:var(--color1, #0E1012);stroke:var(--color1, #0E1012)" stroke="#0E1012" stroke-linejoin="round" stroke-linecap="round" stroke-width="1.333" d="M7 8.667a1.667 1.667 0 1 0 0-3.334 1.667 1.667 0 0 0 0 3.334zM23.667 25.333a1.667 1.667 0 1 0 0-3.333 1.667 1.667 0 0 0 0 3.333z"/></symbol><symbol id="icon-search" viewBox="0 0 32 32"><path fill="none" stroke="#0E1012" style="stroke:var(--color1, #0E1012)" stroke-linejoin="round" stroke-linecap="round" stroke-width="" d="M13.333 22.667a9.333 9.333 0 1 0 0-18.666 9.333 9.333 0 1 0 0 18.666zM28 28l-8-8"/></symbol><symbol id="icon-size-plus" viewBox="0 0 32 32"><path fill="none" stroke="#0E1012" style="stroke:var(--color1, #0E1012)" stroke-linejoin="round" stroke-linecap="round" stroke-width="1.333" d="M13.333 22.667a9.333 9.333 0 1 0 0-18.666 9.333 9.333 0 1 0 0 18.666zM9.333 13.333h8M13.333 9.333v8M28 28l-8-8"/></symbol><symbol id="icon-sort" viewBox="0 0 32 32"><path fill="" stroke="" style="stroke:var(--color1)" stroke-linejoin="round" stroke-linecap="round" stroke-width="1.5" d="m4 12 5.333-5.333m0 0L14.666 12M9.333 6.667v18.667M28 20l-5.333 5.333m0 0L17.334 20m5.333 5.333V6.666"/></symbol><symbol id="icon-Star" viewBox="0 0 32 32"><path d="m25.544 19.969-8.993-3.49 8.993-3.482c1.003-.39 1.42-1.576.884-2.508s-1.777-1.161-2.618-.491l-7.599 6.057-.009-.051 1.53-9.988C17.902 4.957 17.077 4 15.998 4s-1.896.957-1.734 2.016l1.53 9.988-.008.051-7.599-6.057a1.763 1.763 0 0 0-2.618.491 1.75 1.75 0 0 0 .884 2.508l8.993 3.482-8.993 3.49c-1.003.39-1.42 1.576-.884 2.508s1.777 1.161 2.618.491l7.455-5.939-1.377 8.954a1.755 1.755 0 0 0 1.734 2.016 1.75 1.75 0 0 0 1.734-2.016l-1.377-8.954 7.455 5.939a1.763 1.763 0 0 0 2.618-.491 1.745 1.745 0 0 0-.884-2.508z"/></symbol><symbol id="icon-telegram" viewBox="0 0 32 32"><path fill="#FFFFFF" stroke="#FFFFFF" style="stroke:var(--color1, #0E1012)" stroke-linejoin="round" stroke-linecap="round" stroke-width="1.454" d="m20 13.333-5.333 5.333 8 8L28 5.333 4 14.666l5.333 2.667 2.667 8L16 20"/></symbol><symbol id="icon-user" viewBox="0 0 32 32"><path fill="none" stroke="#0E1012" style="stroke:var(--color1, #0E1012)" stroke-linejoin="round" stroke-linecap="round" stroke-width="1.5" d="M16 14.667a5.333 5.333 0 1 0 0-10.666 5.333 5.333 0 0 0 0 10.666zM8 28v-2.667A5.332 5.332 0 0 1 13.333 20h5.333a5.332 5.332 0 0 1 5.333 5.333V28"/></symbol>
<symbol id="icon-google" viewBox="0 0 32 32">
<path fill="none" stroke="#0E1012" style="stroke: var(--color1, #0E1012)" stroke-linejoin="round" stroke-linecap="round" stroke-miterlimit="4" stroke-width="1" d="M23.717 6.811c-2.092-1.757-4.72-2.747-7.451-2.808s-5.401 0.812-7.568 2.474c-2.168 1.662-3.703 4.014-4.353 6.667s-0.375 5.449 0.779 7.925c1.154 2.476 3.118 4.484 5.568 5.692s5.238 1.545 7.905 0.954c2.667-0.591 5.052-2.074 6.762-4.204s2.642-4.78 2.642-7.512h-10.667"></path>
</symbol>
<symbol id="icon-payment-card-new" viewBox="0 0 32 32">
<path d="M8 6.276c-2.42 0-4.39 1.97-4.39 4.39v10.668c0 2.42 1.97 4.39 4.39 4.39h16c2.42 0 4.39-1.97 4.39-4.39v-10.668c0-2.42-1.97-4.39-4.39-4.39zM8 7.056h16c1.998 0 3.61 1.611 3.61 3.61v10.668c0 1.998-1.611 3.61-3.61 3.61h-16c-1.998 0-3.61-1.612-3.61-3.61v-10.668c0-1.998 1.612-3.61 3.61-3.61z"></path>
<path d="M4 12.944c-0.216 0-0.39 0.175-0.39 0.39v0c0 0.216 0.175 0.39 0.39 0.39v0h24c0.216 0 0.39-0.175 0.39-0.39v0c0-0.216-0.175-0.39-0.39-0.39v0z"></path>
<path d="M9.334 19.61c-0.216 0-0.39 0.175-0.39 0.39v0c0 0.216 0.175 0.39 0.39 0.39v0h0.014c0.216 0 0.39-0.175 0.39-0.39v0c0-0.216-0.175-0.39-0.39-0.39v0z"></path>
<path d="M14.666 19.61c-0.216 0-0.39 0.175-0.39 0.39v0c0 0.216 0.175 0.39 0.39 0.39v0h2.666c0.216 0 0.39-0.175 0.39-0.39v0c0-0.216-0.175-0.39-0.39-0.39v0z"></path>
</symbol>
<symbol id="icon-apple" viewBox="0 0 32 32">
<path fill="none" stroke="#0E1012" style="stroke: var(--color1, #0E1012)" stroke-linejoin="round" stroke-linecap="round" stroke-miterlimit="4" stroke-width="1" d="M12 10.667c-4 0-5.333 4-5.333 7.333 0 4 2.667 10 5.333 10 1.451-0.061 2.239-0.667 4-0.667 1.749 0 2 0.667 4 0.667s5.333-4 5.333-6.667c-0.037-0.013-3.296-0.537-3.333-4-0.025-2.893 3.221-3.939 3.333-4-1.364-1.989-3.935-2.617-4.667-2.667-1.911-0.148-3.773 1.333-4.667 1.333-0.907 0-2.533-1.333-4-1.333z"></path>
<path fill="none" stroke="#0E1012" style="stroke: var(--color1, #0E1012)" stroke-linejoin="round" stroke-linecap="round" stroke-miterlimit="4" stroke-width="2" d="M16 6.667c0.707 0 1.386-0.281 1.886-0.781s0.781-1.178 0.781-1.886c-0.707 0-1.386 0.281-1.886 0.781s-0.781 1.178-0.781 1.886"></path>
</symbol>
<symbol id="icon-info" viewBox="0 0 32 32">
<path fill="none" stroke="" style="stroke: var(--color1)" stroke-linejoin="round" stroke-linecap="round" stroke-miterlimit="4" stroke-width="2" d="M16 28c6.627 0 12-5.373 12-12s-5.373-12-12-12c-6.627 0-12 5.373-12 12s5.373 12 12 12z"></path>
<path fill="none" stroke="" style="stroke: var(--color1)" stroke-linejoin="round" stroke-linecap="round" stroke-miterlimit="4" stroke-width="2" d="M16 10.667h0.013"></path>
<path fill="none" stroke="" style="stroke: var(--color1)" stroke-linejoin="round" stroke-linecap="round" stroke-miterlimit="4" stroke-width="2" d="M14.666 16h1.333v5.333h1.333"></path>
</symbol>
<symbol id="icon-shop" viewBox="0 0 32 32">
<path  stroke-linejoin="round" stroke-linecap="round" stroke-miterlimit="4" stroke-width="1.3333" d="M4 28h24"></path>
<path  stroke-linejoin="round" stroke-linecap="round" stroke-miterlimit="4" stroke-width="1.3333" d="M4 9.333v1.333c0 1.061 0.421 2.078 1.172 2.828s1.768 1.172 2.828 1.172c1.061 0 2.078-0.421 2.828-1.172s1.172-1.768 1.172-2.828v-1.333M12 10.667c0 1.061 0.421 2.078 1.172 2.828s1.768 1.172 2.828 1.172c1.061 0 2.078-0.421 2.828-1.172s1.172-1.768 1.172-2.828v-1.333M20 10.667c0 1.061 0.421 2.078 1.172 2.828s1.768 1.172 2.828 1.172c1.061 0 2.078-0.421 2.828-1.172s1.172-1.768 1.172-2.828v-1.333h-24l2.667-5.333h18.667l2.667 5.333"></path>
<path stroke-linejoin="round" stroke-linecap="round" stroke-miterlimit="4" stroke-width="1.3333" d="M6.667 27.999v-13.533"></path>
<path  stroke-linejoin="round" stroke-linecap="round" stroke-miterlimit="4" stroke-width="1.3333" d="M25.333 27.999v-13.533"></path>
<path  stroke-linejoin="round" stroke-linecap="round" stroke-miterlimit="4" stroke-width="1.3333" d="M12 28v-5.333c0-0.707 0.281-1.385 0.781-1.886s1.178-0.781 1.886-0.781h2.667c0.707 0 1.385 0.281 1.886 0.781s0.781 1.178 0.781 1.886v5.333"></path>
</symbol>
<symbol id="icon-truck" viewBox="0 0 32 32">
<path stroke-linejoin="round" stroke-linecap="round" stroke-miterlimit="4" stroke-width="1.3333" d="M9.333 25.333c1.473 0 2.667-1.194 2.667-2.667s-1.194-2.667-2.667-2.667c-1.473 0-2.667 1.194-2.667 2.667s1.194 2.667 2.667 2.667z"></path>
<path stroke-linejoin="round" stroke-linecap="round" stroke-miterlimit="4" stroke-width="1.3333" d="M22.667 25.333c1.473 0 2.667-1.194 2.667-2.667s-1.194-2.667-2.667-2.667c-1.473 0-2.667 1.194-2.667 2.667s1.194 2.667 2.667 2.667z"></path>
<path stroke-linejoin="round" stroke-linecap="round" stroke-miterlimit="4" stroke-width="1.3333" d="M6.667 22.667h-2.667v-14.667c0-0.354 0.14-0.693 0.391-0.943s0.589-0.391 0.943-0.391h12v16M12 22.667h8M25.333 22.667h2.667v-8h-10.667M17.333 8h6.667l4 6.667"></path>
</symbol>
<symbol id="icon-radiobutton" viewBox="0 0 32 32">
<path stroke-linejoin="miter" stroke-linecap="butt" stroke-miterlimit="4" stroke-width="2" d="M31 16c0 8.284-6.716 15-15 15s-15-6.716-15-15c0-8.284 6.716-15 15-15s15 6.716 15 15z"></path>
<path stroke-linejoin="miter" stroke-linecap="butt" stroke-miterlimit="4" stroke-width="2" d="M23 16c0 3.866-3.134 7-7 7s-7-3.134-7-7c0-3.866 3.134-7 7-7s7 3.134 7 7z"></path>
</symbol>
<symbol id="icon-privat-bank" viewBox="0 0 32 32">
<path fill="none" stroke="#0e1012" style="stroke: var(--color1, #0e1012)" stroke-linejoin="miter" stroke-linecap="butt" stroke-miterlimit="4" stroke-width="0.7805" d="M27.974 16.364c0 6.412-5.198 11.61-11.61 11.61s-11.61-5.198-11.61-11.61c0-6.412 5.198-11.61 11.61-11.61s11.61 5.198 11.61 11.61z"></path>
<path d="M11.876 11.636c0.63 0 1.172 0.058 1.627 0.175 0.455 0.108 0.809 0.319 1.063 0.633s0.38 0.768 0.38 1.36c0 0.35-0.044 0.678-0.131 0.983-0.079 0.296-0.227 0.606-0.446 0.929-0.21 0.323-0.516 0.705-0.918 1.145l-2.375 2.518c0.219-0.036 0.437-0.058 0.656-0.067 0.227-0.018 0.455-0.027 0.682-0.027h2.795v1.805h-6.481v-1.104c0-0.162 0.022-0.31 0.066-0.444 0.044-0.144 0.114-0.274 0.21-0.391l2.257-2.478c0.534-0.566 0.94-1.069 1.22-1.508 0.289-0.44 0.429-0.822 0.42-1.145-0.009-0.198-0.061-0.341-0.157-0.431-0.088-0.090-0.223-0.148-0.407-0.175s-0.411-0.040-0.682-0.040c-0.306 0-0.595 0.004-0.866 0.013-0.262 0-0.547 0.009-0.853 0.027-0.297 0.018-0.647 0.045-1.050 0.081l-0.079-1.535c0.429-0.099 0.813-0.171 1.155-0.216 0.35-0.045 0.678-0.072 0.984-0.081 0.315-0.018 0.625-0.027 0.931-0.027z"></path>
<path d="M20.707 11.798l-2.178 5.347c-0.061 0.144-0.061 0.256 0 0.337 0.061 0.072 0.153 0.108 0.276 0.108h5.196v1.226l-1.115 0.202h-5.524c-0.245 0-0.455-0.067-0.63-0.202-0.175-0.144-0.293-0.323-0.354-0.539-0.052-0.224-0.031-0.449 0.066-0.673l2.375-5.805h1.889zM22.898 13.603v7.488h-1.85v-6.007l0.328-1.482h1.522z"></path>
</symbol>
<symbol id="icon-Union" viewBox="0 0 32 32">
<path d="M31.111 16c0 8.346-6.765 15.111-15.111 15.111s-15.111-6.765-15.111-15.111c0-8.346 6.765-15.111 15.111-15.111s15.111 6.765 15.111 15.111zM32 16c0 8.837-7.163 16-16 16s-16-7.163-16-16c0-8.837 7.163-16 16-16s16 7.163 16 16zM30.222 16c0 7.855-6.367 14.222-14.222 14.222s-14.222-6.367-14.222-14.222c0-7.855 6.367-14.222 14.222-14.222s14.222 6.367 14.222 14.222zM22.465 20.916c-0.668 2.92-3.298 5.087-6.424 5.087l0-0c-3.125 0-5.748-2.167-6.416-5.087-0.058-0.249-0.015-0.511 0.121-0.728s0.353-0.372 0.603-0.429c0.25-0.058 0.513-0.014 0.731 0.122s0.373 0.352 0.43 0.601c0.472 2.061 2.299 3.596 4.532 3.596s4.068-1.535 4.539-3.596c0.058-0.249 0.213-0.464 0.43-0.6s0.48-0.179 0.73-0.121c0.25 0.058 0.467 0.212 0.602 0.428s0.18 0.478 0.122 0.727l-0 0zM12.444 12.444c0 0.982-0.796 1.778-1.778 1.778s-1.778-0.796-1.778-1.778 0.796-1.778 1.778-1.778c0.982 0 1.778 0.796 1.778 1.778zM14.222 12.444c0 1.964-1.592 3.556-3.556 3.556s-3.556-1.592-3.556-3.556 1.592-3.556 3.556-3.556c1.964 0 3.556 1.592 3.556 3.556zM21.333 14.222c0.982 0 1.778-0.796 1.778-1.778s-0.796-1.778-1.778-1.778c-0.982 0-1.778 0.796-1.778 1.778s0.796 1.778 1.778 1.778zM21.333 16c1.964 0 3.556-1.592 3.556-3.556s-1.592-3.556-3.556-3.556c-1.964 0-3.555 1.592-3.555 3.556s1.592 3.556 3.555 3.556z"></path>
</symbol>
<symbol id="icon-union-1" viewBox="0 0 32 32">
<path d="M31.111 16c0 8.346-6.765 15.111-15.111 15.111s-15.111-6.765-15.111-15.111c0-8.346 6.765-15.111 15.111-15.111s15.111 6.765 15.111 15.111zM32 16c0 8.837-7.163 16-16 16s-16-7.163-16-16c0-8.837 7.163-16 16-16s16 7.163 16 16zM30.222 16c0 7.855-6.367 14.222-14.222 14.222s-14.222-6.367-14.222-14.222c0-7.855 6.367-14.222 14.222-14.222s14.222 6.367 14.222 14.222zM22.465 20.916c-0.668 2.92-3.298 5.087-6.424 5.087l0-0c-3.125 0-5.748-2.167-6.416-5.087-0.058-0.249-0.015-0.511 0.121-0.728s0.353-0.372 0.603-0.429c0.25-0.058 0.513-0.014 0.731 0.122s0.373 0.352 0.43 0.601c0.472 2.061 2.299 3.596 4.532 3.596s4.068-1.535 4.539-3.596c0.058-0.249 0.213-0.464 0.43-0.6s0.48-0.179 0.73-0.121c0.25 0.058 0.467 0.212 0.602 0.428s0.18 0.478 0.122 0.727l-0 0zM12.444 12.444c0 0.982-0.796 1.778-1.778 1.778s-1.778-0.796-1.778-1.778 0.796-1.778 1.778-1.778c0.982 0 1.778 0.796 1.778 1.778zM14.222 12.444c0 1.964-1.592 3.556-3.556 3.556s-3.556-1.592-3.556-3.556 1.592-3.556 3.556-3.556c1.964 0 3.556 1.592 3.556 3.556zM21.333 14.222c0.982 0 1.778-0.796 1.778-1.778s-0.796-1.778-1.778-1.778c-0.982 0-1.778 0.796-1.778 1.778s0.796 1.778 1.778 1.778zM21.333 16c1.964 0 3.556-1.592 3.556-3.556s-1.592-3.556-3.556-3.556c-1.964 0-3.555 1.592-3.555 3.556s1.592 3.556 3.555 3.556z"></path>
</symbol>
<symbol id="icon-ware" viewBox="0 0 32 32"><path fill="#0E1012" style="fill:var(--color1, #0E1012)" d="M6 0h20a6 6 0 0 1 6 6v20a6 6 0 0 1-6 6H6a6 6 0 0 1-6-6V6a6 6 0 0 1 6-6z"/><path fill="#adb4c8" style="fill:var(--color2, #adb4c8)" d="M6.586 23.919a2 2 0 1 0 2.828 2.828l-2.828-2.828zM26.748 9.414a2 2 0 1 0-2.828-2.828l2.828 2.828zM9.414 26.748 26.747 9.415l-2.828-2.828L6.586 23.92l2.828 2.828z"/></symbol></defs></svg>

