<svg width="139" height="139" viewBox="0 0 139 139" fill="none" xmlns="http://www.w3.org/2000/svg">
<g clip-path="url(#clip0_523_51365)">
<path d="M58.5175 69.7606L49.6988 115.09L58.5175 69.7606Z" fill="black"/>
<path d="M58.5175 69.7606C57.9318 73.567 57.2752 77.3597 56.5934 81.1475C56.2594 83.0425 55.8991 84.9329 55.5513 86.8256L54.469 92.4957L53.3477 98.1581L52.7707 100.986L52.4819 102.4L52.185 103.813C51.3971 107.58 50.584 111.342 49.6987 115.09C50.2831 111.283 50.9398 107.49 51.6215 103.703L51.8758 102.282L52.1381 100.863L52.6636 98.0245L53.7472 92.3547L54.8697 86.6922C55.257 84.807 55.6318 82.9199 56.0324 81.0377C56.8205 77.2714 57.6334 73.5088 58.5175 69.7606Z" fill="black"/>
<path d="M61.0208 69.2853L56.4098 113.815L61.0208 69.2853Z" fill="black"/>
<path d="M61.0208 69.2853C60.7877 73.012 60.483 76.7311 60.1523 80.4473C59.9941 82.3059 59.8093 84.1622 59.637 86.0198L59.0808 91.588L58.4853 97.1523L58.1714 99.9326L58.0136 101.323L57.8483 102.712C57.4103 106.417 56.9465 110.12 56.4098 113.815C56.6417 110.089 56.9464 106.37 57.277 102.653L57.3997 101.259L57.5304 99.8664L57.793 97.0807L58.3503 91.5122L58.9471 85.9484C59.159 84.0948 59.3586 82.2404 59.5846 80.3883C60.022 76.6827 60.4853 72.9806 61.0208 69.2853Z" fill="black"/>
<path d="M63.5247 68.808L63.1207 112.538L63.5247 68.808Z" fill="black"/>
<path d="M63.5247 68.808C63.6432 72.4533 63.6892 76.0984 63.7097 79.743C63.7265 81.5653 63.7174 83.3876 63.7204 85.2101L63.6905 90.6764L63.6206 96.1425L63.5693 98.8753L63.5431 100.242L63.5089 101.608C63.4215 105.251 63.3074 108.895 63.1207 112.538C63.0014 108.892 62.955 105.248 62.9345 101.603L62.9257 100.236L62.9247 98.8696L62.9239 96.1364L62.955 90.6699L63.0254 85.2037C63.0625 83.3821 63.0868 81.5599 63.1372 79.7382C63.2251 76.0942 63.3385 72.4507 63.5247 68.808Z" fill="black"/>
<path d="M66.0299 68.3327L69.8336 111.262L66.0299 68.3327Z" fill="black"/>
<path d="M66.0293 68.3328C66.4978 71.897 66.8942 75.4671 67.2652 79.0402C67.4572 80.8261 67.6236 82.6139 67.802 84.4012L68.2977 89.7657L68.7541 95.1335L68.9659 97.8187L69.0712 99.1614L69.1689 100.505C69.4321 104.087 69.6692 107.672 69.8337 111.263C69.364 107.699 68.9676 104.129 68.5966 100.556L68.4562 99.2161L68.3235 97.8756L68.0599 95.1948L67.5653 89.83L67.1101 84.462C66.9716 82.6713 66.8206 80.8819 66.6959 79.0904C66.4321 75.5084 66.1944 71.9239 66.0293 68.3328Z" fill="black"/>
<path d="M68.5338 67.857C69.3508 71.3392 70.0967 74.8355 70.8174 78.3361C71.1845 80.0851 71.5259 81.839 71.8789 83.5906L72.9002 88.8528L73.8823 94.1225L74.3573 96.7606L74.5942 98.0795L74.8235 99.3999C75.438 102.921 76.0273 106.446 76.5444 109.986C75.7262 106.504 74.9797 103.008 74.2596 99.5071L73.9883 98.1948L73.7245 96.881L73.1981 94.2526L72.1775 88.9903L71.196 83.7205C70.882 81.9614 70.5552 80.2048 70.2547 78.4431C69.6414 74.9221 69.0519 71.396 68.5338 67.857Z" fill="black"/>
<path d="M71.0371 67.3809L83.2561 108.71L71.0371 67.3809Z" fill="black"/>
<path d="M71.0371 67.3809C72.201 70.782 73.2962 74.2035 74.3662 77.6322C74.9077 79.3444 75.4241 81.0644 75.9525 82.7809L77.4994 87.9413L79.0084 93.1131L79.7472 95.7036L80.1158 96.9993L80.4769 98.297C81.4432 101.756 82.3849 105.223 83.2562 108.711C82.0911 105.31 80.996 101.889 79.926 98.4598L79.5236 97.1742L79.1288 95.8865L78.3402 93.311L76.7945 88.1503L75.2866 82.9783C74.7965 81.2502 74.2945 79.5263 73.8182 77.7944C72.8512 74.3347 71.9096 70.8683 71.0371 67.3809Z" fill="black"/>
<path d="M73.541 66.9043L89.9676 107.434L73.541 66.9043Z" fill="black"/>
<path d="M73.541 66.9043C75.0512 70.2245 76.4935 73.5721 77.9128 76.9295C78.6289 78.6055 79.3203 80.2916 80.0228 81.9726L82.0947 87.0313L84.1301 92.1049L85.1326 94.6476L85.6333 95.9194L86.1266 97.1938C87.4453 100.591 88.7405 103.999 89.967 107.434C88.4562 104.114 87.0134 100.766 85.5942 97.4093L85.061 96.151L84.535 94.8895L83.4842 92.3663L81.4129 87.3074L79.3787 82.2336C78.7125 80.5372 78.0353 78.846 77.382 77.1441C76.0639 73.7463 74.7693 70.3386 73.541 66.9043Z" fill="black"/>
<path d="M76.0449 66.4277L96.6786 106.157L76.0449 66.4277Z" fill="black"/>
<path d="M76.0449 66.4277C77.8993 69.6685 79.6899 72.9427 81.4573 76.2284C82.3474 77.8683 83.2137 79.52 84.0911 81.1665L86.6885 86.1229L89.2508 91.0981L90.517 93.5931L91.1498 94.8409L91.7755 96.0925C93.4471 99.428 95.0957 102.776 96.6792 106.157C94.8237 102.917 93.0331 99.6428 91.2657 96.357L90.6021 95.1253L89.945 93.89L88.6319 91.419L86.0356 86.4618L83.4745 81.4863C82.6323 79.8216 81.7791 78.1627 80.9497 76.4919C79.278 73.1559 77.629 69.8089 76.0449 66.4277Z" fill="black"/>
<path d="M78.5488 65.9512L103.39 104.88L78.5488 65.9512Z" fill="black"/>
<path d="M78.5488 65.9512C80.7475 69.1132 82.8842 72.3149 85.0004 75.5295C86.0639 77.1333 87.1052 78.7511 88.1574 80.3626L91.28 85.2179L94.369 90.0942L95.8995 92.5413L96.6639 93.7653L97.4219 94.9936C99.4464 98.2668 101.449 101.554 103.39 104.88C101.191 101.718 99.0531 98.5176 96.9381 95.3027L96.1434 94.0978L95.3558 92.8884L93.7817 90.4696L90.6603 85.614L87.5723 80.7369C86.5541 79.1039 85.5252 77.4783 84.5188 75.8376C82.4937 72.5639 80.4908 69.277 78.5488 65.9512Z" fill="black"/>
<path d="M47.9505 41.5443L63.7543 38.5391L64.0643 38.4801L79.868 35.4749C70.4007 25.1811 53.2407 27.8134 47.9505 41.5443Z" fill="white"/>
<path d="M80.4066 35.6534L47.5148 41.9081L47.693 41.4454C47.7322 41.343 48.6831 38.9103 50.9217 36.1783C56.9481 28.8222 66.3592 26.6824 75.1338 31.5741C78.219 33.2943 79.9958 35.2077 80.0705 35.2885L80.4066 35.6534ZM48.4111 41.1758L79.3041 35.3012C78.6391 34.6637 77.0807 33.2882 74.8486 32.0463C66.8561 27.5999 57.598 28.9128 51.3609 36.5127C49.7404 38.4872 48.7957 40.3387 48.4111 41.1758Z" fill="black"/>
<path d="M80.3291 35.6279L47.5763 41.8562L47.7295 41.4593C47.7688 41.3575 48.7171 38.9301 50.9518 36.2031C57.0205 28.7961 66.429 26.7662 75.1143 31.6084C78.1941 33.3254 79.967 35.2347 80.041 35.315L80.3291 35.6279ZM48.3443 41.2287L79.3844 35.3261C69.3701 25.6868 54.3364 28.0974 48.3443 41.2287Z" fill="white"/>
<path d="M80.8679 35.8065L47.1402 42.2201L47.4714 41.36C47.5116 41.2562 48.4773 38.7868 50.7381 36.0282C56.9944 28.3925 66.5883 26.5397 75.2484 31.3673C78.3716 33.1087 80.1694 35.0466 80.2442 35.1285L80.8679 35.8065ZM48.829 40.8556L78.7962 35.1571C68.7367 26.1481 54.9782 28.5697 48.829 40.8556Z" fill="black"/>
<path d="M47.631 42.4064C47.631 42.4064 51.3876 37.6788 63.7829 35.3217C76.1776 32.9648 80.7878 36.1013 80.7878 36.1013L47.631 42.4064Z" fill="black"/>
<path d="M98.9484 35.513C89.2829 35.1414 76.7443 36.3088 63.6421 38.8003C50.5399 41.2918 38.448 44.8081 29.5935 48.7014C20.9611 52.4968 16.3226 56.3143 16.8664 59.174C17.4102 62.0338 23.1267 63.8815 32.5491 64.2443C42.2146 64.6158 54.7532 63.4485 67.8554 60.957C80.9576 58.4655 93.0495 54.9491 101.904 51.0558C110.536 47.2604 115.175 43.443 114.631 40.5832C114.087 37.7234 108.371 35.875 98.9484 35.513Z" fill="white"/>
<path d="M98.967 35.0414C89.2668 34.6686 76.6907 35.8389 63.5546 38.3368C50.4186 40.8347 38.29 44.3623 29.4037 48.2695C20.4219 52.2185 15.8048 56.1231 16.402 59.2637C16.9992 62.4043 22.7272 64.3411 32.5315 64.7177C42.2317 65.0906 54.8079 63.9203 67.9445 61.4222C81.0806 58.9243 93.2091 55.3967 102.095 51.4896C111.077 47.5407 115.694 43.636 115.097 40.496C114.499 37.3555 108.771 35.4187 98.967 35.0414ZM101.904 51.0565C93.0497 54.9498 80.9578 58.4662 67.8556 60.9577C54.7534 63.4492 42.2147 64.6165 32.5493 64.245C23.1264 63.883 17.4105 62.0351 16.8667 59.1753C16.3229 56.3156 20.9621 52.4986 29.5938 48.7027C38.4482 44.8094 50.5402 41.2931 63.6424 38.8016C76.7446 36.3101 89.2832 35.1427 98.9487 35.5143C108.372 35.8763 114.088 37.7247 114.631 40.5845C115.175 43.4443 110.537 47.2611 101.904 51.0565Z" fill="white"/>
<path d="M67.9963 61.6929C54.8405 64.1946 42.2416 65.3668 32.5213 64.9929C27.6158 64.8044 23.7142 64.2307 20.9261 63.2875C18.0618 62.3188 16.4485 60.9822 16.1314 59.3144C15.8143 57.6467 16.8242 55.8106 19.1331 53.8582C21.3805 51.958 24.7991 49.9924 29.2929 48.0159C38.1976 44.1003 50.3473 40.5663 63.5032 38.0646C76.6591 35.5629 89.2579 34.3907 98.9783 34.7645C103.884 34.9531 107.785 35.5268 110.573 36.47C113.438 37.4387 115.051 38.7753 115.368 40.4436C115.685 42.1114 114.675 43.9469 112.366 45.8993C110.119 47.7996 106.7 49.7651 102.207 51.7416C93.3019 55.6572 81.1522 59.1912 67.9963 61.6929ZM63.6948 39.0721C50.6125 41.5599 38.5417 45.0698 29.7056 48.9548C25.4327 50.8336 22.1554 52.6998 19.9651 54.5027C17.8689 56.2277 16.8916 57.8253 17.1385 59.1235C17.3852 60.4212 18.8814 61.549 21.4638 62.3838C24.1628 63.2563 27.8964 63.7899 32.5607 63.9693C42.206 64.3398 54.7226 63.1743 67.805 60.6865C80.8873 58.1988 92.9576 54.6896 101.794 50.8039L101.905 51.0562L101.794 50.8039C106.067 48.925 109.344 47.0588 111.535 45.256C113.631 43.5309 114.608 41.9334 114.361 40.6357C114.115 39.3375 112.618 38.2102 110.036 37.3748C107.337 36.5024 103.603 35.9688 98.9391 35.7894C89.2936 35.4182 76.7766 36.5845 63.6948 39.0721Z" fill="black"/>
<path d="M68.2735 63.1507C90.4445 58.9347 107.631 51.3779 106.66 46.2721C105.689 41.1664 86.9286 40.4451 64.7575 44.6611C42.5865 48.8772 25.4004 56.434 26.3713 61.5397C27.3422 66.6455 46.1024 67.3667 68.2735 63.1507Z" fill="black"/>
<path d="M68.3167 63.3831C57.577 65.4254 47.2937 66.3822 39.3623 66.0771C31.3267 65.7682 26.6302 64.1723 26.138 61.584C25.6458 58.9956 29.4288 55.7873 36.7901 52.5505C44.056 49.3561 53.9727 46.4717 64.7125 44.4294C75.4523 42.3872 85.7355 41.4303 93.6669 41.7355C101.703 42.0444 106.399 43.6403 106.891 46.2286C107.384 48.8175 103.6 52.0253 96.2391 55.262C88.9733 58.4571 79.0565 61.3408 68.3167 63.3831ZM64.8009 44.8941C54.095 46.9299 44.2148 49.8031 36.9807 52.9836C29.9454 56.0774 26.1623 59.1799 26.6027 61.4956C27.043 63.8113 31.7004 65.3094 39.3806 65.6042C47.2773 65.9081 57.5225 64.9543 68.2284 62.9184C78.9343 60.8826 88.8144 58.0094 96.0485 54.8289C103.084 51.7352 106.867 48.6327 106.427 46.317C105.986 44.0012 101.329 42.5031 93.6486 42.2083C85.7519 41.9045 75.5068 42.8583 64.8009 44.8941Z" fill="white"/>
<path d="M68.6296 65.0247C89.5939 61.0381 105.845 53.8926 104.927 49.0648C104.009 44.2369 86.2693 43.5549 65.305 47.5415C44.3407 51.528 28.0899 58.6735 29.008 63.5014C29.9261 68.3292 47.6652 69.0112 68.6296 65.0247Z" fill="black"/>
<path d="M68.7034 65.4125C58.5357 67.346 48.7986 68.2516 41.2865 67.9629C35.8496 67.7538 29.2382 66.8233 28.6207 63.5759C28.0031 60.3285 33.8109 57.0363 38.7922 54.8461C45.674 51.8203 55.064 49.0887 65.2316 47.1553C75.3993 45.2218 85.1365 44.3162 92.6486 44.6048C98.0861 44.8138 104.697 45.7445 105.314 48.9919C105.932 52.2392 100.124 55.5314 95.1429 57.7216C88.261 60.7475 78.8711 63.479 68.7034 65.4125ZM65.3788 47.9293C42.904 52.2031 28.628 59.3937 29.3952 63.428C30.1623 67.4623 46.0813 68.9117 68.5561 64.6379C91.0309 60.3641 105.307 53.1734 104.54 49.1392C103.773 45.1049 87.8537 43.6555 65.3788 47.9293Z" fill="white"/>
<path d="M68.661 65.1915C60.5469 66.7345 52.7795 67.4573 46.79 67.2269C40.7736 66.9955 37.2621 65.8232 36.9013 63.9255C36.5404 62.0277 39.3771 59.6483 44.888 57.2249C50.3755 54.812 57.8661 52.6334 65.9796 51.0905C74.0931 49.5477 81.861 48.8248 87.8506 49.0552C93.8669 49.2866 97.3784 50.4588 97.7393 52.3566C98.1002 54.2543 95.2634 56.6337 89.7525 59.0571C84.2656 61.4699 76.7751 63.6486 68.661 65.1915ZM66.002 51.2085C49.2934 54.3857 36.2912 60.0809 37.0181 63.9039C37.7451 67.7268 51.9302 68.2521 68.6388 65.0748C85.3474 61.8975 98.3496 56.2023 97.6227 52.3794C96.8957 48.5564 82.7106 48.0312 66.002 51.2085Z" fill="black"/>
<path d="M68.7049 65.4244C60.5739 66.9706 52.7875 67.6952 46.7803 67.4639C40.5538 67.2247 37.0572 66.0164 36.6681 63.9703C36.279 61.9243 39.0881 59.5169 44.7922 57.009C50.2953 54.5895 57.8041 52.4049 65.9351 50.8588C74.0661 49.3126 81.8526 48.588 87.8592 48.8194C94.0857 49.0586 97.5823 50.2669 97.9714 52.3129C98.3605 54.359 95.5514 56.7664 89.8473 59.2743C84.3448 61.6942 76.8359 63.8782 68.7049 65.4244ZM66.0459 51.4413C49.7466 54.5408 36.5594 60.2276 37.2502 63.8602C37.9409 67.4923 52.2944 67.9426 68.5944 64.843C84.8937 61.7435 98.0808 56.0562 97.3901 52.4241C96.6993 48.7914 82.3453 48.3419 66.0459 51.4413Z" fill="white"/>
<path d="M66.5078 53.0231C53.2445 55.5452 43.027 60.4005 43.6862 63.8674C43.7183 64.0361 43.7763 64.1981 43.8574 64.3538C43.8061 64.3738 43.781 64.3847 43.7845 64.384C43.7845 64.384 48.1323 71.5316 56.1746 72.6238C60.1153 73.1585 67.9212 71.9953 69.987 71.6025C71.9496 71.2293 79.9031 69.7168 83.2102 67.4827C88.9175 63.6266 91.1579 57.6818 91.6004 55.7976C91.7395 55.4319 91.7821 55.0766 91.717 54.7345C91.0576 51.2671 79.7705 50.501 66.5078 53.0231Z" fill="white"/>
<path d="M70.0328 71.8354C68.2623 72.1721 60.2256 73.4124 56.1445 72.8584C48.7095 71.8492 44.3417 65.6586 43.6738 64.6467L43.6189 64.6571L43.5584 64.4502C43.5391 64.3837 43.5466 64.3309 43.5675 64.2882C43.5168 64.1648 43.4797 64.0394 43.4555 63.9121C42.7613 60.2614 52.8686 55.3768 66.4652 52.7913C80.0618 50.2058 91.2567 51.0401 91.9508 54.6903C92.022 55.0645 91.9811 55.4606 91.8286 55.867C91.2339 58.379 88.7029 64.0584 83.3446 67.6788C81.817 68.7108 78.2683 70.2693 70.0328 71.8354ZM44.1425 64.497C44.9792 65.7321 49.1956 71.438 56.2084 72.3896C60.2267 72.935 68.1891 71.7045 69.945 71.3706C78.1011 69.8197 81.5895 68.2938 83.0796 67.287C88.3275 63.7414 90.7986 58.1859 91.3715 55.744L91.3809 55.7138C91.5058 55.3846 91.5416 55.0705 91.4861 54.7787C90.8631 51.5021 79.4456 50.8044 66.5536 53.2559C53.6621 55.7074 43.297 60.5466 43.9202 63.8238C43.9472 63.9662 43.9972 64.1079 44.0686 64.245L44.1903 64.4777L44.1425 64.497Z" fill="white"/>
<path d="M70.0834 72.1059C68.3041 72.4443 60.2238 73.6905 56.106 73.1313C48.892 72.1521 44.5687 66.4533 43.5446 64.9514L43.4226 64.9746L43.2921 64.527C43.2695 64.4496 43.2642 64.3738 43.2757 64.3009C43.2359 64.1899 43.2046 64.0761 43.183 63.9629C42.9945 62.9716 43.4894 61.9067 44.6539 60.7974C45.7318 59.7704 47.3558 58.7297 49.4795 57.7029C53.7991 55.6149 59.8127 53.774 66.412 52.519C73.0112 51.2641 79.2802 50.7694 84.0653 51.1261C86.4176 51.3011 88.3103 51.6737 89.6899 52.2334C91.1802 52.8373 92.0316 53.6468 92.22 54.638C92.2997 55.0571 92.2564 55.4972 92.0915 55.9466C91.483 58.4944 88.9117 64.248 83.4972 67.9069C81.9494 68.9537 78.365 70.5311 70.0834 72.1059ZM44.5669 64.6245C45.7037 66.2096 49.7774 71.2385 56.2444 72.1161C60.2261 72.6563 68.1454 71.4317 69.892 71.0995C78.002 69.5574 81.4553 68.0508 82.9239 67.0585C88.1011 63.5608 90.5375 58.0869 91.1022 55.681L91.1218 55.6156C91.2288 55.3352 91.2596 55.071 91.2139 54.8305C90.9424 53.4027 88.168 52.4236 83.6028 52.1449C78.854 51.8551 72.8171 52.3456 66.6043 53.5271C60.3909 54.7086 54.5952 56.4676 50.2849 58.4806C46.1406 60.4155 43.9193 62.3446 44.1908 63.7724C44.2129 63.8886 44.2536 64.0042 44.3133 64.1175L44.5766 64.6215L44.5669 64.6245Z" fill="black"/>
<path d="M85.6227 64.6149C86.0729 66.9826 79.0721 69.9808 70.059 71.6947C61.046 73.4086 53.4332 73.1887 52.9831 70.8216C52.533 68.4545 59.4747 65.1457 68.4878 63.4318C77.5008 61.7179 85.1725 62.2478 85.6227 64.6149Z" fill="black"/>
<path d="M70.103 71.9276C65.6455 72.7752 61.4535 73.1647 58.2987 73.0255C54.909 72.8753 52.9899 72.1285 52.7499 70.8664C52.212 68.0376 60.3065 64.7473 68.4433 63.2C76.5796 61.6528 85.3169 61.743 85.8548 64.5712C86.0949 65.8339 84.5843 67.2323 81.4857 68.6163C78.6028 69.9036 74.5605 71.08 70.103 71.9276ZM68.5316 63.6641C58.9085 65.494 52.8427 68.8195 53.215 70.7774C53.6143 72.8771 60.9933 73.1778 70.0145 71.4624C79.0357 69.7469 85.7893 66.7588 85.39 64.659C85.0183 62.701 78.1552 61.8341 68.5316 63.6641Z" fill="white"/>
<path d="M70.1546 72.1991C65.6772 73.0505 61.4626 73.4418 58.2871 73.3017C54.704 73.1429 52.7497 72.3411 52.4792 70.9185C52.2014 69.458 53.8437 67.8616 57.2284 66.3028C60.1665 64.9494 64.2351 63.7202 68.3919 62.9297C72.5488 62.1393 76.7846 61.7893 80.0144 61.9699C83.735 62.1775 85.8486 63.0597 86.1263 64.5202C86.3969 65.9434 84.8738 67.4059 81.599 68.8687C78.6966 70.1646 74.6319 71.3477 70.1546 72.1991ZM68.5833 63.9361C64.1498 64.7792 60.1234 66.0173 57.2458 67.4215C54.2853 68.867 53.3625 70.0768 53.486 70.7265C53.8049 72.4036 60.5017 72.9913 69.9631 71.1921C79.4245 69.3929 85.4382 66.3888 85.1192 64.7111C84.9956 64.0608 83.6932 63.2748 80.4088 63.0169C77.2165 62.7662 73.0174 63.0929 68.5833 63.9361Z" fill="black"/>
<path d="M80.3162 65.6139C80.5919 67.0639 75.8474 68.9877 69.7636 70.1446C63.6797 71.3015 58.5602 71.2535 58.2845 69.8034C58.0087 68.3534 62.7172 66.2399 68.801 65.083C74.8848 63.9261 80.0405 64.1639 80.3162 65.6139Z" fill="white"/>
<path d="M69.8069 70.3776C64.3892 71.4078 58.4 71.6818 58.0513 69.8483C57.6983 67.9919 63.3032 65.8882 68.756 64.8513C74.2088 63.8144 80.1947 63.714 80.5477 65.5704C80.8968 67.4032 75.2247 69.3474 69.8069 70.3776ZM68.8444 65.3159C62.4891 66.5245 58.3006 68.6274 58.516 69.7599C58.7174 70.8194 63.058 71.1795 69.7185 69.913C76.3791 68.6464 80.2846 66.7188 80.083 65.6587C79.8684 64.5267 75.1996 64.1074 68.8444 65.3159Z" fill="black"/>
<path d="M91.0764 35.5247C90.4894 35.5456 89.8955 35.5715 89.2956 35.6009C89.0958 38.4339 87.7138 42.973 87.7138 42.973L89.0906 43.4606C90.3119 40.9166 90.8599 37.3762 91.0764 35.5247Z" fill="black"/>
<path d="M105.227 45.5832L105.92 47.5382C109.823 46.6557 113.738 41.9663 114.66 40.802C114.653 40.729 114.645 40.656 114.631 40.5837C114.507 39.9269 114.106 39.3245 113.453 38.7802C110.851 42.9465 105.227 45.5832 105.227 45.5832Z" fill="black"/>
<path d="M96.2055 35.4507C95.0217 35.4406 93.8007 35.4514 92.5483 35.4814C92.3152 38.5307 91.0544 42.82 91.0544 42.82L94.0866 42.7248C95.2158 40.6635 95.8884 37.3679 96.2055 35.4507Z" fill="black"/>
<path d="M112.728 38.2635C112.328 38.0166 111.868 37.7841 111.35 37.5675C110.013 39.02 106.57 42.555 103.353 44.1738L104.489 45.0816C104.489 45.081 110.852 41.3233 112.728 38.2635Z" fill="black"/>
<path d="M110.061 37.0935C107.39 36.2394 103.627 35.6932 98.949 35.5134C98.6072 35.5003 98.2609 35.4894 97.9126 35.48C97.472 37.985 96.6094 41.5375 95.1066 43.0118L102.181 43.9141C102.181 43.9135 107.228 40.3395 110.061 37.0935Z" fill="black"/>
<path d="M90.6005 35.3596L83.6062 35.7267L89.6337 36.1858L83.3182 36.7444L89.5005 37.1741L83.0304 37.7627L89.2127 38.1923L82.6167 38.9652L89.05 39.0259L82.1741 40.0123L88.9169 40.0148L81.5763 41.0895L88.6583 41.1871L81.1036 41.982L88.8941 42.427L90.6005 35.3596Z" fill="black"/>
<path d="M79.8672 35.4742L70.8228 33.5021L78.1486 34.0354L70.1224 32.3505L77.1382 32.9429L69.732 31.1407L74.4314 31.3709L69.0605 30.1445L72.6169 30.2709L76.0027 32.035L79.8672 35.4742Z" fill="black"/>
<path d="M86.0041 63.525C86.0041 63.525 90.1959 58.5539 91.0828 53.0873L89.6668 52.3936C89.6668 52.3936 87.7682 60.1393 85.0233 62.5878L86.0041 63.525Z" fill="black"/>
<path d="M88.4048 51.6703C88.4048 51.6703 86.8825 58.863 83.9749 62.145L80.0208 61.6128C80.0208 61.6128 83.3353 54.5607 83.1892 50.4144L88.4048 51.6703Z" fill="black"/>
<path d="M81.759 51.3302C81.759 51.3302 80.8647 57.6008 78.9747 61.1708C78.9747 61.1708 75.7583 61.1401 73.5891 61.5526L78.5174 60.4551L73.4124 60.6232L78.806 59.4373L73.332 59.3544L79.2197 58.2348L73.1257 58.2698L79.788 57.0029L72.7059 56.9047L79.9212 56.0141L72.4701 55.6648L80.4896 54.7822L71.895 54.3298L80.9033 53.5797L71.9988 53.1862L81.1912 52.562L72.0731 51.888L81.759 51.3302Z" fill="black"/>
<path d="M36.8431 45.8373C37.3968 45.6413 37.9587 45.4474 38.5275 45.2545C39.7532 47.8165 42.7049 51.5315 42.7049 51.5315L41.6031 52.4904C39.5327 50.5724 37.7235 47.4802 36.8431 45.8373Z" fill="black"/>
<path d="M27.3712 60.3878L27.4442 62.4607C23.4898 63.0723 18.1268 60.1473 16.8414 59.4028C16.8214 59.3322 16.8019 59.2615 16.7881 59.1891C16.6632 58.5324 16.8148 57.825 17.2222 57.0791C21.1725 59.9994 27.3712 60.3878 27.3712 60.3878Z" fill="black"/>
<path d="M32.0439 47.6513C33.1413 47.2073 34.281 46.7692 35.457 46.3375C36.7931 49.0884 39.5402 52.6155 39.5402 52.6155L36.6848 53.6399C34.8783 52.1368 33.0431 49.3182 32.0439 47.6513Z" fill="black"/>
<path d="M17.7071 56.3309C17.9887 55.9544 18.3322 55.5691 18.7338 55.1776C20.5111 56.0378 25.0115 58.0623 28.5972 58.3876L27.8742 59.6489C27.8735 59.6484 20.5761 58.4884 17.7071 56.3309Z" fill="black"/>
<path d="M19.7592 54.2653C21.9305 52.4902 25.2307 50.601 29.5158 48.7167C29.829 48.5791 30.147 48.4418 30.4676 48.3053C31.797 50.4737 33.9033 53.4616 35.8423 54.2814L29.5925 57.7175C29.5924 57.7169 23.5863 56.2448 19.7592 54.2653Z" fill="black"/>
<path d="M37.2255 45.5094L43.8664 43.2837L38.428 45.9231L44.5078 44.1246L38.9147 46.7935L45.1493 44.9662L39.5562 47.635L45.9755 45.9329L40.0135 48.3507L46.7721 46.7443L40.5003 49.2217L47.7236 47.5269L41.1711 50.2173L48.4902 48.1838L41.4069 51.4572L37.2255 45.5094Z" fill="black"/>
<path d="M48.0271 41.5293L55.7164 36.3751L49.0977 39.5602L55.9453 35.0468L49.6365 38.173L55.8649 33.778L51.578 35.717L56.1233 32.6051L52.8621 34.0279L50.3602 36.9115L48.0271 41.5293Z" fill="black"/>
<path d="M45.2543 59.8762C45.2543 59.8762 49.3103 66.0081 53.2197 67.9939L56.7025 66.0475C56.7025 66.0475 51.0308 60.7042 49.6449 56.7937L45.2543 59.8762Z" fill="black"/>
<path d="M51.3118 57.1202C51.3118 57.1202 54.4454 62.6249 57.5137 65.2519C57.5137 65.2519 60.4944 64.0428 62.6636 63.6303L57.6764 64.4184L62.4869 62.701L57.0344 63.5775L62.0959 61.4912L56.2088 62.6107L61.8903 60.4065L55.228 61.6734L61.7798 58.9825L54.7412 60.8024L61.544 57.7426L53.7603 59.8651L61.5889 56.2897L52.9347 58.8983L61.0732 55.2639L52.2933 58.0573L60.5276 54.0836L51.3118 57.1202Z" fill="black"/>
<path d="M63.9432 46.8499C63.7695 45.9369 64.3685 45.0566 65.2815 44.883C66.1945 44.7094 67.0748 45.3089 67.2483 46.2213C67.4218 47.1337 66.8224 48.0147 65.91 48.1882C64.9976 48.3617 64.1168 47.7628 63.9432 46.8499Z" fill="white"/>
<path d="M65.9533 48.4212C64.9143 48.6188 63.9076 47.9338 63.71 46.8947C63.5123 45.855 64.1974 44.8489 65.2365 44.6513C66.2761 44.4536 67.2822 45.1387 67.4798 46.1778C67.6781 47.2174 66.993 48.2235 65.9533 48.4212ZM65.3248 45.116C64.542 45.2648 64.0258 46.0235 64.1747 46.8063C64.3236 47.5897 65.0816 48.1055 65.865 47.9565C66.6484 47.8075 67.1641 47.0496 67.0152 46.2662C66.8663 45.4834 66.1082 44.967 65.3248 45.116Z" fill="black"/>
<path d="M64.8038 47.4358C64.7061 46.9221 65.0432 46.4267 65.5563 46.3291C66.07 46.2315 66.5653 46.5685 66.663 47.0822C66.7606 47.5953 66.4235 48.0907 65.9098 48.1884C65.3967 48.2859 64.9014 47.9489 64.8038 47.4358Z" fill="black"/>
<path d="M75.449 44.8772C75.2754 43.9642 75.8744 43.084 76.7873 42.9104C77.6997 42.7369 78.5807 43.3363 78.7542 44.2487C78.9278 45.1617 78.3283 46.042 77.4159 46.2155C76.5035 46.389 75.6225 45.7896 75.449 44.8772Z" fill="white"/>
<path d="M77.4592 46.4485C76.4196 46.6462 75.4134 45.9611 75.2159 44.922C75.0182 43.8824 75.7033 42.8763 76.7423 42.6787C77.782 42.481 78.7881 43.1661 78.9857 44.2052C79.1833 45.2442 78.4989 46.2508 77.4592 46.4485ZM76.8307 43.1433C76.0473 43.2923 75.5316 44.0503 75.6805 44.8337C75.8294 45.6165 76.5875 46.1328 77.3709 45.9838C78.1542 45.8349 78.6699 45.0763 78.521 44.2935C78.3721 43.5101 77.6141 42.9944 76.8307 43.1433Z" fill="black"/>
<path d="M76.3077 45.4631C76.2101 44.95 76.5471 44.4541 77.0608 44.3564C77.5739 44.2588 78.0692 44.5959 78.1669 45.1096C78.2645 45.6227 77.9275 46.1186 77.4144 46.2162C76.9006 46.3133 76.4053 45.9762 76.3077 45.4631Z" fill="black"/>
<path d="M85.7869 44.0881C85.6133 43.1752 86.2129 42.2948 87.1252 42.1213C88.0376 41.9478 88.9186 42.5472 89.0921 43.4596C89.2657 44.3726 88.6667 45.2529 87.7538 45.4265C86.8408 45.6001 85.9605 45.0011 85.7869 44.0881Z" fill="white"/>
<path d="M87.7971 45.6594C86.758 45.857 85.7513 45.172 85.5537 44.133C85.356 43.0933 86.0412 42.0872 87.0802 41.8896C88.1199 41.6919 89.126 42.377 89.3236 43.4161C89.5212 44.4552 88.8362 45.4619 87.7971 45.6594ZM87.1685 42.3537C86.3851 42.5027 85.8694 43.2612 86.0183 44.044C86.1672 44.8268 86.9252 45.3432 87.7086 45.1942C88.492 45.0452 89.0077 44.2867 88.8588 43.5039C88.71 42.7211 87.9513 42.2048 87.1685 42.3537Z" fill="black"/>
<path d="M86.6456 44.674C86.5479 44.1604 86.885 43.665 87.3987 43.5673C87.9118 43.4697 88.4071 43.8068 88.5048 44.3205C88.6024 44.8336 88.2653 45.329 87.7522 45.4265C87.2385 45.5242 86.7432 45.1872 86.6456 44.674Z" fill="black"/>
<path d="M94.3826 44.2737C94.209 43.3607 94.808 42.4805 95.7209 42.3068C96.6339 42.1332 97.5143 42.7328 97.6878 43.6452C97.8614 44.5582 97.2618 45.4385 96.3495 45.612C95.4371 45.7855 94.5562 45.1867 94.3826 44.2737Z" fill="white"/>
<path d="M96.3947 45.845C95.3551 46.0427 94.349 45.3576 94.1514 44.3185C93.9537 43.2789 94.6388 42.2727 95.6779 42.0752C96.7169 41.8776 97.7236 42.5626 97.9212 43.6016C98.1188 44.6407 97.4338 45.6474 96.3947 45.845ZM95.7661 42.5392C94.9827 42.6882 94.467 43.4462 94.616 44.2296C94.7649 45.013 95.5229 45.5287 96.3063 45.3797C97.0891 45.2309 97.6054 44.4728 97.4565 43.6894C97.307 42.9067 96.5489 42.3904 95.7661 42.5392Z" fill="black"/>
<path d="M95.2432 44.8596C95.1456 44.3459 95.4826 43.8505 95.9957 43.753C96.5094 43.6553 97.0048 43.9923 97.1025 44.506C97.2 45.0192 96.863 45.5145 96.3493 45.6122C95.8362 45.7098 95.3409 45.3733 95.2432 44.8596Z" fill="black"/>
<path d="M100.269 45.4006C100.096 44.4882 100.695 43.6073 101.608 43.4338C102.521 43.2602 103.401 43.8591 103.575 44.7721C103.748 45.6851 103.149 46.5654 102.236 46.739C101.324 46.9125 100.443 46.3136 100.269 45.4006Z" fill="white"/>
<path d="M102.281 46.9719C101.242 47.1696 100.236 46.4845 100.038 45.4455C99.8405 44.4064 100.526 43.3997 101.565 43.2021C102.604 43.0044 103.61 43.6895 103.808 44.7286C104.006 45.7677 103.321 46.7744 102.281 46.9719ZM101.653 43.6662C100.869 43.8152 100.354 44.5737 100.503 45.3565C100.652 46.1399 101.41 46.6556 102.193 46.5067C102.976 46.3578 103.492 45.5998 103.343 44.8164C103.194 44.0336 102.436 43.5173 101.653 43.6662Z" fill="black"/>
<path d="M102.237 46.7396C102.75 46.642 103.087 46.1465 102.99 45.6329C102.892 45.1193 102.397 44.7821 101.883 44.8798C101.369 44.9775 101.032 45.473 101.13 45.9865C101.228 46.5001 101.723 46.8373 102.237 46.7396Z" fill="black"/>
<path d="M104.416 48.6268C104.258 47.7996 104.802 47.0014 105.629 46.8441C106.456 46.6868 107.254 47.23 107.411 48.0571C107.569 48.8843 107.026 49.6826 106.198 49.8399C105.371 49.9967 104.573 49.454 104.416 48.6268Z" fill="white"/>
<path d="M106.242 50.0728C105.288 50.2542 104.364 49.6261 104.183 48.6716C104.001 47.7178 104.63 46.7938 105.584 46.6124C106.538 46.431 107.462 47.0597 107.643 48.0136C107.824 48.9674 107.196 49.8913 106.242 50.0728ZM105.672 47.077C104.975 47.2097 104.514 47.8851 104.647 48.5827C104.78 49.2803 105.455 49.7404 106.153 49.6076C106.851 49.4749 107.311 48.7995 107.178 48.1014C107.046 47.4038 106.37 46.9443 105.672 47.077Z" fill="black"/>
<path d="M105.195 49.1568C105.107 48.6916 105.412 48.2427 105.877 48.1543C106.343 48.0658 106.792 48.3712 106.88 48.8364C106.968 49.3017 106.663 49.7505 106.198 49.839C105.733 49.9274 105.284 49.622 105.195 49.1568Z" fill="black"/>
<path d="M55.0472 48.7565C54.8736 47.8435 53.9927 47.2447 53.0803 47.4182C52.1673 47.5918 51.5685 48.4726 51.742 49.385C51.9156 50.298 52.7964 50.8968 53.7088 50.7233C54.6218 50.5497 55.2207 49.6689 55.0472 48.7565Z" fill="white"/>
<path d="M53.7522 50.9563C52.7125 51.154 51.7064 50.4689 51.5088 49.4298C51.3111 48.3902 51.9962 47.3841 53.0353 47.1865C54.075 46.9888 55.0811 47.6739 55.2787 48.713C55.4762 49.752 54.7918 50.7586 53.7522 50.9563ZM53.1237 47.6512C52.3409 47.8 51.8245 48.5581 51.9735 49.3415C52.1223 50.1243 52.881 50.6405 53.6638 50.4917C54.4466 50.3428 54.9629 49.5841 54.814 48.8013C54.665 48.0179 53.9071 47.5022 53.1237 47.6512Z" fill="black"/>
<path d="M54.4624 49.6173C54.3649 49.1041 53.8694 48.7665 53.3557 48.8642C52.842 48.9619 52.5049 49.4572 52.6026 49.9709C52.7002 50.484 53.1957 50.8217 53.7094 50.724C54.2229 50.6257 54.56 50.1304 54.4624 49.6173Z" fill="black"/>
<path d="M45.1409 51.817C44.9673 50.9041 44.0865 50.3052 43.1741 50.4787C42.2611 50.6523 41.6622 51.5332 41.8357 52.4456C42.0094 53.3585 42.8896 53.9575 43.8026 53.7839C44.715 53.6104 45.3145 52.73 45.1409 51.817Z" fill="white"/>
<path d="M43.8459 54.0169C42.8069 54.2145 41.8002 53.5295 41.6026 52.4904C41.4049 51.4507 42.09 50.4446 43.1291 50.247C44.1687 50.0493 45.1748 50.7345 45.3724 51.7735C45.5706 52.8125 44.8856 53.8192 43.8459 54.0169ZM43.2173 50.7111C42.4345 50.86 41.9183 51.6186 42.0671 52.4014C42.216 53.1842 42.9741 53.7006 43.7575 53.5516C44.5408 53.4027 45.0565 52.6441 44.9076 51.8613C44.7594 51.0784 44.0007 50.5621 43.2173 50.7111Z" fill="black"/>
<path d="M44.555 52.678C44.4573 52.1643 43.962 51.8273 43.4489 51.9248C42.9357 52.0224 42.5987 52.5178 42.6964 53.0315C42.7939 53.5446 43.2893 53.8816 43.8024 53.7841C44.3155 53.6865 44.6526 53.1911 44.555 52.678Z" fill="black"/>
<path d="M37.2132 55.1452C37.0396 54.2322 36.1593 53.6332 35.2463 53.8068C34.3334 53.9805 33.7345 54.8613 33.908 55.7737C34.0816 56.6867 34.9619 57.2856 35.8748 57.112C36.7878 56.9384 37.3868 56.0582 37.2132 55.1452Z" fill="white"/>
<path d="M35.9182 57.345C34.8785 57.5427 33.8724 56.8576 33.6748 55.8185C33.4771 54.7789 34.1623 53.7727 35.2013 53.5752C36.2404 53.3776 37.2471 54.0626 37.4447 55.1016C37.6423 56.1407 36.9573 57.1474 35.9182 57.345ZM35.2896 54.0392C34.5062 54.1882 33.9904 54.9462 34.1394 55.7296C34.2884 56.513 35.0469 57.0286 35.8297 56.8797C36.6125 56.7309 37.1289 55.9728 36.9799 55.1894C36.831 54.4066 36.0724 53.8904 35.2896 54.0392Z" fill="black"/>
<path d="M36.6265 56.0059C36.5288 55.4922 36.0334 55.1552 35.5198 55.2529C35.0061 55.3505 34.669 55.8459 34.7667 56.3596C34.8642 56.8727 35.3596 57.2098 35.8733 57.1121C36.387 57.0144 36.7242 56.5196 36.6265 56.0059Z" fill="black"/>
<path d="M32.1507 58.3542C31.9772 57.4418 31.0962 56.8423 30.1838 57.0158C29.2709 57.1894 28.6719 58.0697 28.8455 58.9827C29.0191 59.8956 29.8999 60.4945 30.8123 60.321C31.7247 60.1475 32.3243 59.2671 32.1507 58.3542Z" fill="white"/>
<path d="M30.8557 60.554C29.816 60.7517 28.8099 60.0666 28.6123 59.0275C28.4148 57.9884 29.0998 56.9817 30.1388 56.7841C31.1779 56.5866 32.1846 57.2716 32.3822 58.3106C32.5798 59.3497 31.8948 60.3564 30.8557 60.554ZM30.2271 57.2482C29.4437 57.3972 28.928 58.1557 29.0769 58.9385C29.2259 59.7219 29.9844 60.2376 30.7672 60.0887C31.55 59.9399 32.0664 59.1818 31.9174 58.3984C31.7685 57.6156 31.0099 57.0994 30.2271 57.2482Z" fill="black"/>
<path d="M31.5634 59.215C31.4658 58.7019 30.9704 58.3643 30.4567 58.462C29.9436 58.5595 29.6065 59.0549 29.7042 59.5686C29.8017 60.0817 30.2972 60.4193 30.8103 60.3218C31.3239 60.2235 31.661 59.7281 31.5634 59.215Z" fill="black"/>
<path d="M29.4779 62.8755C29.3206 62.0483 28.5223 61.5051 27.6952 61.6624C26.868 61.8197 26.3248 62.618 26.4821 63.4452C26.6394 64.2723 27.4377 64.8155 28.2648 64.6582C29.0919 64.5003 29.6352 63.7026 29.4779 62.8755Z" fill="white"/>
<path d="M28.3082 64.8912C27.3543 65.0726 26.4304 64.4444 26.2489 63.49C26.0676 62.5361 26.6963 61.6121 27.6501 61.4307C28.604 61.2494 29.528 61.8781 29.7094 62.832C29.8908 63.7858 29.262 64.7098 28.3082 64.8912ZM27.7385 61.8954C27.0409 62.0281 26.5814 62.7034 26.7141 63.4009C26.8467 64.0985 27.5221 64.5586 28.2197 64.426C28.9173 64.2933 29.3774 63.6179 29.2446 62.9197C29.112 62.2221 28.4361 61.7628 27.7385 61.8954Z" fill="black"/>
<path d="M28.9464 63.6568C28.858 63.1915 28.4092 62.8861 27.9439 62.9746C27.4787 63.0631 27.1733 63.5119 27.2617 63.9771C27.3502 64.4424 27.799 64.7477 28.2643 64.6593C28.7295 64.5708 29.0349 64.122 28.9464 63.6568Z" fill="black"/>
<path d="M51.8395 70.0225C51.8395 70.0225 46.1157 66.9369 43.2841 62.1774L44.3467 61.0124C44.3467 61.0124 48.9558 67.5206 52.4079 68.7906L51.8395 70.0225Z" fill="black"/>
</g>
<defs>
<clipPath id="clip0_523_51365">
<rect width="118.841" height="118.841" fill="white" transform="translate(0 22.2012) rotate(-10.7668)"/>
</clipPath>
</defs>
</svg>
