<svg aria-hidden="true" style="position:absolute;width:0;height:0;overflow:hidden" xmlns="http://www.w3.org/2000/svg"><defs><symbol id="icon-arrow-down" viewBox="0 0 32 32"><path fill="none" stroke="#c2c6cb" style="stroke:var(--color1, #c2c6cb)" stroke-linejoin="round" stroke-linecap="round" stroke-width="2" d="M15.334 25.333V6.666M20.667 20l-5.333 5.333M10 20l5.333 5.333"/></symbol><symbol id="icon-arrow-left" viewBox="0 0 32 32"><path fill="#0E1012" stroke="#c2c6cb" style="stroke:var(--color1, #c2c6cb)" stroke-linejoin="round" stroke-linecap="round" stroke-width="2" d="M6 16h18.667M11.333 21.333 6 16M11.333 10.667 6 16"/></symbol><symbol id="icon-arrow-right" viewBox="0 0 32 32"><path fill="none" stroke="#c2c6cb" style="stroke:var(--color1, #c2c6cb)" stroke-linejoin="round" stroke-linecap="round" stroke-width="2" d="M6.667 16h18.667M20 21.333 25.333 16M20 10.667 25.333 16"/></symbol><symbol id="icon-arrow-up" viewBox="0 0 32 32"><path fill="none" stroke="#c2c6cb" style="stroke:var(--color1, #c2c6cb)" stroke-linejoin="round" stroke-linecap="round" stroke-width="2" d="M15.334 25.333V6.666M10 11.333 15.333 6M20.667 11.333 15.334 6"/></symbol><symbol id="icon-burger" viewBox="0 0 32 32"><path fill="none" stroke="#c2c6cb" style="stroke:var(--color1, #c2c6cb)" stroke-linejoin="round" stroke-linecap="round" stroke-width="1.5" d="M6 8h20M6 16h20M6 24h20"/></symbol><symbol id="icon-chevrone-down" viewBox="0 0 32 32"><path fill="none" stroke="#c2c6cb" style="stroke:var(--color1, #c2c6cb)" stroke-linejoin="round" stroke-linecap="round" stroke-width="2" d="m8 12 8 8 8-8"/></symbol><symbol id="icon-chevrone-left" viewBox="0 0 32 32"><path fill="none" stroke="#c2c6cb" style="stroke:var(--color1, #c2c6cb)" stroke-linejoin="round" stroke-linecap="round" stroke-width="2" d="m20 24-8-8 8-8"/></symbol><symbol id="icon-chevrone-right" viewBox="0 0 32 32"><path fill="none" stroke="#c2c6cb" style="stroke:var(--color1, #c2c6cb)" stroke-linejoin="round" stroke-linecap="round" stroke-width="2" d="m12 24 8-8-8-8"/></symbol><symbol id="icon-chevrone-up" viewBox="0 0 32 32"><path fill="none" stroke="#c2c6cb" style="stroke:var(--color1, #c2c6cb)" stroke-linejoin="round" stroke-linecap="round" stroke-width="2" d="m8 20 8-8 8 8"/></symbol><symbol id="icon-circle" viewBox="0 0 32 32"><path fill="#c2c6cb" style="fill:var(--color1, #c2c6cb)" d="M20 16a4 4 0 1 1-8 0 4 4 0 0 1 8 0z"/></symbol><symbol id="icon-close" viewBox="0 0 32 32"><path fill="none" stroke="#c2c6cb" style="stroke:var(--color1, #c2c6cb)" stroke-linejoin="round" stroke-linecap="round" stroke-width="1.5" d="M24 8 8 24M8 8l16 16"/></symbol><symbol id="icon-delete" viewBox="0 0 32 32"><path fill="none" stroke="#c2c6cb" style="stroke:var(--color1, #c2c6cb)" stroke-linejoin="round" stroke-linecap="round" stroke-width="2" d="M5.333 9.333h21.333M13.334 14.667v8M18.666 14.667v8M6.667 9.333l1.333 16A2.67 2.67 0 0 0 10.667 28h10.667a2.67 2.67 0 0 0 2.667-2.667l1.333-16"/><path fill="none" stroke="#c2c6cb" style="stroke:var(--color1, #c2c6cb)" stroke-linejoin="round" stroke-linecap="round" stroke-width="2" d="M12 9.333v-4a1.335 1.335 0 0 1 1.334-1.334h5.333a1.335 1.335 0 0 1 1.334 1.334v4"/></symbol><symbol id="icon-dots-horizontal" viewBox="0 0 32 32"><path fill="#c2c6cb" style="fill:var(--color1, #c2c6cb);stroke:var(--color1, #c2c6cb)" stroke="#c2c6cb" stroke-linejoin="round" stroke-linecap="round" stroke-width="2" d="M6.666 17.333a1.333 1.333 0 1 0 0-2.667 1.333 1.333 0 0 0 0 2.667zM16 17.333a1.333 1.333 0 1 0 0-2.667 1.333 1.333 0 0 0 0 2.667zM25.333 17.333a1.333 1.333 0 1 0 0-2.667 1.333 1.333 0 0 0 0 2.667z"/></symbol><symbol id="icon-facebook" viewBox="0 0 32 32"><path fill="none" stroke="#c2c6cb" style="stroke:var(--color1, #c2c6cb)" stroke-linejoin="round" stroke-linecap="round" stroke-width="1.454" d="M24 2.667h-4a6.67 6.67 0 0 0-6.667 6.667v4h-4v5.333h4v10.667h5.333V18.667h4l1.333-5.333h-5.333v-4A1.335 1.335 0 0 1 20 8h4V2.667z"/></symbol><symbol id="icon-filter" viewBox="0 0 32 32"><path fill="none" stroke="#c2c6cb" style="stroke:var(--color1, #c2c6cb)" stroke-linejoin="round" stroke-linecap="round" stroke-width="1.5" d="M7.333 6.667h17.333a1.332 1.332 0 0 1 .667 2.001l-6.667 7.333v9.333l-5.333-4v-5.333L6.666 8.668a1.333 1.333 0 0 1 .158-1.678c.143-.145.317-.255.509-.323z"/></symbol><symbol id="icon-instagram" viewBox="0 0 32 32"><path fill="none" stroke="#c2c6cb" style="stroke:var(--color1, #c2c6cb)" stroke-linejoin="round" stroke-linecap="round" stroke-width="1.454" d="M21.333 5.333H10.666a5.333 5.333 0 0 0-5.333 5.333v10.667a5.333 5.333 0 0 0 5.333 5.333h10.667a5.333 5.333 0 0 0 5.333-5.333V10.666a5.333 5.333 0 0 0-5.333-5.333z"/><path fill="none" stroke="#c2c6cb" style="stroke:var(--color1, #c2c6cb)" stroke-linejoin="round" stroke-linecap="round" stroke-width="1.454" d="M16 20a4 4 0 1 0 0-8 4 4 0 0 0 0 8zM22 10v.001"/></symbol><symbol id="icon-minus" viewBox="0 0 32 32"><path fill="none" stroke="#c2c6cb" style="stroke:var(--color1, #c2c6cb)" stroke-linejoin="round" stroke-linecap="round" stroke-width="1.333" d="M6.667 16h18.667"/></symbol><symbol id="icon-plus" viewBox="0 0 32 32"><path fill="none" stroke="#c2c6cb" style="stroke:var(--color1, #c2c6cb)" stroke-linejoin="round" stroke-linecap="round" stroke-width="2" d="M16 6.667v18.667M6.667 16h18.667"/></symbol><symbol id="icon-sale" viewBox="0 0 32 32"><path fill="none" stroke="#c2c6cb" style="stroke:var(--color1, #c2c6cb)" stroke-linejoin="round" stroke-linecap="round" stroke-width="1.333" d="m5.333 25.333 20-20"/><path fill="#c2c6cb" style="fill:var(--color1, #c2c6cb);stroke:var(--color1, #c2c6cb)" stroke="#c2c6cb" stroke-linejoin="round" stroke-linecap="round" stroke-width="1.333" d="M7 8.667a1.667 1.667 0 1 0 0-3.334 1.667 1.667 0 0 0 0 3.334zM23.667 25.333a1.667 1.667 0 1 0 0-3.333 1.667 1.667 0 0 0 0 3.333z"/></symbol><symbol id="icon-search" viewBox="0 0 32 32"><path fill="none" stroke="#c2c6cb" style="stroke:var(--color1, #c2c6cb)" stroke-linejoin="round" stroke-linecap="round" stroke-width="1.333" d="M13.333 22.667a9.333 9.333 0 1 0 0-18.666 9.333 9.333 0 1 0 0 18.666zM28 28l-8-8"/></symbol><symbol id="icon-size-plus" viewBox="0 0 32 32"><path fill="none" stroke="#c2c6cb" style="stroke:var(--color1, #c2c6cb)" stroke-linejoin="round" stroke-linecap="round" stroke-width="1.333" d="M13.333 22.667a9.333 9.333 0 1 0 0-18.666 9.333 9.333 0 1 0 0 18.666zM9.333 13.333h8M13.333 9.333v8M28 28l-8-8"/></symbol><symbol id="icon-sort" viewBox="0 0 32 32"><path fill="none" stroke="#c2c6cb" style="stroke:var(--color1, #c2c6cb)" stroke-linejoin="round" stroke-linecap="round" stroke-width="1.5" d="m4 12 5.333-5.333m0 0L14.666 12M9.333 6.667v18.667M28 20l-5.333 5.333m0 0L17.334 20m5.333 5.333V6.666"/></symbol><symbol id="icon-Star" viewBox="0 0 32 32"><path d="m25.544 19.969-8.993-3.49 8.993-3.482c1.003-.39 1.42-1.576.884-2.508s-1.777-1.161-2.618-.491l-7.599 6.057-.009-.051 1.53-9.988C17.902 4.957 17.077 4 15.998 4s-1.896.957-1.734 2.016l1.53 9.988-.008.051-7.599-6.057a1.763 1.763 0 0 0-2.618.491 1.75 1.75 0 0 0 .884 2.508l8.993 3.482-8.993 3.49c-1.003.39-1.42 1.576-.884 2.508s1.777 1.161 2.618.491l7.455-5.939-1.377 8.954a1.755 1.755 0 0 0 1.734 2.016 1.75 1.75 0 0 0 1.734-2.016l-1.377-8.954 7.455 5.939a1.763 1.763 0 0 0 2.618-.491 1.745 1.745 0 0 0-.884-2.508z"/></symbol><symbol id="icon-telegram" viewBox="0 0 32 32"><path fill="none" stroke="#c2c6cb" style="stroke:var(--color1, #c2c6cb)" stroke-linejoin="round" stroke-linecap="round" stroke-width="1.454" d="m20 13.333-5.333 5.333 8 8L28 5.333 4 14.666l5.333 2.667 2.667 8L16 20"/></symbol><symbol id="icon-user" viewBox="0 0 32 32"><path fill="none" stroke="#c2c6cb" style="stroke:var(--color1, #c2c6cb)" stroke-linejoin="round" stroke-linecap="round" stroke-width="1.5" d="M16 14.667a5.333 5.333 0 1 0 0-10.666 5.333 5.333 0 0 0 0 10.666zM8 28v-2.667A5.332 5.332 0 0 1 13.333 20h5.333a5.332 5.332 0 0 1 5.333 5.333V28"/></symbol><symbol id="icon-ware" viewBox="0 0 32 32"><path fill="#c2c6cb" style="fill:var(--color1, #c2c6cb)" d="M6 0h20a6 6 0 0 1 6 6v20a6 6 0 0 1-6 6H6a6 6 0 0 1-6-6V6a6 6 0 0 1 6-6z"/><path fill="#adb4c8" style="fill:var(--color2, #adb4c8)" d="M6.586 23.919a2 2 0 1 0 2.828 2.828l-2.828-2.828zM26.748 9.414a2 2 0 1 0-2.828-2.828l2.828 2.828zM9.414 26.748 26.747 9.415l-2.828-2.828L6.586 23.92l2.828 2.828z"/></symbol></defs></svg>